<svg version="1.2" xmlns="http://www.w3.org/2000/svg" viewBox="0 0 192 57" width="192" height="57"><style>.a{opacity:.3;fill:#051e28}.b{fill:#f7f1e5}</style><path class="a" d="m192 56.3c-6.8-4.8-14.7-8.2-23.3-9.7-9.1-14-24.9-23.3-42.9-23.3-3.9 0-7.6 0.5-11.2 1.3-5.7-7.6-14.7-12.4-24.8-12.4-11.3 0-21.1 5.9-26.6 14.9-8.1 2.4-15.1 7.4-20.1 14q-2.2-0.2-4.4-0.2c-15 0-28.6 5.9-38.7 15.4z"/><path class="b" d="m192 44.3c-6.8-4.8-14.7-8.2-23.3-9.7-9.1-14-24.9-23.3-42.9-23.3-3.9 0-7.6 0.5-11.2 1.3-5.7-7.6-14.7-12.4-24.8-12.4-11.3 0-21.1 5.9-26.6 14.9-8.1 2.4-15.1 7.4-20.1 14q-2.2-0.2-4.4-0.2c-15 0-28.6 5.9-38.7 15.4z"/></svg>