<svg version="1.2" xmlns="http://www.w3.org/2000/svg" viewBox="0 0 1500 484" width="1500" height="484"><style>.a{fill:#044354}</style><path class="a" d="m100.3 396.7c11.2 4.5 23.5 7 36.3 7 54.3 0 98.2-44 98.2-98.2 0-7.5-0.8-14.7-2.4-21.7 56.7-15.7 99.3-65.2 104.8-125.5 26.7-10 47.8-31.5 57.4-58.4 5.7 0.7 11.5 1.1 17.4 1.1 64.6 0 119.2-42.5 137.5-101h-549.5v429.8q4 0.2 8.1 0.2c35.1 0 67.2-12.5 92.2-33.3z"/><path class="a" d="m934.1 0c23.2 41.3 67.3 69.2 118 69.2 12.7 0 25.1-1.8 36.8-5.1 10.9 34.6 43.2 59.7 81.5 59.7 14.9 0 29-3.9 41.2-10.6 11.8 13.2 26.1 24 42.2 31.8-12.2 20.3-19.2 44.1-19.2 69.5 0 74.7 60.5 135.2 135.2 135.2q3.5 0 6.9-0.2c14.4 38.4 47.4 67.6 88.1 76.8 6.3 22.3 18.6 41.9 35.2 57.1v-483.4z"/></svg>