<svg version="1.2" xmlns="http://www.w3.org/2000/svg" viewBox="0 0 1500 510" width="1500" height="510"><style>.a{fill:#044354}</style><path class="a" d="m1333 196.4c-15.5-5.4-32-8.3-49.3-8.3-59.4 0-110.7 34.6-134.8 84.9-36.4-33.4-84.9-53.8-138.1-53.8-92.2 0-170.2 61.1-195.6 145q-11.2-1.1-22.6-1.1c-24.1 0-47.4 3.7-69.3 10.5-29.4-44.9-80.1-74.6-137.8-74.6-24.4 0-47.6 5.4-68.5 14.9-24-9.3-50-14.4-77.3-14.4-28.5 0-55.7 5.6-80.6 15.7-18.8-17.2-43.9-27.8-71.4-27.8-10.5 0-20.7 1.6-30.3 4.4-27.6-49.9-75.5-87.1-132.6-100.4q0-1.4 0-2.8c0-84.7-51.5-157.3-124.8-188.3v509.4l1500 0.3v-417.5c-69.5 9.4-129.5 48.4-167 103.9z"/></svg>