<svg version="1.2" xmlns="http://www.w3.org/2000/svg" viewBox="0 0 614 522" width="614" height="522"><style>.a{fill:#f4d3a6}</style><path fill-rule="evenodd" class="a" d="m436.1 220.4v19.4l-1.9 0.6v169.7h-26.1v-169.7l-1.9-0.6v-19.4l1.3-1.3c0-13 9.4-16.2 9.4-16.2v-1.4h1.5v-1.3h1.3l1.4-21.7 1.5 21.7h1.3v1.3h1.5v1.4c0 0 9.4 3.2 9.4 16.2zm-10.7 37.3c3.6-5.1-4.2-11.8-4.2-11.8 0 0-7.8 6.7-4.2 11.8h-1v8.2h10.3v-8.2z"/><path fill-rule="evenodd" class="a" d="m495.6 266v19.4l-1.9 0.7v169.6h-26.1v-169.6l-1.9-0.7v-19.4l1.3-1.3c0-13 9.4-16.1 9.4-16.1v-1.5h1.5v-1.3h1.3l1.4-21.7 1.5 21.7h1.3v1.3h1.5v1.5c0 0 9.4 3.1 9.4 16.1zm-10.7 37.3c3.6-5.1-4.2-11.8-4.2-11.8 0 0-7.8 6.7-4.2 11.8h-1v8.3h10.3v-8.3z"/><path fill-rule="evenodd" class="a" d="m179.2 219.1c0-13 9.4-16.2 9.4-16.2v-1.4h1.5v-1.3h1.3l1.5-21.7 1.4 21.7h1.3v1.3h1.5v1.4c0 0 9.4 3.2 9.4 16.2l1.3 1.3v19.4l-1.9 0.6v169.7h-26.1v-169.7l-1.9-0.6v-19.4zm8.5 38.5v8.3h10.3v-8.3h-0.9c3.6-5.1-4.2-11.8-4.2-11.8 0 0-7.8 6.7-4.2 11.8z"/><path fill-rule="evenodd" class="a" d="m119.7 264.7c0-13 9.4-16.1 9.4-16.1v-1.5h1.5v-1.3h1.3l1.5-21.7 1.4 21.7h1.3v1.3h1.5v1.5c0 0 9.4 3.1 9.4 16.1l1.3 1.3v19.4l-1.9 0.7v169.6h-26.1v-169.6l-1.9-0.7v-19.4zm8.5 38.6v8.2h10.3v-8.2h-0.9c3.6-5.2-4.2-11.8-4.2-11.8 0 0-7.8 6.6-4.2 11.8z"/><path fill-rule="evenodd" class="a" d="m597.6 380v21.2l-2 0.8v105.4h-28.5v-105.4l-2.1-0.8v-21.2l1.4-1.3c0-14.2 10.3-17.7 10.3-17.7v-1.6h1.7v-1.4h1.3l1.6-23.6 1.7 23.6h1.3v1.4h1.7v1.6c0 0 10.2 3.5 10.2 17.7zm-11.7 40.7c4-5.6-4.6-12.9-4.6-12.9 0 0-8.5 7.3-4.5 12.9h-1.1v9h11.3v-9z"/><path fill-rule="evenodd" class="a" d="m49 380v21.2l-2.1 0.8v105.4h-28.5v-105.4l-2-0.8v-21.2l1.4-1.3c0-14.2 10.2-17.7 10.2-17.7v-1.6h1.7v-1.4h1.3l1.7-23.6 1.6 23.6h1.3v1.4h1.7v1.6c0 0 10.3 3.5 10.3 17.7zm-11.7 40.7c3.9-5.6-4.6-12.9-4.6-12.9 0 0-8.6 7.3-4.6 12.9h-1.1v9h11.3v-9z"/><path class="a" d="m388 124.1c-22.6-37.6-58.9-46.9-58.9-46.9l-1.6-2.8h-4.1l-0.6-1.9h-5.7v-2.3h-5.6l-4.5-46.7-4.5 46.7h-5.6v2.3h-5.7l-0.6 1.9h-4.1l-1.6 2.8c0 0-36.3 9.3-58.9 46.9-22.5 37.6-4.7 88.6-4.7 88.6l-3.1 3.2v14.5l2.3 0.9v290.7h86.5 86.5v-290.7l2.3-0.9v-14.5l-3.1-3.2c0 0 17.8-51-4.7-88.6z"/><path class="a" d="m500.6 499.6v-97h-387.2v97h-113.3v7.8h613.8v-7.8z"/><path class="a" d="m313.8 22.8c-7.7 1.4-15.2-3.8-16.7-11.5-0.7-3.9 0.3-7.7 2.3-10.7-6.1 3.2-9.6 10.1-8.3 17.2 1.6 8.9 10.1 14.7 18.9 13.1 7.2-1.3 12.5-7.3 13.2-14.3-2.1 3.1-5.4 5.4-9.4 6.2z"/></svg>