<svg version="1.2" xmlns="http://www.w3.org/2000/svg" viewBox="0 0 750 371" width="750" height="371"><style>.a{fill:#db7700}.b{fill:#ce6f06}.c{fill:#b24f0b}.d{fill:#e58925}.e{fill:#e79724}.f{fill:#e27227}.g{fill:#d35618}.h{fill:#e5a525}.i{fill:#bc4c1b}.j{fill:#a83d18}</style><path fill-rule="evenodd" class="a" d="m259 132.3v33.7l-3.2 1.3v168h-45.6v-168l-3.2-1.3v-33.7l2.2-2.2c0-22.6 16.3-28.1 16.3-28.1v-2.6h2.8v-2.3h2.1l2.6-37.6 2.6 37.6h2.1v2.3h2.7v2.6c0 0 16.4 5.5 16.4 28.1zm-18.7 64.9c6.3-8.9-7.3-20.6-7.3-20.6 0 0-13.6 11.7-7.4 20.6h-1.6v14.4h17.9v-14.4z"/><path class="b" d="m231.3 97.1v2.3h-1.2v2.6c0 0-7.2 5.3-7.2 28.1h33.9c0-22.6-16.4-28.1-16.4-28.1v-2.6h-2.7v-2.3h-2.1l-2.6-37.6v37.6z"/><path class="c" d="m207 166h52l-3.2 1.3h-45.6z"/><path class="c" d="m225.5 102h14.9v-2.6h-14.9z"/><path class="d" d="m207 132.3h52l-2.2-2.2h-47.6z"/><path fill-rule="evenodd" class="a" d="m200.6 169.1v28.8l-2.7 1v143.3h-38.9v-143.3l-2.7-1v-28.8l1.9-1.9c0-19.3 13.9-24 13.9-24v-2.1h2.3v-2h1.9l2.1-32.1 2.2 32.1h1.9v2h2.3v2.1c0 0 13.9 4.7 13.9 24zm-15.9 55.4c5.3-7.6-6.2-17.6-6.2-17.6 0 0-11.6 10-6.3 17.6h-1.4v12.2h15.3v-12.2z"/><path class="b" d="m177 139.1v2h-1v2.1c0 0-6.2 4.6-6.2 24h28.9c0-19.3-13.9-24-13.9-24v-2.1h-2.3v-2h-1.9l-2.2-32.1v32.1z"/><path class="c" d="m156.3 197.9h44.3l-2.7 1h-38.9z"/><path class="c" d="m172.1 143.2h12.7v-2.1h-12.7z"/><path class="d" d="m156.3 169.1h44.3l-1.9-1.9h-40.5z"/><path class="a" d="m268.9 316h-13.1v19.3h-81.2v5.2h-24.9v4.9h-28.6v11h147.8z"/><path fill-rule="evenodd" class="a" d="m493.2 130.1c0-22.6 16.4-28.1 16.4-28.1v-2.6h2.7v-2.3h2.1l2.6-37.6 2.6 37.6h2.1v2.3h2.8v2.6c0 0 16.3 5.5 16.3 28.1l2.2 2.2v33.7l-3.2 1.3v168h-45.6v-168l-3.2-1.3v-33.7zm14.8 67.1v14.4h18v-14.4h-1.7c6.3-8.9-7.3-20.5-7.3-20.5 0 0-13.6 11.6-7.3 20.5z"/><path class="b" d="m518.7 97.1v2.3h1.2v2.6c0 0 7.2 5.3 7.2 28.1h-33.9c0-22.6 16.4-28.1 16.4-28.1v-2.6h2.7v-2.3h2.1l2.6-37.6v37.6z"/><path class="c" d="m543 166h-52l3.2 1.3h45.6z"/><path class="c" d="m524.5 102h-14.9v-2.6h14.9z"/><path class="d" d="m543 132.3h-52l2.2-2.2h47.6z"/><path fill-rule="evenodd" class="a" d="m551.3 167.2c0-19.3 13.9-24 13.9-24v-2.1h2.3v-2h1.9l2.2-32.1 2.1 32.1h1.9v2h2.3v2.1c0 0 13.9 4.7 13.9 24l1.9 1.9v28.8l-2.7 1v143.3h-38.9v-143.3l-2.7-1v-28.8zm12.6 57.2v12.3h15.3v-12.3h-1.4c5.3-7.6-6.2-17.5-6.2-17.5 0 0-11.6 9.9-6.3 17.5z"/><path class="b" d="m573 139.1v2h1v2.1c0 0 6.2 4.6 6.2 24h-28.9c0-19.3 13.9-24 13.9-24v-2.1h2.3v-2h1.9l2.2-32.1v32.1z"/><path class="c" d="m593.7 197.9h-44.3l2.7 1h38.9z"/><path class="c" d="m577.9 143.2h-12.7v-2.1h12.7z"/><path class="d" d="m593.7 169.1h-44.3l1.9-1.9h40.5z"/><path class="a" d="m481.1 316h13.1v19.3h81.2v5.2h24.9v4.9h28.6v11h-147.8z"/><path class="e" d="m462.6 166.9v4.3h-30.9v-11.8h1.9v-2.4h2.3v-7.4l-2.7-1.3v-23.7c0-42.9-40.7-58.3-40.7-58.3l0.9-2.2-5.9-3.1h-2.5v-1.5h-2.2v-1.5h-3.7c3.4-3.4-0.8-6.4-0.8-6.4v-1.4l1.4-0.4v-3l-1.5-0.7-3.2-31.4-3.2 31.4-1.5 0.7v3l1.4 0.4v1.4c0 0-4.2 3-0.8 6.4h-3.7v1.5h-2.2v1.5h-2.5l-5.9 3.1 0.9 2.2c0 0-40.7 15.4-40.7 58.3v23.7l-2.7 1.3v7.4h2.3v2.4h1.9v11.8h-30.9v-4.3h-20v189.5h215.2v-189.5z"/><path class="d" d="m287.4 171.2h175.2v185.2h-175.2z"/><path class="d" d="m373.3 46.8v3l0.6 0.4v1.4c0 0-2.9 3.3 0 6.4v1.5h-3.4v1.5l-3.8 3.1 0.9 2.2c0 0-20.8 20.4-20.8 44.2 0 23.7 0 37.4 0 37.4l-2.7 1.7v7.4h2.8v2.4h-3.2v11.8h88v-11.8h1.9v-2.4h2.3v-7.4l-2.7-1.3v-23.7c0-42.9-40.7-58.3-40.7-58.3l0.9-2.2-5.9-3.1h-2.5v-1.5h-2.2v-1.5h-3.7c3.4-3.4-0.8-6.4-0.8-6.4v-1.4l1.4-0.4v-3l-1.5-0.7-3.2-31.4-0.9 31.4z"/><path class="f" d="m433.6 159.4h-1.9v11.8h-25.4v-11.8h-3.2v-2.4h2.8v-7.4l-2.7-1.7c0 0 0-13.7 0-37.4 0-23.8-20.8-44.2-20.8-44.2l0.9-2.2-3.8-3.1v-1.5h-3.4v-1.5c2.9-3.1 0-6.4 0-6.4v-1.4l0.6-0.4v-3l-0.8-0.7-0.9-31.4 3.2 31.4 1.5 0.7v3l-1.4 0.4v1.4c0 0 4.2 3 0.8 6.4h3.7v1.5h2.2v1.5h2.5l5.9 3.1-0.9 2.2c0 0 40.7 15.4 40.7 58.3v23.7l2.7 1.3v7.4h-2.3z"/><path class="g" d="m420.7 351.7v-56.8h-3.6v-4.3h-4.3c26.5-37.1-37.8-82-37.8-82 0 0-64.3 44.9-37.8 82h-4.3v4.3h-3.6v56.8h-4.7v4.7h100.8v-4.7z"/><path class="g" d="m316.4 157h117.2v2.4h-117.2z"/><path class="a" d="m318.3 159.4h113.4v11.8h-113.4z"/><path class="g" d="m370.3 49.8h9.4l-1.4 0.4h-6.6z"/><path class="g" d="m367.2 59.5h15.6v-1.5h-15.6z"/><path class="g" d="m356.6 64.1h36.8l-0.9 2.2h-35z"/><path class="a" d="m435.9 149.6h-121.8l2.7-1.9 116.4 0.6z"/><path class="a" d="m356.6 64.1h36.8l-5.9-3.1h-25z"/><path class="a" d="m370.3 46.8h9.4l-1.5-0.7h-6.4z"/><path class="d" d="m381 15.3c-5.2 0.9-10.1-2.5-11-7.6-0.5-2.6 0.1-5.1 1.5-7.1-4.1 2.2-6.4 6.7-5.5 11.4 1 5.9 6.6 9.7 12.4 8.7 4.8-0.9 8.3-4.9 8.8-9.5-1.4 2.1-3.6 3.6-6.2 4.1z"/><path class="e" d="m377.5 18.4c4.5 0 8.3-2.9 9.5-7-1.3 2-3.5 3.4-6 3.9-5.2 0.9-10.1-2.5-11-7.6-0.5-2.6 0.1-5.1 1.5-7.1q-0.1 0-0.1 0.1c-2.3 1.8-3.8 4.6-3.8 7.8 0 5.5 4.4 9.9 9.9 9.9z"/><path class="h" d="m272.7 356.4h-5.3v-189.5h5.3z"/><path class="h" d="m482.6 356.4h-5.3v-189.5h5.3z"/><path class="i" d="m413.9 351.7v-56.8h-3v-4.3h-3.7c22.6-37.1-32.2-82-32.2-82 0 0-54.8 44.9-32.2 82h-3.7v4.3h-3v56.8h-4.1v4.7h86v-4.7z"/><path class="j" d="m406.8 351.7v-56.8h-2.5v-4.3h-3c18.5-37.1-26.3-82-26.3-82 0 0-44.8 44.9-26.3 82h-3v4.3h-2.5v56.8h-3.3v4.7h70.2v-4.7z"/><path class="d" d="m726.3 362.8v-6.4h-702.6v6.4h-23.7v8.2h750v-8.2z"/><path class="h" d="m23.7 362.8h702.6v-6.4h-702.6z"/></svg>