<svg version="1.2" xmlns="http://www.w3.org/2000/svg" viewBox="0 0 135 836" width="135" height="836"><style>.a{fill:#051e28}.b{fill:none;stroke:#efa52e;stroke-miterlimit:10}.c{fill:#0c5e66}.d{fill:#e79724}.e{fill:#e58925}.f{fill:#e27227}.g{fill:#d35618}.h{fill:#db7700}.i{fill:#e5a525}.j{fill:#003e4c}</style><g style="opacity:.3"><path fill-rule="evenodd" class="a" d="m3.6 635.1v-3h-3.2v-6h20.3v-3.2h-9.7v-2.8h-2.5v-9.4h3.2v-4.8h4.4c0-27.6 25.7-33.2 25.7-33.2v-3.2h-2.7v-3.7l22.7-9.2v-1.8h-1.8v-2.3h-1.6v-6.7h3.8v-2.3h1.7c0-3.9 3.7-4 3.7-4 0 0 3.7 0.1 3.7 4h1.7v2.3h3.8v6.7h-1.6v2.3h-1.9v1.8l22.8 9.2v3.7h-2.8v3.2c0 0 25.8 5.6 25.8 33.2h4.4v4.8h3.2v9.4h-2.5v2.8h-9.7v3.2h20.3v6h-3.3v3h-7.1v2.7l10.4 8.5v156.8h-11v3.5h5.9v4.9h5.1v13.3h-19.9v3.5h6.9v7.2h-108.4v-7.2h6.9v-3.5h-19.9v-13.3h5.1v-4.9h5.8v-3.5h-10.9v-156.8l10.4-8.5v-2.7zm105.8 162h16.2v-4h4v-104.6h-3.4c8.3-21.6-16.8-36.1-16.8-36.1zm-71.8-4h5.9v4h48v-4h6v-104.6h-5.1c12.2-21.6-24.9-36.1-24.9-36.1 0 0-37.1 14.5-24.9 36.1h-5zm-28.8-104.6h-3.4v104.6h4.1v4h16.2v-144.7c0 0-25.1 14.5-16.9 36.1z"/><path class="a" d="m67.6 537.3c-3.2 0-5.8-2.6-5.8-5.8 0-3.2 2.6-5.7 5.8-5.7 3.2 0 5.7 2.5 5.7 5.7 0 3.2-2.5 5.8-5.7 5.8z"/><path class="a" d="m67.6 521.9c-2.3 0-4.2-1.8-4.2-4.1 0-2.3 1.9-4.2 4.2-4.2 2.3 0 4.1 1.9 4.1 4.2 0 2.3-1.8 4.1-4.1 4.1z"/></g><path class="b" d="m67.6 524.8v-524.8"/><g style="opacity:.5"><path class="c" d="m134.8 629.4h-134.4v156.8h134.4z"/></g><path fill-rule="evenodd" class="d" d="m3.6 618.1v-3h-3.2v-5.9h20.3v-3.3h-9.7v-2.7h-2.5v-9.4h3.2v-4.9h4.4c0-27.6 25.7-33.1 25.7-33.1v-3.2h-2.7v-3.7l22.7-9.2v-1.8h-1.8v-2.3h-1.6v-6.7h3.8v-2.3h1.7c0-3.9 3.7-4 3.7-4 0 0 3.7 0.1 3.7 4h1.7v2.3h3.8v6.7h-1.6v2.3h-1.9v1.8l22.8 9.2v3.7h-2.8v3.2c0 0 25.8 5.5 25.8 33.1h4.4v4.9h3.2v9.4h-2.5v2.7h-9.7v3.3h20.3v5.9h-3.3v3h-7.1v2.8l10.4 8.5v156.8h-11v3.4h5.9v5h5.1v13.3h-19.9v3.5h6.9v7.2h-108.4v-7.2h6.9v-3.5h-19.9v-13.3h5.1v-5h5.8v-3.4h-10.9v-156.8l10.4-8.5v-2.8zm105.8 162h16.2v-3.9h4v-104.6h-3.4c8.3-21.7-16.8-36.2-16.8-36.2zm-71.8-3.9h5.9v3.9h48v-3.9h6v-104.6h-5.1c12.2-21.7-24.9-36.2-24.9-36.2 0 0-37.1 14.5-24.9 36.2h-5zm-28.8-104.6h-3.4v104.6h4.1v3.9h16.2v-144.7c0 0-25.1 14.5-16.9 36.2z"/><path fill-rule="evenodd" class="e" d="m3.6 618.1v-3h-3.2v-5.9h20.3v-3.3h-9.7v-2.7h-2.5v-9.4h3.2v-4.9h4.4c0-27.6 25.7-33.1 25.7-33.1v-3.2h-2.7v-3.7l22.7-9.2v-1.8h-1.8v-2.3h-1.6v-6.7h3.8v-2.3h1.7c0-3.9 3.7-4 3.7-4 0 0 2.2 1 2.2 4h1.2v2.3h1.6v6.7h-1.2v2.3h-0.8v1.8l12 9.2v3.7h-3.6v3.2h3.6c0 0 18.2 7.1 18.2 33.1h3.1v4.9h2.5v9.4h-3v2.7h-2.6v3.3h5.6v5.9h-3.8v3h-3.9v2.8l6 8.5v156.8h-5.5v3.4h3.3v5h5.3v13.3h-7.1v3.5h5.5v7.2h-92.8v-7.2h6.9v-3.5h-19.9v-13.3h5.1v-5h5.8v-3.4h-10.9v-156.8l10.4-8.5v-2.8zm34 158.1h5.9v3.9h48v-3.9h6v-104.6h-5.1c12.2-21.7-24.9-36.2-24.9-36.2 0 0-37.1 14.5-24.9 36.2h-5zm-28.8-104.6h-3.4v104.6h4.1v3.9h16.2v-144.7c0 0-25.1 14.5-16.9 36.2z"/><path fill-rule="evenodd" class="f" d="m3.6 618.1v-3h-3.2v-5.9h20.3v-3.3h-9.7v-2.7h-2.5v-9.4h3.2v-4.9h4.4c0-27.6 25.7-33.1 25.7-33.1v-3.2h-2.7v-3.7l22.7-9.2v-1.8h-1.8v-2.3h-1.6v-6.7h3.8v-2.3h1.7c0-3.9 3.7-4 3.7-4 0 0-2.3 1-2.3 4h-1.1v2.3h-1.6v6.7h1.2v2.3h0.8v1.8l-12.1 9.2v3.7h3.6v3.2h-3.6c0 0-18.1 7.1-18.1 33.1h-3.1v4.9h-2.5v9.4h3v2.7h2.6v3.3h-5.6v5.9h3.8v3h3.9v2.8l-6 8.5v156.8h5.5v3.4h-3.3v5h-5.3v13.3h7.1v3.5h-5.5v7.2h-15.6v-7.2h6.9v-3.5h-19.9v-13.3h5.1v-5h5.8v-3.4h-10.9v-156.8l10.4-8.5v-2.8zm5.2 53.5h-3.4v104.6h4.1v3.9h16.2v-144.7c0 0-25.1 14.5-16.9 36.2z"/><path class="g" d="m41.8 552.6h51.5v3.2h-51.5z"/><path class="g" d="m61.8 537.9h11.5v1.8h-11.5z"/><path class="g" d="m62.2 526.6h10.8v2.3h-10.8z"/><path class="g" d="m20.7 605.9h93.8v3.3h-93.8z"/><path class="g" d="m124.4 618.1v2.8h-113.6v-2.8z"/><path class="g" d="m123.8 789.6h-112.5v-3.4h112.5z"/><path class="g" d="m114.9 811.4h-94.6v-3.5h94.6z"/><path class="h" d="m11 603.2h113.2v2.7h-113.2z"/><path class="h" d="m11.7 588.9h111.8v4.9h-111.8z"/><path class="h" d="m39.1 548.9h57v3.7h-57z"/><path class="h" d="m60 535.6h15.2v2.3h-15.2z"/><path class="h" d="m131.5 615.1v3h-127.9v-3z"/><path class="h" d="m129.7 794.6h-124.2v-5h124.2z"/><path class="i" d="m96.1 548.9v1.1l-57-1.1z"/><path class="i" d="m28.8 593.8h77.6 20.3v1.5h-20.3z"/><path class="i" d="m28.8 609.2h77.6 28.4v1.1h-28.4z"/><path class="i" d="m30.5 629.4h74.2 30.1v1.9h-30.1z"/><path class="i" d="m30.5 786.2l74.2-1.9h30.1v1.9h-30.1z"/><path class="i" d="m27.4 794.6h80.4 27v1.9h-27z"/><path class="i" d="m121.8 811.4v1.4h-15.6l-77.2-1.4h77.2z"/><path class="i" d="m62.6 528.9h14.2v0.7h-4.2z"/><path class="j" d="m62.6 534.3h10v1.3h-10z"/><path class="j" d="m28.8 598.1h77.6v2.7h-77.6z"/><path class="j" d="m107.8 802.6v3.1h-80.4v-3.1z"/><path class="j" d="m97.5 816.2h-59.8v-1.8h59.8z"/><path class="d" d="m73.3 514.6c0 3.1-2.5 5.7-5.7 5.7-3.2 0-5.8-2.6-5.8-5.7 0-3.2 2.6-5.8 5.8-5.8 3.2 0 5.7 2.6 5.7 5.8z"/><path class="e" d="m70.1 515.7c-1.6-2.9-6.2 4.2-6.2-1.1 0-5 4.9-5.6 5-5.6q-0.7-0.2-1.3-0.2c-3.2 0-5.8 2.6-5.8 5.8 0 3.1 2.6 5.7 5.8 5.7 3.2 0 5.7-2.6 5.7-5.7q0-0.9-0.2-1.6c0.4 2.2-1.4 5.4-3 2.7z"/><path class="d" d="m71.7 500.8c0 2.3-1.8 4.2-4.1 4.2-2.3 0-4.2-1.9-4.2-4.2 0-2.3 1.9-4.1 4.2-4.1 2.3 0 4.1 1.8 4.1 4.1z"/><path class="e" d="m69.4 501.6c-1.2-2-4.5 3.1-4.5-0.8 0-3.6 3.5-4 3.6-4q-0.4-0.1-0.9-0.1c-2.3 0-4.2 1.8-4.2 4.1 0 2.3 1.9 4.2 4.2 4.2 2.3 0 4.1-1.9 4.1-4.2q0-0.6-0.2-1.1c0.4 1.6-0.9 3.9-2.1 1.9z"/></svg>