<svg version="1.2" xmlns="http://www.w3.org/2000/svg" viewBox="0 0 135 752" width="135" height="752"><style>.a{fill:#051e28}.b{fill:none;stroke:#efa52e;stroke-miterlimit:10}.c{fill:#0c5e66}.d{fill:#e79724}.e{fill:#e58925}.f{fill:#e27227}.g{fill:#d35618}.h{fill:#db7700}.i{fill:#e5a525}.j{fill:#003e4c}</style><g style="opacity:.3"><path fill-rule="evenodd" class="a" d="m124.2 551.1v2.7l10.4 8.5v156.8h-10.9v3.5h5.8v4.9h5.1v13.3h-19.9v3.5h6.9v7.2h-108.4v-7.2h6.9v-3.5h-19.9v-13.3h5.1v-4.9h5.9v-3.5h-11v-156.8l10.4-8.5v-2.7h-7.1v-3h-3.3v-6h20.3v-3.2h-9.7v-2.8h-2.5v-9.4h3.2v-4.8h4.4c0-27.6 25.8-33.2 25.8-33.2v-3.2h-2.8v-3.7l22.8-9.2v-1.8h-1.9v-2.3h-1.6v-6.7h3.8v-2.3h1.7c0-3.9 3.7-4 3.7-4 0 0 3.7 0.1 3.7 4h1.7v2.3h3.8v6.7h-1.6v2.3h-1.8v1.8l22.7 9.2v3.7h-2.7v3.2c0 0 25.7 5.6 25.7 33.2h4.4v4.8h3.2v9.4h-2.5v2.8h-9.7v3.2h20.3v6h-3.2v3zm-98.7 17.3c0 0-25.1 14.5-16.8 36.1h-3.5v104.6h4.1v4h16.2zm71.8 36.1h-5.1c12.2-21.6-24.9-36.1-24.9-36.1 0 0-37.1 14.5-24.8 36.1h-5.1v104.7h6v3.9h47.9v-3.9h6zm11.9-36.2v144.7h16.2v-3.9h4.1v-104.6h-3.5c8.3-21.7-16.8-36.2-16.8-36.2z"/><path class="a" d="m67.4 453.3c3.2 0 5.8-2.6 5.8-5.8 0-3.2-2.6-5.7-5.8-5.7-3.2 0-5.7 2.5-5.7 5.7 0 3.2 2.5 5.8 5.7 5.8z"/><path class="a" d="m67.4 437.9c2.3 0 4.2-1.8 4.2-4.1 0-2.3-1.9-4.2-4.2-4.2-2.3 0-4.1 1.9-4.1 4.2 0 2.3 1.8 4.1 4.1 4.1z"/></g><path class="b" d="m67.4 440.8v-440.8"/><g style="opacity:.5"><path class="c" d="m0.2 545.4h134.4v156.8h-134.4z"/></g><path fill-rule="evenodd" class="d" d="m124.2 534.1v2.8l10.4 8.5v156.8h-10.9v3.4h5.8v5h5.1v13.3h-19.9v3.5h6.9v7.2h-108.4v-7.2h6.9v-3.5h-19.9v-13.3h5.1v-5h5.9v-3.4h-11v-156.8l10.4-8.5v-2.8h-7.1v-2.9h-3.3v-6h20.3v-3.2h-9.7v-2.8h-2.5v-9.4h3.2v-4.9h4.4c0-27.6 25.8-33.1 25.8-33.1v-3.2h-2.8v-3.7l22.8-9.2v-1.8h-1.9v-2.3h-1.6v-6.7h3.8v-2.3h1.7c0-3.9 3.7-4 3.7-4 0 0 3.7 0.1 3.7 4h1.7v2.3h3.8v6.7h-1.6v2.3h-1.8v1.8l22.7 9.2v3.7h-2.7v3.2c0 0 25.7 5.5 25.7 33.1h4.4v4.9h3.2v9.4h-2.5v2.8h-9.7v3.2h20.3v6h-3.2v2.9zm-98.7 17.3c0 0-25.1 14.5-16.8 36.2h-3.5v104.6h4.1v3.9h16.2zm71.8 36.2h-5.1c12.2-21.6-24.9-36.2-24.9-36.2 0 0-37.1 14.6-24.8 36.2h-5.1v104.6h6v3.9h47.9v-3.9h6zm11.9-36.2v144.7h16.2v-3.9h4.1v-104.6h-3.5c8.3-21.6-16.8-36.2-16.8-36.2z"/><path fill-rule="evenodd" class="e" d="m124.2 534.1v2.8l10.4 8.5v156.8h-10.9v3.4h5.8v5h5.1v13.3h-19.9v3.5h6.9v7.2h-92.8v-7.2h5.5v-3.5h-7.1v-13.3h5.3v-5h3.3v-3.4h-5.5v-156.8l6-8.5v-2.8h-3.9v-2.9h-3.8v-6h5.6v-3.2h-2.6v-2.8h-3v-9.4h2.5v-4.9h3.1c0-26 18.2-33.1 18.2-33.1h3.6v-3.2h-3.6v-3.7l12-9.2v-1.8h-0.8v-2.3h-1.2v-6.7h1.6v-2.3h1.2c0-3 2.2-4 2.2-4 0 0 3.7 0.1 3.7 4h1.7v2.3h3.8v6.7h-1.6v2.3h-1.8v1.8l22.7 9.2v3.7h-2.7v3.2c0 0 25.7 5.5 25.7 33.1h4.4v4.9h3.2v9.4h-2.5v2.8h-9.7v3.2h20.3v6h-3.2v2.9zm-26.9 53.5h-5.1c12.2-21.7-24.9-36.2-24.9-36.2 0 0-37.1 14.5-24.8 36.2h-5.1v104.6h6v3.9h47.9v-3.9h6zm11.9-36.2v144.7h16.2v-3.9h4.1v-104.6h-3.5c8.3-21.6-16.8-36.2-16.8-36.2z"/><path fill-rule="evenodd" class="f" d="m124.2 534.1v2.8l10.4 8.5v156.8h-10.9v3.4h5.8v5h5.1v13.3h-19.9v3.5h6.9v7.2h-15.6v-7.2h-5.5v-3.5h7.1v-13.3h-5.3v-5h-3.3v-3.4h5.5v-156.8l-6-8.5v-2.8h3.9v-2.9h3.8v-6h-5.6v-3.2h2.6v-2.8h3v-9.4h-2.5v-4.9h-3.1c0-26-18.1-33.1-18.1-33.1h-3.6v-3.2h3.6v-3.7l-12.1-9.2v-1.8h0.8v-2.3h1.2v-6.7h-1.6v-2.3h-1.1c0-3-2.3-4-2.3-4 0 0 3.7 0.1 3.7 4h1.7v2.3h3.8v6.7h-1.6v2.3h-1.8v1.8l22.7 9.2v3.7h-2.7v3.2c0 0 25.7 5.5 25.7 33.1h4.4v4.9h3.2v9.4h-2.5v2.8h-9.7v3.2h20.3v6h-3.2v2.9zm-15 17.3v144.7h16.2v-3.9h4.1v-104.6h-3.5c8.3-21.7-16.8-36.2-16.8-36.2z"/><path class="g" d="m93.2 468.6h-51.5v3.2h51.5z"/><path class="g" d="m73.2 453.9h-11.5v1.8h11.5z"/><path class="g" d="m72.8 442.6h-10.8v2.3h10.8z"/><path class="g" d="m114.3 522h-93.8v3.2h93.8z"/><path class="g" d="m10.6 534.1v2.8h113.6v-2.8z"/><path class="g" d="m11.2 705.6h112.5v-3.4h-112.5z"/><path class="g" d="m20.1 727.4h94.6v-3.5h-94.6z"/><path class="h" d="m124 519.2h-113.2v2.8h113.2z"/><path class="h" d="m123.3 504.9h-111.8v4.9h111.8z"/><path class="h" d="m95.9 464.9h-57v3.7h57z"/><path class="h" d="m75 451.6h-15.2v2.3h15.2z"/><path class="h" d="m3.5 531.2v2.9h127.9v-2.9z"/><path class="h" d="m5.3 710.6h124.2v-5h-124.2z"/><path class="i" d="m38.9 464.9v1.1l57-1.1z"/><path class="i" d="m106.2 509.8h-77.6-20.3v1.5h20.3z"/><path class="i" d="m106.2 525.2h-77.6-28.4v1.1h28.4z"/><path class="i" d="m104.5 545.4h-74.2-30.1v1.9h30.1z"/><path class="i" d="m104.5 702.2l-74.2-1.9h-30.1v1.9h30.1z"/><path class="i" d="m107.6 710.6h-80.4-27v1.9h27z"/><path class="i" d="m13.2 727.4v1.5h15.6l77.2-1.5h-77.2z"/><path class="i" d="m72.4 444.9h-14.2v0.7h4.2z"/><path class="j" d="m72.4 450.3h-10v1.3h10z"/><path class="j" d="m106.2 514.1h-77.6v2.7h77.6z"/><path class="j" d="m27.2 718.6v3.1h80.4v-3.1z"/><path class="j" d="m37.5 732.3h59.8v-1.9h-59.8z"/><path class="d" d="m61.7 430.6c0 3.2 2.5 5.7 5.7 5.7 3.2 0 5.8-2.5 5.8-5.7 0-3.2-2.6-5.8-5.8-5.8-3.2 0-5.7 2.6-5.7 5.8z"/><path class="e" d="m64.9 431.7c1.6-2.9 6.2 4.2 6.2-1.1 0-5-4.9-5.6-5-5.6q0.7-0.2 1.3-0.2c3.2 0 5.8 2.6 5.8 5.8 0 3.2-2.6 5.7-5.8 5.7-3.2 0-5.7-2.5-5.7-5.7q0-0.9 0.2-1.6c-0.4 2.2 1.4 5.4 3 2.7z"/><path class="d" d="m63.3 416.8c0 2.3 1.8 4.2 4.1 4.2 2.3 0 4.2-1.9 4.2-4.2 0-2.3-1.9-4.1-4.2-4.1-2.3 0-4.1 1.8-4.1 4.1z"/><path class="e" d="m65.6 417.6c1.2-2 4.5 3.1 4.5-0.8 0-3.6-3.5-4-3.6-4q0.4-0.1 0.9-0.1c2.3 0 4.2 1.8 4.2 4.1 0 2.3-1.9 4.2-4.2 4.2-2.3 0-4.1-1.9-4.1-4.2q0-0.6 0.2-1.1c-0.4 1.6 0.9 3.9 2.1 1.9z"/></svg>