<svg version="1.2" xmlns="http://www.w3.org/2000/svg" viewBox="0 0 94 206" width="94" height="206"><defs><clipPath clipPathUnits="userSpaceOnUse" id="cp1"><path d="m1500 505h-1500v-1000h1500z"/></clipPath></defs><style>.a{opacity:.3;fill:#051e28}.b{fill:#f7f1e5}.c{fill:#e2d5c3}.d{fill:#efa52e}.e{fill:#10566b}.f{fill:#e57225}</style><g clip-path="url(#cp1)"><path class="a" d="m-110.4 148.5c0 0 7.2-14.8 19.8-25.2-15.6-4.7-28-15.6-28-15.6 0 0 12.2-10.7 27.7-15.5-12.5-10.3-19.7-24.9-19.7-24.9 0 0 15.6-5.3 31.8-3.8-7.6-14.4-8.7-30.8-8.7-30.8 0 0 16.2 1.1 30.5 8.6-1.5-16.1 3.7-31.5 3.7-31.5 0 0 14.8 7.2 25.2 19.8 4.7-15.6 15.6-27.9 15.6-27.9 0 0 10.7 12.1 15.5 27.6 10.4-12.5 24.9-19.7 24.9-19.7 0 0 5.3 15.6 3.8 31.9 14.4-7.7 30.8-8.8 30.8-8.8 0 0-1.1 16.2-8.6 30.5 16.1-1.5 31.5 3.7 31.5 3.7 0 0-7.2 14.8-19.8 25.2 15.6 4.8 28 15.6 28 15.6 0 0-12.2 10.7-27.7 15.5 12.5 10.4 19.7 24.9 19.7 24.9 0 0-15.6 5.3-31.8 3.8 7.6 14.4 8.7 30.8 8.7 30.8 0 0-16.2-1-30.5-8.6 1.5 16.1-3.7 31.5-3.7 31.5 0 0-14.8-7.2-25.2-19.8-4.7 15.6-15.6 28-15.6 28 0 0-10.7-12.2-15.5-27.6-10.4 12.4-24.9 19.6-24.9 19.6 0 0-5.3-15.6-3.8-31.8-14.4 7.6-30.8 8.7-30.8 8.7 0 0 1.1-16.2 8.6-30.5-16.1 1.5-31.5-3.7-31.5-3.7z"/><path class="b" d="m-12.5-7.6c0 0 40.1 45.6 0 72.2-40.1-26.6 0-72.2 0-72.2z"/><path class="b" d="m-12.5 204.5c0 0-40.1-45.5 0-72.2 40.1 26.7 0 72.2 0 72.2z"/><path class="b" d="m-87.5 23.5c0 0 60.6 3.9 51.1 51-47.2 9.6-51.1-51-51.1-51z"/><path class="b" d="m62.5 173.5c0 0-60.6-3.9-51.1-51.1 47.2-9.5 51.1 51.1 51.1 51.1z"/><path class="b" d="m-118.6 98.5c0 0 45.6-40.1 72.2 0-26.6 40.1-72.2 0-72.2 0z"/><path class="b" d="m93.6 98.5c0 0-45.6 40.1-72.2 0 26.6-40.1 72.2 0 72.2 0z"/><path class="b" d="m-87.5 173.5c0 0 3.9-60.6 51.1-51.1 9.5 47.2-51.1 51.1-51.1 51.1z"/><path class="b" d="m62.5 23.5c0 0-3.9 60.6-51.1 51-9.5-47.1 51.1-51 51.1-51z"/><path class="c" d="m-43.8 111.5c-9.1 47.3-66.6 27.8-66.6 27.8 0 0 26.6-54.6 66.6-27.8z"/><path class="c" d="m18.8 85.5c9.1-47.3 66.6-27.8 66.6-27.8 0 0-26.7 54.5-66.6 27.8z"/><path class="c" d="m27.9 0.4c0 0 19.7 57.4-27.5 66.8-26.9-39.9 27.5-66.8 27.5-66.8z"/><path class="c" d="m-25.4 129.8c26.9 39.9-27.5 66.8-27.5 66.8 0 0-19.7-57.5 27.5-66.8z"/><path class="c" d="m-53.3 0.6c0 0 54.5 26.6 27.8 66.6-47.3-9.1-27.8-66.6-27.8-66.6z"/><path class="c" d="m28.3 196.4c0 0-54.6-26.7-27.8-66.7 47.3 9.2 27.8 66.7 27.8 66.7z"/><path class="c" d="m-43.8 85.6c-39.9 26.9-66.8-27.5-66.8-27.5 0 0 57.4-19.7 66.8 27.5z"/><path class="c" d="m18.8 111.4c39.9-27 66.8 27.5 66.8 27.5 0 0-57.4 19.7-66.8-27.5z"/><path class="b" d="m-83.2 98.5l12.9-17.4h15.9l-11.2-11.2 3.1-21.4 21.4-3.1 11.2 11.2v-15.9l17.4-12.9 17.4 12.9v15.9l11.2-11.2 21.4 3.1 3.1 21.4-11.2 11.2h15.9l12.9 17.4-12.9 17.4h-15.9l11.2 11.1-3.1 21.5-21.4 3.1-11.2-11.2v15.8l-17.4 13-17.4-13v-15.8l-11.2 11.2-21.4-3.1-3.1-21.5 11.2-11.1h-15.9z"/><path fill-rule="evenodd" class="d" d="m-84.6 98.5l13.8-18.5h13.6l-9.6-9.7 3.3-22.8 22.8-3.4 9.7 9.7v-13.6l18.5-13.9 18.5 13.9v13.6l9.7-9.7 22.8 3.4 3.3 22.8-9.6 9.7h13.6l13.8 18.5-13.8 18.5h-13.6l9.6 9.6-3.3 22.9-22.8 3.3-9.7-9.6v13.6l-18.5 13.8-18.5-13.8v-13.6l-9.7 9.6-22.8-3.3-3.3-22.9 9.6-9.6h-13.6zm43.1-51.9l-20 2.9-2.9 20 10.5 10.5h22.9v-22.9zm12.7 45.1v13.5l9.5 9.5h13.5l9.5-9.5v-13.5l-9.5-9.5h-13.5zm6.3-9.5h-6.3v6.3zm2.3-2.3l6.1-6.1-14.6-14.6v20.7zm3.3 0h8.8l-4.4-4.4zm12.1 0h8.5v-20.7l-14.6 14.6zm2.3 2.3l6.3 6.3v-6.3zm8.5 8.6l6 6 14.6-14.6h-20.6zm0 3.3v8.8l4.4-4.4zm0 12.1v8.5h20.6l-14.5-14.6zm-2.4 2.3l-6.2 6.3h6.2zm-8.5 8.5l-6 6.1 14.5 14.5v-20.6zm-3.2 0h-8.8l4.4 4.4zm-12.1 0h-8.6v20.7l14.6-14.6zm-2.3-2.3l-6.2-6.3v6.3zm-8.6-8.6l-6-6-14.6 14.6h20.6zm0-3.3v-8.8l-4.4 4.4zm0-12.1v-8.5h-20.6l14.6 14.6zm34.7-49.5l-16.2-12.1-16.2 12.1v14.7l16.2 16.2 16.2-16.2zm35.7 28.2l-2.9-20-20-2.9-10.5 10.5v22.9h23zm5.2 45.2l12.1-16.3-12.1-16.2h-14.7l-16.2 16.2 16.2 16.3zm-28.2 35.6l20-2.9 2.9-20-10.5-10.4h-22.9v22.9zm-45.2 5.3l16.2 12.1 16.3-12.1v-14.8l-16.3-16.2-16.2 16.2zm-35.6-28.2l2.9 20 20 2.9 10.4-10.4v-23h-22.9zm9.5-12.7l16.2-16.2-16.2-16.2h-14.8l-12.1 16.2 12.1 16.2z"/><path class="e" d="m3.7 59.3v20.7h-8.5l-6.1-6.1z"/><path class="e" d="m6 82.3h20.6l-14.5 14.6-6.1-6.1z"/><path class="e" d="m12.1 100.1l14.5 14.6h-20.6v-8.5z"/><path class="e" d="m3.7 117v20.6l-14.6-14.6 6.1-6z"/><path class="e" d="m-20.2 117l6.1 6-14.6 14.6v-20.6z"/><path class="e" d="m-31 114.7h-20.6l14.5-14.6 6.1 6.1z"/><path class="e" d="m-31 90.8v-8.5h-20.6l14.5 14.6z"/><path class="e" d="m-14.1 73.9l-6.1 6.1h-8.5v-20.7z"/><path class="f" d="m-22.5 82.3l-6.2 6.2v-6.2z"/><path class="f" d="m-16.9 80h8.8l-4.4-4.4z"/><path class="f" d="m-2.5 82.3h6.2v6.2z"/><path class="f" d="m6 94.1l4.4 4.4-4.4 4.4z"/><path class="f" d="m3.7 108.5v6.2h-6.2z"/><path class="f" d="m-8.1 117h-8.8l4.4 4.4z"/><path class="f" d="m-22.5 114.7h-6.2v-6.2z"/><path class="f" d="m-31 102.9v-8.8l-4.4 4.4z"/><path class="d" d="m-17.5 86.4h10l7.1 7.1v10l-7.1 7.1h-10l-7.1-7.1v-10z"/><path class="e" d="m-16.2 89.6h7.4l5.2 5.2v7.4l-5.2 5.2h-7.4l-5.2-5.2v-7.4z"/></g></svg>