<svg version="1.2" xmlns="http://www.w3.org/2000/svg" viewBox="0 0 94 206" width="94" height="206"><defs><clipPath clipPathUnits="userSpaceOnUse" id="cp1"><path d="m94 582h-1500v-1000h1500z"/></clipPath></defs><style>.a{opacity:.3;fill:#051e28}.b{fill:#f7f1e5}.c{fill:#e2d5c3}.d{fill:#efa52e}.e{fill:#10566b}.f{fill:#e57225}</style><g clip-path="url(#cp1)"><path class="a" d="m204.4 148.1c0 0-7.2-14.8-19.8-25.1 15.6-4.8 28-15.7 28-15.7 0 0-12.2-10.7-27.7-15.5 12.5-10.3 19.7-24.9 19.7-24.9 0 0-15.6-5.3-31.8-3.7 7.6-14.4 8.7-30.9 8.7-30.9 0 0-16.2 1.1-30.5 8.6 1.5-16.1-3.7-31.5-3.7-31.5 0 0-14.8 7.2-25.2 19.8-4.7-15.6-15.6-27.9-15.6-27.9 0 0-10.7 12.1-15.5 27.6-10.4-12.5-24.9-19.6-24.9-19.6 0 0-5.3 15.5-3.8 31.8-14.4-7.7-30.8-8.8-30.8-8.8 0 0 1.1 16.2 8.6 30.6-16.1-1.5-31.5 3.6-31.5 3.6 0 0 7.2 14.8 19.8 25.2-15.6 4.8-28 15.6-28 15.6 0 0 12.2 10.7 27.7 15.6-12.5 10.3-19.7 24.8-19.7 24.8 0 0 15.6 5.4 31.8 3.8-7.6 14.4-8.7 30.8-8.7 30.8 0 0 16.2-1 30.5-8.6-1.5 16.2 3.7 31.5 3.7 31.5 0 0 14.8-7.2 25.2-19.8 4.7 15.6 15.6 28 15.6 28 0 0 10.7-12.2 15.5-27.6 10.4 12.4 24.9 19.6 24.9 19.6 0 0 5.3-15.6 3.8-31.8 14.4 7.7 30.8 8.7 30.8 8.7 0 0-1.1-16.2-8.6-30.5 16.1 1.5 31.5-3.7 31.5-3.7z"/><path class="b" d="m106.5-8c0 0-40.1 45.6 0 72.2 40.1-26.6 0-72.2 0-72.2z"/><path class="b" d="m106.5 204.2c0 0 40.1-45.6 0-72.2-40.1 26.6 0 72.2 0 72.2z"/><path class="b" d="m181.5 23.1c0 0-60.6 3.9-51.1 51.1 47.2 9.5 51.1-51.1 51.1-51.1z"/><path class="b" d="m31.5 173.1c0 0 60.6-3.9 51.1-51.1-47.2-9.5-51.1 51.1-51.1 51.1z"/><path class="b" d="m212.6 98.1c0 0-45.6-40.1-72.2 0 26.6 40.1 72.2 0 72.2 0z"/><path class="b" d="m0.4 98.1c0 0 45.6 40.1 72.2 0-26.6-40.1-72.2 0-72.2 0z"/><path class="b" d="m181.5 173.1c0 0-3.9-60.6-51.1-51.1-9.5 47.2 51.1 51.1 51.1 51.1z"/><path class="b" d="m31.5 23.1c0 0 3.9 60.6 51.1 51.1 9.5-47.2-51.1-51.1-51.1-51.1z"/><path class="c" d="m137.8 111.1c9.1 47.3 66.6 27.8 66.6 27.8 0 0-26.6-54.5-66.6-27.8z"/><path class="c" d="m75.2 85.1c-9.1-47.3-66.6-27.8-66.6-27.8 0 0 26.7 54.5 66.6 27.8z"/><path class="c" d="m66.1 0c0 0-19.7 57.4 27.5 66.8 26.9-39.9-27.5-66.8-27.5-66.8z"/><path class="c" d="m119.4 129.4c-26.9 39.9 27.5 66.8 27.5 66.8 0 0 19.7-57.4-27.5-66.8z"/><path class="c" d="m147.3 0.2c0 0-54.5 26.7-27.8 66.6 47.3-9.1 27.8-66.6 27.8-66.6z"/><path class="c" d="m65.7 196c0 0 54.6-26.6 27.8-66.6-47.3 9.1-27.8 66.6-27.8 66.6z"/><path class="c" d="m137.8 85.2c39.9 26.9 66.8-27.5 66.8-27.5 0 0-57.4-19.7-66.8 27.5z"/><path class="c" d="m75.2 111c-39.9-26.9-66.8 27.5-66.8 27.5 0 0 57.4 19.7 66.8-27.5z"/><path class="b" d="m177.2 98.1l-12.9-17.4h-15.9l11.2-11.2-3.1-21.4-21.4-3.1-11.2 11.2v-15.9l-17.4-12.9-17.4 12.9v15.9l-11.2-11.2-21.4 3.1-3.1 21.4 11.2 11.2h-15.9l-12.9 17.4 12.9 17.4h15.9l-11.2 11.2 3.1 21.4 21.4 3.1 11.2-11.2v15.9l17.4 12.9 17.4-12.9v-15.9l11.2 11.2 21.4-3.1 3.1-21.4-11.2-11.2h15.9z"/><path fill-rule="evenodd" class="d" d="m164.8 116.6h-13.6l9.6 9.7-3.3 22.8-22.8 3.3-9.7-9.6v13.6l-18.5 13.8-18.5-13.8v-13.6l-9.7 9.6-22.8-3.3-3.3-22.8 9.6-9.7h-13.6l-13.8-18.5 13.8-18.5h13.6l-9.6-9.7 3.3-22.8 22.8-3.3 9.7 9.6v-13.6l18.5-13.8 18.5 13.8v13.6l9.7-9.6 22.8 3.3 3.3 22.8-9.6 9.7h13.6l13.8 18.5zm-39.8-60v23h23l10.4-10.5-2.9-20-20-2.9zm-11.8 25.2h-13.5l-9.5 9.5v13.5l9.5 9.4h13.5l9.5-9.4v-13.5zm9.5 6.3v-6.3h-6.3zm0-8.5v-20.6l-14.5 14.5 6 6.1zm-16.2-4.4l-4.4 4.4h8.8zm-1.6-1.7l-14.6-14.5v20.6h8.5zm-14.6 8.3v6.3l6.3-6.3zm-2.3 0h-20.7l14.6 14.6 6.1-6zm-4.4 16.2l4.4 4.4v-8.8zm-1.7 1.6l-14.5 14.6h20.6v-8.6zm8.3 14.6h6.3l-6.3-6.2zm0 2.3v20.6l14.6-14.6-6-6zm16.2 4.4l4.4-4.4h-8.8zm1.6 1.6l14.6 14.6v-20.6h-8.6zm14.6-8.4v-6.2l-6.2 6.2zm2.3 0h20.6l-14.6-14.5-6 6zm4.4-16.2l-4.4-4.4v8.8zm1.6-1.6l14.6-14.6h-20.6v8.5zm-40.8-40.7l16.2 16.2 16.2-16.2v-14.8l-16.2-12.1-16.2 12.1zm-25.2 23.9h22.9v-23l-10.4-10.4-20.1 2.9-2.9 20zm-0.9 34.8l16.2-16.3-16.2-16.2h-14.8l-12.1 16.2 12.1 16.3zm23.9 25.2v-22.9h-22.9l-10.5 10.4 2.9 20 20 2.9zm34.8 1l-16.2-16.2-16.3 16.2v14.8l16.3 12.1 16.2-12.1zm25.2-23.9h-22.9v22.9l10.4 10.5 20-3 2.9-20zm15.8-2.3l12.1-16.2-12.1-16.2h-14.8l-16.2 16.2 16.2 16.2z"/><path class="e" d="m90.3 59v20.6h8.5l6.1-6.1z"/><path class="e" d="m88 81.9h-20.6l14.5 14.6 6.1-6.1z"/><path class="e" d="m81.9 99.7l-14.5 14.6h20.6v-8.5z"/><path class="e" d="m90.3 116.6v20.6l14.6-14.5-6.1-6.1z"/><path class="e" d="m114.2 116.6l-6.1 6.1 14.6 14.5v-20.6z"/><path class="e" d="m125 114.3h20.6l-14.5-14.6-6.1 6.1z"/><path class="e" d="m125 90.4v-8.5h20.6l-14.5 14.6z"/><path class="e" d="m108.1 73.5l6.1 6.1h8.5v-20.6z"/><path class="f" d="m116.5 81.9l6.2 6.2v-6.2z"/><path class="f" d="m110.9 79.6h-8.8l4.4-4.4z"/><path class="f" d="m96.5 81.9h-6.2v6.2z"/><path class="f" d="m88 93.7l-4.4 4.4 4.4 4.4z"/><path class="f" d="m90.3 108.1v6.2h6.2z"/><path class="f" d="m102.1 116.6h8.8l-4.4 4.4z"/><path class="f" d="m116.5 114.3h6.2v-6.2z"/><path class="f" d="m125 102.5v-8.8l4.4 4.4z"/><path class="d" d="m111.5 86h-10l-7.1 7.1v10l7.1 7.1h10l7.1-7.1v-10z"/><path class="e" d="m110.2 89.2h-7.4l-5.2 5.2v7.4l5.2 5.2h7.4l5.2-5.2v-7.4z"/></g></svg>