<svg version="1.2" xmlns="http://www.w3.org/2000/svg" viewBox="0 0 231 146" width="231" height="146"><defs><clipPath clipPathUnits="userSpaceOnUse" id="cp1"><path d="m1286 1000h-1500v-1000h1500z"/></clipPath></defs><style>.a{opacity:.3;fill:#051e28}.b{fill:#f7f1e5}.c{fill:#e2d5c3}.d{fill:#efa52e}.e{fill:#10566b}.f{fill:#e57225}</style><g clip-path="url(#cp1)"><path class="a" d="m9.6 74.6c0 0 7.8-16 21.4-27.3-16.9-5.1-30.2-16.9-30.2-16.9 0 0 13.2-11.6 29.9-16.8-13.5-11.2-21.3-26.9-21.3-26.9 0 0 16.9-5.8 34.5-4.1-8.3-15.6-9.5-33.4-9.5-33.4 0 0 17.6 1.1 33.1 9.3-1.6-17.5 4-34.1 4-34.1 0 0 16 7.8 27.2 21.4 5.2-16.9 17-30.3 17-30.3 0 0 11.6 13.2 16.8 29.9 11.2-13.4 26.9-21.2 26.9-21.2 0 0 5.8 16.8 4.1 34.4 15.6-8.3 33.4-9.4 33.4-9.4 0 0-1.1 17.5-9.3 33 17.5-1.6 34.1 4 34.1 4 0 0-7.8 16-21.4 27.3 16.9 5.2 30.3 16.9 30.3 16.9 0 0-13.2 11.6-30 16.8 13.5 11.2 21.3 27 21.3 27 0 0-16.9 5.7-34.5 4.1 8.3 15.6 9.5 33.4 9.5 33.4 0 0-17.5-1.2-33.1-9.3 1.7 17.4-4 34.1-4 34.1 0 0-16-7.9-27.2-21.5-5.2 16.9-16.9 30.3-16.9 30.3 0 0-11.6-13.2-16.9-29.9-11.1 13.5-26.9 21.3-26.9 21.3 0 0-5.8-16.9-4.1-34.5-15.6 8.3-33.4 9.5-33.4 9.5 0 0 1.2-17.6 9.3-33.1-17.4 1.6-34.1-4-34.1-4z"/><path class="b" d="m115.7-94.5c0 0 43.4 49.4 0 78.2-43.5-28.8 0-78.2 0-78.2z"/><path class="b" d="m115.7 135.3c0 0-43.5-49.4 0-78.2 43.4 28.8 0 78.2 0 78.2z"/><path class="b" d="m34.4-60.8c0 0 65.6 4.2 55.3 55.3-51.1 10.3-55.3-55.3-55.3-55.3z"/><path class="b" d="m196.9 101.7c0 0-65.6-4.2-55.3-55.4 51.1-10.3 55.3 55.4 55.3 55.4z"/><path class="b" d="m0.8 20.4c0 0 49.3-43.4 78.2 0-28.9 43.4-78.2 0-78.2 0z"/><path class="b" d="m230.6 20.4c0 0-49.4 43.4-78.3 0 28.9-43.4 78.3 0 78.3 0z"/><path class="b" d="m34.4 101.7c0 0 4.2-65.7 55.3-55.4 10.3 51.2-55.3 55.4-55.3 55.4z"/><path class="b" d="m196.9-60.8c0 0-4.2 65.6-55.3 55.3-10.3-51.1 55.3-55.3 55.3-55.3z"/><path class="c" d="m81.8 34.5c-9.9 51.2-72.2 30.1-72.2 30.1 0 0 28.9-59.1 72.2-30.1z"/><path class="c" d="m149.5 6.3c9.9-51.2 72.2-30.1 72.2-30.1 0 0-28.9 59.1-72.2 30.1z"/><path class="c" d="m159.4-85.8c0 0 21.4 62.2-29.8 72.3-29.1-43.2 29.8-72.3 29.8-72.3z"/><path class="c" d="m101.7 54.3c29.2 43.2-29.8 72.4-29.8 72.4 0 0-21.4-62.2 29.8-72.4z"/><path class="c" d="m71.5-85.6c0 0 59.1 28.8 30.1 72.2-51.2-10-30.1-72.2-30.1-72.2z"/><path class="c" d="m159.8 126.5c0 0-59-28.9-30-72.2 51.1 9.9 30 72.2 30 72.2z"/><path class="c" d="m81.7 6.4c-43.2 29.2-72.3-29.7-72.3-29.7 0 0 62.2-21.4 72.3 29.7z"/><path class="c" d="m149.6 34.4c43.2-29.2 72.3 29.8 72.3 29.8 0 0-62.2 21.3-72.3-29.8z"/><path class="b" d="m39.1 20.4l14-18.8h17.1l-12.1-12.1 3.4-23.2 23.2-3.4 12.1 12.1v-17.2l18.9-14 18.8 14v17.2l12.1-12.1 23.2 3.4 3.4 23.2-12.1 12.1h17.1l14.1 18.8-14.1 18.8h-17.1l12.1 12.2-3.4 23.2-23.2 3.4-12.1-12.2v17.2l-18.8 14-18.9-14v-17.2l-12.1 12.2-23.2-3.4-3.4-23.2 12.1-12.2h-17.1z"/><path fill-rule="evenodd" class="d" d="m37.5 20.4l15-20h14.7l-10.4-10.5 3.6-24.8 24.8-3.6 10.4 10.5v-14.8l20.1-14.9 20 14.9v14.8l10.5-10.5 24.7 3.6 3.6 24.8-10.4 10.5h14.8l14.9 20-14.9 20.1h-14.8l10.4 10.4-3.6 24.8-24.7 3.6-10.5-10.5v14.8l-20 15-20.1-15v-14.8l-10.4 10.5-24.8-3.6-3.6-24.8 10.4-10.4h-14.7zm46.7-56.2l-21.6 3.1-3.2 21.7 11.3 11.3h24.9v-24.8zm13.8 48.9v14.6l10.3 10.3h14.5l10.3-10.3v-14.6l-10.3-10.3h-14.5zm6.7-10.3h-6.7v6.8zm2.5-2.5l6.5-6.5-15.8-15.8v22.3zm3.5 0h9.6l-4.8-4.8zm13.1 0h9.3v-22.3l-15.8 15.8zm2.5 2.5l6.7 6.7v-6.7zm9.3 9.2l6.5 6.6 15.8-15.8h-22.3zm0 3.5v9.6l4.7-4.8zm0 13.1v9.2h22.4l-15.8-15.8zm-2.5 2.5l-6.8 6.8h6.8zm-9.3 9.2l-6.5 6.6 15.8 15.8v-22.4zm-3.5 0h-9.6l4.8 4.8zm-13.1 0h-9.3v22.4l15.8-15.8zm-2.5-2.5l-6.7-6.8v6.8zm-9.3-9.3l-6.5-6.5-15.8 15.8h22.3zm0-3.6v-9.5l-4.7 4.7zm0-13v-9.3h-22.4l15.8 15.8zm37.6-53.6l-17.5-13.1-17.6 13.1v16l17.6 17.5 17.5-17.5zm38.7 30.5l-3.2-21.6-21.7-3.2-11.3 11.3v24.9h24.9zm5.7 48.9l13.1-17.6-13.1-17.5h-16l-17.6 17.5 17.6 17.6zm-30.6 38.7l21.7-3.2 3.2-21.7-11.4-11.3h-24.8v24.8zm-48.9 5.8l17.5 13.1 17.6-13.1v-16l-17.6-17.6-17.5 17.6zm-38.7-30.6l3.2 21.7 21.6 3.1 11.4-11.3v-24.8h-24.9zm10.3-13.8l17.6-17.6-17.6-17.6h-16l-13.1 17.6 13.1 17.6z"/><path class="e" d="m133.2-22v22.4h-9.2l-6.6-6.6z"/><path class="e" d="m135.7 2.8h22.4l-15.8 15.8-6.6-6.5z"/><path class="e" d="m142.3 22.2l15.8 15.8h-22.4v-9.3z"/><path class="e" d="m133.2 40.5v22.3l-15.8-15.8 6.6-6.5z"/><path class="e" d="m107.3 40.5l6.6 6.5-15.8 15.8v-22.3z"/><path class="e" d="m95.6 38h-22.3l15.8-15.8 6.5 6.5z"/><path class="e" d="m95.6 12.1v-9.3h-22.3l15.8 15.8z"/><path class="e" d="m113.9-6.2l-6.6 6.6h-9.2v-22.4z"/><path class="f" d="m104.9 2.8l-6.8 6.8v-6.8z"/><path class="f" d="m110.9 0.4h9.5l-4.7-4.8z"/><path class="f" d="m126.5 2.8h6.7v6.8z"/><path class="f" d="m135.7 15.6l4.8 4.8-4.8 4.8z"/><path class="f" d="m133.2 31.2v6.8h-6.7z"/><path class="f" d="m120.4 40.5h-9.5l4.8 4.8z"/><path class="f" d="m104.9 38h-6.8v-6.8z"/><path class="f" d="m95.6 25.2v-9.6l-4.8 4.8z"/><path class="d" d="m110.2 7.3h10.9l7.6 7.7v10.8l-7.6 7.7h-10.9l-7.6-7.7v-10.8z"/><path class="e" d="m111.7 10.8h8l5.6 5.6v8l-5.6 5.7h-8l-5.7-5.7v-8z"/></g></svg>