<svg version="1.2" xmlns="http://www.w3.org/2000/svg" viewBox="0 0 395 404" width="395" height="404"><defs><clipPath clipPathUnits="userSpaceOnUse" id="cp1"><path d="m1485 966h-1500v-1000h1500z"/></clipPath></defs><style>.a{opacity:.3;fill:#051e28}.b{fill:#10566b}.c{fill:#efa52e}.d{fill:#ed8e2f}.e{fill:#f7f1e5}.f{fill:#f4d3a6}.g{fill:#e57225}.h{fill:#0f4d6d}.i{fill:#dcd1ca}</style><g clip-path="url(#cp1)"><path class="a" d="m106.8 349.8l-48.8-4.3-3.9-48.1-33.5-17.3 11.6-36.5-31.4-37.6 31.2-36.8-11.4-35.9 34-17.6 4.3-48.7 48.1-4 17.3-33.5 36.6 11.6 37.5-31.4 36.8 31.2 35.9-11.4 17.6 34 48.8 4.4 3.9 48 33.5 17.4-11.6 36.5 31.4 37.5-31.2 36.8 11.4 35.9-34 17.7-4.4 48.7-48 4-17.4 33.4-36.5-11.6-37.5 31.4-36.8-31.2-35.9 11.4z"/><path class="b" d="m124.6 372.2l-24.8-47.7 13.5-43.7-43.6 13.5-47.7-24.7 16.2-51.2 40.4-21.4-40.4-21.3-16.3-51.2 47.7-24.7 43.7 13.5-13.5-43.7 24.7-47.7 51.2 16.2 21.4 40.5 21.3-40.5 51.2-16.2 24.7 47.7-13.5 43.6 43.7-13.5 47.7 24.7-16.2 51.2-40.5 21.4 40.5 21.3 16.2 51.2-47.7 24.8-43.6-13.5 13.5 43.6-24.7 47.7-51.3-16.2-21.3-40.4-21.3 40.4z"/><path fill-rule="evenodd" class="c" d="m123.7 374.2l-25.7-49.6 12.8-41.3-41.3 12.8-49.6-25.7 16.9-53.2 38.3-20.2-38.3-20.1-16.9-53.2 49.6-25.7 41.3 12.7-12.8-41.3 25.7-49.5 53.2 16.8 20.2 38.3 20.1-38.3 53.2-16.8 25.7 49.5-12.8 41.3 41.4-12.8 49.5 25.7-16.9 53.2-38.2 20.2 38.2 20.2 16.9 53.2-49.5 25.6-41.3-12.7 12.8 41.3-25.7 49.5-53.2-16.8-20.2-38.3-20.2 38.3zm-84.1-154.7l-15.6 49.3 45.8 23.7 42.2-13 16.7-54.1-50.1-26.5zm136.9 27.3l20.6 6.3 20.6-6.3 19.1-10.1 10.1-19.1 6.3-20.6-6.3-20.6-10.1-19.1-19.1-10-20.6-6.4-20.6 6.4-19.1 10-10 19.1-6.4 20.6 6.4 20.6 10 19.1zm-32.1-27.7l-5.1-16.4-6.5 21 19.4 10.3zm-6.8-22.1l-7.7-25-47.6 25.1 47.6 25zm1.7-5.6l5-16.1v-0.1l7.9-15-19.4 10.2zm15.7-36.5l12.2-23.2-51.3-15.9 15.9 51.4zm5.2-2.8l14.9-7.9 16.4-5-21-6.5zm36.9-14.7l25.1-7.8-25.1-47.5-25.1 47.5zm5.6 1.7l16.1 5h0.1l15.1 8-10.3-19.5zm36.5 15.7l23.2 12.3 15.9-51.4-51.3 15.9zm2.7 5.2l7.9 14.9 5.1 16.5 6.5-21.1zm14.7 37l7.7 25 47.6-25.1-47.6-25.1zm-1.7 5.6l-5 16.1v0.2l-7.9 15 19.4-10.2zm-15.7 36.5l-12.2 23.2 51.3 15.8-15.9-51.3zm-5.2 2.8l-14.9 7.8-16.4 5.1 21 6.5zm-36.9 14.7l-25.1 7.8 25.1 47.5 25.1-47.5zm-5.6-1.7l-16.1-5-0.2-0.1-15-7.9 10.3 19.5zm-36.5-15.7l-23.2-12.3-15.9 51.3 51.3-15.8zm-85.1-137.6l-45.9 23.7 15.7 49.3 39 20.5 50.1-26.4-16.7-54.1zm104.7-62l-49.2-15.7-23.7 45.9 13 42.2 54.1 16.7 26.4-50.1zm118 30.2l-23.8-45.8-49.2 15.6-20.6 39 26.5 50.2 54.1-16.8zm62 104.8l15.6-49.2-45.8-23.8-42.2 13-16.7 54.2 50.1 26.4zm-30.2 117.9l45.8-23.7-15.6-49.2-39.1-20.6-50.1 26.4 16.8 54.1zm-104.8 62.1l49.2 15.6 23.8-45.9-13.1-42.2-54.1-16.7-26.4 50.1zm-24.4-39l-26.4-50.1-54.1 16.7-13.1 42.2 23.8 45.8 49.2-15.6z"/><path class="b" d="m196.4 391.8l-42.1-35.7-4.2-46.8-36.2 29.9-55-4.9-4.5-55 30.1-36.1-46.8-4.5-35.4-42.3 35.7-42.1 46.8-4.2-29.9-36.3 4.9-55 55-4.5 36.1 30.1 4.5-46.7 42.3-35.5 42.1 35.7 4.2 46.8 36.3-29.8 55 4.8 4.5 55.1-30.1 36 46.7 4.5 35.4 42.4-35.7 42.1-46.7 4.2 29.8 36.2-4.9 55-55 4.5-36-30.1-4.5 46.8z"/><path fill-rule="evenodd" class="d" d="m152.7 356.9l-3.9-44.3-34.4 28.3-57-5.1-4.7-57.1 28.5-34.1-44.3-4.3-36.8-43.9 37.1-43.7 44.3-4-27.9-33.8-0.4-0.6 5.1-57 57.1-4.7 34.1 28.5 4.2-43.6 0.1-0.7 43.9-36.7 43.7 37 4 44.3 34.3-28.3 57.1 5.1 4.7 57.1-28.5 34.2 44.3 4.2 36.7 44-37 43.7-44.3 3.9 27.8 33.8 0.5 0.6-5.1 57-57.1 4.7-34.2-28.5-4.2 43.6v0.7l-44 36.8zm-96.6-77.2l4.3 53 52.9 4.7 35.1-28.9-5.2-58-58-5.6zm118.7-29.6l22.1 2.2 22.1-2 17.1-14.1 14.2-17 2.2-22.1-2-22.1-14.1-17.1-17.1-14.2-22-2.2-22.1 2-17.1 14.1-14.2 17-2.2 22.1 2 22.1 14.1 17.1zm-19.3-11.7l-0.1-0.1-11.2-13.6 2.1 22.7 22.6 2.2zm-15-18.3l-17.2-20.9-35.5 42.5 55.1 5.3zm-0.6-5.8l-1.5-17.4v-0.2l1.7-17.5-14.6 17.5zm0.6-41l2.6-26.9-55.1 4.9 35.2 42.8zm3.8-4.6l11.2-13.4 13.7-11.3-22.7 2zm29.5-28.4l20.8-17.2-42.5-35.5-5.3 55.1zm5.8-0.5l17.4-1.6 17.7 1.7-17.5-14.6zm41 0.7l26.9 2.6-5-55.2-42.7 35.2zm4.5 3.8l13.4 11.2 0.1 0.1 11.2 13.6-2-22.7zm28.5 29.4l17.2 20.9 35.5-42.5-55.1-5.3zm0.5 5.9l1.5 17.4 0.1 0.1-1.7 17.5 14.6-17.4zm-0.7 40.9l-2.6 26.9 55.1-4.9-35.2-42.7zm-3.8 4.5l-11.2 13.4-13.7 11.3 22.8-2zm-29.5 28.4l-20.9 17.2 42.5 35.5 5.3-55.1zm-5.8 0.6l-17.4 1.5-17.7-1.7 17.5 14.6zm-41-0.7l-26.8-2.6 4.9 55.2 42.7-35.2zm-134.6-97.6l-34.3 40.5 34 40.8 45.2 4.3 37.4-44.7-37.1-44.9zm75.5-99.9l-53 4.4-4.7 52.9 28.9 35 58-5.2 5.6-58zm124-17.2l-40.5-34.4-40.8 34.1-4.3 45.2 44.7 37.4 44.9-37.1zm99.9 75.5l-4.4-53-52.9-4.7-35 28.9 5.2 58 58 5.6zm17.2 124l34.3-40.6-34-40.7-45.2-4.3-37.4 44.7 37.1 44.9zm-75.5 99.9l53-4.4 4.7-52.9-28.9-35-58 5.2-5.6 57.9zm-42.7 17.6l4.4-45.2-44.8-37.4-44.9 37.1 4 45.2 40.6 34.3z"/><path class="e" d="m140 334.9l-19.5-37.6 10.7-34.4-34.4 10.7-37.5-19.5 12.7-40.3 31.9-16.8-31.9-16.8-12.8-40.3 37.6-19.4 34.3 10.6-10.6-34.4 19.5-37.5 40.3 12.8 16.8 31.8 16.7-31.8 40.3-12.8 19.5 37.5-10.6 34.4 34.4-10.7 37.5 19.5-12.8 40.3-31.8 16.8 31.8 16.8 12.8 40.3-37.5 19.4-34.4-10.6 10.6 34.4-19.4 37.5-40.3-12.7-16.8-31.9-16.8 31.9z"/><path class="c" d="m197.1 103.8l21.6 41-22 6.6-21.3-6.6z"/><path class="c" d="m263 131.1l-44.3 13.7 11.7 20.6 18.9 10z"/><path class="c" d="m290.3 197l-41-21.6-6.7 21.6 6.7 21.6z"/><path class="c" d="m263 262.9l-13.7-44.3-20 10.6-10.6 20z"/><path class="c" d="m197.1 290.2l21.6-41-21.6-6.7-21.6 6.7z"/><path class="c" d="m131.2 262.9l44.3-13.7-10.6-20-20-10.5z"/><path class="c" d="m103.9 197l40.9-21.6 6.7 21.6-6.6 21.7z"/><path class="c" d="m132 131.4l43.4 13.4-10.5 20-20.1 10.6z"/><path class="f" d="m197.1 290.2l-16.8 31.9-40.3 12.8 35.5-85.7z"/><path class="f" d="m273.6 297.3l-19.4 37.5-35.5-85.6 44.3 13.7z"/><path class="f" d="m322.1 213.8l12.8 40.3-85.6-35.5 41-21.6z"/><path class="f" d="m263 131.1l34.4-10.7 37.5 19.5-85.6 35.5z"/><path class="f" d="m213.8 72l40.3-12.8-35.4 85.6-21.6-41z"/><path class="f" d="m144.9 218.7l-13.7 44.2-34.4 10.7-37.5-19.5z"/><path class="f" d="m120.5 96.7l19.5-37.5 35.4 85.6-44.3-13.7z"/><path class="f" d="m61.2 140.8l81.7 33.7-39 20.6-30.5-16z"/><path class="g" d="m175.5 249.2l-10.6-20 15.5 8.2 16.7 5.1z"/><path class="g" d="m196.7 151.4l22-6.6 10.3 19.4-15.2-7.6z"/><path class="g" d="m249.2 218.4l-20 10.5 8.1-15.4 5.2-16.8z"/><path class="g" d="m151.3 197.1l-6.6-22 19.5-10.3-7.6 15.2z"/><path class="g" d="m249 175.1l-6.7 21.6-5.1-16.7-8.2-15.5z"/><path class="g" d="m164.8 229.3l-20.2-10.9 6.5-21 5.3 16.1z"/><path class="g" d="m175.1 144.8l21.6 6.7-16.7 5.1-15.5 8.2z"/><path class="g" d="m229.3 229l-11 20.2-21-6.5 16.1-5.3z"/><path class="h" d="m156.7 180.3l8.2-15.5 15.5-8.2 16.3-5.2 17.1 5.2 15.2 7.6 8.4 16.1 5.2 16.7-5.2 16.7-8.1 15.5-15.5 8.2-16.7 5.1-16.7-5.1-15.5-8.2-8.2-15.5-5.2-16.7z"/><path fill-rule="evenodd" class="i" d="m139.2 336.9l-20.4-39.4 9.8-32-32 9.9-39.4-20.4 13.5-42.3 29.6-15.7-29.7-15.6-13.4-42.3 39.4-20.4 32 9.9-9.9-32 20.4-39.4 42.3 13.4 15.7 29.6 15.6-29.6 42.3-13.4 20.4 39.3-9.9 32.1 32-10 39.4 20.5-13.4 42.3-29.6 15.6 29.6 15.6 13.4 42.3-39.4 20.4-32-9.9 9.9 32-20.4 39.4-42.3-13.4-15.6-29.6-15.6 29.6zm-65.8-121.8l-12.1 38.3 35.6 18.5 32.9-10.2 13-42.1-39-20.6zm107.6 20.8l16.1 5 16.1-5 14.9-7.8 7.8-14.9 5-16.1-5-16.1-7.8-14.8-14.9-7.9-16.1-5-16.1 5-14.9 7.9-7.8 14.8-5 16.1 5 16.1 7.8 14.9zm-25.7-21.3l-3.7-11.9-4.7 15.2 14 7.4zm-5.4-17.6l-5.9-19.1-36.5 19.2 36.4 19.2zm1.8-5.6l3.6-11.6v-0.1l5.7-10.9-14 7.4zm12.1-27.7l9.4-17.8-39.4-12.2 12.2 39.3zm5.2-2.7l10.7-5.7 11.9-3.6-15.2-4.7zm28.3-11.1l19.2-6-19.3-36.4-19.2 36.4zm5.6 1.7l11.6 3.6 0.1 0.1 10.9 5.7-7.4-14zm27.8 12.1l17.8 9.3 12.1-39.3-39.3 12.2zm2.7 5.2l5.7 10.7 3.7 11.9 4.7-15.2zm11.1 28.2l5.9 19.2 36.4-19.2-36.4-19.2zm-1.7 5.6l-3.6 11.5v0.2l-5.8 10.8 14.1-7.4zm-12.1 27.8l-9.4 17.8 39.3 12.2-12.1-39.4zm-5.3 2.8l-10.7 5.6-11.9 3.7 15.2 4.7zm-28.2 11.1l-19.2 6 19.2 36.4 19.2-36.4zm-5.6-1.8l-11.5-3.5-0.2-0.1-10.8-5.7 7.4 14zm-27.8-12.1l-17.8-9.4-12.2 39.4 39.4-12.2zm-66.7-108.2l-35.7 18.5 12.1 38.4 30.5 16 39-20.6-13-42.1zm82.1-48.9l-38.3-12.2-18.5 35.7 10.2 32.9 42.1 13 20.6-39zm92.7 23.5l-18.5-35.6-38.3 12.1-16.1 30.5 20.6 39 42.1-13.1zm49 82.2l12.1-38.3-35.7-18.5-32.9 10.2-13 42.1 39 20.6zm-23.5 92.7l35.7-18.5-12.2-38.3-30.4-16.1-39 20.6 13 42.1zm-82.2 48.9l38.4 12.2 18.4-35.7-10.1-32.9-42.2-13-20.5 39zm-19.9-30.4l-20.6-39.1-42.1 13.1-10.1 32.9 18.5 35.7 38.3-12.2z"/><path class="e" d="m37.4 196.8c0-3.5 13.1-7.9 13.1-7.9l19.8 8-19.8 7.9c0 0-13.1-4.4-13.1-8z"/><path class="e" d="m356.8 197.2c0 3.5-13.2 7.9-13.2 7.9l-19.8-8 19.9-7.9c0 0 13.1 4.5 13.1 8z"/><path class="e" d="m84 309.8c-2.4-2.5 3.7-14.9 3.7-14.9l19.7-8.4-8.5 19.7c0 0-12.4 6.1-14.9 3.6z"/><path class="e" d="m310.1 84.2c2.5 2.5-3.7 14.9-3.7 14.9l-19.6 8.4 8.4-19.6c0 0 12.4-6.2 14.9-3.7z"/><path class="e" d="m189 343.6l7.9-19.8 8 19.8c0 0-4.5 13.1-8 13.1-3.5 0-7.9-13.1-7.9-13.1z"/><path class="e" d="m205.2 50.5l-8 19.8-7.9-19.9c0 0 4.4-13.1 7.9-13.1 3.6 0 8 13.2 8 13.2z"/><path class="e" d="m286.6 286.7l19.6 8.5c0 0 6.2 12.4 3.7 14.9-2.5 2.4-14.9-3.7-14.9-3.7z"/><path class="e" d="m87.9 98.9c0 0-6.1-12.5-3.6-14.9 2.5-2.5 14.9 3.7 14.9 3.7l8.3 19.6z"/></g></svg>