<svg width="429" height="357" viewBox="0 0 429 357" fill="none" xmlns="http://www.w3.org/2000/svg">
<path d="M74.9532 356.323H194.358H386.746C314.551 356.323 279.557 289.094 275.065 279.794C273.883 250.948 250.159 227.934 220.998 227.934C207.599 227.934 195.383 232.82 185.925 240.859C172.054 229.352 154.162 222.338 134.616 222.338C134.065 222.338 133.434 222.416 132.804 222.416C135.799 214.771 137.454 206.496 137.454 197.747C137.454 160.31 107.11 129.966 69.6726 129.966C69.6201 129.966 69.5675 129.966 69.515 129.966C68.1751 98.519 51.9392 70.9337 27.6641 54.0672C28.4523 50.5993 28.9252 47.0527 28.9252 43.3484C28.9252 23.8022 16.9453 7.09337 0 0V356.323H74.9532Z" fill="#3A665C"/>
<path d="M354.796 356.323H235.39H43C115.195 356.323 150.19 289.094 154.682 279.794C155.865 250.948 179.588 227.934 208.75 227.934C222.149 227.934 234.365 232.82 243.823 240.859C257.695 229.352 275.586 222.338 295.132 222.338C295.684 222.338 296.315 222.416 296.945 222.416C293.95 214.771 292.295 206.496 292.295 197.747C292.295 160.31 322.639 129.966 360.077 129.966C360.129 129.966 360.182 129.966 360.234 129.966C361.574 98.519 377.81 70.9337 402.086 54.0672C401.297 50.5993 400.825 47.0527 400.825 43.3484C400.825 23.8022 412.805 7.09337 429.75 0V356.323H354.796Z" fill="#3A665C"/>
</svg>
