<svg width="103" height="135" viewBox="0 0 103 135" fill="none" xmlns="http://www.w3.org/2000/svg">
<g clip-path="url(#clip0_2169_23)">
<g style="mix-blend-mode:multiply" opacity="0.1">
<path d="M143.476 124.875C143.476 130.232 120.106 134.625 91.2934 134.625C62.4807 134.625 39.1104 130.232 39.1104 124.875C39.1104 119.464 62.4807 115.125 91.2934 115.125C120.106 115.125 143.476 119.464 143.476 124.875Z" fill="#2D2B69"/>
</g>
<path d="M59.2794 123.804L71.2313 82.1789C70.0041 80.1967 69.6306 79.5003 69.1504 77.3574C69.1504 77.3574 67.1228 78.3753 65.0953 80.7324C62.4808 83.786 54.2638 109.179 50.9023 123C53.6769 123.286 56.4692 123.554 59.2794 123.804Z" fill="#E18F22"/>
<path d="M54.7973 123.374L69.1503 77.3563L63.868 76.9277C63.868 76.9277 54.1037 107.303 50.1553 122.946C51.6848 123.088 53.2322 123.231 54.7973 123.374Z" fill="#EDBC5B"/>
<path d="M106.98 127.821L114.77 83.8387C113.383 82.0173 112.85 81.3209 112.156 79.2852C112.156 79.2852 110.235 80.5173 108.474 83.0887C106.18 86.4102 100.524 113.41 98.71 127.339C101.485 127.517 104.241 127.678 106.98 127.821Z" fill="#E18F22"/>
<path d="M102.552 127.607L112.156 79.2852L106.873 79.3923C106.873 79.3923 100.204 111.535 97.9629 127.285C99.4925 127.392 101.022 127.499 102.552 127.607Z" fill="#EDBC5B"/>
<path d="M129.284 85.2866C132.165 81.3759 136.007 78.3759 139.849 75.0544C141.61 73.233 143.21 71.3044 144.651 69.3223C145.113 68.3223 145.505 67.2866 145.825 66.2152C146.839 60.858 146.892 55.233 146.679 49.7687C146.305 45.8044 145.772 41.8402 145.291 37.8759C144.811 33.858 144.758 29.7866 143.744 25.8223C143.104 24.3759 142.517 23.1973 141.983 21.6973C140.809 21.0544 139.422 20.358 138.035 19.983C135.367 19.0187 132.646 18.0009 129.871 17.1973C108.795 11.358 56.3987 -0.534842 52.2369 0.590158C66.003 5.35802 75.8206 21.5366 73.0461 44.0902C70.4849 64.5009 59.3867 80.2509 47.168 81.858C61.4676 84.108 77.2613 84.8044 91.7743 85.0723C112.37 85.5009 129.071 85.3402 129.071 85.3402C129.142 85.3402 129.213 85.3223 129.284 85.2866Z" fill="#3D469D"/>
<path d="M145.824 41.411C145.557 39.2146 145.397 37.0181 145.184 34.8217C119.786 28.8217 84.7303 19.7146 70.4307 17.3574C72.4582 21.6431 73.8455 29.5717 74.2724 35.4646C91.5066 38.5181 114.503 41.6253 146.784 49.3396C146.464 46.661 146.091 44.036 145.824 41.411Z" fill="#2D2B68"/>
<path d="M144.17 70.072C144.632 69.072 145.024 68.0541 145.344 67.0184C145.664 65.3041 145.877 63.5898 146.037 61.8756C119.519 60.9113 87.3448 56.0898 71.231 54.2148C69.4702 59.4648 68.3498 65.8398 65.5752 69.697C73.4187 70.7148 87.2914 71.7327 105.059 72.697C121.653 73.6077 129.977 74.572 141.395 74.572C143.049 72.8577 142.836 72.0006 144.17 70.072Z" fill="#2D2B68"/>
<path d="M85.1577 45.0531C84.7842 48.0531 81.4761 50.5174 80.8358 53.3031C80.1956 56.3031 82.1698 59.946 81.2093 62.571C80.1422 65.5174 76.3005 67.0174 74.9132 69.4281C73.3659 72.1603 73.8994 76.2853 71.9252 78.2139C69.6842 80.4103 65.7358 79.7139 63.068 80.6781C60.3468 81.6424 57.6789 84.696 54.5842 84.2139C52.0231 83.8389 51.2761 80.0353 49.5687 77.6246C48.2348 75.7496 44.6065 74.4639 43.7528 71.571C43.1125 69.2674 45.4069 66.1067 45.0867 63.2139C44.8199 60.7496 41.7252 58.2853 41.6719 55.4996C41.6719 52.9281 44.6065 50.3567 44.7132 47.571C44.8733 44.9996 42.2054 42.1067 42.5256 39.4281C42.8457 36.8031 46.0471 34.6603 46.474 32.196C46.9009 29.5174 44.6065 26.4639 45.1401 24.0531C45.7804 21.3746 49.2486 19.7139 49.9955 17.4103C50.9026 14.7317 49.1952 11.2496 50.3157 9.16029C51.6496 6.53529 55.438 6.21386 57.092 4.71386C59.2263 2.89243 60.9337 -0.428997 63.5482 0.0531455C66.803 0.642431 68.7238 4.28529 71.1249 5.571C73.8994 7.071 78.0079 6.85672 79.7687 9.21386C81.5828 11.5174 80.3556 15.4817 81.2627 18.5353C82.1164 21.2139 85.4245 23.6246 85.6913 26.7853C85.9581 29.6246 83.1302 32.7317 82.9701 35.8389C82.8634 38.7317 85.4779 41.946 85.1577 45.0531Z" fill="#EDE6E1"/>
<path d="M69.8443 43.9816C67.2298 66.5887 56.8786 83.7851 46.7408 82.4458C41.0849 81.6958 36.6563 75.3208 34.362 65.8923C32.4945 58.4458 31.9609 49.0708 33.0814 39.1066C35.6959 16.4994 44.7666 1.55298 55.1178 0.481554C56.6118 0.320839 58.6927 1.23155 59.8132 1.92798C67.7634 6.91013 72.1386 24.2137 69.8443 43.9816Z" fill="#D66820"/>
<path d="M65.8961 44.0364C63.495 66.5899 54.2642 83.8399 45.1936 82.4471C40.1247 81.6971 36.2296 75.3221 34.1487 65.8935C32.4946 58.4471 32.0144 49.0721 33.0282 39.1078C35.4293 16.5007 44.66 -0.695765 53.7307 0.64352C54.8512 0.804235 55.9717 1.28638 56.9855 1.98281C64.0286 6.91138 67.9236 24.2685 65.8961 44.0364Z" fill="#EDE6E1"/>
<path d="M55.2239 42.5898C54.0501 53.8398 49.4614 62.4113 44.9261 61.7148C42.4183 61.3398 40.4441 58.1791 39.4303 53.4648C38.63 49.7684 38.3632 45.1077 38.8967 40.1255C40.0706 28.8755 44.6593 20.3041 49.1946 21.0005C49.7638 21.072 50.2973 21.2863 50.7953 21.6434C54.3169 24.1077 56.2377 32.7327 55.2239 42.5898Z" fill="#E1AA4E"/>
<path d="M64.0287 2.24944C60.5605 0.749442 54.798 0.535156 54.798 0.535156V0.588728C55.2604 0.553013 55.7228 0.570871 56.1853 0.642299C66.3231 1.98158 72.4591 21.3744 69.8446 43.9816C67.3369 65.8387 57.5725 82.6602 47.7549 82.4994L52.3436 82.8209C52.6993 82.8923 53.055 82.928 53.4107 82.928C63.175 82.9816 72.9393 66.2137 75.4471 44.3566C78.0616 21.7494 74.1665 6.6423 64.0287 2.24944Z" fill="#E18F22"/>
<path d="M84.9442 126.215C85.8335 126.287 86.705 126.358 87.5587 126.429C86.5449 112.233 82.7032 85.8223 80.6223 82.3401C79.0749 79.7151 77.2074 78.3223 77.2074 78.3223C76.4071 80.358 75.8735 81.0008 74.3262 82.7151L79.1816 125.679C81.1025 125.858 83.0233 126.037 84.9442 126.215Z" fill="#EDBC5B"/>
<path d="M84.9438 126.215C86.0821 126.287 87.2026 126.376 88.3053 126.483C87.0247 110.412 82.4894 78.8044 82.4894 78.8044L77.207 78.3223L83.6099 126.108C84.0723 126.144 84.5169 126.179 84.9438 126.215Z" fill="#E18F22"/>
<path d="M0.107131 45.3215C-0.159654 44.1429 0.6407 42.9643 1.81455 42.75L44.0732 35.0893C45.2471 34.875 46.3676 35.6786 46.581 36.8572C46.7944 38.0357 46.0474 39.1607 44.8736 39.375L2.6149 46.9822C1.44105 47.1965 0.373915 46.5 0.107131 45.3215Z" fill="#E39223"/>
<path d="M45.2464 42.5891C40.9245 43.3927 36.9761 41.6248 36.4425 38.6784C35.909 35.732 38.9503 32.732 43.3256 31.9284C47.6475 31.1248 51.5959 32.8927 52.1828 35.8391C52.7164 38.7855 49.6217 41.7855 45.2464 42.5891Z" fill="#D66820"/>
<path d="M21.8227 90.7494C20.8089 90.053 20.6488 88.6601 21.3958 87.6958L47.8609 54.053C48.6079 53.1422 49.9951 52.9815 50.9022 53.678C51.8626 54.428 52.0227 55.7672 51.2757 56.7315L24.8107 90.3744C24.0637 91.2851 22.7831 91.4458 21.8227 90.7494Z" fill="#E39223"/>
<path d="M53.7837 58.8744C51.0091 62.3565 46.9006 63.6422 44.5529 61.7672C42.2052 59.9458 42.472 55.6601 45.1932 52.1779C47.9144 48.6958 52.0229 47.4101 54.424 49.2851C56.7717 51.1065 56.5049 55.3922 53.7837 58.8744Z" fill="#D66820"/>
</g>
<defs>
<clipPath id="clip0_2169_23">
<rect width="151" height="135" fill="white"/>
</clipPath>
</defs>
</svg>
