<svg width="261" height="261" viewBox="0 0 261 261" fill="none" xmlns="http://www.w3.org/2000/svg">
<mask id="mask0_2176_1753" style="mask-type:luminance" maskUnits="userSpaceOnUse" x="65" y="21" width="164" height="192">
<path d="M228.596 212.953H65.9766V21.1465H228.596V212.953Z" fill="white"/>
</mask>
<g mask="url(#mask0_2176_1753)">
<path d="M208.722 42.1117C208.383 42.7218 207.705 43.1285 206.96 43.1285C205.875 43.1285 204.994 42.2473 204.994 41.1628C204.994 40.4171 205.401 39.7393 206.011 39.4004C204.858 39.6037 204.045 40.5527 204.045 41.705C204.045 42.8574 204.858 43.8063 205.943 44.0775V46.3143H206.146V44.0775C206.237 44.0775 206.327 44.0775 206.417 44.0775C207.57 44.0775 208.519 43.2641 208.722 42.1117Z" fill="url(#paint0_linear_2176_1753)"/>
<path d="M193.606 66.9213H218.415C219.906 63.261 218.821 56.6182 213.534 54.0424C208.247 51.4667 206.01 45.7051 206.01 45.7051C205.942 45.8406 203.706 51.4667 198.486 54.0424C193.199 56.6182 192.115 63.261 193.606 66.9213Z" fill="#F5F0EB"/>
<path style="mix-blend-mode:screen" opacity="0.6" d="M207.637 51.67C209.535 54.7203 211.501 62.7865 208.993 66.9213H218.415C219.906 63.261 218.822 56.6182 213.534 54.0424C208.247 51.4667 206.01 45.7051 206.01 45.7051C206.01 45.8406 205.739 48.6198 207.637 51.67Z" fill="url(#paint1_radial_2176_1753)"/>
<path d="M193.741 143.042H218.279V74.9199H193.741V143.042Z" fill="#D9AB46"/>
<path style="mix-blend-mode:multiply" d="M193.741 83.5284H218.279V74.9199H193.741V83.5284Z" fill="url(#paint2_linear_2176_1753)"/>
<path d="M188.387 149.481H223.634V141.551H188.387V149.481Z" fill="#CC8242"/>
<path d="M188.387 149.48H223.634V146.701H188.387V149.48Z" fill="#B6713D"/>
<path d="M191.641 74.9184H220.381V66.9199H191.641V74.9184Z" fill="#CC8242"/>
<path d="M191.641 74.9192H220.381V72.0723H191.641V74.9192Z" fill="#B6713D"/>
<path d="M191.166 254.07H220.855V149.48H191.166V254.07Z" fill="#D9AB46"/>
<path d="M206.01 90.5098C209.738 91.5943 209.467 101.423 209.467 101.423H206.01H202.553C202.553 101.423 202.282 91.5943 206.01 90.5098Z" fill="#335963"/>
<path d="M206.01 162.428C211.026 163.987 210.687 177.272 210.687 177.272H206.01H201.333C201.333 177.272 200.994 163.987 206.01 162.428Z" fill="#335963"/>
<path d="M95.252 42.1117C95.5909 42.7218 96.2687 43.1285 97.0143 43.1285C98.0989 43.1285 98.98 42.2473 98.98 41.1628C98.98 40.4171 98.5733 39.7393 97.9633 39.4004C99.1156 39.6037 99.929 40.5527 99.929 41.705C99.929 42.8574 99.1834 43.8063 98.0989 44.0775V46.3143H97.8955V44.0775C97.8051 44.0775 97.7148 44.0775 97.6244 44.0775C96.4043 44.0775 95.4553 43.2641 95.252 42.1117Z" fill="url(#paint3_linear_2176_1753)"/>
<path d="M110.368 66.9213H85.5594C84.136 63.261 85.2205 56.6182 90.4398 54.0424C95.727 51.4667 97.9638 45.7051 97.9638 45.7051C98.0316 45.8406 100.336 51.4667 105.488 54.0424C110.775 56.6182 111.859 63.261 110.368 66.9213Z" fill="#F5F0EB"/>
<path style="mix-blend-mode:screen" opacity="0.6" d="M96.337 51.67C94.4391 54.7203 92.4734 62.7865 94.9813 66.9213H85.5594C84.136 63.261 85.2205 56.6182 90.4398 54.0424C95.727 51.4667 97.9638 45.7051 97.9638 45.7051C97.9638 45.8406 98.235 48.6198 96.337 51.67Z" fill="url(#paint4_radial_2176_1753)"/>
<path d="M110.232 143.042H85.6943V74.9199H110.232V143.042Z" fill="#D9AB46"/>
<path style="mix-blend-mode:multiply" d="M110.232 83.5284H85.6943V74.9199H110.232V83.5284Z" fill="url(#paint5_linear_2176_1753)"/>
<path d="M115.587 149.481H80.3398V141.551H115.587V149.481Z" fill="#CC8242"/>
<path d="M115.587 149.48H80.3398V146.701H115.587V149.48Z" fill="#B6713D"/>
<path d="M112.334 74.9184H83.6611V66.9199H112.334V74.9184Z" fill="#CC8242"/>
<path d="M112.334 74.9192H83.6611V72.0723H112.334V74.9192Z" fill="#B6713D"/>
<path d="M112.808 254.07H83.1191V149.48H112.808V254.07Z" fill="#D9AB46"/>
<path d="M97.9633 90.5098C94.2352 91.5943 94.5063 101.423 94.5063 101.423H97.9633H101.42C101.42 101.423 101.691 91.5943 97.9633 90.5098Z" fill="#335963"/>
<path d="M97.9631 162.428C92.9471 163.987 93.2861 177.272 93.2861 177.272H97.9631H102.64C102.64 177.272 102.979 163.987 97.9631 162.428Z" fill="#335963"/>
<path d="M206.689 210.215H97.2861V151.854H206.689V210.215Z" fill="#F5F0EB"/>
<path d="M159.782 79.7992C158.765 81.6294 156.867 82.8495 154.63 82.8495C151.377 82.8495 148.733 80.2059 148.733 76.9523C148.733 74.7155 150.021 72.8175 151.783 71.8008C151.783 71.8008 151.806 71.8008 151.851 71.8008C148.53 72.343 145.954 75.19 145.954 78.7147C145.954 82.0361 148.327 84.8152 151.512 85.493V92.0681H152.122V85.5608C152.394 85.606 152.665 85.6286 152.936 85.6286C156.393 85.6286 159.24 83.1206 159.782 79.7992Z" fill="url(#paint6_linear_2176_1753)"/>
<path d="M203.299 153.48H100.336C94.303 142.635 98.7768 123.181 120.671 115.521C142.497 107.862 151.851 90.916 151.851 90.916C151.806 90.916 151.806 90.916 151.851 90.916C152.122 91.4583 161.476 107.997 182.964 115.521C204.858 123.181 209.399 142.635 203.299 153.48Z" fill="#F5F0EB"/>
<path d="M144.937 108.54C137.074 117.419 129.008 141.279 139.311 153.48H100.336C94.303 142.635 98.7768 123.181 120.671 115.521C142.497 107.862 151.851 90.916 151.851 90.916C151.806 90.916 151.806 90.916 151.851 90.916C151.851 91.3227 152.868 99.5245 144.937 108.54Z" fill="#E7E2DF"/>
<path d="M207.976 161.072H95.998V151.854H207.976V161.072Z" fill="#CC8242"/>
<path d="M207.976 161.072H95.998V157.818H207.976V161.072Z" fill="#B6713D"/>
<path d="M198.893 184.458C199.028 181.882 196.114 180.73 194.08 180.188C192.114 179.577 190.894 177.205 190.894 177.205C190.894 177.205 189.606 179.577 187.641 180.188C185.675 180.73 182.76 181.882 182.828 184.458H181.337V213.13H190.894H200.452V184.458H198.893Z" fill="#335963"/>
<path d="M121.145 184.458C121.281 181.882 118.298 180.73 116.333 180.188C114.367 179.577 113.079 177.205 113.079 177.205C113.079 177.205 111.859 179.577 109.893 180.188C107.927 180.73 104.945 181.882 105.081 184.458H103.521V213.13H113.079H122.704V184.458H121.145Z" fill="#335963"/>
<path d="M175.033 225.06H128.94V151.854H175.033V225.06Z" fill="#F5F0EB"/>
<path d="M162.493 175.781C162.629 172.46 158.765 170.969 156.189 170.223C153.614 169.41 151.987 166.359 151.987 166.359C151.987 166.359 150.36 169.41 147.784 170.223C145.208 170.969 141.345 172.46 141.548 175.781H139.515V213.266H151.987H164.459V175.781H162.493Z" fill="#335963"/>
<path d="M128.94 151.854V225.06H132.601V155.514H171.441V225.06H175.033V151.854H128.94Z" fill="#CC8242"/>
</g>
<path d="M259.83 151.039C240.986 184.999 204.79 207.977 163.239 207.977C102.301 207.977 52.8873 158.563 52.8873 97.5579C52.8873 55.8033 76.0692 19.4713 110.232 0.763096C110.232 0.717907 110.255 0.695312 110.3 0.695312C48.0069 10.6595 0.422852 64.6152 0.422852 129.755C0.422852 201.877 58.92 260.374 131.109 260.374C196.182 260.374 250.137 212.79 260.101 150.497C260.011 150.678 259.921 150.858 259.83 151.039Z" fill="#F2F0DD"/>
<path d="M259.83 151.039C240.986 184.999 204.79 207.977 163.239 207.977C102.301 207.977 52.8873 158.563 52.8873 97.5579C52.8873 55.8033 76.0692 19.4713 110.232 0.763096C110.232 0.717907 110.255 0.695312 110.3 0.695312C48.0069 10.6595 0.422852 64.6152 0.422852 129.755C0.422852 201.877 58.92 260.374 131.109 260.374C196.182 260.374 250.137 212.79 260.101 150.497C260.011 150.678 259.921 150.858 259.83 151.039Z" fill="#29433E"/>
<path fill-rule="evenodd" clip-rule="evenodd" d="M241.461 199.64C238.93 203.616 236.219 207.435 233.327 211.095C230.548 213.603 227.43 215.569 223.837 216.992C224.515 217.874 225.125 218.823 225.735 219.772C225.396 220.178 224.99 220.585 224.583 220.992C223.86 219.772 223.046 218.642 222.143 217.602C218.211 218.89 213.805 219.568 209.06 219.568C208.835 219.568 208.631 219.568 208.45 219.568C207.14 219.568 205.875 219.5 204.655 219.365C205.332 220.359 206.01 221.421 206.688 222.551C208.722 226.008 210.213 229.465 211.23 232.922C210.732 233.283 210.235 233.645 209.738 234.006C208.247 228.312 205.332 223.161 202.418 219.161C197.808 218.619 194.08 217.67 192.047 217.06C192.657 219.026 193.606 222.822 194.148 227.431C198.147 230.346 203.163 233.193 208.857 234.752C208.27 235.158 207.682 235.565 207.095 235.972C203.932 235.023 200.746 233.599 197.537 231.701C196.453 231.024 195.413 230.346 194.419 229.668C194.51 230.888 194.555 232.131 194.555 233.396C194.623 237.463 194.148 241.191 193.267 244.648C192.634 245.01 191.979 245.371 191.301 245.733C193.064 239.7 193.131 233.532 192.589 228.38C188.793 225.533 186.082 222.822 184.658 221.331C184.184 223.364 183.167 227.092 181.269 231.362C183.438 236.175 186.556 241.462 191.098 245.8C190.601 246.072 190.081 246.343 189.539 246.614C186.76 243.902 184.252 240.649 182.083 236.785C181.45 235.655 180.885 234.526 180.388 233.396C179.846 234.526 179.258 235.655 178.626 236.785C176.185 241.123 173.271 244.784 170.085 247.631C170.831 249.664 171.78 251.63 172.932 253.528C172.435 253.708 171.938 253.889 171.441 254.07C170.356 252.375 169.475 250.681 168.729 248.783C164.256 252.375 159.24 254.544 153.681 255.29L156.325 257.934C155.647 258.069 154.992 258.205 154.359 258.34L152.529 256.51C152.393 257.256 152.19 257.934 152.055 258.679C151.512 258.77 150.947 258.86 150.36 258.95C150.631 257.73 150.902 256.51 151.038 255.154C145.141 252.511 139.379 252.172 134.024 253.121C133.55 255.493 132.736 257.934 131.719 260.374C131.494 260.374 131.29 260.374 131.109 260.374C130.703 260.374 130.296 260.374 129.889 260.374C130.838 258.205 131.652 255.9 132.262 253.46C126.975 254.68 122.23 257.12 118.298 259.764C117.146 259.628 115.994 259.493 114.841 259.357C115.316 254.273 115.18 248.308 113.418 242.615C108.809 246.953 105.623 252.308 103.454 257.12C103.499 257.256 103.567 257.369 103.657 257.459C102.934 257.324 102.234 257.165 101.556 256.985C99.4545 252.24 96.2687 246.885 91.7272 242.615C90.5749 246.343 90.1004 250.206 90.0326 253.799C89.4904 253.618 88.9481 253.437 88.4058 253.257C88.5414 248.986 89.1514 244.987 90.3038 241.394C86.169 237.937 81.0174 235.362 74.578 234.684C72.8156 238.683 72.07 242.547 72.07 246.275C71.5277 246.004 70.9855 245.733 70.4432 245.461C70.5788 242.072 71.1888 238.683 72.4767 235.429C67.4607 237.395 62.1736 238.005 56.7509 237.192C55.576 236.378 54.4237 235.565 53.294 234.752C53.7007 234.842 54.0848 234.932 54.4463 235.023C53.0229 228.922 49.9048 223.432 46.8545 219.161C42.1775 218.619 38.4494 217.67 36.4837 217.06C36.7548 217.941 37.0937 219.297 37.4326 220.856C36.6644 220.043 35.8962 219.229 35.128 218.416C34.7213 216.992 34.4502 216.111 34.4502 216.043L33.8401 214.417L35.4669 215.027C35.6025 215.027 39.6017 216.45 45.4311 217.264C41.8386 212.654 38.585 209.875 38.4494 209.807L37.1615 208.655L38.8561 208.384C38.9917 208.316 43.1942 207.57 48.6169 205.334C43.1942 203.165 38.9917 202.351 38.8561 202.351L37.1615 202.012L38.4494 200.928C38.585 200.86 41.8386 198.013 45.4311 193.404C39.6017 194.285 35.6025 195.641 35.4669 195.708L33.8401 196.318L34.4502 194.624C34.4502 194.556 35.8736 190.489 36.687 184.727C32.0777 188.32 29.2986 191.574 29.2308 191.641L28.0785 192.997L27.7396 191.235C27.7396 191.167 26.9262 186.964 24.7571 181.474C22.5881 186.964 21.7747 191.167 21.7747 191.235L21.4357 192.997L20.3512 191.641C20.2156 191.574 17.4365 188.32 12.8272 184.727C12.895 185.066 12.9628 185.405 13.0306 185.744C12.2172 184.072 11.449 182.378 10.7259 180.66C10.6356 179.576 10.5904 178.446 10.5904 177.271C10.5226 172.255 11.2004 167.714 12.5561 163.579C9.98032 161.41 6.99785 159.648 3.60868 158.427C3.47311 157.817 3.33754 157.207 3.20197 156.597C6.72672 157.75 10.1159 159.444 13.0984 161.884C15.2674 156.462 18.6566 151.92 23.2659 148.463C21.2324 147.108 17.0976 143.583 16.4198 137.076L2.18522 151.242C2.11744 150.632 1.98187 149.955 1.84631 149.277L15.2674 135.923C8.76022 135.178 5.23548 131.111 3.87981 129.009C2.79527 130.433 1.71074 131.653 0.490635 132.805C0.490635 132.06 0.422852 131.314 0.422852 130.568C1.30404 129.619 2.11744 128.67 2.93084 127.586C2.18522 126.501 1.37182 125.552 0.490635 124.671C0.535824 123.948 0.581013 123.203 0.626202 122.434C1.77852 123.587 2.86306 124.739 3.87981 126.095C5.23548 124.061 8.76022 119.926 15.2674 119.249L2.45636 106.438C2.59192 105.805 2.72749 105.15 2.86306 104.472L16.4198 118.028C17.0976 111.521 21.2324 107.997 23.2659 106.641C18.6566 103.184 15.2674 98.6424 13.0984 93.2197C10.387 95.3888 7.40455 97.0156 4.28651 98.1679C4.42208 97.5353 4.58024 96.9026 4.761 96.27C7.67569 95.0499 10.2515 93.4231 12.5561 91.5251C11.2682 87.797 10.6582 83.5945 10.5904 79.1208C11.1778 77.7651 11.7653 76.432 12.3527 75.1215C12.0816 79.7986 12.3527 85.1535 13.9118 90.305C18.521 86.0347 21.7069 80.612 23.8759 75.7994C21.978 71.529 20.9613 67.8009 20.4868 65.7674C19.2667 67.0553 17.0298 69.2244 14.0473 71.5968C14.6574 70.3089 15.3352 69.021 16.0131 67.8009C18.7244 65.3607 20.2834 63.5305 20.3512 63.4628L21.4357 62.1749L21.7747 63.8695C21.7747 64.005 22.5881 68.2076 24.7571 73.6303C26.9262 68.2076 27.7396 64.005 27.7396 63.8695L28.0785 62.1749L29.2308 63.4628C29.2986 63.5983 32.0777 66.7842 36.687 70.4445C35.8736 64.6151 34.4502 60.5481 34.4502 60.4803L33.8401 58.8535L35.4669 59.3958C35.6025 59.4635 39.6017 60.887 45.4311 61.7004C41.8386 57.0911 38.585 54.312 38.4494 54.1764L37.1615 53.0919L38.8561 52.753C38.9917 52.753 43.1942 51.9396 48.6169 49.7705C43.1942 47.6014 38.9917 46.788 38.8561 46.788L37.1615 46.4491L38.4494 45.2968C38.585 45.229 41.8386 42.4499 45.4311 37.8406C41.0252 38.4506 37.7038 39.3996 36.2125 39.8741C36.9808 39.0607 37.7716 38.2699 38.585 37.5017C40.6185 36.9594 43.5332 36.3494 46.8545 35.9427C49.0914 32.8924 51.2605 29.1643 52.8873 25.0295C53.7007 24.4195 54.5141 23.8772 55.3275 23.3349C54.3107 26.3852 52.9551 29.5032 51.1249 32.5535C50.4471 33.6832 49.7692 34.7451 49.0914 35.7393C50.2663 35.6489 51.509 35.5811 52.8195 35.536C53.0454 35.536 53.2488 35.536 53.4296 35.536C58.2422 35.536 62.5803 36.2138 66.5795 37.5017C70.0365 33.3669 72.6123 28.2153 73.2223 21.7759C69.1553 19.9457 65.1561 19.2001 61.2924 19.2679C62.1058 18.7256 62.9418 18.206 63.8004 17.7089C66.7829 17.98 69.6976 18.5901 72.4767 19.6746C71.7311 17.7767 71.2566 15.7432 70.9177 13.7775C71.4148 13.5063 71.9118 13.2352 72.4089 12.9641C72.7478 15.4043 73.4257 17.9122 74.578 20.4202C81.0174 19.8102 86.169 17.2344 90.3038 13.7097C89.5581 11.3372 89.0159 8.82926 88.677 6.11792C89.2192 5.93716 89.7615 5.7564 90.3038 5.57565C90.5749 7.88029 90.9816 10.2527 91.7272 12.5573C94.7097 9.64266 97.0821 6.32127 99.0478 2.99988C99.7935 2.86431 100.539 2.66096 101.285 2.52539C101.149 2.79652 101.014 3.06766 100.81 3.33879C99.5449 5.59824 98.1667 7.67694 96.6754 9.57488C93.0829 12.2862 89.6259 15.2687 86.3723 18.3867C83.1187 20.2169 79.594 21.437 75.8659 21.9115L79.594 25.6396C79.2325 26.0463 78.871 26.453 78.5094 26.8597L74.7136 23.0638C73.9679 28.622 71.7989 33.7058 68.2064 38.1117C68.7486 38.3151 69.2909 38.654 69.8332 38.8573C69.4942 39.3318 69.2231 39.7385 68.952 40.213C68.3193 39.9419 67.6867 39.6933 67.054 39.4674C64.2071 42.721 60.5468 45.5679 56.1409 48.0081C55.0112 48.6408 53.904 49.2282 52.8195 49.7705C53.904 50.2676 55.0112 50.8324 56.1409 51.4651C58.0388 52.5496 59.8012 53.7019 61.428 54.922C61.2021 55.5095 60.9761 56.0744 60.7502 56.6166C57.4966 54.1086 54.0396 52.1429 50.786 50.7195C46.5156 52.5496 42.7875 53.5664 40.754 54.0409C42.2453 55.4643 44.9566 58.2434 47.7357 61.9715C51.1249 62.3104 54.9208 62.446 58.7844 61.9715C58.6037 62.559 58.4229 63.1464 58.2422 63.7339C56.6832 63.8695 55.0564 64.005 53.4296 64.005C53.2488 64.005 53.0454 63.9824 52.8195 63.9372C51.509 63.9372 50.2663 63.8921 49.0914 63.8017C49.7692 64.7958 50.4471 65.8578 51.1249 66.9875C52.8195 69.8344 54.1074 72.7491 55.0564 75.596C54.853 76.8161 54.6497 78.104 54.4463 79.3241C52.9551 73.2236 49.9048 67.8009 46.8545 63.5983C42.1775 63.0561 38.4494 62.0393 36.4837 61.497C37.0937 63.4628 38.0427 67.1909 38.585 71.8679C42.8553 74.9182 48.278 77.9684 54.3785 79.4597C54.3107 80.0019 54.1752 80.5442 54.1074 81.0865C50.1082 80.1375 46.0412 78.5107 41.9741 76.0705C40.8444 75.4378 39.7825 74.76 38.7883 74.037C38.8787 75.2571 38.9465 76.5224 38.9917 77.8329C39.0594 82.8488 38.3816 87.4581 37.0259 91.5251C41.1607 94.9821 46.3123 97.5579 52.7517 98.2357C52.7969 98.1453 52.8421 98.0323 52.8873 97.8968C52.8873 99.5236 52.9099 101.128 52.9551 102.709C52.8873 102.099 52.6839 101.489 52.6161 100.879L34.2468 119.249C40.8218 119.926 44.3466 124.061 45.7022 126.095C48.1424 122.773 51.2605 120.062 54.7852 118.028C54.853 118.571 54.9886 119.181 55.0564 119.723C51.9383 121.621 49.0914 124.129 46.6512 127.586C50.3793 132.805 55.1919 135.991 60.2757 137.821C60.3209 137.776 60.3661 137.731 60.4112 137.686C60.6824 138.454 60.9761 139.2 61.2924 139.923C61.1117 139.877 60.9535 139.832 60.8179 139.787C57.2932 143.922 54.7174 149.073 54.1074 155.513C59.869 158.156 65.495 158.495 70.6466 157.682C71.1888 158.54 71.7537 159.376 72.3411 160.19C71.6633 165.206 72.1378 170.561 74.578 175.983C77.8316 175.712 80.7463 174.899 83.3899 173.747C83.7514 174.153 84.1355 174.56 84.5422 174.967C81.8308 176.187 78.9161 177.136 75.8659 177.542L94.2352 195.844C94.6419 191.709 96.4721 188.727 98.3022 186.829C98.7541 187.145 99.206 187.461 99.6579 187.778C97.76 189.743 95.7942 192.929 95.7942 197.742V198.555H94.913C87.3213 198.555 83.5932 203.775 82.712 205.334L82.6442 205.401C83.5932 206.96 87.1857 212.18 94.913 212.18H95.7264V212.993C95.7264 220.653 101.014 224.313 102.505 225.262L102.573 225.194V225.262C104.132 224.313 109.351 220.72 109.351 212.993V212.18H110.164C117.892 212.18 121.552 206.96 122.433 205.401V205.334C121.552 203.775 117.892 198.555 110.164 198.555H109.351V197.742C109.351 196.183 109.148 194.827 108.741 193.539C109.419 193.946 110.029 194.353 110.707 194.692C110.774 195.031 110.842 195.437 110.91 195.844L111.588 195.166C112.13 195.392 112.65 195.641 113.147 195.912L112.062 196.996C118.569 197.674 122.094 201.809 123.45 203.842C124.128 202.961 124.873 202.148 125.619 201.402C126.161 201.606 126.704 201.741 127.314 201.944C126.274 202.984 125.303 204.114 124.399 205.334C128.195 210.621 133.007 213.807 138.023 215.637C140.938 212.383 144.598 209.536 148.936 207.096C148.982 207.051 149.027 207.028 149.072 207.028C150.089 207.164 151.038 207.299 152.055 207.367C147.852 209.468 143.446 212.315 139.786 216.247C145.818 218.077 152.122 218.077 157.342 217.602C160.121 213.807 162.9 211.095 164.391 209.672C163.035 209.333 160.866 208.723 158.291 207.842C159.917 207.932 161.567 207.977 163.239 207.977C163.578 207.977 163.917 207.909 164.323 207.909C165.476 208.181 166.221 208.384 166.289 208.384L167.984 208.655L166.628 209.807C166.56 209.875 163.307 212.654 159.714 217.264C165.476 216.45 169.543 215.027 169.678 215.027L171.305 214.417L170.695 216.043C170.695 216.179 169.272 220.246 168.458 226.008C173.067 222.415 175.847 219.161 175.914 219.094L177.067 217.738L177.338 219.433C177.406 219.568 178.151 223.771 180.388 229.193C182.557 223.771 183.371 219.568 183.371 219.433L183.642 217.738L184.794 219.094C184.862 219.161 187.641 222.415 192.318 226.008C191.437 220.246 190.081 216.179 190.013 216.043L189.403 214.417L191.03 215.027C191.166 215.027 195.233 216.45 200.994 217.264C197.402 212.654 194.148 209.875 194.08 209.807L192.725 208.655L194.487 208.384C194.555 208.316 198.757 207.57 204.248 205.334C200.994 204.046 198.215 203.232 196.453 202.826C197.402 202.487 198.351 202.216 199.367 201.877C201.265 202.487 203.706 203.3 206.417 204.452C211.162 202.283 216.584 199.098 220.923 194.488C219.77 194.149 218.618 193.878 217.466 193.675C218.211 193.268 218.957 192.861 219.702 192.455C220.516 192.658 221.329 192.861 222.143 193.133C223.227 191.867 224.199 190.489 225.057 188.998C226.052 188.32 227.023 187.62 227.972 186.897C226.888 189.337 225.532 191.574 223.837 193.743C229.26 195.844 233.801 199.233 237.258 203.842C238.004 202.758 239.36 201.063 241.461 199.64ZM50.786 48.8215C55.5986 46.7202 61.0213 43.4666 65.3594 38.9251C59.2589 37.095 53.0229 37.0272 47.7357 37.5695C44.9566 41.2976 42.2453 44.0767 40.754 45.5001C42.7875 45.9746 46.5156 46.9914 50.786 48.8215ZM150.699 235.023C156.799 233.599 162.29 230.549 166.56 227.431C167.102 222.822 168.051 219.026 168.661 217.06C166.696 217.67 162.9 218.619 158.291 219.161C155.173 223.432 152.122 228.922 150.699 235.023ZM131.923 233.328C137.82 235.972 143.582 236.378 148.869 235.429C149.75 231.159 151.444 226.889 154.02 222.551C154.698 221.421 155.376 220.359 156.054 219.365C154.834 219.5 153.591 219.568 152.326 219.568C152.1 219.568 151.874 219.568 151.648 219.568C146.903 219.568 142.497 218.89 138.566 217.602C135.109 221.737 132.533 226.889 131.923 233.328ZM112.062 213.671L130.432 232.04C131.177 226.482 133.346 221.398 136.939 216.992C131.448 214.891 126.907 211.434 123.45 206.825C122.094 208.858 118.569 212.993 112.062 213.671ZM68.2064 193.743C73.629 195.844 78.1705 199.233 81.6275 203.842C82.9832 201.809 86.5757 197.674 93.0829 196.996L74.7136 178.695C73.9679 184.253 71.7989 189.269 68.2064 193.743ZM67.054 195.098C64.2071 198.284 60.5468 201.199 56.1409 203.639C55.0112 204.272 53.904 204.837 52.8195 205.334C53.904 205.876 55.0112 206.463 56.1409 207.096C60.5468 209.536 64.2071 212.383 67.054 215.637C72.1378 213.807 76.9504 210.621 80.7463 205.334C76.9504 200.114 72.1378 196.928 67.054 195.098ZM73.2223 177.407C67.3252 174.695 61.5636 174.357 56.2765 175.306C55.3953 179.508 53.6329 183.846 51.1249 188.184C50.4471 189.269 49.7692 190.308 49.0914 191.302C50.2663 191.212 51.509 191.167 52.8195 191.167C53.0454 191.167 53.2488 191.167 53.4296 191.167C58.2422 191.167 62.5803 191.845 66.5795 193.133C70.0365 188.998 72.6123 183.846 73.2223 177.407ZM54.853 157.614C56.8187 162.698 57.4288 168.053 56.5476 173.543C62.0381 172.73 67.393 173.272 72.4767 175.306C70.511 170.222 69.9009 164.867 70.7821 159.376C65.2917 160.19 59.9368 159.648 54.853 157.614ZM52.7517 156.936C46.3123 157.546 41.1607 160.122 37.0259 163.579C38.3816 167.714 39.0594 172.255 38.9917 177.271C38.9465 178.582 38.8787 179.847 38.7883 181.067C39.7825 180.389 40.8444 179.711 41.9741 179.034C46.2445 176.458 50.5826 174.763 54.853 173.882C55.7342 168.527 55.3953 162.766 52.7517 156.936ZM51.4638 155.377L33.0945 137.076C32.4167 143.583 28.2819 147.108 26.2484 148.463C30.8576 151.92 34.3146 156.462 36.4159 161.884C40.8218 158.36 45.9056 156.123 51.4638 155.377ZM34.3146 135.923L52.6161 154.225C53.3618 148.667 55.5308 143.651 59.1234 139.177C53.7007 137.076 49.1592 133.686 45.7022 129.009C44.3466 131.111 40.8218 135.245 34.3146 135.923ZM36.4159 93.2197C34.3146 98.6424 30.8576 103.184 26.2484 106.641C28.2819 107.997 32.4167 111.521 33.0945 118.028L51.4638 99.7269C45.9056 98.9813 40.8218 96.7445 36.4159 93.2197ZM25.7061 75.7994C27.8074 80.612 31.061 86.0347 35.6025 90.305C37.4326 84.2723 37.5004 77.9684 36.9582 72.7491C33.2301 69.97 30.4509 67.2586 29.0275 65.7674C28.553 67.8009 27.5363 71.529 25.7061 75.7994ZM24.7571 105.692C30.0442 101.964 33.2301 97.1512 35.0602 92.0674C31.8066 89.1527 28.9597 85.5602 26.5195 81.1543C25.8869 80.0245 25.2994 78.9174 24.7571 77.8329C24.26 78.9174 23.6952 80.0245 23.0625 81.1543C20.5546 85.5602 17.7076 89.1527 14.454 92.0674C16.352 97.1512 19.5378 101.964 24.7571 105.692ZM24.6893 147.447L24.7571 147.379L24.8249 147.447C26.3161 146.565 31.6033 142.905 31.6033 135.178V134.364H32.4167C40.144 134.364 43.7365 129.145 44.6177 127.586V127.518C43.7365 126.027 40.144 120.74 32.4167 120.74H31.5355V119.926C31.5355 112.199 26.3161 108.607 24.8249 107.725H24.7571L24.6893 107.658C23.1981 108.607 17.9788 112.199 17.9788 119.926V120.74H17.1654C9.50584 120.74 5.77775 125.959 4.89656 127.518V127.586C5.77775 129.145 9.43806 134.364 17.1654 134.364H17.9788V135.178C17.9788 142.837 23.1981 146.498 24.6893 147.447ZM23.8759 179.305C21.7069 174.56 18.521 169.137 13.9118 164.799C12.0816 170.832 12.0138 177.136 12.5561 182.355C16.2842 185.134 19.0633 187.845 20.4868 189.404C20.9613 187.371 21.978 183.643 23.8759 179.305ZM26.5195 173.95C28.9597 169.612 31.8066 165.951 35.0602 163.037C33.2301 157.953 30.0442 153.14 24.7571 149.412C19.5378 153.14 16.352 157.953 14.454 163.037C17.7076 165.951 20.5546 169.612 23.0625 173.95C23.6952 175.08 24.26 176.187 24.7571 177.271C25.2994 176.187 25.8869 175.08 26.5195 173.95ZM36.9582 182.355C37.5004 177.136 37.4326 170.832 35.6025 164.799C31.061 169.137 27.8074 174.56 25.7061 179.305C27.5363 183.643 28.553 187.371 29.0275 189.404C30.4509 187.845 33.2301 185.134 36.9582 182.355ZM46.8545 191.574C49.9048 187.303 53.0229 181.813 54.4463 175.644C48.3458 177.136 42.8553 180.186 38.585 183.304C38.0427 187.913 37.0937 191.641 36.4837 193.675C38.4494 193.065 42.1775 192.116 46.8545 191.574ZM50.786 204.452C55.5986 202.283 61.0213 199.098 65.3594 194.488C59.2589 192.658 53.0229 192.59 47.7357 193.133C44.9566 196.928 42.2453 199.64 40.754 201.063C42.7875 201.538 46.5156 202.555 50.786 204.452ZM47.7357 217.602C53.0229 218.077 59.2589 218.077 65.3594 216.247C61.0213 211.637 55.5986 208.452 50.786 206.283C46.5156 208.113 42.7875 209.13 40.754 209.672C42.2453 211.095 44.9566 213.807 47.7357 217.602ZM73.2223 233.328C72.6123 226.889 70.0365 221.737 66.5795 217.602C62.5803 218.89 58.2422 219.568 53.4296 219.568C53.2488 219.568 53.0454 219.568 52.8195 219.568C51.509 219.568 50.2663 219.5 49.0914 219.365C49.7692 220.359 50.4471 221.421 51.1249 222.551C53.6329 226.889 55.3953 231.159 56.2765 235.429C61.5636 236.378 67.3252 235.972 73.2223 233.328ZM74.7136 232.04L93.0151 213.739C86.5079 212.993 82.9832 208.926 81.6275 206.825C78.1705 211.502 73.629 214.891 68.2064 216.992C71.7989 221.398 73.9679 226.482 74.7136 232.04ZM101.081 226.279C99.0478 224.923 94.913 221.398 94.2352 214.891L75.8659 233.193C81.4241 233.938 86.5079 236.175 90.9138 239.7C93.0151 234.277 96.4721 229.736 101.081 226.279ZM112.876 240.852C110.978 235.768 107.792 230.956 102.573 227.228C97.2855 230.956 94.0996 235.768 92.2695 240.852C95.5231 243.767 98.37 247.359 100.81 251.765C101.443 252.895 102.03 254.002 102.573 255.087C103.07 254.002 103.635 252.895 104.267 251.765C106.707 247.359 109.622 243.767 112.876 240.852ZM114.231 239.7C118.637 236.175 123.721 233.938 129.212 233.193L110.91 214.891C110.232 221.398 106.097 224.923 104.064 226.279C108.673 229.736 112.062 234.277 114.231 239.7ZM130.499 234.684C124.128 235.362 118.908 237.937 114.774 241.394C116.129 245.529 116.807 250.071 116.739 255.087C116.739 256.397 116.694 257.662 116.604 258.883C117.598 258.16 118.637 257.482 119.722 256.849C124.06 254.273 128.398 252.579 132.601 251.698C133.55 246.343 133.211 240.581 130.499 234.684ZM150.292 253.121C148.259 248.037 147.716 242.682 148.53 237.192C143.039 238.005 137.684 237.463 132.601 235.429C134.634 240.513 135.244 245.868 134.363 251.359C139.854 250.477 145.208 251.087 150.292 253.121ZM168.119 247.156C166.764 243.021 166.086 238.412 166.154 233.396C166.154 232.131 166.221 230.888 166.357 229.668C165.317 230.346 164.256 231.024 163.171 231.701C158.833 234.277 154.563 235.972 150.292 236.853C149.343 242.14 149.682 247.902 152.393 253.799C158.833 253.189 163.984 250.613 168.119 247.156ZM179.439 231.362C177.609 227.092 176.524 223.364 176.05 221.331C174.626 222.822 171.915 225.533 168.119 228.38C167.577 233.599 167.645 239.903 169.475 245.936C174.084 241.598 177.27 236.175 179.439 231.362ZM220.923 216.247C216.584 211.637 211.162 208.452 206.417 206.283C202.079 208.113 198.351 209.13 196.317 209.672C197.876 211.095 200.588 213.807 203.367 217.602C208.586 218.077 214.89 218.077 220.923 216.247ZM236.309 205.334C232.514 200.114 227.769 196.928 222.685 195.098C219.77 198.284 216.11 201.199 211.772 203.639C210.642 204.272 209.535 204.837 208.45 205.334C209.535 205.876 210.642 206.463 211.772 207.096C216.11 209.536 219.77 212.383 222.685 215.637C227.769 213.807 232.514 210.621 236.309 205.334ZM235.157 181.203L245.935 191.98C245.664 192.477 245.392 192.997 245.121 193.539L233.937 182.287C234.344 181.926 234.75 181.564 235.157 181.203ZM258.136 153.818V155.648C257.639 156.733 257.074 157.84 256.441 158.97C254.001 163.308 251.086 166.968 247.9 169.883C248.917 172.73 250.408 175.509 252.51 178.085C252.284 178.672 252.035 179.237 251.764 179.779C249.595 177.203 247.765 174.289 246.545 171.035C245.664 171.713 244.782 172.255 243.901 172.865C249.324 167.036 254.069 160.664 258.136 153.818Z" fill="#D9AB46"/>
<path fill-rule="evenodd" clip-rule="evenodd" d="M260.101 150.497C250.137 212.79 196.182 260.374 131.109 260.374C58.92 260.374 0.422852 201.877 0.422852 129.755C0.422852 64.6152 48.0069 10.6595 110.3 0.695312C110.255 0.695312 110.232 0.717907 110.232 0.763096C76.0692 19.4713 52.8873 55.8033 52.8873 97.5579C52.8873 158.563 102.301 207.977 163.239 207.977C204.79 207.977 240.986 184.999 259.83 151.039C259.921 150.858 260.011 150.678 260.101 150.497ZM230.548 197.81C210.958 210.96 187.641 218.28 163.239 218.28C96.6754 218.28 42.5164 164.121 42.5164 97.5579C42.5164 73.1559 49.837 49.8384 62.987 30.3167C31.061 52.0752 10.7259 88.6105 10.7259 129.755C10.7259 196.047 64.7494 250.071 131.109 250.071C172.186 250.071 208.789 229.736 230.548 197.81Z" fill="#D9AB46"/>
<path style="mix-blend-mode:screen" fill-rule="evenodd" clip-rule="evenodd" d="M107.182 2.52547C108.199 1.91542 109.216 1.30536 110.232 0.763096C110.232 0.717907 110.255 0.695312 110.3 0.695312C69.1555 7.27031 34.3825 33.0958 15.5387 68.6144C34.1792 34.5193 67.5965 9.64273 107.182 2.52547ZM260.102 150.497C260.011 150.678 259.921 150.858 259.83 151.039C240.987 184.999 204.79 207.977 163.239 207.977C102.302 207.977 52.8874 158.563 52.8874 97.5579C52.8874 79.4597 57.2256 62.3783 64.9529 47.3304C56.7511 62.7172 52.074 80.2731 52.074 98.9814C52.074 159.919 101.488 209.333 162.493 209.333C204.045 209.333 240.241 186.354 259.085 152.463C259.175 152.282 259.266 152.101 259.356 151.92C257.187 165.545 252.917 178.424 246.884 190.286C253.255 178.085 257.865 164.664 260.102 150.497ZM62.2416 31.7402C62.1512 31.7853 62.0608 31.8531 61.9704 31.9435C59.8465 35.1971 57.8808 38.5411 56.0733 41.9755C57.9712 38.4507 60.0273 35.039 62.2416 31.7402ZM131.11 250.071C64.7495 250.071 10.7261 196.047 10.7261 129.755C10.7261 109.42 15.7421 90.3051 24.5539 73.427C15.2676 90.5762 9.98047 110.301 9.98047 131.111C9.98047 197.471 64.0039 251.426 130.296 251.426C171.441 251.426 208.044 231.091 229.802 199.165C229.622 199.301 229.441 199.414 229.26 199.504C207.366 230.414 171.441 250.071 131.11 250.071Z" fill="url(#paint7_linear_2176_1753)"/>
<defs>
<linearGradient id="paint0_linear_2176_1753" x1="-1152.8" y1="3284.38" x2="-1173.24" y2="3361.22" gradientUnits="userSpaceOnUse">
<stop stop-color="#E79D38"/>
<stop offset="0.16" stop-color="#AE6719"/>
<stop offset="0.43" stop-color="#E79D38"/>
<stop offset="0.65" stop-color="#F1CC67"/>
<stop offset="0.84" stop-color="#C2731B"/>
<stop offset="0.91" stop-color="#E79D38"/>
<stop offset="1" stop-color="#C2731B"/>
</linearGradient>
<radialGradient id="paint1_radial_2176_1753" cx="0" cy="0" r="1" gradientUnits="userSpaceOnUse" gradientTransform="translate(-2480.54 -551.293) rotate(180) scale(169.526 276.023)">
<stop stop-color="#DA00F9"/>
<stop offset="0.9" stop-color="#000014" stop-opacity="0"/>
</radialGradient>
<linearGradient id="paint2_linear_2176_1753" x1="-2282.04" y1="2317.41" x2="-2282.04" y2="2599.98" gradientUnits="userSpaceOnUse">
<stop stop-color="#C89DCD"/>
<stop offset="1" stop-color="white" stop-opacity="0"/>
</linearGradient>
<linearGradient id="paint3_linear_2176_1753" x1="42.4338" y1="1746.66" x2="62.8787" y2="1823.51" gradientUnits="userSpaceOnUse">
<stop stop-color="#E79D38"/>
<stop offset="0.16" stop-color="#AE6719"/>
<stop offset="0.43" stop-color="#E79D38"/>
<stop offset="0.65" stop-color="#F1CC67"/>
<stop offset="0.84" stop-color="#C2731B"/>
<stop offset="0.91" stop-color="#E79D38"/>
<stop offset="1" stop-color="#C2731B"/>
</linearGradient>
<radialGradient id="paint4_radial_2176_1753" cx="0" cy="0" r="1" gradientUnits="userSpaceOnUse" gradientTransform="translate(1210.17 663.914) scale(169.011 276.023)">
<stop stop-color="#DA00F9"/>
<stop offset="0.9" stop-color="#000014" stop-opacity="0"/>
</radialGradient>
<linearGradient id="paint5_linear_2176_1753" x1="-2387.03" y1="1073.14" x2="-2387.03" y2="1355.71" gradientUnits="userSpaceOnUse">
<stop stop-color="#C89DCD"/>
<stop offset="1" stop-color="white" stop-opacity="0"/>
</linearGradient>
<linearGradient id="paint6_linear_2176_1753" x1="-4205.2" y1="6514.63" x2="-4383.04" y2="7182.9" gradientUnits="userSpaceOnUse">
<stop stop-color="#E79D38"/>
<stop offset="0.16" stop-color="#AE6719"/>
<stop offset="0.43" stop-color="#E79D38"/>
<stop offset="0.65" stop-color="#F1CC67"/>
<stop offset="0.84" stop-color="#C2731B"/>
<stop offset="0.91" stop-color="#E79D38"/>
<stop offset="1" stop-color="#C2731B"/>
</linearGradient>
<linearGradient id="paint7_linear_2176_1753" x1="-1889.5" y1="6702.14" x2="-26782.8" y2="163207" gradientUnits="userSpaceOnUse">
<stop stop-color="#E79D38"/>
<stop offset="0.16" stop-color="#AE6719"/>
<stop offset="0.43" stop-color="#E79D38"/>
<stop offset="0.65" stop-color="#F1CC67"/>
<stop offset="0.84" stop-color="#C2731B"/>
<stop offset="0.91" stop-color="#E79D38"/>
<stop offset="1" stop-color="#C2731B"/>
</linearGradient>
</defs>
</svg>
