<svg width="429" height="62" viewBox="0 0 429 62" fill="none" xmlns="http://www.w3.org/2000/svg">
<path d="M430 0.000419617L430 61.3086C424.452 58.8506 419.536 55.3393 415.463 50.915C409.283 54.2859 402.19 56.182 394.606 56.182C373.959 56.182 356.613 41.9259 351.908 22.754C347.483 19.8044 344.042 15.661 341.935 10.7452C338.073 11.7283 334.07 12.2199 329.997 12.2199C319.182 12.2199 309.28 8.70858 301.274 2.73928C297.552 2.17747 294.04 1.26452 290.599 0.000431803L430 0.000419617Z" fill="#DBAD46"/>
<path d="M-0.000234242 0.000431803L-0.000228882 61.3086C5.5477 58.8507 10.4636 55.3393 14.5368 50.915C20.7167 54.2859 27.8799 56.182 35.3942 56.182C56.0409 56.182 73.387 41.9259 78.0922 22.754C82.5165 19.8044 86.0279 15.661 88.1347 10.7452C91.9269 11.7283 95.9299 12.2199 100.073 12.2199C110.818 12.2199 120.72 8.70857 128.726 2.73927C132.448 2.17746 136.029 1.2645 139.4 0.000419617L-0.000234242 0.000431803Z" fill="#DBAD46"/>
<path d="M164.402 15.9429C168.615 28.7242 180.624 37.9941 194.81 37.9941C204.22 37.9941 212.718 33.8508 218.547 27.3899C224.165 27.3196 229.502 25.7746 234.067 23.1762C237.368 24.2999 240.879 24.9319 244.601 24.9319C257.242 24.9319 268.127 17.6283 273.324 7.02403C277.186 5.33858 280.627 2.95086 283.437 0.00132751L146.564 0.00133948C150.216 7.37518 156.607 13.1338 164.402 15.9429Z" fill="#DBAD46"/>
</svg>
