<svg width="65" height="263" viewBox="0 0 65 263" fill="none" xmlns="http://www.w3.org/2000/svg">
<g clip-path="url(#clip0_2169_3)">
<path d="M1.58594 158.401H64.4859V153.301H1.58594V158.401Z" fill="#D66820"/>
<path d="M9.58535 164.5H56.3854L58.4854 158.4H7.48535L9.58535 164.5Z" fill="#3D469D"/>
<path d="M30.5861 164.5H35.4861H53.2861L47.5861 212.2H35.4861H30.5861H18.3861L12.7861 164.5H30.5861Z" fill="#EDE6E1"/>
<path d="M31.1854 168.301H34.7854H47.9853L43.7854 208.101H34.7854H31.1854H22.1854L17.9854 168.301H31.1854Z" fill="#3D469D"/>
<path d="M18.4857 146.801H23.5857H42.4857H47.4857C47.8857 151.501 51.5857 153.301 51.5857 153.301H14.3857C14.3857 153.301 18.1857 151.501 18.4857 146.801Z" fill="#EDE6E1"/>
<path fill-rule="evenodd" clip-rule="evenodd" d="M32.9861 134.6C41.1861 137.9 41.7861 146.8 41.7861 146.8H24.2861C24.2861 146.8 24.7861 137.9 32.9861 134.6ZM32.9861 144C34.2861 144 35.3861 143 35.3861 141.6C35.3861 140.3 34.2861 139.3 32.9861 139.3C31.6861 139.3 30.5861 140.3 30.5861 141.6C30.5861 143 31.6861 144 32.9861 144Z" fill="#3D469D"/>
<path d="M12.9854 218.299H53.6853L51.5854 212.199H15.0854L12.9854 218.299Z" fill="#D66820"/>
<path d="M22.6857 224.301H43.9857C45.8857 224.301 47.3857 222.901 47.3857 221.001V218.301H19.3857V221.001C19.3857 222.901 20.8857 224.301 22.6857 224.301Z" fill="#3D469D"/>
<path d="M30.2853 227.4H36.3853C36.9853 228.8 35.5853 255.5 33.3853 262.9C31.1853 255.5 29.6853 228.8 30.2853 227.4Z" fill="#1E3477"/>
<path d="M33.3861 230.401C36.1861 230.401 38.4861 228.101 38.4861 225.301V224.301H28.2861V225.301C28.2861 228.101 30.4861 230.401 33.3861 230.401Z" fill="#EDE6E1"/>
<path d="M28.2861 168.301H29.8861L45.5861 191.301L45.3861 193.401L28.2861 168.301Z" fill="#D66820"/>
<path d="M43.0857 168.301L47.3857 174.601L47.0857 176.701L41.3857 168.301H43.0857Z" fill="#D66820"/>
<path d="M21.5859 168.301H23.2859L44.6859 199.801L44.4859 201.901L21.5859 168.301Z" fill="#D66820"/>
<path d="M34.7861 168.301H36.3861L46.4861 183.001L46.1861 185.201L34.7861 168.301Z" fill="#D66820"/>
<path d="M19.7854 185.201L19.4854 182.301L37.0854 208.101H35.3854L19.7854 185.201Z" fill="#D66820"/>
<path d="M18.5861 173.6L18.2861 170.9L43.7861 208.1H42.0861L18.5861 173.6Z" fill="#D66820"/>
<path d="M21.8857 205.4L23.7857 208.1H22.1857L21.8857 205.4Z" fill="#D66820"/>
<path d="M20.9855 196.801L20.6855 193.801L30.4855 208.101H28.7855L20.9855 196.801Z" fill="#D66820"/>
<path d="M32.2861 141.599H33.7861V-1.20078L32.2861 -2.80078V141.599Z" fill="#EDE6E1"/>
</g>
<defs>
<clipPath id="clip0_2169_3">
<rect width="64" height="266" fill="white" transform="translate(0.885742 -3)"/>
</clipPath>
</defs>
</svg>
