<svg width="86" height="350" viewBox="0 0 86 350" fill="none" xmlns="http://www.w3.org/2000/svg">
<path d="M26.6369 255.4C28.9369 254.4 29.3369 253 29.3369 253C29.3369 253 29.8369 254.4 32.1369 255.4C34.8369 256.5 45.5369 259.4 41.9369 273.1H29.3369H16.8369C13.2369 259.4 23.9369 256.5 26.6369 255.4Z" fill="#E0A34B"/>
<path d="M10.9365 278.199H47.6365V277.699C47.6365 275.499 45.8365 273.699 43.6365 273.699H14.9365C12.7365 273.699 10.9365 275.499 10.9365 277.699V278.199Z" fill="#E8C86E"/>
<path fill-rule="evenodd" clip-rule="evenodd" d="M46.6365 278.199V324.199H11.9365V278.199H46.6365ZM37.7365 317.199C37.7365 317.199 37.7365 318.899 38.4365 319.499C39.0365 319.999 39.6365 319.499 39.6365 319.499C39.4365 321.099 40.1365 322.099 40.5365 322.499C41.0365 322.999 41.0365 323.599 41.0365 323.599C41.0365 323.599 41.0365 322.999 41.5365 322.499C41.9365 322.099 42.6365 321.099 42.4365 319.499C42.4365 319.499 43.0365 319.999 43.6365 319.499C44.3365 318.899 44.3365 317.199 44.3365 317.199V286.999C44.3365 286.999 44.3365 285.299 43.6365 284.699C43.0365 284.199 42.4365 284.699 42.4365 284.699C42.6365 283.099 41.9365 282.099 41.5365 281.699C41.0365 281.299 41.0365 280.599 41.0365 280.599C41.0365 280.599 41.0365 281.299 40.5365 281.699C40.1365 282.099 39.4365 283.099 39.6365 284.699C39.6365 284.699 39.0365 284.199 38.4365 284.699C37.7365 285.299 37.7365 286.999 37.7365 286.999V317.199ZM23.7365 317.199C23.7365 317.199 23.7365 318.899 24.9365 319.499C25.9365 320.099 26.9365 319.599 26.9365 319.599C26.5365 321.199 27.7365 322.199 28.4365 322.599C29.1365 322.999 29.2365 323.699 29.2365 323.699C29.2365 323.699 29.2365 322.999 29.9365 322.599C30.6365 322.199 31.8365 321.199 31.5365 319.599C31.5365 319.599 32.5365 320.099 33.5365 319.499C34.6365 318.899 34.6365 317.199 34.6365 317.199V287.099C34.6365 287.099 34.6365 285.399 33.5365 284.799C32.5365 284.199 31.5365 284.699 31.5365 284.699C31.8365 283.099 30.6365 282.099 29.9365 281.699C29.2365 281.299 29.2365 280.599 29.2365 280.599C29.2365 280.599 29.1365 281.299 28.4365 281.699C27.7365 282.099 26.5365 283.099 26.9365 284.699C26.9365 284.699 25.9365 284.199 24.9365 284.799C23.7365 285.399 23.7365 287.099 23.7365 287.099V317.199ZM14.0365 317.199C14.0365 317.199 14.0365 318.899 14.7365 319.499C15.3365 319.999 15.9365 319.499 15.9365 319.499C15.8365 321.099 16.5365 322.099 16.9365 322.499C17.3365 322.899 17.4365 323.599 17.4365 323.599C17.4365 323.599 17.4365 322.899 17.8365 322.499C18.2365 322.099 19.0365 321.099 18.8365 319.499C18.8365 319.499 19.4365 319.999 20.0365 319.499C20.7365 318.899 20.7365 317.199 20.7365 317.199V286.999C20.7365 286.999 20.7365 285.299 20.0365 284.699C19.4365 284.199 18.8365 284.599 18.8365 284.599C19.0365 283.099 18.2365 282.099 17.8365 281.599C17.4365 281.199 17.4365 280.599 17.4365 280.599C17.4365 280.599 17.3365 281.199 16.9365 281.599C16.5365 282.099 15.8365 283.099 15.9365 284.599C15.9365 284.599 15.3365 284.199 14.7365 284.699C14.0365 285.299 14.0365 286.999 14.0365 286.999V317.199Z" fill="#E6E0BF"/>
<path d="M15.8369 273.701H42.9369C43.4369 273.701 43.9369 273.201 43.9369 272.601V272.301C43.9369 271.701 43.4369 271.301 42.9369 271.301H15.8369C15.2369 271.301 14.8369 271.701 14.8369 272.301V272.601C14.8369 273.201 15.2369 273.701 15.8369 273.701Z" fill="#BD763A"/>
<path d="M31.9367 347.101C29.6367 348.101 29.2367 349.401 29.2367 349.401C29.2367 349.401 28.7367 348.101 26.4367 347.101C23.7367 345.901 13.0367 343.001 16.6367 329.301H29.2367H41.7367C45.3367 343.001 34.6367 345.901 31.9367 347.101Z" fill="#E0A34B"/>
<path d="M47.6365 324.199H10.9365V324.799C10.9365 326.999 12.7365 328.799 14.9365 328.799H43.6365C45.8365 328.799 47.6365 326.999 47.6365 324.799V324.199Z" fill="#E8C86E"/>
<path d="M42.7367 328.801H15.6367C15.1367 328.801 14.6367 329.301 14.6367 329.801V330.101C14.6367 330.701 15.1367 331.201 15.6367 331.201H42.7367C43.3367 331.201 43.8367 330.701 43.8367 330.101V329.801C43.8367 329.301 43.3367 328.801 42.7367 328.801Z" fill="#BD763A"/>
<path fill-rule="evenodd" clip-rule="evenodd" d="M26.2363 250.3C26.2363 248.6 27.6363 247.1 29.3363 247.1C31.1363 247.1 32.5363 248.6 32.5363 250.3C32.5363 252 31.1363 253.5 29.3363 253.5C27.6363 253.5 26.2363 252 26.2363 250.3ZM27.0363 250.3C27.0363 251.6 28.1363 252.6 29.3363 252.6C30.6363 252.6 31.6363 251.6 31.6363 250.3C31.6363 249 30.6363 248 29.3363 248C28.1363 248 27.0363 249 27.0363 250.3Z" fill="url(#paint0_linear_2176_1364)"/>
<path d="M30.6361 245.601C30.6361 244.901 30.1361 244.301 29.3361 244.301C28.6361 244.301 28.0361 244.901 28.0361 245.601C28.0361 246.401 28.6361 246.901 29.3361 246.901C30.1361 246.901 30.6361 246.401 30.6361 245.601Z" fill="#C26D2C"/>
<path d="M30.6361 240.5C30.6361 239.7 30.1361 239.1 29.3361 239.1C28.6361 239.1 28.0361 239.7 28.0361 240.5C28.0361 241.2 28.6361 241.8 29.3361 241.8C30.1361 241.8 30.6361 241.2 30.6361 240.5Z" fill="#C26D2C"/>
<path d="M30.6361 235.3C30.6361 234.5 30.1361 234 29.3361 234C28.6361 234 28.0361 234.5 28.0361 235.3C28.0361 236 28.6361 236.6 29.3361 236.6C30.1361 236.6 30.6361 236 30.6361 235.3Z" fill="#C26D2C"/>
<path d="M30.6361 230.101C30.6361 229.401 30.1361 228.801 29.3361 228.801C28.6361 228.801 28.0361 229.401 28.0361 230.101C28.0361 230.801 28.6361 231.401 29.3361 231.401C30.1361 231.401 30.6361 230.801 30.6361 230.101Z" fill="#C26D2C"/>
<path d="M30.6361 224.9C30.6361 224.2 30.1361 223.6 29.3361 223.6C28.6361 223.6 28.0361 224.2 28.0361 224.9C28.0361 225.6 28.6361 226.2 29.3361 226.2C30.1361 226.2 30.6361 225.6 30.6361 224.9Z" fill="#C26D2C"/>
<path d="M30.6361 219.7C30.6361 219 30.1361 218.4 29.3361 218.4C28.6361 218.4 28.0361 219 28.0361 219.7C28.0361 220.5 28.6361 221 29.3361 221C30.1361 221 30.6361 220.5 30.6361 219.7Z" fill="#C26D2C"/>
<path d="M30.6361 214.599C30.6361 213.799 30.1361 213.199 29.3361 213.199C28.6361 213.199 28.0361 213.799 28.0361 214.599C28.0361 215.299 28.6361 215.899 29.3361 215.899C30.1361 215.899 30.6361 215.299 30.6361 214.599Z" fill="#C26D2C"/>
<path d="M30.6361 209.4C30.6361 208.6 30.1361 208.1 29.3361 208.1C28.6361 208.1 28.0361 208.6 28.0361 209.4C28.0361 210.1 28.6361 210.7 29.3361 210.7C30.1361 210.7 30.6361 210.1 30.6361 209.4Z" fill="#C26D2C"/>
<path d="M30.6361 204.2C30.6361 203.5 30.1361 202.9 29.3361 202.9C28.6361 202.9 28.0361 203.5 28.0361 204.2C28.0361 204.9 28.6361 205.5 29.3361 205.5C30.1361 205.5 30.6361 204.9 30.6361 204.2Z" fill="#C26D2C"/>
<path d="M30.6361 198.999C30.6361 198.299 30.1361 197.699 29.3361 197.699C28.6361 197.699 28.0361 198.299 28.0361 198.999C28.0361 199.699 28.6361 200.299 29.3361 200.299C30.1361 200.299 30.6361 199.699 30.6361 198.999Z" fill="#C26D2C"/>
<path d="M30.6361 193.8C30.6361 193.1 30.1361 192.5 29.3361 192.5C28.6361 192.5 28.0361 193.1 28.0361 193.8C28.0361 194.6 28.6361 195.1 29.3361 195.1C30.1361 195.1 30.6361 194.6 30.6361 193.8Z" fill="#C26D2C"/>
<path d="M30.6361 188.701C30.6361 187.901 30.1361 187.301 29.3361 187.301C28.6361 187.301 28.0361 187.901 28.0361 188.701C28.0361 189.401 28.6361 190.001 29.3361 190.001C30.1361 190.001 30.6361 189.401 30.6361 188.701Z" fill="#C26D2C"/>
<path d="M30.6361 183.499C30.6361 182.699 30.1361 182.199 29.3361 182.199C28.6361 182.199 28.0361 182.699 28.0361 183.499C28.0361 184.199 28.6361 184.799 29.3361 184.799C30.1361 184.799 30.6361 184.199 30.6361 183.499Z" fill="#C26D2C"/>
<path d="M30.6361 178.3C30.6361 177.6 30.1361 177 29.3361 177C28.6361 177 28.0361 177.6 28.0361 178.3C28.0361 179 28.6361 179.6 29.3361 179.6C30.1361 179.6 30.6361 179 30.6361 178.3Z" fill="#C26D2C"/>
<path d="M30.6361 173.101C30.6361 172.401 30.1361 171.801 29.3361 171.801C28.6361 171.801 28.0361 172.401 28.0361 173.101C28.0361 173.801 28.6361 174.401 29.3361 174.401C30.1361 174.401 30.6361 173.801 30.6361 173.101Z" fill="#C26D2C"/>
<path d="M30.6361 167.9C30.6361 167.2 30.1361 166.6 29.3361 166.6C28.6361 166.6 28.0361 167.2 28.0361 167.9C28.0361 168.7 28.6361 169.2 29.3361 169.2C30.1361 169.2 30.6361 168.7 30.6361 167.9Z" fill="#C26D2C"/>
<path d="M30.6361 162.8C30.6361 162 30.1361 161.4 29.3361 161.4C28.6361 161.4 28.0361 162 28.0361 162.8C28.0361 163.5 28.6361 164.1 29.3361 164.1C30.1361 164.1 30.6361 163.5 30.6361 162.8Z" fill="#C26D2C"/>
<path d="M30.6361 157.601C30.6361 156.801 30.1361 156.301 29.3361 156.301C28.6361 156.301 28.0361 156.801 28.0361 157.601C28.0361 158.301 28.6361 158.901 29.3361 158.901C30.1361 158.901 30.6361 158.301 30.6361 157.601Z" fill="#C26D2C"/>
<path d="M30.6361 152.4C30.6361 151.7 30.1361 151.1 29.3361 151.1C28.6361 151.1 28.0361 151.7 28.0361 152.4C28.0361 153.1 28.6361 153.7 29.3361 153.7C30.1361 153.7 30.6361 153.1 30.6361 152.4Z" fill="#C26D2C"/>
<path d="M30.6361 147.2C30.6361 146.5 30.1361 145.9 29.3361 145.9C28.6361 145.9 28.0361 146.5 28.0361 147.2C28.0361 147.9 28.6361 148.5 29.3361 148.5C30.1361 148.5 30.6361 147.9 30.6361 147.2Z" fill="#C26D2C"/>
<path d="M30.6361 141.999C30.6361 141.299 30.1361 140.699 29.3361 140.699C28.6361 140.699 28.0361 141.299 28.0361 141.999C28.0361 142.799 28.6361 143.299 29.3361 143.299C30.1361 143.299 30.6361 142.799 30.6361 141.999Z" fill="#C26D2C"/>
<path d="M30.6361 136.8C30.6361 136.1 30.1361 135.5 29.3361 135.5C28.6361 135.5 28.0361 136.1 28.0361 136.8C28.0361 137.6 28.6361 138.2 29.3361 138.2C30.1361 138.2 30.6361 137.6 30.6361 136.8Z" fill="#C26D2C"/>
<path d="M30.6361 131.7C30.6361 130.9 30.1361 130.4 29.3361 130.4C28.6361 130.4 28.0361 130.9 28.0361 131.7C28.0361 132.4 28.6361 133 29.3361 133C30.1361 133 30.6361 132.4 30.6361 131.7Z" fill="#C26D2C"/>
<path d="M30.6361 126.499C30.6361 125.799 30.1361 125.199 29.3361 125.199C28.6361 125.199 28.0361 125.799 28.0361 126.499C28.0361 127.199 28.6361 127.799 29.3361 127.799C30.1361 127.799 30.6361 127.199 30.6361 126.499Z" fill="#C26D2C"/>
<path d="M30.6361 121.3C30.6361 120.6 30.1361 120 29.3361 120C28.6361 120 28.0361 120.6 28.0361 121.3C28.0361 122 28.6361 122.6 29.3361 122.6C30.1361 122.6 30.6361 122 30.6361 121.3Z" fill="#C26D2C"/>
<path d="M30.6361 116.101C30.6361 115.401 30.1361 114.801 29.3361 114.801C28.6361 114.801 28.0361 115.401 28.0361 116.101C28.0361 116.801 28.6361 117.401 29.3361 117.401C30.1361 117.401 30.6361 116.801 30.6361 116.101Z" fill="#C26D2C"/>
<path d="M30.6361 110.9C30.6361 110.2 30.1361 109.6 29.3361 109.6C28.6361 109.6 28.0361 110.2 28.0361 110.9C28.0361 111.7 28.6361 112.3 29.3361 112.3C30.1361 112.3 30.6361 111.7 30.6361 110.9Z" fill="#C26D2C"/>
<path d="M30.6361 105.8C30.6361 105 30.1361 104.5 29.3361 104.5C28.6361 104.5 28.0361 105 28.0361 105.8C28.0361 106.5 28.6361 107.1 29.3361 107.1C30.1361 107.1 30.6361 106.5 30.6361 105.8Z" fill="#C26D2C"/>
<path d="M30.6361 100.601C30.6361 99.9008 30.1361 99.3008 29.3361 99.3008C28.6361 99.3008 28.0361 99.9008 28.0361 100.601C28.0361 101.301 28.6361 101.901 29.3361 101.901C30.1361 101.901 30.6361 101.301 30.6361 100.601Z" fill="#C26D2C"/>
<path d="M30.6361 95.3996C30.6361 94.6996 30.1361 94.0996 29.3361 94.0996C28.6361 94.0996 28.0361 94.6996 28.0361 95.3996C28.0361 96.0996 28.6361 96.6996 29.3361 96.6996C30.1361 96.6996 30.6361 96.0996 30.6361 95.3996Z" fill="#C26D2C"/>
<path d="M30.6361 90.2004C30.6361 89.5004 30.1361 88.9004 29.3361 88.9004C28.6361 88.9004 28.0361 89.5004 28.0361 90.2004C28.0361 90.9004 28.6361 91.5004 29.3361 91.5004C30.1361 91.5004 30.6361 90.9004 30.6361 90.2004Z" fill="#C26D2C"/>
<path d="M30.6361 84.9992C30.6361 84.2992 30.1361 83.6992 29.3361 83.6992C28.6361 83.6992 28.0361 84.2992 28.0361 84.9992C28.0361 85.7992 28.6361 86.2992 29.3361 86.2992C30.1361 86.2992 30.6361 85.7992 30.6361 84.9992Z" fill="#C26D2C"/>
<path d="M30.6361 79.8996C30.6361 79.0996 30.1361 78.5996 29.3361 78.5996C28.6361 78.5996 28.0361 79.0996 28.0361 79.8996C28.0361 80.5996 28.6361 81.1996 29.3361 81.1996C30.1361 81.1996 30.6361 80.5996 30.6361 79.8996Z" fill="#C26D2C"/>
<path d="M30.6361 74.7004C30.6361 74.0004 30.1361 73.4004 29.3361 73.4004C28.6361 73.4004 28.0361 74.0004 28.0361 74.7004C28.0361 75.4004 28.6361 76.0004 29.3361 76.0004C30.1361 76.0004 30.6361 75.4004 30.6361 74.7004Z" fill="#C26D2C"/>
<path d="M30.6361 69.4992C30.6361 68.7992 30.1361 68.1992 29.3361 68.1992C28.6361 68.1992 28.0361 68.7992 28.0361 69.4992C28.0361 70.1992 28.6361 70.7992 29.3361 70.7992C30.1361 70.7992 30.6361 70.1992 30.6361 69.4992Z" fill="#C26D2C"/>
<path d="M30.6361 64.3C30.6361 63.6 30.1361 63 29.3361 63C28.6361 63 28.0361 63.6 28.0361 64.3C28.0361 65 28.6361 65.6 29.3361 65.6C30.1361 65.6 30.6361 65 30.6361 64.3Z" fill="#C26D2C"/>
<path d="M30.6361 59.1008C30.6361 58.4008 30.1361 57.8008 29.3361 57.8008C28.6361 57.8008 28.0361 58.4008 28.0361 59.1008C28.0361 59.9008 28.6361 60.4008 29.3361 60.4008C30.1361 60.4008 30.6361 59.9008 30.6361 59.1008Z" fill="#C26D2C"/>
<path d="M30.6361 53.9992C30.6361 53.1992 30.1361 52.6992 29.3361 52.6992C28.6361 52.6992 28.0361 53.1992 28.0361 53.9992C28.0361 54.6992 28.6361 55.2992 29.3361 55.2992C30.1361 55.2992 30.6361 54.6992 30.6361 53.9992Z" fill="#C26D2C"/>
<path d="M30.6361 48.8C30.6361 48.1 30.1361 47.5 29.3361 47.5C28.6361 47.5 28.0361 48.1 28.0361 48.8C28.0361 49.5 28.6361 50.1 29.3361 50.1C30.1361 50.1 30.6361 49.5 30.6361 48.8Z" fill="#C26D2C"/>
<path d="M30.6361 43.6008C30.6361 42.9008 30.1361 42.3008 29.3361 42.3008C28.6361 42.3008 28.0361 42.9008 28.0361 43.6008C28.0361 44.3008 28.6361 44.9008 29.3361 44.9008C30.1361 44.9008 30.6361 44.3008 30.6361 43.6008Z" fill="#C26D2C"/>
<path d="M30.6361 38.3996C30.6361 37.6996 30.1361 37.0996 29.3361 37.0996C28.6361 37.0996 28.0361 37.6996 28.0361 38.3996C28.0361 39.0996 28.6361 39.6996 29.3361 39.6996C30.1361 39.6996 30.6361 39.0996 30.6361 38.3996Z" fill="#C26D2C"/>
<path d="M30.6361 33.2004C30.6361 32.5004 30.1361 31.9004 29.3361 31.9004C28.6361 31.9004 28.0361 32.5004 28.0361 33.2004C28.0361 34.0004 28.6361 34.5004 29.3361 34.5004C30.1361 34.5004 30.6361 34.0004 30.6361 33.2004Z" fill="#C26D2C"/>
<path d="M30.6361 28.1008C30.6361 27.3008 30.1361 26.8008 29.3361 26.8008C28.6361 26.8008 28.0361 27.3008 28.0361 28.1008C28.0361 28.8008 28.6361 29.4008 29.3361 29.4008C30.1361 29.4008 30.6361 28.8008 30.6361 28.1008Z" fill="#C26D2C"/>
<path d="M30.6361 22.8996C30.6361 22.1996 30.1361 21.5996 29.3361 21.5996C28.6361 21.5996 28.0361 22.1996 28.0361 22.8996C28.0361 23.5996 28.6361 24.1996 29.3361 24.1996C30.1361 24.1996 30.6361 23.5996 30.6361 22.8996Z" fill="#C26D2C"/>
<path d="M30.6361 17.7004C30.6361 17.0004 30.1361 16.4004 29.3361 16.4004C28.6361 16.4004 28.0361 17.0004 28.0361 17.7004C28.0361 18.4004 28.6361 19.0004 29.3361 19.0004C30.1361 19.0004 30.6361 18.4004 30.6361 17.7004Z" fill="#C26D2C"/>
<path d="M30.6361 12.4992C30.6361 11.7992 30.1361 11.1992 29.3361 11.1992C28.6361 11.1992 28.0361 11.7992 28.0361 12.4992C28.0361 13.1992 28.6361 13.7992 29.3361 13.7992C30.1361 13.7992 30.6361 13.1992 30.6361 12.4992Z" fill="#C26D2C"/>
<path d="M30.6361 7.3C30.6361 6.6 30.1361 6 29.3361 6C28.6361 6 28.0361 6.6 28.0361 7.3C28.0361 8.1 28.6361 8.6 29.3361 8.6C30.1361 8.6 30.6361 8.1 30.6361 7.3Z" fill="#C26D2C"/>
<path d="M30.6361 2.20078C30.6361 1.40078 30.1361 0.800781 29.3361 0.800781C28.6361 0.800781 28.0361 1.40078 28.0361 2.20078C28.0361 2.90078 28.6361 3.50078 29.3361 3.50078C30.1361 3.50078 30.6361 2.90078 30.6361 2.20078Z" fill="#C26D2C"/>
<path d="M53.8367 187.001C55.1367 186.501 55.3367 185.801 55.3367 185.801C55.3367 185.801 55.5367 186.501 56.8367 187.001C58.3367 187.701 64.2367 189.301 62.2367 196.801H55.3367H48.4367C46.4367 189.301 52.3367 187.701 53.8367 187.001Z" fill="#E0A34B"/>
<path d="M45.1367 199.6H65.4367V199.3C65.4367 198.1 64.4367 197.1 63.2367 197.1H47.3367C46.1367 197.1 45.1367 198.1 45.1367 199.3V199.6Z" fill="#E8C86E"/>
<path fill-rule="evenodd" clip-rule="evenodd" d="M64.8363 199.6V225H45.7363V199.6H64.8363ZM59.9363 221.1C59.9363 221.1 59.9363 222.1 60.3363 222.4C60.6363 222.7 60.9363 222.4 60.9363 222.4C60.8363 223.3 61.2363 223.8 61.4363 224.1C61.7363 224.3 61.7363 224.7 61.7363 224.7C61.7363 224.7 61.7363 224.3 62.0363 224.1C62.2363 223.8 62.6363 223.3 62.5363 222.4C62.5363 222.4 62.8363 222.7 63.1363 222.4C63.5363 222.1 63.5363 221.1 63.5363 221.1V204.5C63.5363 204.5 63.5363 203.6 63.1363 203.2C62.8363 202.9 62.5363 203.2 62.5363 203.2C62.6363 202.3 62.2363 201.8 62.0363 201.5C61.7363 201.3 61.7363 200.9 61.7363 200.9C61.7363 200.9 61.7363 201.3 61.4363 201.5C61.2363 201.8 60.8363 202.3 60.9363 203.2C60.9363 203.2 60.6363 202.9 60.3363 203.2C59.9363 203.6 59.9363 204.5 59.9363 204.5V221.1ZM52.2363 221.1C52.2363 221.1 52.2363 222 52.8363 222.4C53.4363 222.7 53.9363 222.4 53.9363 222.4C53.7363 223.3 54.4363 223.8 54.8363 224C55.2363 224.3 55.2363 224.6 55.2363 224.6C55.2363 224.6 55.2363 224.3 55.6363 224C56.0363 223.8 56.6363 223.3 56.5363 222.4C56.5363 222.4 57.0363 222.7 57.6363 222.4C58.2363 222 58.2363 221.1 58.2363 221.1V204.5C58.2363 204.5 58.2363 203.5 57.6363 203.2C57.0363 202.9 56.5363 203.2 56.5363 203.2C56.6363 202.3 56.0363 201.7 55.6363 201.5C55.2363 201.3 55.2363 200.9 55.2363 200.9C55.2363 200.9 55.2363 201.3 54.8363 201.5C54.4363 201.7 53.7363 202.3 53.9363 203.2C53.9363 203.2 53.4363 202.9 52.8363 203.2C52.2363 203.5 52.2363 204.5 52.2363 204.5V221.1ZM46.8363 221.1C46.8363 221.1 46.8363 222 47.2363 222.3C47.6363 222.6 47.9363 222.4 47.9363 222.4C47.8363 223.2 48.2363 223.8 48.4363 224C48.7363 224.3 48.7363 224.6 48.7363 224.6C48.7363 224.6 48.7363 224.3 48.9363 224C49.2363 223.8 49.6363 223.2 49.4363 222.4C49.4363 222.4 49.8363 222.6 50.1363 222.3C50.5363 222 50.5363 221.1 50.5363 221.1V204.4C50.5363 204.4 50.5363 203.5 50.1363 203.2C49.8363 202.9 49.4363 203.1 49.4363 203.1C49.6363 202.3 49.2363 201.7 48.9363 201.5C48.7363 201.3 48.7363 200.9 48.7363 200.9C48.7363 200.9 48.7363 201.3 48.4363 201.5C48.2363 201.7 47.8363 202.3 47.9363 203.1C47.9363 203.1 47.6363 202.9 47.2363 203.2C46.8363 203.5 46.8363 204.4 46.8363 204.4V221.1Z" fill="#E6E0BF"/>
<path d="M47.8369 197.101H62.8369C63.1369 197.101 63.3369 196.901 63.3369 196.601V196.401C63.3369 196.101 63.1369 195.801 62.8369 195.801H47.8369C47.5369 195.801 47.3369 196.101 47.3369 196.401V196.601C47.3369 196.901 47.5369 197.101 47.8369 197.101Z" fill="#BD763A"/>
<path d="M56.7361 237.601C55.5361 238.201 55.2361 238.901 55.2361 238.901C55.2361 238.901 55.0361 238.201 53.7361 237.601C52.2361 237.001 46.3361 235.401 48.3361 227.801H55.2361H62.1361C64.1361 235.401 58.2361 237.001 56.7361 237.601Z" fill="#E0A34B"/>
<path d="M65.4367 225H45.1367V225.3C45.1367 226.5 46.1367 227.5 47.3367 227.5H63.2367C64.4367 227.5 65.4367 226.5 65.4367 225.3V225Z" fill="#E8C86E"/>
<path d="M62.7363 227.5H47.8363C47.4363 227.5 47.2363 227.8 47.2363 228.1V228.3C47.2363 228.6 47.4363 228.8 47.8363 228.8H62.7363C63.0363 228.8 63.3363 228.6 63.3363 228.3V228.1C63.3363 227.8 63.0363 227.5 62.7363 227.5Z" fill="#BD763A"/>
<path fill-rule="evenodd" clip-rule="evenodd" d="M53.6367 184.3C53.6367 183.3 54.3367 182.5 55.3367 182.5C56.3367 182.5 57.0367 183.3 57.0367 184.3C57.0367 185.2 56.3367 186 55.3367 186C54.3367 186 53.6367 185.2 53.6367 184.3ZM54.0367 184.3C54.0367 185 54.6367 185.5 55.3367 185.5C56.0367 185.5 56.6367 185 56.6367 184.3C56.6367 183.6 56.0367 183 55.3367 183C54.6367 183 54.0367 183.6 54.0367 184.3Z" fill="url(#paint1_linear_2176_1364)"/>
<path d="M56.0367 181.7C56.0367 181.3 55.7367 181 55.3367 181C54.9367 181 54.6367 181.3 54.6367 181.7C54.6367 182.1 54.9367 182.4 55.3367 182.4C55.7367 182.4 56.0367 182.1 56.0367 181.7Z" fill="#C26D2C"/>
<path d="M56.0367 178.8C56.0367 178.4 55.7367 178.1 55.3367 178.1C54.9367 178.1 54.6367 178.4 54.6367 178.8C54.6367 179.2 54.9367 179.5 55.3367 179.5C55.7367 179.5 56.0367 179.2 56.0367 178.8Z" fill="#C26D2C"/>
<path d="M56.0367 175.999C56.0367 175.599 55.7367 175.199 55.3367 175.199C54.9367 175.199 54.6367 175.599 54.6367 175.999C54.6367 176.399 54.9367 176.699 55.3367 176.699C55.7367 176.699 56.0367 176.399 56.0367 175.999Z" fill="#C26D2C"/>
<path d="M56.0367 173.1C56.0367 172.7 55.7367 172.4 55.3367 172.4C54.9367 172.4 54.6367 172.7 54.6367 173.1C54.6367 173.5 54.9367 173.8 55.3367 173.8C55.7367 173.8 56.0367 173.5 56.0367 173.1Z" fill="#C26D2C"/>
<path d="M56.0367 170.3C56.0367 169.9 55.7367 169.5 55.3367 169.5C54.9367 169.5 54.6367 169.9 54.6367 170.3C54.6367 170.7 54.9367 171 55.3367 171C55.7367 171 56.0367 170.7 56.0367 170.3Z" fill="#C26D2C"/>
<path d="M56.0367 167.399C56.0367 166.999 55.7367 166.699 55.3367 166.699C54.9367 166.699 54.6367 166.999 54.6367 167.399C54.6367 167.799 54.9367 168.099 55.3367 168.099C55.7367 168.099 56.0367 167.799 56.0367 167.399Z" fill="#C26D2C"/>
<path d="M56.0367 164.501C56.0367 164.201 55.7367 163.801 55.3367 163.801C54.9367 163.801 54.6367 164.201 54.6367 164.501C54.6367 164.901 54.9367 165.301 55.3367 165.301C55.7367 165.301 56.0367 164.901 56.0367 164.501Z" fill="#C26D2C"/>
<path d="M56.0367 161.7C56.0367 161.3 55.7367 161 55.3367 161C54.9367 161 54.6367 161.3 54.6367 161.7C54.6367 162.1 54.9367 162.4 55.3367 162.4C55.7367 162.4 56.0367 162.1 56.0367 161.7Z" fill="#C26D2C"/>
<path d="M56.0367 158.8C56.0367 158.4 55.7367 158.1 55.3367 158.1C54.9367 158.1 54.6367 158.4 54.6367 158.8C54.6367 159.2 54.9367 159.6 55.3367 159.6C55.7367 159.6 56.0367 159.2 56.0367 158.8Z" fill="#C26D2C"/>
<path d="M56.0367 156.001C56.0367 155.601 55.7367 155.301 55.3367 155.301C54.9367 155.301 54.6367 155.601 54.6367 156.001C54.6367 156.401 54.9367 156.701 55.3367 156.701C55.7367 156.701 56.0367 156.401 56.0367 156.001Z" fill="#C26D2C"/>
<path d="M56.0367 153.1C56.0367 152.7 55.7367 152.4 55.3367 152.4C54.9367 152.4 54.6367 152.7 54.6367 153.1C54.6367 153.5 54.9367 153.8 55.3367 153.8C55.7367 153.8 56.0367 153.5 56.0367 153.1Z" fill="#C26D2C"/>
<path d="M56.0367 150.3C56.0367 149.9 55.7367 149.6 55.3367 149.6C54.9367 149.6 54.6367 149.9 54.6367 150.3C54.6367 150.7 54.9367 151 55.3367 151C55.7367 151 56.0367 150.7 56.0367 150.3Z" fill="#C26D2C"/>
<path d="M56.0367 147.399C56.0367 146.999 55.7367 146.699 55.3367 146.699C54.9367 146.699 54.6367 146.999 54.6367 147.399C54.6367 147.799 54.9367 148.099 55.3367 148.099C55.7367 148.099 56.0367 147.799 56.0367 147.399Z" fill="#C26D2C"/>
<path d="M56.0367 144.601C56.0367 144.201 55.7367 143.801 55.3367 143.801C54.9367 143.801 54.6367 144.201 54.6367 144.601C54.6367 145.001 54.9367 145.301 55.3367 145.301C55.7367 145.301 56.0367 145.001 56.0367 144.601Z" fill="#C26D2C"/>
<path d="M56.0367 141.7C56.0367 141.3 55.7367 141 55.3367 141C54.9367 141 54.6367 141.3 54.6367 141.7C54.6367 142.1 54.9367 142.4 55.3367 142.4C55.7367 142.4 56.0367 142.1 56.0367 141.7Z" fill="#C26D2C"/>
<path d="M56.0367 138.8C56.0367 138.5 55.7367 138.1 55.3367 138.1C54.9367 138.1 54.6367 138.5 54.6367 138.8C54.6367 139.2 54.9367 139.6 55.3367 139.6C55.7367 139.6 56.0367 139.2 56.0367 138.8Z" fill="#C26D2C"/>
<path d="M56.0367 136.001C56.0367 135.601 55.7367 135.301 55.3367 135.301C54.9367 135.301 54.6367 135.601 54.6367 136.001C54.6367 136.401 54.9367 136.701 55.3367 136.701C55.7367 136.701 56.0367 136.401 56.0367 136.001Z" fill="#C26D2C"/>
<path d="M56.0367 133.1C56.0367 132.7 55.7367 132.4 55.3367 132.4C54.9367 132.4 54.6367 132.7 54.6367 133.1C54.6367 133.5 54.9367 133.9 55.3367 133.9C55.7367 133.9 56.0367 133.5 56.0367 133.1Z" fill="#C26D2C"/>
<path d="M56.0367 130.3C56.0367 129.9 55.7367 129.6 55.3367 129.6C54.9367 129.6 54.6367 129.9 54.6367 130.3C54.6367 130.7 54.9367 131 55.3367 131C55.7367 131 56.0367 130.7 56.0367 130.3Z" fill="#C26D2C"/>
<path d="M56.0367 127.399C56.0367 126.999 55.7367 126.699 55.3367 126.699C54.9367 126.699 54.6367 126.999 54.6367 127.399C54.6367 127.799 54.9367 128.099 55.3367 128.099C55.7367 128.099 56.0367 127.799 56.0367 127.399Z" fill="#C26D2C"/>
<path d="M56.0367 124.6C56.0367 124.2 55.7367 123.9 55.3367 123.9C54.9367 123.9 54.6367 124.2 54.6367 124.6C54.6367 125 54.9367 125.3 55.3367 125.3C55.7367 125.3 56.0367 125 56.0367 124.6Z" fill="#C26D2C"/>
<path d="M56.0367 121.7C56.0367 121.3 55.7367 121 55.3367 121C54.9367 121 54.6367 121.3 54.6367 121.7C54.6367 122.1 54.9367 122.4 55.3367 122.4C55.7367 122.4 56.0367 122.1 56.0367 121.7Z" fill="#C26D2C"/>
<path d="M56.0367 118.9C56.0367 118.5 55.7367 118.1 55.3367 118.1C54.9367 118.1 54.6367 118.5 54.6367 118.9C54.6367 119.3 54.9367 119.6 55.3367 119.6C55.7367 119.6 56.0367 119.3 56.0367 118.9Z" fill="#C26D2C"/>
<path d="M56.0367 116.001C56.0367 115.601 55.7367 115.301 55.3367 115.301C54.9367 115.301 54.6367 115.601 54.6367 116.001C54.6367 116.401 54.9367 116.701 55.3367 116.701C55.7367 116.701 56.0367 116.401 56.0367 116.001Z" fill="#C26D2C"/>
<path d="M56.0367 113.2C56.0367 112.8 55.7367 112.4 55.3367 112.4C54.9367 112.4 54.6367 112.8 54.6367 113.2C54.6367 113.5 54.9367 113.9 55.3367 113.9C55.7367 113.9 56.0367 113.5 56.0367 113.2Z" fill="#C26D2C"/>
<path d="M56.0367 110.3C56.0367 109.9 55.7367 109.6 55.3367 109.6C54.9367 109.6 54.6367 109.9 54.6367 110.3C54.6367 110.7 54.9367 111 55.3367 111C55.7367 111 56.0367 110.7 56.0367 110.3Z" fill="#C26D2C"/>
<path d="M56.0367 107.399C56.0367 106.999 55.7367 106.699 55.3367 106.699C54.9367 106.699 54.6367 106.999 54.6367 107.399C54.6367 107.799 54.9367 108.199 55.3367 108.199C55.7367 108.199 56.0367 107.799 56.0367 107.399Z" fill="#C26D2C"/>
<path d="M56.0367 104.6C56.0367 104.2 55.7367 103.9 55.3367 103.9C54.9367 103.9 54.6367 104.2 54.6367 104.6C54.6367 105 54.9367 105.3 55.3367 105.3C55.7367 105.3 56.0367 105 56.0367 104.6Z" fill="#C26D2C"/>
<path d="M56.0367 101.7C56.0367 101.3 55.7367 101 55.3367 101C54.9367 101 54.6367 101.3 54.6367 101.7C54.6367 102.1 54.9367 102.4 55.3367 102.4C55.7367 102.4 56.0367 102.1 56.0367 101.7Z" fill="#C26D2C"/>
<path d="M56.0367 98.8992C56.0367 98.4992 55.7367 98.1992 55.3367 98.1992C54.9367 98.1992 54.6367 98.4992 54.6367 98.8992C54.6367 99.2992 54.9367 99.5992 55.3367 99.5992C55.7367 99.5992 56.0367 99.2992 56.0367 98.8992Z" fill="#C26D2C"/>
<path d="M56.0367 96.0008C56.0367 95.6008 55.7367 95.3008 55.3367 95.3008C54.9367 95.3008 54.6367 95.6008 54.6367 96.0008C54.6367 96.4008 54.9367 96.7008 55.3367 96.7008C55.7367 96.7008 56.0367 96.4008 56.0367 96.0008Z" fill="#C26D2C"/>
<path d="M56.0367 93.2004C56.0367 92.8004 55.7367 92.4004 55.3367 92.4004C54.9367 92.4004 54.6367 92.8004 54.6367 93.2004C54.6367 93.6004 54.9367 93.9004 55.3367 93.9004C55.7367 93.9004 56.0367 93.6004 56.0367 93.2004Z" fill="#C26D2C"/>
<path d="M56.0367 90.2996C56.0367 89.8996 55.7367 89.5996 55.3367 89.5996C54.9367 89.5996 54.6367 89.8996 54.6367 90.2996C54.6367 90.6996 54.9367 90.9996 55.3367 90.9996C55.7367 90.9996 56.0367 90.6996 56.0367 90.2996Z" fill="#C26D2C"/>
<path d="M56.0367 87.3992C56.0367 87.0992 55.7367 86.6992 55.3367 86.6992C54.9367 86.6992 54.6367 87.0992 54.6367 87.3992C54.6367 87.7992 54.9367 88.1992 55.3367 88.1992C55.7367 88.1992 56.0367 87.7992 56.0367 87.3992Z" fill="#C26D2C"/>
<path d="M56.0367 84.6004C56.0367 84.2004 55.7367 83.9004 55.3367 83.9004C54.9367 83.9004 54.6367 84.2004 54.6367 84.6004C54.6367 85.0004 54.9367 85.3004 55.3367 85.3004C55.7367 85.3004 56.0367 85.0004 56.0367 84.6004Z" fill="#C26D2C"/>
<path d="M56.0367 81.7C56.0367 81.3 55.7367 81 55.3367 81C54.9367 81 54.6367 81.3 54.6367 81.7C54.6367 82.1 54.9367 82.5 55.3367 82.5C55.7367 82.5 56.0367 82.1 56.0367 81.7Z" fill="#C26D2C"/>
<path d="M56.0367 78.8992C56.0367 78.4992 55.7367 78.1992 55.3367 78.1992C54.9367 78.1992 54.6367 78.4992 54.6367 78.8992C54.6367 79.2992 54.9367 79.5992 55.3367 79.5992C55.7367 79.5992 56.0367 79.2992 56.0367 78.8992Z" fill="#C26D2C"/>
<path d="M56.0367 76.0008C56.0367 75.6008 55.7367 75.3008 55.3367 75.3008C54.9367 75.3008 54.6367 75.6008 54.6367 76.0008C54.6367 76.4008 54.9367 76.8008 55.3367 76.8008C55.7367 76.8008 56.0367 76.4008 56.0367 76.0008Z" fill="#C26D2C"/>
<path d="M56.0367 73.2C56.0367 72.8 55.7367 72.5 55.3367 72.5C54.9367 72.5 54.6367 72.8 54.6367 73.2C54.6367 73.6 54.9367 73.9 55.3367 73.9C55.7367 73.9 56.0367 73.6 56.0367 73.2Z" fill="#C26D2C"/>
<path d="M56.0367 70.2996C56.0367 69.8996 55.7367 69.5996 55.3367 69.5996C54.9367 69.5996 54.6367 69.8996 54.6367 70.2996C54.6367 70.6996 54.9367 70.9996 55.3367 70.9996C55.7367 70.9996 56.0367 70.6996 56.0367 70.2996Z" fill="#C26D2C"/>
<path d="M56.0367 67.4992C56.0367 67.0992 55.7367 66.6992 55.3367 66.6992C54.9367 66.6992 54.6367 67.0992 54.6367 67.4992C54.6367 67.8992 54.9367 68.1992 55.3367 68.1992C55.7367 68.1992 56.0367 67.8992 56.0367 67.4992Z" fill="#C26D2C"/>
<path d="M56.0367 64.6004C56.0367 64.2004 55.7367 63.9004 55.3367 63.9004C54.9367 63.9004 54.6367 64.2004 54.6367 64.6004C54.6367 65.0004 54.9367 65.3004 55.3367 65.3004C55.7367 65.3004 56.0367 65.0004 56.0367 64.6004Z" fill="#C26D2C"/>
<path d="M56.0367 61.8C56.0367 61.4 55.7367 61 55.3367 61C54.9367 61 54.6367 61.4 54.6367 61.8C54.6367 62.2 54.9367 62.5 55.3367 62.5C55.7367 62.5 56.0367 62.2 56.0367 61.8Z" fill="#C26D2C"/>
<path d="M56.0367 58.8992C56.0367 58.4992 55.7367 58.1992 55.3367 58.1992C54.9367 58.1992 54.6367 58.4992 54.6367 58.8992C54.6367 59.2992 54.9367 59.5992 55.3367 59.5992C55.7367 59.5992 56.0367 59.2992 56.0367 58.8992Z" fill="#C26D2C"/>
<path d="M56.0367 56.0008C56.0367 55.6008 55.7367 55.3008 55.3367 55.3008C54.9367 55.3008 54.6367 55.6008 54.6367 56.0008C54.6367 56.4008 54.9367 56.8008 55.3367 56.8008C55.7367 56.8008 56.0367 56.4008 56.0367 56.0008Z" fill="#C26D2C"/>
<path d="M56.0367 53.2C56.0367 52.8 55.7367 52.5 55.3367 52.5C54.9367 52.5 54.6367 52.8 54.6367 53.2C54.6367 53.6 54.9367 53.9 55.3367 53.9C55.7367 53.9 56.0367 53.6 56.0367 53.2Z" fill="#C26D2C"/>
<path d="M56.0367 50.2996C56.0367 49.8996 55.7367 49.5996 55.3367 49.5996C54.9367 49.5996 54.6367 49.8996 54.6367 50.2996C54.6367 50.6996 54.9367 50.9996 55.3367 50.9996C55.7367 50.9996 56.0367 50.6996 56.0367 50.2996Z" fill="#C26D2C"/>
<path d="M56.0367 47.5008C56.0367 47.1008 55.7367 46.8008 55.3367 46.8008C54.9367 46.8008 54.6367 47.1008 54.6367 47.5008C54.6367 47.9008 54.9367 48.2008 55.3367 48.2008C55.7367 48.2008 56.0367 47.9008 56.0367 47.5008Z" fill="#C26D2C"/>
<path d="M56.0367 44.6004C56.0367 44.2004 55.7367 43.9004 55.3367 43.9004C54.9367 43.9004 54.6367 44.2004 54.6367 44.6004C54.6367 45.0004 54.9367 45.3004 55.3367 45.3004C55.7367 45.3004 56.0367 45.0004 56.0367 44.6004Z" fill="#C26D2C"/>
<path d="M56.0367 41.8C56.0367 41.4 55.7367 41 55.3367 41C54.9367 41 54.6367 41.4 54.6367 41.8C54.6367 42.2 54.9367 42.5 55.3367 42.5C55.7367 42.5 56.0367 42.2 56.0367 41.8Z" fill="#C26D2C"/>
<path d="M56.0367 38.8992C56.0367 38.4992 55.7367 38.1992 55.3367 38.1992C54.9367 38.1992 54.6367 38.4992 54.6367 38.8992C54.6367 39.2992 54.9367 39.5992 55.3367 39.5992C55.7367 39.5992 56.0367 39.2992 56.0367 38.8992Z" fill="#C26D2C"/>
<path d="M56.0367 36.1008C56.0367 35.7008 55.7367 35.3008 55.3367 35.3008C54.9367 35.3008 54.6367 35.7008 54.6367 36.1008C54.6367 36.4008 54.9367 36.8008 55.3367 36.8008C55.7367 36.8008 56.0367 36.4008 56.0367 36.1008Z" fill="#C26D2C"/>
<path d="M56.0367 33.2C56.0367 32.8 55.7367 32.5 55.3367 32.5C54.9367 32.5 54.6367 32.8 54.6367 33.2C54.6367 33.6 54.9367 33.9 55.3367 33.9C55.7367 33.9 56.0367 33.6 56.0367 33.2Z" fill="#C26D2C"/>
<path d="M56.0367 30.2996C56.0367 29.9996 55.7367 29.5996 55.3367 29.5996C54.9367 29.5996 54.6367 29.9996 54.6367 30.2996C54.6367 30.6996 54.9367 31.0996 55.3367 31.0996C55.7367 31.0996 56.0367 30.6996 56.0367 30.2996Z" fill="#C26D2C"/>
<path d="M56.0367 27.5008C56.0367 27.1008 55.7367 26.8008 55.3367 26.8008C54.9367 26.8008 54.6367 27.1008 54.6367 27.5008C54.6367 27.9008 54.9367 28.2008 55.3367 28.2008C55.7367 28.2008 56.0367 27.9008 56.0367 27.5008Z" fill="#C26D2C"/>
<path d="M56.0367 24.6004C56.0367 24.2004 55.7367 23.9004 55.3367 23.9004C54.9367 23.9004 54.6367 24.2004 54.6367 24.6004C54.6367 25.0004 54.9367 25.4004 55.3367 25.4004C55.7367 25.4004 56.0367 25.0004 56.0367 24.6004Z" fill="#C26D2C"/>
<path d="M56.0367 21.7996C56.0367 21.3996 55.7367 21.0996 55.3367 21.0996C54.9367 21.0996 54.6367 21.3996 54.6367 21.7996C54.6367 22.1996 54.9367 22.4996 55.3367 22.4996C55.7367 22.4996 56.0367 22.1996 56.0367 21.7996Z" fill="#C26D2C"/>
<path d="M56.0367 18.8992C56.0367 18.4992 55.7367 18.1992 55.3367 18.1992C54.9367 18.1992 54.6367 18.4992 54.6367 18.8992C54.6367 19.2992 54.9367 19.5992 55.3367 19.5992C55.7367 19.5992 56.0367 19.2992 56.0367 18.8992Z" fill="#C26D2C"/>
<path d="M56.0367 16.1004C56.0367 15.7004 55.7367 15.4004 55.3367 15.4004C54.9367 15.4004 54.6367 15.7004 54.6367 16.1004C54.6367 16.5004 54.9367 16.8004 55.3367 16.8004C55.7367 16.8004 56.0367 16.5004 56.0367 16.1004Z" fill="#C26D2C"/>
<path d="M56.0367 13.2C56.0367 12.8 55.7367 12.5 55.3367 12.5C54.9367 12.5 54.6367 12.8 54.6367 13.2C54.6367 13.6 54.9367 13.9 55.3367 13.9C55.7367 13.9 56.0367 13.6 56.0367 13.2Z" fill="#C26D2C"/>
<path d="M56.0367 10.3996C56.0367 9.99961 55.7367 9.59961 55.3367 9.59961C54.9367 9.59961 54.6367 9.99961 54.6367 10.3996C54.6367 10.7996 54.9367 11.0996 55.3367 11.0996C55.7367 11.0996 56.0367 10.7996 56.0367 10.3996Z" fill="#C26D2C"/>
<path d="M56.0367 7.50078C56.0367 7.10078 55.7367 6.80078 55.3367 6.80078C54.9367 6.80078 54.6367 7.10078 54.6367 7.50078C54.6367 7.90078 54.9367 8.20078 55.3367 8.20078C55.7367 8.20078 56.0367 7.90078 56.0367 7.50078Z" fill="#C26D2C"/>
<path d="M56.0367 4.60039C56.0367 4.20039 55.7367 3.90039 55.3367 3.90039C54.9367 3.90039 54.6367 4.20039 54.6367 4.60039C54.6367 5.00039 54.9367 5.40039 55.3367 5.40039C55.7367 5.40039 56.0367 5.00039 56.0367 4.60039Z" fill="#C26D2C"/>
<path d="M56.0367 1.79961C56.0367 1.39961 55.7367 1.09961 55.3367 1.09961C54.9367 1.09961 54.6367 1.39961 54.6367 1.79961C54.6367 2.19961 54.9367 2.49961 55.3367 2.49961C55.7367 2.49961 56.0367 2.19961 56.0367 1.79961Z" fill="#C26D2C"/>
<path d="M81.2363 110.699V-38.8008" stroke="#E3B357" stroke-width="0.4" stroke-miterlimit="10"/>
<path d="M79.5367 111.099C79.5367 107.999 81.2367 106.699 81.2367 106.699C81.2367 106.699 83.0367 107.999 83.0367 111.099C83.0367 111.099 87.0367 114.699 84.7367 117.399V139.399C84.7367 139.399 83.0367 141.899 81.2367 142.599C79.4367 141.899 77.7367 139.399 77.7367 139.399V117.399C75.4367 114.699 79.5367 111.099 79.5367 111.099Z" fill="#E0A34B"/>
<path d="M81.2363 106.699C81.2363 106.699 83.0363 107.999 83.0363 111.099C83.0363 111.099 87.0363 114.699 84.7363 117.399V139.399C84.7363 139.399 83.0363 141.899 81.2363 142.599V106.699Z" fill="#E8C86E"/>
<path d="M80.1365 119.9C80.1365 118.3 81.2365 117.4 81.2365 117.4C81.2365 117.4 82.4365 118.3 82.4365 119.9C82.4365 119.9 83.5365 120.2 83.5365 121.1C83.5365 121.9 83.5365 137.6 83.5365 137.6C83.5365 137.6 82.3365 139.6 81.2365 139.6C80.2365 139.6 78.9365 137.6 78.9365 137.6C78.9365 137.6 78.9365 121.9 78.9365 121.1C78.9365 120.2 80.1365 119.9 80.1365 119.9Z" fill="#CC8242"/>
<path d="M4.93652 168.4V-6.59961" stroke="#E3B357" stroke-width="0.4" stroke-miterlimit="10"/>
<path d="M6.9365 168.901C6.9365 165.301 4.9365 163.801 4.9365 163.801C4.9365 163.801 2.8365 165.301 2.8365 168.901C2.8365 168.901 -1.8635 173.201 0.8365 176.301V202.101C0.8365 202.101 2.7365 204.901 4.9365 205.801C7.0365 204.901 8.9365 202.101 8.9365 202.101V176.301C11.7365 173.201 6.9365 168.901 6.9365 168.901Z" fill="#E0A34B"/>
<path d="M4.9365 163.801C4.9365 163.801 2.8365 165.301 2.8365 168.901C2.8365 168.901 -1.8635 173.201 0.8365 176.301V202.101C0.8365 202.101 2.7365 204.901 4.9365 205.801V163.801Z" fill="#E8C86E"/>
<path d="M6.23633 179.201C6.23633 177.301 4.93633 176.301 4.93633 176.301C4.93633 176.301 3.53633 177.301 3.53633 179.201C3.53633 179.201 2.23633 179.601 2.23633 180.601C2.23633 181.601 2.23633 200.001 2.23633 200.001C2.23633 200.001 3.63633 202.301 4.93633 202.301C6.13633 202.301 7.53633 200.001 7.53633 200.001C7.53633 200.001 7.53633 181.601 7.53633 180.601C7.53633 179.601 6.23633 179.201 6.23633 179.201Z" fill="#CC8242"/>
<defs>
<linearGradient id="paint0_linear_2176_1364" x1="1679.39" y1="85.0826" x2="1679.39" y2="45.3548" gradientUnits="userSpaceOnUse">
<stop stop-color="#A1823F"/>
<stop offset="0.68" stop-color="#C0A759"/>
</linearGradient>
<linearGradient id="paint1_linear_2176_1364" x1="740.268" y1="-2.06259" x2="740.268" y2="-13.881" gradientUnits="userSpaceOnUse">
<stop stop-color="#A1823F"/>
<stop offset="0.68" stop-color="#C0A759"/>
</linearGradient>
</defs>
</svg>
