<svg width="86" height="350" viewBox="0 0 86 350" fill="none" xmlns="http://www.w3.org/2000/svg">
<path d="M58.9006 255.4C56.6006 254.4 56.1006 253 56.1006 253C56.1006 253 55.7006 254.4 53.4006 255.4C50.7006 256.5 40.0006 259.4 43.6006 273.1H56.1006H68.7006C72.3006 259.4 61.6006 256.5 58.9006 255.4Z" fill="#E0A34B"/>
<path d="M74.6008 278.199H37.8008V277.699C37.8008 275.499 39.6008 273.699 41.8008 273.699H70.6008C72.8008 273.699 74.6008 275.499 74.6008 277.699V278.199Z" fill="#E8C86E"/>
<path fill-rule="evenodd" clip-rule="evenodd" d="M73.6008 278.199V324.199H38.8008V278.199H73.6008ZM47.7008 286.999C47.7008 286.999 47.7008 285.299 47.0008 284.699C46.4008 284.199 45.8008 284.699 45.8008 284.699C46.0008 283.099 45.3008 282.099 44.9008 281.699C44.4008 281.299 44.4008 280.599 44.4008 280.599C44.4008 280.599 44.4008 281.299 44.0008 281.699C43.5008 282.099 42.8008 283.099 43.0008 284.699C43.0008 284.699 42.4008 284.199 41.8008 284.699C41.1008 285.299 41.1008 286.999 41.1008 286.999V317.199C41.1008 317.199 41.1008 318.899 41.8008 319.499C42.4008 319.999 43.0008 319.499 43.0008 319.499C42.8008 321.099 43.5008 322.099 44.0008 322.499C44.4008 322.999 44.4008 323.599 44.4008 323.599C44.4008 323.599 44.4008 322.999 44.9008 322.499C45.3008 322.099 46.0008 321.099 45.8008 319.499C45.8008 319.499 46.4008 319.999 47.0008 319.499C47.7008 318.899 47.7008 317.199 47.7008 317.199V286.999ZM61.7008 286.999C61.7008 286.999 61.7008 285.299 60.6008 284.699C59.5008 284.099 58.5008 284.599 58.5008 284.599C58.9008 282.999 57.7008 281.999 57.0008 281.599C56.3008 281.199 56.2008 280.499 56.2008 280.499C56.2008 280.499 56.2008 281.199 55.5008 281.599C54.8008 281.999 53.6008 282.999 53.9008 284.599C53.9008 284.599 52.9008 284.099 51.9008 284.699C50.8008 285.299 50.8008 286.999 50.8008 286.999V317.099C50.8008 317.099 50.8008 318.799 51.9008 319.499C52.9008 319.999 53.9008 319.499 53.9008 319.499C53.6008 321.099 54.8008 322.099 55.5008 322.499C56.2008 322.899 56.2008 323.599 56.2008 323.599C56.2008 323.599 56.3008 322.899 57.0008 322.499C57.7008 322.099 58.9008 321.099 58.5008 319.499C58.5008 319.499 59.5008 319.999 60.6008 319.499C61.7008 318.799 61.7008 317.099 61.7008 317.099V286.999ZM71.4008 286.999C71.4008 286.999 71.4008 285.299 70.7008 284.699C70.1008 284.199 69.5008 284.699 69.5008 284.699C69.7008 283.099 68.9008 282.099 68.5008 281.699C68.1008 281.299 68.1008 280.599 68.1008 280.599C68.1008 280.599 68.0008 281.299 67.6008 281.699C67.2008 282.099 66.5008 283.099 66.6008 284.699C66.6008 284.699 66.0008 284.199 65.4008 284.699C64.7008 285.299 64.7008 286.999 64.7008 286.999V317.199C64.7008 317.199 64.7008 318.899 65.4008 319.499C66.0008 319.999 66.6008 319.599 66.6008 319.599C66.5008 321.099 67.2008 322.099 67.6008 322.599C68.0008 322.999 68.1008 323.599 68.1008 323.599C68.1008 323.599 68.1008 322.999 68.5008 322.599C68.9008 322.099 69.7008 321.099 69.5008 319.599C69.5008 319.599 70.1008 319.999 70.7008 319.499C71.4008 318.899 71.4008 317.199 71.4008 317.199V286.999Z" fill="#E6E0BF"/>
<path d="M69.7006 273.701H42.6006C42.0006 273.701 41.6006 273.201 41.6006 272.601V272.301C41.6006 271.701 42.0006 271.301 42.6006 271.301H69.7006C70.2006 271.301 70.7006 271.701 70.7006 272.301V272.601C70.7006 273.201 70.2006 273.701 69.7006 273.701Z" fill="#BD763A"/>
<path d="M53.6008 347.101C55.9008 348.101 56.3008 349.401 56.3008 349.401C56.3008 349.401 56.7008 348.101 59.0008 347.101C61.7008 345.901 72.4008 343.001 68.8008 329.301H56.3008H43.8008C40.2008 343.001 50.9008 345.901 53.6008 347.101Z" fill="#E0A34B"/>
<path d="M37.8008 324.199H74.6008V324.799C74.6008 326.999 72.8008 328.799 70.6008 328.799H41.8008C39.6008 328.799 37.8008 326.999 37.8008 324.799V324.199Z" fill="#E8C86E"/>
<path d="M42.8002 328.801H69.8002C70.4002 328.801 70.9002 329.301 70.9002 329.801V330.101C70.9002 330.701 70.4002 331.201 69.8002 331.201H42.8002C42.2002 331.201 41.7002 330.701 41.7002 330.101V329.801C41.7002 329.301 42.2002 328.801 42.8002 328.801Z" fill="#BD763A"/>
<path fill-rule="evenodd" clip-rule="evenodd" d="M56.101 253.5C54.401 253.5 53.001 252 53.001 250.3C53.001 248.6 54.401 247.1 56.101 247.1C57.901 247.1 59.301 248.6 59.301 250.3C59.301 252 57.901 253.5 56.101 253.5ZM56.101 248C54.901 248 53.801 249 53.801 250.3C53.801 251.6 54.901 252.6 56.101 252.6C57.401 252.6 58.401 251.6 58.401 250.3C58.401 249 57.401 248 56.101 248Z" fill="url(#paint0_linear_2176_995)"/>
<path d="M54.8008 245.601C54.8008 244.901 55.4008 244.301 56.1008 244.301C56.9008 244.301 57.4008 244.901 57.4008 245.601C57.4008 246.401 56.9008 246.901 56.1008 246.901C55.4008 246.901 54.8008 246.401 54.8008 245.601Z" fill="#C26D2C"/>
<path d="M54.8008 240.5C54.8008 239.7 55.4008 239.1 56.1008 239.1C56.9008 239.1 57.4008 239.7 57.4008 240.5C57.4008 241.2 56.9008 241.8 56.1008 241.8C55.4008 241.8 54.8008 241.2 54.8008 240.5Z" fill="#C26D2C"/>
<path d="M54.8008 235.3C54.8008 234.5 55.4008 234 56.1008 234C56.9008 234 57.4008 234.5 57.4008 235.3C57.4008 236 56.9008 236.6 56.1008 236.6C55.4008 236.6 54.8008 236 54.8008 235.3Z" fill="#C26D2C"/>
<path d="M54.8008 230.101C54.8008 229.401 55.4008 228.801 56.1008 228.801C56.9008 228.801 57.4008 229.401 57.4008 230.101C57.4008 230.801 56.9008 231.401 56.1008 231.401C55.4008 231.401 54.8008 230.801 54.8008 230.101Z" fill="#C26D2C"/>
<path d="M54.8008 224.9C54.8008 224.2 55.4008 223.6 56.1008 223.6C56.9008 223.6 57.4008 224.2 57.4008 224.9C57.4008 225.6 56.9008 226.2 56.1008 226.2C55.4008 226.2 54.8008 225.6 54.8008 224.9Z" fill="#C26D2C"/>
<path d="M54.8008 219.7C54.8008 219 55.4008 218.4 56.1008 218.4C56.9008 218.4 57.4008 219 57.4008 219.7C57.4008 220.5 56.9008 221 56.1008 221C55.4008 221 54.8008 220.5 54.8008 219.7Z" fill="#C26D2C"/>
<path d="M54.8008 214.599C54.8008 213.799 55.4008 213.199 56.1008 213.199C56.9008 213.199 57.4008 213.799 57.4008 214.599C57.4008 215.299 56.9008 215.899 56.1008 215.899C55.4008 215.899 54.8008 215.299 54.8008 214.599Z" fill="#C26D2C"/>
<path d="M54.8008 209.4C54.8008 208.6 55.4008 208.1 56.1008 208.1C56.9008 208.1 57.4008 208.6 57.4008 209.4C57.4008 210.1 56.9008 210.7 56.1008 210.7C55.4008 210.7 54.8008 210.1 54.8008 209.4Z" fill="#C26D2C"/>
<path d="M54.8008 204.2C54.8008 203.5 55.4008 202.9 56.1008 202.9C56.9008 202.9 57.4008 203.5 57.4008 204.2C57.4008 204.9 56.9008 205.5 56.1008 205.5C55.4008 205.5 54.8008 204.9 54.8008 204.2Z" fill="#C26D2C"/>
<path d="M54.8008 198.999C54.8008 198.299 55.4008 197.699 56.1008 197.699C56.9008 197.699 57.4008 198.299 57.4008 198.999C57.4008 199.699 56.9008 200.299 56.1008 200.299C55.4008 200.299 54.8008 199.699 54.8008 198.999Z" fill="#C26D2C"/>
<path d="M54.8008 193.8C54.8008 193.1 55.4008 192.5 56.1008 192.5C56.9008 192.5 57.4008 193.1 57.4008 193.8C57.4008 194.6 56.9008 195.1 56.1008 195.1C55.4008 195.1 54.8008 194.6 54.8008 193.8Z" fill="#C26D2C"/>
<path d="M54.8008 188.701C54.8008 187.901 55.4008 187.301 56.1008 187.301C56.9008 187.301 57.4008 187.901 57.4008 188.701C57.4008 189.401 56.9008 190.001 56.1008 190.001C55.4008 190.001 54.8008 189.401 54.8008 188.701Z" fill="#C26D2C"/>
<path d="M54.8008 183.499C54.8008 182.699 55.4008 182.199 56.1008 182.199C56.9008 182.199 57.4008 182.699 57.4008 183.499C57.4008 184.199 56.9008 184.799 56.1008 184.799C55.4008 184.799 54.8008 184.199 54.8008 183.499Z" fill="#C26D2C"/>
<path d="M54.8008 178.3C54.8008 177.6 55.4008 177 56.1008 177C56.9008 177 57.4008 177.6 57.4008 178.3C57.4008 179 56.9008 179.6 56.1008 179.6C55.4008 179.6 54.8008 179 54.8008 178.3Z" fill="#C26D2C"/>
<path d="M54.8008 173.101C54.8008 172.401 55.4008 171.801 56.1008 171.801C56.9008 171.801 57.4008 172.401 57.4008 173.101C57.4008 173.801 56.9008 174.401 56.1008 174.401C55.4008 174.401 54.8008 173.801 54.8008 173.101Z" fill="#C26D2C"/>
<path d="M54.8008 167.9C54.8008 167.2 55.4008 166.6 56.1008 166.6C56.9008 166.6 57.4008 167.2 57.4008 167.9C57.4008 168.7 56.9008 169.2 56.1008 169.2C55.4008 169.2 54.8008 168.7 54.8008 167.9Z" fill="#C26D2C"/>
<path d="M54.8008 162.8C54.8008 162 55.4008 161.4 56.1008 161.4C56.9008 161.4 57.4008 162 57.4008 162.8C57.4008 163.5 56.9008 164.1 56.1008 164.1C55.4008 164.1 54.8008 163.5 54.8008 162.8Z" fill="#C26D2C"/>
<path d="M54.8008 157.601C54.8008 156.801 55.4008 156.301 56.1008 156.301C56.9008 156.301 57.4008 156.801 57.4008 157.601C57.4008 158.301 56.9008 158.901 56.1008 158.901C55.4008 158.901 54.8008 158.301 54.8008 157.601Z" fill="#C26D2C"/>
<path d="M54.8008 152.4C54.8008 151.7 55.4008 151.1 56.1008 151.1C56.9008 151.1 57.4008 151.7 57.4008 152.4C57.4008 153.1 56.9008 153.7 56.1008 153.7C55.4008 153.7 54.8008 153.1 54.8008 152.4Z" fill="#C26D2C"/>
<path d="M54.8008 147.2C54.8008 146.5 55.4008 145.9 56.1008 145.9C56.9008 145.9 57.4008 146.5 57.4008 147.2C57.4008 147.9 56.9008 148.5 56.1008 148.5C55.4008 148.5 54.8008 147.9 54.8008 147.2Z" fill="#C26D2C"/>
<path d="M54.8008 141.999C54.8008 141.299 55.4008 140.699 56.1008 140.699C56.9008 140.699 57.4008 141.299 57.4008 141.999C57.4008 142.799 56.9008 143.299 56.1008 143.299C55.4008 143.299 54.8008 142.799 54.8008 141.999Z" fill="#C26D2C"/>
<path d="M54.8008 136.8C54.8008 136.1 55.4008 135.5 56.1008 135.5C56.9008 135.5 57.4008 136.1 57.4008 136.8C57.4008 137.6 56.9008 138.2 56.1008 138.2C55.4008 138.2 54.8008 137.6 54.8008 136.8Z" fill="#C26D2C"/>
<path d="M54.8008 131.7C54.8008 130.9 55.4008 130.4 56.1008 130.4C56.9008 130.4 57.4008 130.9 57.4008 131.7C57.4008 132.4 56.9008 133 56.1008 133C55.4008 133 54.8008 132.4 54.8008 131.7Z" fill="#C26D2C"/>
<path d="M54.8008 126.499C54.8008 125.799 55.4008 125.199 56.1008 125.199C56.9008 125.199 57.4008 125.799 57.4008 126.499C57.4008 127.199 56.9008 127.799 56.1008 127.799C55.4008 127.799 54.8008 127.199 54.8008 126.499Z" fill="#C26D2C"/>
<path d="M54.8008 121.3C54.8008 120.6 55.4008 120 56.1008 120C56.9008 120 57.4008 120.6 57.4008 121.3C57.4008 122 56.9008 122.6 56.1008 122.6C55.4008 122.6 54.8008 122 54.8008 121.3Z" fill="#C26D2C"/>
<path d="M54.8008 116.101C54.8008 115.401 55.4008 114.801 56.1008 114.801C56.9008 114.801 57.4008 115.401 57.4008 116.101C57.4008 116.801 56.9008 117.401 56.1008 117.401C55.4008 117.401 54.8008 116.801 54.8008 116.101Z" fill="#C26D2C"/>
<path d="M54.8008 110.9C54.8008 110.2 55.4008 109.6 56.1008 109.6C56.9008 109.6 57.4008 110.2 57.4008 110.9C57.4008 111.7 56.9008 112.3 56.1008 112.3C55.4008 112.3 54.8008 111.7 54.8008 110.9Z" fill="#C26D2C"/>
<path d="M54.8008 105.8C54.8008 105 55.4008 104.5 56.1008 104.5C56.9008 104.5 57.4008 105 57.4008 105.8C57.4008 106.5 56.9008 107.1 56.1008 107.1C55.4008 107.1 54.8008 106.5 54.8008 105.8Z" fill="#C26D2C"/>
<path d="M54.8008 100.601C54.8008 99.9008 55.4008 99.3008 56.1008 99.3008C56.9008 99.3008 57.4008 99.9008 57.4008 100.601C57.4008 101.301 56.9008 101.901 56.1008 101.901C55.4008 101.901 54.8008 101.301 54.8008 100.601Z" fill="#C26D2C"/>
<path d="M54.8008 95.3996C54.8008 94.6996 55.4008 94.0996 56.1008 94.0996C56.9008 94.0996 57.4008 94.6996 57.4008 95.3996C57.4008 96.0996 56.9008 96.6996 56.1008 96.6996C55.4008 96.6996 54.8008 96.0996 54.8008 95.3996Z" fill="#C26D2C"/>
<path d="M54.8008 90.2004C54.8008 89.5004 55.4008 88.9004 56.1008 88.9004C56.9008 88.9004 57.4008 89.5004 57.4008 90.2004C57.4008 90.9004 56.9008 91.5004 56.1008 91.5004C55.4008 91.5004 54.8008 90.9004 54.8008 90.2004Z" fill="#C26D2C"/>
<path d="M54.8008 84.9992C54.8008 84.2992 55.4008 83.6992 56.1008 83.6992C56.9008 83.6992 57.4008 84.2992 57.4008 84.9992C57.4008 85.7992 56.9008 86.2992 56.1008 86.2992C55.4008 86.2992 54.8008 85.7992 54.8008 84.9992Z" fill="#C26D2C"/>
<path d="M54.8008 79.8996C54.8008 79.0996 55.4008 78.5996 56.1008 78.5996C56.9008 78.5996 57.4008 79.0996 57.4008 79.8996C57.4008 80.5996 56.9008 81.1996 56.1008 81.1996C55.4008 81.1996 54.8008 80.5996 54.8008 79.8996Z" fill="#C26D2C"/>
<path d="M54.8008 74.7004C54.8008 74.0004 55.4008 73.4004 56.1008 73.4004C56.9008 73.4004 57.4008 74.0004 57.4008 74.7004C57.4008 75.4004 56.9008 76.0004 56.1008 76.0004C55.4008 76.0004 54.8008 75.4004 54.8008 74.7004Z" fill="#C26D2C"/>
<path d="M54.8008 69.4992C54.8008 68.7992 55.4008 68.1992 56.1008 68.1992C56.9008 68.1992 57.4008 68.7992 57.4008 69.4992C57.4008 70.1992 56.9008 70.7992 56.1008 70.7992C55.4008 70.7992 54.8008 70.1992 54.8008 69.4992Z" fill="#C26D2C"/>
<path d="M54.8008 64.3C54.8008 63.6 55.4008 63 56.1008 63C56.9008 63 57.4008 63.6 57.4008 64.3C57.4008 65 56.9008 65.6 56.1008 65.6C55.4008 65.6 54.8008 65 54.8008 64.3Z" fill="#C26D2C"/>
<path d="M54.8008 59.1008C54.8008 58.4008 55.4008 57.8008 56.1008 57.8008C56.9008 57.8008 57.4008 58.4008 57.4008 59.1008C57.4008 59.9008 56.9008 60.4008 56.1008 60.4008C55.4008 60.4008 54.8008 59.9008 54.8008 59.1008Z" fill="#C26D2C"/>
<path d="M54.8008 53.9992C54.8008 53.1992 55.4008 52.6992 56.1008 52.6992C56.9008 52.6992 57.4008 53.1992 57.4008 53.9992C57.4008 54.6992 56.9008 55.2992 56.1008 55.2992C55.4008 55.2992 54.8008 54.6992 54.8008 53.9992Z" fill="#C26D2C"/>
<path d="M54.8008 48.8C54.8008 48.1 55.4008 47.5 56.1008 47.5C56.9008 47.5 57.4008 48.1 57.4008 48.8C57.4008 49.5 56.9008 50.1 56.1008 50.1C55.4008 50.1 54.8008 49.5 54.8008 48.8Z" fill="#C26D2C"/>
<path d="M54.8008 43.6008C54.8008 42.9008 55.4008 42.3008 56.1008 42.3008C56.9008 42.3008 57.4008 42.9008 57.4008 43.6008C57.4008 44.3008 56.9008 44.9008 56.1008 44.9008C55.4008 44.9008 54.8008 44.3008 54.8008 43.6008Z" fill="#C26D2C"/>
<path d="M54.8008 38.3996C54.8008 37.6996 55.4008 37.0996 56.1008 37.0996C56.9008 37.0996 57.4008 37.6996 57.4008 38.3996C57.4008 39.0996 56.9008 39.6996 56.1008 39.6996C55.4008 39.6996 54.8008 39.0996 54.8008 38.3996Z" fill="#C26D2C"/>
<path d="M54.8008 33.2004C54.8008 32.5004 55.4008 31.9004 56.1008 31.9004C56.9008 31.9004 57.4008 32.5004 57.4008 33.2004C57.4008 34.0004 56.9008 34.5004 56.1008 34.5004C55.4008 34.5004 54.8008 34.0004 54.8008 33.2004Z" fill="#C26D2C"/>
<path d="M54.8008 28.1008C54.8008 27.3008 55.4008 26.8008 56.1008 26.8008C56.9008 26.8008 57.4008 27.3008 57.4008 28.1008C57.4008 28.8008 56.9008 29.4008 56.1008 29.4008C55.4008 29.4008 54.8008 28.8008 54.8008 28.1008Z" fill="#C26D2C"/>
<path d="M54.8008 22.8996C54.8008 22.1996 55.4008 21.5996 56.1008 21.5996C56.9008 21.5996 57.4008 22.1996 57.4008 22.8996C57.4008 23.5996 56.9008 24.1996 56.1008 24.1996C55.4008 24.1996 54.8008 23.5996 54.8008 22.8996Z" fill="#C26D2C"/>
<path d="M54.8008 17.7004C54.8008 17.0004 55.4008 16.4004 56.1008 16.4004C56.9008 16.4004 57.4008 17.0004 57.4008 17.7004C57.4008 18.4004 56.9008 19.0004 56.1008 19.0004C55.4008 19.0004 54.8008 18.4004 54.8008 17.7004Z" fill="#C26D2C"/>
<path d="M54.8008 12.4992C54.8008 11.7992 55.4008 11.1992 56.1008 11.1992C56.9008 11.1992 57.4008 11.7992 57.4008 12.4992C57.4008 13.1992 56.9008 13.7992 56.1008 13.7992C55.4008 13.7992 54.8008 13.1992 54.8008 12.4992Z" fill="#C26D2C"/>
<path d="M54.8008 7.3C54.8008 6.6 55.4008 6 56.1008 6C56.9008 6 57.4008 6.6 57.4008 7.3C57.4008 8.1 56.9008 8.6 56.1008 8.6C55.4008 8.6 54.8008 8.1 54.8008 7.3Z" fill="#C26D2C"/>
<path d="M54.8008 2.20078C54.8008 1.40078 55.4008 0.800781 56.1008 0.800781C56.9008 0.800781 57.4008 1.40078 57.4008 2.20078C57.4008 2.90078 56.9008 3.50078 56.1008 3.50078C55.4008 3.50078 54.8008 2.90078 54.8008 2.20078Z" fill="#C26D2C"/>
<path d="M31.7009 187.001C30.4009 186.501 30.2009 185.801 30.2009 185.801C30.2009 185.801 29.9009 186.501 28.7009 187.001C27.2009 187.701 21.3009 189.301 23.3009 196.801H30.2009H37.1009C39.1009 189.301 33.2009 187.701 31.7009 187.001Z" fill="#E0A34B"/>
<path d="M40.3006 199.6H20.1006V199.3C20.1006 198.1 21.1006 197.1 22.3006 197.1H38.1006C39.4006 197.1 40.3006 198.1 40.3006 199.3V199.6Z" fill="#E8C86E"/>
<path fill-rule="evenodd" clip-rule="evenodd" d="M39.8006 199.6V225H20.6006V199.6H39.8006ZM25.6006 204.5C25.6006 204.5 25.6006 203.6 25.2006 203.2C24.8006 202.9 24.5006 203.2 24.5006 203.2C24.6006 202.3 24.2006 201.8 24.0006 201.5C23.7006 201.3 23.7006 200.9 23.7006 200.9C23.7006 200.9 23.7006 201.3 23.5006 201.5C23.2006 201.8 22.8006 202.3 23.0006 203.2C23.0006 203.2 22.6006 202.9 22.3006 203.2C21.9006 203.6 21.9006 204.5 21.9006 204.5V221.1C21.9006 221.1 21.9006 222.1 22.3006 222.4C22.6006 222.7 23.0006 222.4 23.0006 222.4C22.8006 223.3 23.2006 223.8 23.5006 224.1C23.7006 224.3 23.7006 224.7 23.7006 224.7C23.7006 224.7 23.7006 224.3 24.0006 224.1C24.2006 223.8 24.6006 223.3 24.5006 222.4C24.5006 222.4 24.8006 222.7 25.2006 222.4C25.6006 222.1 25.6006 221.1 25.6006 221.1V204.5ZM33.2006 204.5C33.2006 204.5 33.2006 203.6 32.6006 203.2C32.1006 203 31.5006 203.2 31.5006 203.2C31.7006 202.3 31.1006 201.8 30.7006 201.6C30.3006 201.3 30.2006 201 30.2006 201C30.2006 201 30.2006 201.3 29.8006 201.6C29.4006 201.8 28.8006 202.3 29.0006 203.2C29.0006 203.2 28.4006 203 27.9006 203.2C27.2006 203.6 27.2006 204.5 27.2006 204.5V221.1C27.2006 221.1 27.2006 222.1 27.9006 222.4C28.4006 222.7 29.0006 222.4 29.0006 222.4C28.8006 223.3 29.4006 223.9 29.8006 224.1C30.2006 224.3 30.2006 224.7 30.2006 224.7C30.2006 224.7 30.3006 224.3 30.7006 224.1C31.1006 223.9 31.7006 223.3 31.5006 222.4C31.5006 222.4 32.1006 222.7 32.6006 222.4C33.2006 222.1 33.2006 221.1 33.2006 221.1V204.5ZM38.6006 204.5C38.6006 204.5 38.6006 203.6 38.2006 203.3C37.9006 203 37.5006 203.2 37.5006 203.2C37.6006 202.4 37.2006 201.8 37.0006 201.6C36.8006 201.4 36.8006 201 36.8006 201C36.8006 201 36.7006 201.4 36.5006 201.6C36.3006 201.8 35.9006 202.4 36.0006 203.2C36.0006 203.2 35.6006 203 35.3006 203.3C34.9006 203.6 34.9006 204.5 34.9006 204.5V221.2C34.9006 221.2 34.9006 222.1 35.3006 222.4C35.6006 222.7 36.0006 222.5 36.0006 222.5C35.9006 223.3 36.3006 223.9 36.5006 224.1C36.7006 224.3 36.8006 224.7 36.8006 224.7C36.8006 224.7 36.8006 224.3 37.0006 224.1C37.2006 223.9 37.6006 223.3 37.5006 222.5C37.5006 222.5 37.9006 222.7 38.2006 222.4C38.6006 222.1 38.6006 221.2 38.6006 221.2V204.5Z" fill="#E6E0BF"/>
<path d="M37.6006 197.101H22.7006C22.4006 197.101 22.1006 196.901 22.1006 196.601V196.401C22.1006 196.101 22.4006 195.801 22.7006 195.801H37.6006C37.9006 195.801 38.2006 196.101 38.2006 196.401V196.601C38.2006 196.901 37.9006 197.101 37.6006 197.101Z" fill="#BD763A"/>
<path d="M28.7001 237.601C30.0001 238.201 30.3001 238.901 30.3001 238.901C30.3001 238.901 30.5001 238.201 31.8001 237.601C33.3001 237.001 39.1001 235.401 37.2001 227.801H30.3001H23.3001C21.4001 235.401 27.3001 237.001 28.7001 237.601Z" fill="#E0A34B"/>
<path d="M20.1006 225H40.3006V225.3C40.3006 226.5 39.4006 227.5 38.1006 227.5H22.3006C21.1006 227.5 20.1006 226.5 20.1006 225.3V225Z" fill="#E8C86E"/>
<path d="M22.8002 227.5H37.7002C38.0002 227.5 38.3002 227.8 38.3002 228.1V228.3C38.3002 228.6 38.0002 228.8 37.7002 228.8H22.8002C22.5002 228.8 22.2002 228.6 22.2002 228.3V228.1C22.2002 227.8 22.5002 227.5 22.8002 227.5Z" fill="#BD763A"/>
<path fill-rule="evenodd" clip-rule="evenodd" d="M30.2004 186C29.2004 186 28.4004 185.2 28.4004 184.3C28.4004 183.3 29.2004 182.5 30.2004 182.5C31.1004 182.5 31.9004 183.3 31.9004 184.3C31.9004 185.2 31.1004 186 30.2004 186ZM30.2004 183C29.5004 183 28.9004 183.6 28.9004 184.3C28.9004 185 29.5004 185.5 30.2004 185.5C30.9004 185.5 31.4004 185 31.4004 184.3C31.4004 183.6 30.9004 183 30.2004 183Z" fill="url(#paint1_linear_2176_995)"/>
<path d="M29.4004 181.7C29.4004 181.3 29.8004 181 30.2004 181C30.6004 181 30.9004 181.3 30.9004 181.7C30.9004 182.1 30.6004 182.4 30.2004 182.4C29.8004 182.4 29.4004 182.1 29.4004 181.7Z" fill="#C26D2C"/>
<path d="M29.4004 178.8C29.4004 178.4 29.8004 178.1 30.2004 178.1C30.6004 178.1 30.9004 178.4 30.9004 178.8C30.9004 179.2 30.6004 179.5 30.2004 179.5C29.8004 179.5 29.4004 179.2 29.4004 178.8Z" fill="#C26D2C"/>
<path d="M29.4004 175.999C29.4004 175.599 29.8004 175.199 30.2004 175.199C30.6004 175.199 30.9004 175.599 30.9004 175.999C30.9004 176.399 30.6004 176.699 30.2004 176.699C29.8004 176.699 29.4004 176.399 29.4004 175.999Z" fill="#C26D2C"/>
<path d="M29.4004 173.1C29.4004 172.7 29.8004 172.4 30.2004 172.4C30.6004 172.4 30.9004 172.7 30.9004 173.1C30.9004 173.5 30.6004 173.8 30.2004 173.8C29.8004 173.8 29.4004 173.5 29.4004 173.1Z" fill="#C26D2C"/>
<path d="M29.4004 170.3C29.4004 169.9 29.8004 169.5 30.2004 169.5C30.6004 169.5 30.9004 169.9 30.9004 170.3C30.9004 170.7 30.6004 171 30.2004 171C29.8004 171 29.4004 170.7 29.4004 170.3Z" fill="#C26D2C"/>
<path d="M29.4004 167.399C29.4004 166.999 29.8004 166.699 30.2004 166.699C30.6004 166.699 30.9004 166.999 30.9004 167.399C30.9004 167.799 30.6004 168.099 30.2004 168.099C29.8004 168.099 29.4004 167.799 29.4004 167.399Z" fill="#C26D2C"/>
<path d="M29.4004 164.501C29.4004 164.201 29.8004 163.801 30.2004 163.801C30.6004 163.801 30.9004 164.201 30.9004 164.501C30.9004 164.901 30.6004 165.301 30.2004 165.301C29.8004 165.301 29.4004 164.901 29.4004 164.501Z" fill="#C26D2C"/>
<path d="M29.4004 161.7C29.4004 161.3 29.8004 161 30.2004 161C30.6004 161 30.9004 161.3 30.9004 161.7C30.9004 162.1 30.6004 162.4 30.2004 162.4C29.8004 162.4 29.4004 162.1 29.4004 161.7Z" fill="#C26D2C"/>
<path d="M29.4004 158.8C29.4004 158.4 29.8004 158.1 30.2004 158.1C30.6004 158.1 30.9004 158.4 30.9004 158.8C30.9004 159.2 30.6004 159.6 30.2004 159.6C29.8004 159.6 29.4004 159.2 29.4004 158.8Z" fill="#C26D2C"/>
<path d="M29.4004 156.001C29.4004 155.601 29.8004 155.301 30.2004 155.301C30.6004 155.301 30.9004 155.601 30.9004 156.001C30.9004 156.401 30.6004 156.701 30.2004 156.701C29.8004 156.701 29.4004 156.401 29.4004 156.001Z" fill="#C26D2C"/>
<path d="M29.4004 153.1C29.4004 152.7 29.8004 152.4 30.2004 152.4C30.6004 152.4 30.9004 152.7 30.9004 153.1C30.9004 153.5 30.6004 153.8 30.2004 153.8C29.8004 153.8 29.4004 153.5 29.4004 153.1Z" fill="#C26D2C"/>
<path d="M29.4004 150.3C29.4004 149.9 29.8004 149.6 30.2004 149.6C30.6004 149.6 30.9004 149.9 30.9004 150.3C30.9004 150.7 30.6004 151 30.2004 151C29.8004 151 29.4004 150.7 29.4004 150.3Z" fill="#C26D2C"/>
<path d="M29.4004 147.399C29.4004 146.999 29.8004 146.699 30.2004 146.699C30.6004 146.699 30.9004 146.999 30.9004 147.399C30.9004 147.799 30.6004 148.099 30.2004 148.099C29.8004 148.099 29.4004 147.799 29.4004 147.399Z" fill="#C26D2C"/>
<path d="M29.4004 144.601C29.4004 144.201 29.8004 143.801 30.2004 143.801C30.6004 143.801 30.9004 144.201 30.9004 144.601C30.9004 145.001 30.6004 145.301 30.2004 145.301C29.8004 145.301 29.4004 145.001 29.4004 144.601Z" fill="#C26D2C"/>
<path d="M29.4004 141.7C29.4004 141.3 29.8004 141 30.2004 141C30.6004 141 30.9004 141.3 30.9004 141.7C30.9004 142.1 30.6004 142.4 30.2004 142.4C29.8004 142.4 29.4004 142.1 29.4004 141.7Z" fill="#C26D2C"/>
<path d="M29.4004 138.8C29.4004 138.5 29.8004 138.1 30.2004 138.1C30.6004 138.1 30.9004 138.5 30.9004 138.8C30.9004 139.2 30.6004 139.6 30.2004 139.6C29.8004 139.6 29.4004 139.2 29.4004 138.8Z" fill="#C26D2C"/>
<path d="M29.4004 136.001C29.4004 135.601 29.8004 135.301 30.2004 135.301C30.6004 135.301 30.9004 135.601 30.9004 136.001C30.9004 136.401 30.6004 136.701 30.2004 136.701C29.8004 136.701 29.4004 136.401 29.4004 136.001Z" fill="#C26D2C"/>
<path d="M29.4004 133.1C29.4004 132.7 29.8004 132.4 30.2004 132.4C30.6004 132.4 30.9004 132.7 30.9004 133.1C30.9004 133.5 30.6004 133.9 30.2004 133.9C29.8004 133.9 29.4004 133.5 29.4004 133.1Z" fill="#C26D2C"/>
<path d="M29.4004 130.3C29.4004 129.9 29.8004 129.6 30.2004 129.6C30.6004 129.6 30.9004 129.9 30.9004 130.3C30.9004 130.7 30.6004 131 30.2004 131C29.8004 131 29.4004 130.7 29.4004 130.3Z" fill="#C26D2C"/>
<path d="M29.4004 127.399C29.4004 126.999 29.8004 126.699 30.2004 126.699C30.6004 126.699 30.9004 126.999 30.9004 127.399C30.9004 127.799 30.6004 128.099 30.2004 128.099C29.8004 128.099 29.4004 127.799 29.4004 127.399Z" fill="#C26D2C"/>
<path d="M29.4004 124.6C29.4004 124.2 29.8004 123.9 30.2004 123.9C30.6004 123.9 30.9004 124.2 30.9004 124.6C30.9004 125 30.6004 125.3 30.2004 125.3C29.8004 125.3 29.4004 125 29.4004 124.6Z" fill="#C26D2C"/>
<path d="M29.4004 121.7C29.4004 121.3 29.8004 121 30.2004 121C30.6004 121 30.9004 121.3 30.9004 121.7C30.9004 122.1 30.6004 122.4 30.2004 122.4C29.8004 122.4 29.4004 122.1 29.4004 121.7Z" fill="#C26D2C"/>
<path d="M29.4004 118.9C29.4004 118.5 29.8004 118.1 30.2004 118.1C30.6004 118.1 30.9004 118.5 30.9004 118.9C30.9004 119.3 30.6004 119.6 30.2004 119.6C29.8004 119.6 29.4004 119.3 29.4004 118.9Z" fill="#C26D2C"/>
<path d="M29.4004 116.001C29.4004 115.601 29.8004 115.301 30.2004 115.301C30.6004 115.301 30.9004 115.601 30.9004 116.001C30.9004 116.401 30.6004 116.701 30.2004 116.701C29.8004 116.701 29.4004 116.401 29.4004 116.001Z" fill="#C26D2C"/>
<path d="M29.4004 113.2C29.4004 112.8 29.8004 112.4 30.2004 112.4C30.6004 112.4 30.9004 112.8 30.9004 113.2C30.9004 113.5 30.6004 113.9 30.2004 113.9C29.8004 113.9 29.4004 113.5 29.4004 113.2Z" fill="#C26D2C"/>
<path d="M29.4004 110.3C29.4004 109.9 29.8004 109.6 30.2004 109.6C30.6004 109.6 30.9004 109.9 30.9004 110.3C30.9004 110.7 30.6004 111 30.2004 111C29.8004 111 29.4004 110.7 29.4004 110.3Z" fill="#C26D2C"/>
<path d="M29.4004 107.399C29.4004 106.999 29.8004 106.699 30.2004 106.699C30.6004 106.699 30.9004 106.999 30.9004 107.399C30.9004 107.799 30.6004 108.199 30.2004 108.199C29.8004 108.199 29.4004 107.799 29.4004 107.399Z" fill="#C26D2C"/>
<path d="M29.4004 104.6C29.4004 104.2 29.8004 103.9 30.2004 103.9C30.6004 103.9 30.9004 104.2 30.9004 104.6C30.9004 105 30.6004 105.3 30.2004 105.3C29.8004 105.3 29.4004 105 29.4004 104.6Z" fill="#C26D2C"/>
<path d="M29.4004 101.7C29.4004 101.3 29.8004 101 30.2004 101C30.6004 101 30.9004 101.3 30.9004 101.7C30.9004 102.1 30.6004 102.4 30.2004 102.4C29.8004 102.4 29.4004 102.1 29.4004 101.7Z" fill="#C26D2C"/>
<path d="M29.4004 98.8992C29.4004 98.4992 29.8004 98.1992 30.2004 98.1992C30.6004 98.1992 30.9004 98.4992 30.9004 98.8992C30.9004 99.2992 30.6004 99.5992 30.2004 99.5992C29.8004 99.5992 29.4004 99.2992 29.4004 98.8992Z" fill="#C26D2C"/>
<path d="M29.4004 96.0008C29.4004 95.6008 29.8004 95.3008 30.2004 95.3008C30.6004 95.3008 30.9004 95.6008 30.9004 96.0008C30.9004 96.4008 30.6004 96.7008 30.2004 96.7008C29.8004 96.7008 29.4004 96.4008 29.4004 96.0008Z" fill="#C26D2C"/>
<path d="M29.4004 93.2004C29.4004 92.8004 29.8004 92.4004 30.2004 92.4004C30.6004 92.4004 30.9004 92.8004 30.9004 93.2004C30.9004 93.6004 30.6004 93.9004 30.2004 93.9004C29.8004 93.9004 29.4004 93.6004 29.4004 93.2004Z" fill="#C26D2C"/>
<path d="M29.4004 90.2996C29.4004 89.8996 29.8004 89.5996 30.2004 89.5996C30.6004 89.5996 30.9004 89.8996 30.9004 90.2996C30.9004 90.6996 30.6004 90.9996 30.2004 90.9996C29.8004 90.9996 29.4004 90.6996 29.4004 90.2996Z" fill="#C26D2C"/>
<path d="M29.4004 87.3992C29.4004 87.0992 29.8004 86.6992 30.2004 86.6992C30.6004 86.6992 30.9004 87.0992 30.9004 87.3992C30.9004 87.7992 30.6004 88.1992 30.2004 88.1992C29.8004 88.1992 29.4004 87.7992 29.4004 87.3992Z" fill="#C26D2C"/>
<path d="M29.4004 84.6004C29.4004 84.2004 29.8004 83.9004 30.2004 83.9004C30.6004 83.9004 30.9004 84.2004 30.9004 84.6004C30.9004 85.0004 30.6004 85.3004 30.2004 85.3004C29.8004 85.3004 29.4004 85.0004 29.4004 84.6004Z" fill="#C26D2C"/>
<path d="M29.4004 81.7C29.4004 81.3 29.8004 81 30.2004 81C30.6004 81 30.9004 81.3 30.9004 81.7C30.9004 82.1 30.6004 82.5 30.2004 82.5C29.8004 82.5 29.4004 82.1 29.4004 81.7Z" fill="#C26D2C"/>
<path d="M29.4004 78.8992C29.4004 78.4992 29.8004 78.1992 30.2004 78.1992C30.6004 78.1992 30.9004 78.4992 30.9004 78.8992C30.9004 79.2992 30.6004 79.5992 30.2004 79.5992C29.8004 79.5992 29.4004 79.2992 29.4004 78.8992Z" fill="#C26D2C"/>
<path d="M29.4004 76.0008C29.4004 75.6008 29.8004 75.3008 30.2004 75.3008C30.6004 75.3008 30.9004 75.6008 30.9004 76.0008C30.9004 76.4008 30.6004 76.8008 30.2004 76.8008C29.8004 76.8008 29.4004 76.4008 29.4004 76.0008Z" fill="#C26D2C"/>
<path d="M29.4004 73.2C29.4004 72.8 29.8004 72.5 30.2004 72.5C30.6004 72.5 30.9004 72.8 30.9004 73.2C30.9004 73.6 30.6004 73.9 30.2004 73.9C29.8004 73.9 29.4004 73.6 29.4004 73.2Z" fill="#C26D2C"/>
<path d="M29.4004 70.2996C29.4004 69.8996 29.8004 69.5996 30.2004 69.5996C30.6004 69.5996 30.9004 69.8996 30.9004 70.2996C30.9004 70.6996 30.6004 70.9996 30.2004 70.9996C29.8004 70.9996 29.4004 70.6996 29.4004 70.2996Z" fill="#C26D2C"/>
<path d="M29.4004 67.4992C29.4004 67.0992 29.8004 66.6992 30.2004 66.6992C30.6004 66.6992 30.9004 67.0992 30.9004 67.4992C30.9004 67.8992 30.6004 68.1992 30.2004 68.1992C29.8004 68.1992 29.4004 67.8992 29.4004 67.4992Z" fill="#C26D2C"/>
<path d="M29.4004 64.6004C29.4004 64.2004 29.8004 63.9004 30.2004 63.9004C30.6004 63.9004 30.9004 64.2004 30.9004 64.6004C30.9004 65.0004 30.6004 65.3004 30.2004 65.3004C29.8004 65.3004 29.4004 65.0004 29.4004 64.6004Z" fill="#C26D2C"/>
<path d="M29.4004 61.8C29.4004 61.4 29.8004 61 30.2004 61C30.6004 61 30.9004 61.4 30.9004 61.8C30.9004 62.2 30.6004 62.5 30.2004 62.5C29.8004 62.5 29.4004 62.2 29.4004 61.8Z" fill="#C26D2C"/>
<path d="M29.4004 58.8992C29.4004 58.4992 29.8004 58.1992 30.2004 58.1992C30.6004 58.1992 30.9004 58.4992 30.9004 58.8992C30.9004 59.2992 30.6004 59.5992 30.2004 59.5992C29.8004 59.5992 29.4004 59.2992 29.4004 58.8992Z" fill="#C26D2C"/>
<path d="M29.4004 56.0008C29.4004 55.6008 29.8004 55.3008 30.2004 55.3008C30.6004 55.3008 30.9004 55.6008 30.9004 56.0008C30.9004 56.4008 30.6004 56.8008 30.2004 56.8008C29.8004 56.8008 29.4004 56.4008 29.4004 56.0008Z" fill="#C26D2C"/>
<path d="M29.4004 53.2C29.4004 52.8 29.8004 52.5 30.2004 52.5C30.6004 52.5 30.9004 52.8 30.9004 53.2C30.9004 53.6 30.6004 53.9 30.2004 53.9C29.8004 53.9 29.4004 53.6 29.4004 53.2Z" fill="#C26D2C"/>
<path d="M29.4004 50.2996C29.4004 49.8996 29.8004 49.5996 30.2004 49.5996C30.6004 49.5996 30.9004 49.8996 30.9004 50.2996C30.9004 50.6996 30.6004 50.9996 30.2004 50.9996C29.8004 50.9996 29.4004 50.6996 29.4004 50.2996Z" fill="#C26D2C"/>
<path d="M29.4004 47.5008C29.4004 47.1008 29.8004 46.8008 30.2004 46.8008C30.6004 46.8008 30.9004 47.1008 30.9004 47.5008C30.9004 47.9008 30.6004 48.2008 30.2004 48.2008C29.8004 48.2008 29.4004 47.9008 29.4004 47.5008Z" fill="#C26D2C"/>
<path d="M29.4004 44.6004C29.4004 44.2004 29.8004 43.9004 30.2004 43.9004C30.6004 43.9004 30.9004 44.2004 30.9004 44.6004C30.9004 45.0004 30.6004 45.3004 30.2004 45.3004C29.8004 45.3004 29.4004 45.0004 29.4004 44.6004Z" fill="#C26D2C"/>
<path d="M29.4004 41.8C29.4004 41.4 29.8004 41 30.2004 41C30.6004 41 30.9004 41.4 30.9004 41.8C30.9004 42.2 30.6004 42.5 30.2004 42.5C29.8004 42.5 29.4004 42.2 29.4004 41.8Z" fill="#C26D2C"/>
<path d="M29.4004 38.8992C29.4004 38.4992 29.8004 38.1992 30.2004 38.1992C30.6004 38.1992 30.9004 38.4992 30.9004 38.8992C30.9004 39.2992 30.6004 39.5992 30.2004 39.5992C29.8004 39.5992 29.4004 39.2992 29.4004 38.8992Z" fill="#C26D2C"/>
<path d="M29.4004 36.1008C29.4004 35.7008 29.8004 35.3008 30.2004 35.3008C30.6004 35.3008 30.9004 35.7008 30.9004 36.1008C30.9004 36.4008 30.6004 36.8008 30.2004 36.8008C29.8004 36.8008 29.4004 36.4008 29.4004 36.1008Z" fill="#C26D2C"/>
<path d="M29.4004 33.2C29.4004 32.8 29.8004 32.5 30.2004 32.5C30.6004 32.5 30.9004 32.8 30.9004 33.2C30.9004 33.6 30.6004 33.9 30.2004 33.9C29.8004 33.9 29.4004 33.6 29.4004 33.2Z" fill="#C26D2C"/>
<path d="M29.4004 30.2996C29.4004 29.9996 29.8004 29.5996 30.2004 29.5996C30.6004 29.5996 30.9004 29.9996 30.9004 30.2996C30.9004 30.6996 30.6004 31.0996 30.2004 31.0996C29.8004 31.0996 29.4004 30.6996 29.4004 30.2996Z" fill="#C26D2C"/>
<path d="M29.4004 27.5008C29.4004 27.1008 29.8004 26.8008 30.2004 26.8008C30.6004 26.8008 30.9004 27.1008 30.9004 27.5008C30.9004 27.9008 30.6004 28.2008 30.2004 28.2008C29.8004 28.2008 29.4004 27.9008 29.4004 27.5008Z" fill="#C26D2C"/>
<path d="M29.4004 24.6004C29.4004 24.2004 29.8004 23.9004 30.2004 23.9004C30.6004 23.9004 30.9004 24.2004 30.9004 24.6004C30.9004 25.0004 30.6004 25.4004 30.2004 25.4004C29.8004 25.4004 29.4004 25.0004 29.4004 24.6004Z" fill="#C26D2C"/>
<path d="M29.4004 21.7996C29.4004 21.3996 29.8004 21.0996 30.2004 21.0996C30.6004 21.0996 30.9004 21.3996 30.9004 21.7996C30.9004 22.1996 30.6004 22.4996 30.2004 22.4996C29.8004 22.4996 29.4004 22.1996 29.4004 21.7996Z" fill="#C26D2C"/>
<path d="M29.4004 18.8992C29.4004 18.4992 29.8004 18.1992 30.2004 18.1992C30.6004 18.1992 30.9004 18.4992 30.9004 18.8992C30.9004 19.2992 30.6004 19.5992 30.2004 19.5992C29.8004 19.5992 29.4004 19.2992 29.4004 18.8992Z" fill="#C26D2C"/>
<path d="M29.4004 16.1004C29.4004 15.7004 29.8004 15.4004 30.2004 15.4004C30.6004 15.4004 30.9004 15.7004 30.9004 16.1004C30.9004 16.5004 30.6004 16.8004 30.2004 16.8004C29.8004 16.8004 29.4004 16.5004 29.4004 16.1004Z" fill="#C26D2C"/>
<path d="M29.4004 13.2C29.4004 12.8 29.8004 12.5 30.2004 12.5C30.6004 12.5 30.9004 12.8 30.9004 13.2C30.9004 13.6 30.6004 13.9 30.2004 13.9C29.8004 13.9 29.4004 13.6 29.4004 13.2Z" fill="#C26D2C"/>
<path d="M29.4004 10.3996C29.4004 9.99961 29.8004 9.59961 30.2004 9.59961C30.6004 9.59961 30.9004 9.99961 30.9004 10.3996C30.9004 10.7996 30.6004 11.0996 30.2004 11.0996C29.8004 11.0996 29.4004 10.7996 29.4004 10.3996Z" fill="#C26D2C"/>
<path d="M29.4004 7.50078C29.4004 7.10078 29.8004 6.80078 30.2004 6.80078C30.6004 6.80078 30.9004 7.10078 30.9004 7.50078C30.9004 7.90078 30.6004 8.20078 30.2004 8.20078C29.8004 8.20078 29.4004 7.90078 29.4004 7.50078Z" fill="#C26D2C"/>
<path d="M29.4004 4.60039C29.4004 4.20039 29.8004 3.90039 30.2004 3.90039C30.6004 3.90039 30.9004 4.20039 30.9004 4.60039C30.9004 5.00039 30.6004 5.40039 30.2004 5.40039C29.8004 5.40039 29.4004 5.00039 29.4004 4.60039Z" fill="#C26D2C"/>
<path d="M29.4004 1.79961C29.4004 1.39961 29.8004 1.09961 30.2004 1.09961C30.6004 1.09961 30.9004 1.39961 30.9004 1.79961C30.9004 2.19961 30.6004 2.49961 30.2004 2.49961C29.8004 2.49961 29.4004 2.19961 29.4004 1.79961Z" fill="#C26D2C"/>
<path d="M4.2002 110.699V-38.8008" stroke="#E3B357" stroke-width="0.4" stroke-miterlimit="10"/>
<path d="M2.50054 111.099C2.50054 107.999 4.20054 106.699 4.20054 106.699C4.20054 106.699 6.00054 107.999 6.00054 111.099C6.00054 111.099 10.1005 114.699 7.70054 117.399V139.399C7.70054 139.399 6.10054 141.899 4.20054 142.599C2.40054 141.899 0.700535 139.399 0.700535 139.399V117.399C-1.59946 114.699 2.50054 111.099 2.50054 111.099Z" fill="#E0A34B"/>
<path d="M4.2002 106.699C4.2002 106.699 6.0002 107.999 6.0002 111.099C6.0002 111.099 10.1002 114.699 7.7002 117.399V139.399C7.7002 139.399 6.1002 141.899 4.2002 142.599V106.699Z" fill="#E8C86E"/>
<path d="M3.10098 119.9C3.10098 118.3 4.20098 117.4 4.20098 117.4C4.20098 117.4 5.40098 118.3 5.40098 119.9C5.40098 119.9 6.50098 120.2 6.50098 121.1C6.50098 121.9 6.50098 137.6 6.50098 137.6C6.50098 137.6 5.30098 139.6 4.20098 139.6C3.20098 139.6 2.00098 137.6 2.00098 137.6C2.00098 137.6 2.00098 121.9 2.00098 121.1C2.00098 120.2 3.10098 119.9 3.10098 119.9Z" fill="#CC8242"/>
<path d="M80.6006 168.4V-6.59961" stroke="#E3B357" stroke-width="0.4" stroke-miterlimit="10"/>
<path d="M78.6007 168.901C78.6007 165.301 80.6007 163.801 80.6007 163.801C80.6007 163.801 82.7007 165.301 82.7007 168.901C82.7007 168.901 87.4007 173.201 84.7007 176.301V202.101C84.7007 202.101 82.7007 204.901 80.6007 205.801C78.5007 204.901 76.5007 202.101 76.5007 202.101V176.301C73.8007 173.201 78.6007 168.901 78.6007 168.901Z" fill="#E0A34B"/>
<path d="M80.6006 163.801C80.6006 163.801 82.7006 165.301 82.7006 168.901C82.7006 168.901 87.4006 173.201 84.7006 176.301V202.101C84.7006 202.101 82.7006 204.901 80.6006 205.801V163.801Z" fill="#E8C86E"/>
<path d="M79.3004 179.201C79.3004 177.301 80.6004 176.301 80.6004 176.301C80.6004 176.301 81.9004 177.301 81.9004 179.201C81.9004 179.201 83.3004 179.601 83.3004 180.601C83.3004 181.601 83.3004 200.001 83.3004 200.001C83.3004 200.001 81.8004 202.301 80.6004 202.301C79.4004 202.301 77.9004 200.001 77.9004 200.001C77.9004 200.001 77.9004 181.601 77.9004 180.601C77.9004 179.601 79.3004 179.201 79.3004 179.201Z" fill="#CC8242"/>
<defs>
<linearGradient id="paint0_linear_2176_995" x1="1699.85" y1="-82.6569" x2="1699.85" y2="-122.385" gradientUnits="userSpaceOnUse">
<stop stop-color="#A1823F"/>
<stop offset="0.68" stop-color="#C0A759"/>
</linearGradient>
<linearGradient id="paint1_linear_2176_995" x1="711.614" y1="86.2278" x2="711.614" y2="74.0618" gradientUnits="userSpaceOnUse">
<stop stop-color="#A1823F"/>
<stop offset="0.68" stop-color="#C0A759"/>
</linearGradient>
</defs>
</svg>
