<svg width="430" height="245" viewBox="0 0 430 245" fill="none" xmlns="http://www.w3.org/2000/svg">
<path d="M494.372 239.565V238.993V236.991V234.13L435.303 228.838L435.16 218.827H437.592V213.678H435.16H412.992V207.814H410.274V204.81C410.274 204.81 412.849 201.664 412.849 196.658H411.991V198.517H411.275V196.658H410.274L409.845 170.771C409.845 170.771 412.563 170.342 412.563 168.053V165.622H411.705V167.767H411.132V165.622H410.274L410.417 167.767H409.702V165.622H408.987V167.767H408.844L408.272 162.904C409.416 162.332 410.274 161.045 410.274 159.615C410.274 157.898 408.987 156.468 407.414 156.039L407.271 154.752C408.272 154.609 408.987 154.18 408.987 153.608C408.987 153.036 408.129 152.607 406.985 152.464L406.842 150.747C407.128 150.604 407.271 150.318 407.271 150.032C407.271 149.603 406.985 149.174 406.699 149.031L406.413 147.315L406.27 149.031C405.841 149.174 405.412 149.603 405.412 150.032C405.412 150.318 405.698 150.747 405.984 150.89L405.841 152.464C404.696 152.607 403.981 153.036 403.981 153.608C403.981 154.18 404.696 154.609 405.555 154.752L405.412 156.182C403.981 156.611 402.837 158.041 402.837 159.758C402.837 161.045 403.552 162.332 404.696 162.904L404.267 167.767H404.124V165.622H403.266V167.767H402.694V165.622H401.836V167.767H401.264V165.622H400.406V168.053V168.196C400.406 170.342 403.266 170.771 403.266 170.771L402.98 196.801H401.979V198.66H401.264V196.801H400.406C400.406 201.664 402.98 204.81 402.98 204.81V207.814L400.263 207.957V213.821H395.543L394.256 204.238C395.257 203.952 397.116 203.094 397.116 200.377H395.829L395.686 184.644H394.113L392.682 146.457C392.682 146.457 396.544 145.741 396.544 143.167H394.685V139.162H392.253V132.154H395.972C395.972 132.154 395.543 127.291 391.967 127.434V124.431H393.827C393.827 124.431 392.825 121.427 389.965 121.427L388.392 104.264L386.961 121.427C383.958 121.57 382.957 124.574 382.957 124.574H384.959V127.434C381.383 127.434 380.954 132.297 380.954 132.297H384.673L384.816 139.162H382.385V143.167H380.525C380.525 145.884 384.53 146.457 384.53 146.457L383.386 183.071H337.046V177.064C347.63 165.479 341.194 147.172 331.325 140.306C323.888 135.301 317.023 130.009 314.019 127.72L312.732 110.701C312.923 110.701 313.113 110.701 313.304 110.701C315.449 110.701 317.309 109.556 318.31 107.697C317.452 108.412 316.308 108.841 315.163 108.841C314.162 108.841 313.304 108.555 312.446 108.126L312.303 106.267L312.16 107.983C310.587 106.982 309.442 105.266 309.442 103.263C309.442 101.833 310.015 100.546 310.873 99.5447C308.87 100.403 307.44 102.405 307.44 104.837C307.44 107.697 309.442 109.985 312.017 110.557L310.873 127.72C307.869 130.009 301.004 135.301 293.567 140.449C283.841 147.458 277.548 165.908 288.275 177.35V183.357H284.27V173.202H281.982L281.553 169.483H276.69V167.624H275.689V161.474C275.689 161.474 278.692 160.616 278.692 156.897H276.833L276.69 151.462H275.689L275.546 143.167C275.546 143.167 278.549 139.591 278.549 133.87L277.548 134.013V136.016H276.69V134.013H275.546L274.974 104.121C274.974 104.121 278.12 103.692 278.12 101.118V100.975V98.2574H277.119L277.262 100.689H276.547V98.2574H275.689V100.689H274.974V98.2574H273.973V100.689H273.83L273.257 95.2539C274.545 94.5388 275.546 93.1086 275.546 91.3923C275.546 89.533 274.116 87.8167 272.256 87.3876L272.113 85.8144C273.257 85.6713 274.116 85.0992 274.116 84.5271C274.116 83.812 273.114 83.2399 271.827 83.2399L271.541 81.2376C271.97 81.0946 272.113 80.8085 272.113 80.3794C272.113 79.8073 271.827 79.5213 271.398 79.3783L271.255 78.6632C271.446 78.7585 271.636 78.8062 271.827 78.8062C272.542 78.8062 273.114 78.3771 273.4 77.948C273.114 78.1387 272.781 78.2341 272.399 78.2341C271.97 78.2341 271.541 77.948 271.112 77.662V77.2329V77.519C270.826 77.2329 270.683 76.8992 270.683 76.5178C270.683 76.0411 270.826 75.6597 271.112 75.3736C270.54 75.6597 270.111 76.2318 270.111 76.9469C270.111 77.662 270.397 78.2341 270.969 78.5201L270.826 79.3783C270.397 79.3783 270.111 79.8073 270.111 80.3794C270.111 80.8085 270.254 81.0946 270.683 81.3806L270.397 83.2399C269.253 83.3829 268.252 83.955 268.252 84.5271C268.252 85.0992 269.11 85.6713 270.254 85.8144L269.968 87.3876C268.252 87.9597 266.964 89.533 266.964 91.5353C266.964 93.1086 267.966 94.3958 269.253 95.1109L268.538 100.689H268.395V98.2574H267.393L267.536 100.689H266.821V98.2574H265.82V100.689H265.248V98.2574H264.247V101.118V101.261C264.247 103.692 267.536 104.121 267.536 104.121L267.25 134.013H266.106V136.159H265.248V134.013H264.247C264.247 139.591 267.25 143.167 267.25 143.167V151.462L249.945 151.605V142.309C266.535 124.145 256.381 95.397 241.077 84.8132C232.496 78.9492 224.486 73.0852 218.908 68.7945L214.046 21.3106C214.713 21.4059 215.428 21.4536 216.191 21.4536C220.339 21.5966 224.057 19.3082 226.06 16.0187C224.2 17.1629 222.055 17.878 219.766 17.878C217.335 17.878 215.19 17.1629 213.33 15.7326L213.044 12.7291V11.0128V11.871L212.901 11.0128V12.7291L212.615 15.1605C210.47 13.1582 209.04 10.2977 209.04 7.1512C209.04 4.29072 210.184 1.85931 211.9 0C207.895 1.71629 205.035 5.57793 205.035 10.2977C205.035 14.8745 207.895 19.0222 212.043 20.5954L206.608 67.9364C201.03 72.0841 192.449 78.5201 183.295 84.8132C167.992 95.397 157.837 124.145 174.428 142.309V151.605L157.122 151.462V143.167C157.122 143.167 160.125 139.591 160.125 134.013H159.124V136.159H158.266V134.013H157.122L156.836 104.121C156.836 104.121 160.125 103.692 160.125 101.261V101.118V98.2574H159.124V100.689H158.552V98.2574H157.551V100.689H156.836L156.979 98.2574H155.978V100.689H155.835L155.12 95.1109C156.407 94.3958 157.408 93.1086 157.408 91.5353C157.408 89.533 156.121 87.9597 154.405 87.3876L154.118 85.8144C155.263 85.6713 156.121 85.0992 156.121 84.5271C156.121 83.955 155.12 83.3829 153.975 83.2399L153.689 81.3806C154.118 81.0946 154.262 80.8085 154.262 80.3794C154.262 79.8073 153.975 79.3783 153.546 79.3783L153.403 78.6632C153.594 78.7585 153.737 78.8062 153.832 78.8062C154.548 78.8062 155.12 78.3771 155.406 77.948C155.12 78.1387 154.786 78.2341 154.405 78.2341C154.023 78.2341 153.642 78.0911 153.26 77.805V77.2329V77.662C152.831 77.3759 152.688 76.9469 152.688 76.5178C152.688 76.0411 152.831 75.6597 153.117 75.3736C152.545 75.6597 151.973 76.2318 151.973 76.9469C151.973 77.662 152.402 78.3771 153.117 78.6632L152.974 79.3783C152.545 79.5213 152.259 79.8073 152.259 80.3794C152.259 80.8085 152.402 81.0946 152.831 81.2376L152.545 83.2399C151.258 83.2399 150.257 83.812 150.257 84.5271C150.257 85.0992 151.115 85.6713 152.259 85.8144L152.116 87.3876C150.257 87.8167 148.827 89.533 148.827 91.3923C148.827 93.1086 149.828 94.5388 151.115 95.2539L150.543 100.689H150.4V98.2574H149.399V100.689H148.684V98.2574H147.825V100.689H147.11L147.253 98.2574H146.252V100.975V101.118C146.252 103.692 149.399 104.121 149.399 104.121L148.827 134.013H147.682V136.016H146.824V134.013L145.823 133.87C145.823 139.591 148.827 143.167 148.827 143.167L148.684 151.462H147.682L147.539 156.897H145.68C145.68 160.616 148.684 161.474 148.684 161.474V167.624H147.682V169.483H142.82L142.391 173.202H140.102V183.357H136.097V177.35C146.824 165.908 140.531 147.458 130.806 140.449C123.368 135.301 116.503 130.009 113.5 127.72L112.355 110.271C113.023 110.557 113.738 110.701 114.501 110.701C116.646 110.701 118.506 109.556 119.507 107.697C118.649 108.412 117.504 108.841 116.36 108.841C114.644 108.841 113.071 107.983 112.069 106.839V106.267V106.696C111.211 105.838 110.639 104.55 110.639 103.263C110.639 101.833 111.211 100.546 112.069 99.5447C110.067 100.403 108.637 102.405 108.637 104.837C108.637 107.125 109.924 108.984 111.783 109.985L110.353 127.72C107.35 130.009 100.485 135.301 93.0473 140.306C83.1786 147.172 76.7425 165.479 87.3263 177.064V183.071H40.9866L39.8424 146.457C39.8424 146.457 43.847 145.884 43.847 143.167H41.9877V139.162H39.5563L39.6993 132.297H43.418C43.418 132.297 42.9889 127.434 39.4133 127.434V124.574H41.4156C41.4156 124.574 40.4145 121.57 37.411 121.427L35.9807 104.264L34.4075 121.427C31.547 121.427 30.5458 124.431 30.5458 124.431H32.4051V127.434C28.8295 127.291 28.4005 132.154 28.4005 132.154H32.1191V139.162H29.6877V143.167H27.8284C27.8284 145.741 31.69 146.457 31.69 146.457L30.2598 184.644H28.6865L28.5435 200.377H27.2563C27.2563 203.094 29.1156 203.952 30.1167 204.238L28.8295 213.821H24.1097V207.957L21.3923 207.814V204.81C21.3923 204.81 23.9667 201.664 23.9667 196.801H23.1086V198.66H22.3935V196.801H21.3923L21.1062 170.771C21.1062 170.771 23.9667 170.342 23.9667 168.196V168.053V165.622H23.1086V167.767H22.5365V165.622H21.6783V167.767H21.1062V165.622H20.2481V167.767H20.1051L19.676 162.904C20.8202 162.332 21.5353 161.045 21.5353 159.758C21.5353 158.041 20.3911 156.611 18.9609 156.182L18.8179 154.752C19.676 154.609 20.3911 154.18 20.3911 153.608C20.3911 153.036 19.676 152.607 18.5318 152.464L18.3888 150.89C18.6748 150.747 18.9609 150.318 18.9609 150.032C18.9609 149.603 18.5318 149.174 18.1027 149.031L17.9597 147.315L17.6737 149.031C17.3876 149.174 17.1016 149.603 17.1016 150.032C17.1016 150.318 17.2446 150.604 17.5306 150.747L17.3876 152.464C16.2434 152.607 15.3853 153.036 15.3853 153.608C15.3853 154.18 16.1004 154.609 17.1016 154.752L16.9585 156.039C15.3853 156.468 14.0981 157.898 14.0981 159.615C14.0981 161.045 14.9562 162.332 16.1004 162.904L15.5283 167.767H15.3853V165.622H14.6702V167.767H13.955L14.0981 165.622H13.2399V167.767H12.6678V165.622H11.8097V168.053C11.8097 170.342 14.5271 170.771 14.5271 170.771L14.0981 196.658H13.0969V198.517H12.3818V196.658H11.5236C11.5236 201.664 14.0981 204.81 14.0981 204.81V207.814H11.3806V213.678H-10.7881H-13.2195V218.827H-10.7881L-10.9311 228.838L-70 234.13V236.991V245H494.372V239.565Z" fill="#AFB7F1"/>
</svg>
