<svg width="223" height="210" viewBox="0 0 223 210" fill="none" xmlns="http://www.w3.org/2000/svg">
<path d="M216.273 58.8141L212.062 18.2241C212.66 18.3622 213.305 18.4312 213.995 18.4312C217.516 18.4312 220.622 16.4983 222.279 13.6681C220.76 14.7035 218.965 15.3248 216.963 15.3248C214.961 15.3248 213.029 14.6345 211.51 13.53L211.234 10.9068V9.52623L211.165 10.2165L211.096 9.52623V10.9068L210.889 12.9778C209.025 11.252 207.851 8.83593 207.851 6.14373C207.851 3.79669 208.749 1.65674 210.267 0C206.816 1.44964 204.469 4.83214 204.4 8.76689C204.4 12.7707 206.816 16.2222 210.336 17.6718L205.711 58.0548C201.017 61.6444 193.631 67.0978 185.9 72.4132C172.715 81.5252 164.086 105.962 178.237 121.425V129.432L163.465 129.363L163.534 122.253C163.534 122.253 166.088 119.216 166.088 114.453L165.19 114.384V116.248H164.5V114.384H163.534L163.327 88.9805C163.327 88.9805 166.019 88.5663 166.019 86.4264V86.2883V83.9413H165.19V86.0122H164.707V83.9413H163.879V86.0122H163.327V83.9413H162.498V86.0122H162.36L161.877 81.2491C162.981 80.6278 163.672 79.4543 163.672 78.1427C163.741 76.486 162.636 75.1054 161.118 74.6221L160.979 73.3106C161.946 73.1035 162.636 72.6893 162.636 72.2061C162.636 71.6538 161.808 71.1706 160.772 71.0326L160.565 69.4448C160.91 69.3068 161.118 69.0307 161.118 68.6165C161.118 68.2023 160.841 67.8571 160.427 67.7881L160.358 67.2359C160.496 67.2359 160.565 67.3049 160.703 67.3049C161.256 67.3049 161.739 66.9597 162.015 66.5456C161.785 66.7296 161.509 66.8217 161.187 66.8217C160.841 66.8217 160.496 66.6836 160.289 66.4075L160.22 65.9933L160.151 66.3385C159.875 66.0623 159.737 65.7172 159.737 65.303C159.737 64.9579 159.875 64.6127 160.082 64.3366C159.53 64.5437 159.185 65.0959 159.185 65.7172C159.185 66.3385 159.53 66.8907 160.082 67.1668L160.013 67.7881C159.599 67.8571 159.323 68.2023 159.323 68.6165C159.323 68.9616 159.53 69.3068 159.806 69.4448L159.599 71.0326C158.494 71.1706 157.597 71.5848 157.597 72.2061C157.597 72.6893 158.356 73.1725 159.323 73.3106L159.185 74.6221C157.597 74.9673 156.493 76.4169 156.423 78.0737C156.423 79.5233 157.252 80.6968 158.425 81.3181L157.873 86.0122H157.735V83.8723H156.907V86.0122H156.354V83.8723H155.526V86.0122H155.043V83.8723H154.214V86.2883V86.3574C154.214 88.4973 156.907 88.9115 156.907 88.9115L156.423 114.384H155.457V116.179H154.767V114.384H153.869C153.8 119.147 156.423 122.253 156.423 122.253L156.354 129.363H155.388V133.989H153.731C153.731 137.164 156.354 137.854 156.354 137.854L156.285 143.101H155.457V144.757L151.315 144.688L150.901 147.864H149.037L148.968 156.562H145.586V151.384C154.767 141.582 149.382 125.843 140.961 119.975C134.748 115.557 128.88 111.07 126.326 108.999L125.291 94.1578C125.843 94.3879 126.464 94.503 127.154 94.503C128.949 94.503 130.606 93.5365 131.434 92.0179C130.675 92.5701 129.709 92.9153 128.673 92.9153C127.224 92.9153 125.981 92.294 125.084 91.2585L125.015 90.7063V91.1895C124.324 90.3611 123.91 89.3257 123.91 88.1522C123.91 86.9096 124.324 85.8051 125.084 84.9767C123.358 85.7361 122.115 87.5309 122.115 89.5328C122.115 91.4656 123.22 93.1224 124.807 93.9507L123.565 108.999C121.011 111.001 115.143 115.488 108.792 119.837C100.371 125.636 94.8481 141.306 103.96 151.246L103.891 156.354L94.8481 156.285L93.8817 125.084C93.8817 125.084 97.2642 124.531 97.2642 122.253H95.6075V118.871H93.6056L93.6746 112.934H96.85C96.85 112.934 96.5049 108.792 93.4675 108.792V106.307H95.1243C95.1243 106.307 94.2268 103.753 91.7417 103.753L90.5682 89.0496L89.1876 103.753C86.7025 103.684 85.8741 106.307 85.8741 106.307H87.4618V108.792C84.4245 108.723 84.0103 112.865 84.0103 112.865H87.2548L87.1857 118.802H85.1838V122.184H83.5271C83.5271 124.531 86.9096 125.084 86.9096 125.084L85.598 157.666H84.2864L84.2174 171.058H83.0439C83.0439 173.336 84.7006 174.095 85.529 174.371L84.4245 182.517H80.4207L69.5139 182.448L50.5995 182.379H48.5286V186.797H50.5304V195.426H45.5602V200.051L13.8752 199.913L13.9442 196.806H11.5281V195.288H10.2165V194.183H9.80235V191.422C9.80235 191.422 11.183 191.008 11.183 189.351H9.80235L9.87138 183.069C9.87138 183.069 11.252 181.413 11.252 178.858H10.7688V179.825H10.3546V178.858H9.87138L9.73332 165.259C9.73332 165.259 11.183 165.052 11.183 163.948V163.879V162.567H10.7688V163.741H10.4927V162.567H10.0785L10.0094 163.741H9.73332V162.567H9.31914V163.741H9.25011L8.97399 161.187C9.52623 160.841 9.94041 160.22 9.94041 159.53C9.94041 158.632 9.38817 157.873 8.5598 157.666L8.49077 156.907C8.97399 156.838 9.38817 156.631 9.38817 156.354C9.38817 156.078 8.97399 155.802 8.35271 155.733L8.28368 154.905C8.42174 154.767 8.5598 154.629 8.5598 154.422C8.5598 154.214 8.42174 154.007 8.21465 153.938L8.07659 153.041L7.93853 153.938C7.73143 154.007 7.59337 154.214 7.59337 154.422C7.59337 154.629 7.73143 154.767 7.8695 154.836L7.73143 155.733C7.17919 155.802 6.69597 156.009 6.69597 156.354C6.69597 156.631 7.11016 156.838 7.59337 156.907L7.52434 157.597C6.69597 157.804 6.0747 158.563 6.0747 159.461C6.0747 160.22 6.48888 160.91 7.11016 161.187L6.83404 163.672H6.765V162.567H6.35082V163.672H6.00567V162.567H5.59148V163.672H5.31536V162.567H4.90118V163.81V163.879C4.83215 165.052 6.28179 165.259 6.28179 165.259L6.0747 178.858H5.52245V179.825H5.1773V178.858H4.69408C4.69408 181.413 6.0747 183.069 6.0747 183.069L6.00567 189.351L4.62505 189.282C4.62505 191.008 6.00567 191.422 6.00567 191.422V194.183H5.52245V195.288L4.07281 195.219V196.737H2.07092V199.844H0.0690307L0 202.26V209.163H222.9V63.7153C220.415 61.9205 218.206 60.2638 216.273 58.8141Z" fill="#2D2B69"/>
</svg>
