<svg width="430" height="402" viewBox="0 0 430 402" fill="none" xmlns="http://www.w3.org/2000/svg">
<g clip-path="url(#clip0_2176_959)">
<path d="M75.9532 403.323H195.358H387.746C315.551 403.323 280.557 336.094 276.065 326.794C274.883 297.948 251.159 274.934 221.998 274.934C208.599 274.934 196.383 279.82 186.925 287.859C173.054 276.352 155.162 269.338 135.616 269.338C135.065 269.338 134.434 269.416 133.804 269.416C136.799 261.771 138.454 253.496 138.454 244.747C138.454 207.31 108.11 176.966 70.6726 176.966C70.6201 176.966 70.5675 176.966 70.515 176.966C69.1751 145.519 52.9392 117.934 28.6641 101.067C29.4523 97.5993 29.9252 94.0527 29.9252 90.3484C29.9252 70.8022 17.9453 54.0934 1 47V403.323H75.9532Z" fill="#3A665C"/>
<path d="M355.796 403.323H236.39H44C116.195 403.323 151.19 336.094 155.682 326.794C156.865 297.948 180.588 274.934 209.75 274.934C223.149 274.934 235.365 279.82 244.823 287.859C258.695 276.352 276.586 269.338 296.132 269.338C296.684 269.338 297.315 269.416 297.945 269.416C294.95 261.771 293.295 253.496 293.295 244.747C293.295 207.31 323.639 176.966 361.077 176.966C361.129 176.966 361.182 176.966 361.234 176.966C362.574 145.519 378.81 117.934 403.086 101.067C402.297 97.5993 401.825 94.0527 401.825 90.3484C401.825 70.8022 413.805 54.0934 430.75 47V403.323H355.796Z" fill="#3A665C"/>
<path fill-rule="evenodd" clip-rule="evenodd" d="M273.82 403.3H1V258.796C5.95556 259.919 10.5807 261.835 14.7434 264.478V239.767L12.629 236.925V232.564H14.5452V220.209H13.4219V218.887H12.629V216.905H14.8095V215.716H16.2631C5.88949 209.769 21.1526 198.47 21.1526 198.47V196.158H23.4652V195.695L22.0116 195.034V194.043L23.3331 193.25V192.722L22.9366 192.457V191.202H23.5973L24.2581 184L24.9849 191.202H25.5796V192.457L25.1831 192.722V193.25L26.5046 194.043V195.034L25.051 195.695V196.158H27.4296V198.47C27.4296 198.47 42.6928 209.769 32.3191 215.716H33.7067V216.905H35.9532V218.887H35.1603V220.209H33.971V232.564H35.9532V236.925L33.8388 239.767V292.229C34.3674 295.005 34.6978 297.846 34.6978 300.753C34.6978 301.193 34.6758 301.634 34.6317 302.074C36.0413 303.264 37.3408 304.541 38.5301 305.907V274.654L36.4157 271.812V267.452H38.398V255.096H37.2086V253.774H36.4157V251.792H38.6623V250.669H40.0498C29.6762 244.722 44.9393 233.357 44.9393 233.357V231.045H47.318V230.582L45.8643 229.988V228.996L47.1858 228.138V227.609L46.7894 227.345V226.089H47.384L48.1109 218.887L48.7716 226.089H49.4323V227.345L49.0359 227.609V228.138L50.3574 228.996V229.988L48.9037 230.582V231.045H51.2163V233.357C51.2163 233.357 66.5455 244.722 56.1058 250.669H57.5594V251.792H59.7399V253.774H58.947V255.096H57.8237V267.452H59.7399V271.812L57.6255 274.654V331.742C62.0525 333.724 66.0169 336.433 69.4528 339.737C73.3512 338.019 77.5138 336.896 81.8087 336.433C86.9624 318.461 103.481 305.312 123.105 305.312C143.984 305.312 161.362 320.179 165.26 339.935C192.219 337.16 216.137 355.066 215.344 382.949C252.346 374.888 273.82 403.3 273.82 403.3ZM21.3508 225.693C21.3508 224.702 20.5579 223.909 19.6329 223.909C18.6418 223.909 17.915 224.702 17.915 225.693V231.639H21.3508V225.693ZM26.0421 225.693C26.0421 224.768 25.2492 223.975 24.2581 223.975C23.3331 223.975 22.5402 224.768 22.5402 225.693V231.706H26.0421V225.693ZM30.6673 225.693C30.6673 224.702 29.8744 223.975 28.9494 223.975C27.9582 223.975 27.2314 224.702 27.2314 225.693V231.706H30.6673V225.693ZM45.1375 260.58C45.1375 259.655 44.4107 258.862 43.4196 258.862C42.4945 258.862 41.7017 259.655 41.7017 260.58V266.593H45.1375V260.58ZM49.8288 260.58C49.8288 259.589 49.0359 258.862 48.1109 258.862C47.1197 258.862 46.3929 259.589 46.3929 260.58V266.527H49.8288V260.58ZM54.454 260.58C54.454 259.655 53.7271 258.862 52.736 258.862C51.811 258.862 51.0181 259.655 51.0181 260.58V266.593H54.454V260.58Z" fill="#437767"/>
<path fill-rule="evenodd" clip-rule="evenodd" d="M158.179 403.301H431V258.796C426.044 259.92 421.419 261.836 417.257 264.479V239.767L419.371 236.926V232.565H417.455V220.209H418.578V218.887H419.371V216.905H417.19V215.716H415.737C426.11 209.769 410.847 198.47 410.847 198.47V196.158H408.535V195.695L409.988 195.034V194.043L408.667 193.25V192.722L409.063 192.458V191.202H408.403L407.742 184L407.015 191.202H406.42V192.458L406.817 192.722V193.25L405.495 194.043V195.034L406.949 195.695V196.158H404.57V198.47C404.57 198.47 389.307 209.769 399.681 215.716H398.293V216.905H396.047V218.887H396.84V220.209H398.029V232.565H396.047V236.926L398.161 239.767V292.23C397.632 295.005 397.302 297.846 397.302 300.754C397.302 301.194 397.324 301.635 397.368 302.075C395.959 303.264 394.659 304.542 393.47 305.907V274.654L395.584 271.813V267.452H393.602V255.096H394.791V253.775H395.584V251.792H393.338V250.669H391.95C402.324 244.722 387.061 233.358 387.061 233.358V231.045H384.682V230.582L386.135 229.988V228.997L384.814 228.138V227.609L385.21 227.345V226.089H384.616L383.889 218.887L383.228 226.089H382.567V227.345L382.964 227.609V228.138L381.642 228.997V229.988L383.096 230.582V231.045H380.783V233.358C380.783 233.358 365.454 244.722 375.894 250.669H374.44V251.792H372.26V253.775H373.053V255.096H374.176V267.452H372.26V271.813L374.374 274.654V331.742C369.947 333.725 365.983 336.434 362.547 339.737C358.648 338.02 354.486 336.896 350.191 336.434C345.037 318.461 328.519 305.313 308.894 305.313C288.015 305.313 270.637 320.179 266.739 339.936C239.781 337.161 215.862 355.067 216.655 382.95C179.653 374.889 158.179 403.301 158.179 403.301ZM410.649 225.693C410.649 224.702 411.442 223.909 412.367 223.909C413.358 223.909 414.085 224.702 414.085 225.693V231.64H410.649V225.693ZM405.958 225.693C405.958 224.768 406.751 223.975 407.742 223.975C408.667 223.975 409.46 224.768 409.46 225.693V231.706H405.958V225.693ZM401.333 225.693C401.333 224.702 402.125 223.975 403.051 223.975C404.042 223.975 404.768 224.702 404.768 225.693V231.706H401.333V225.693ZM386.862 260.58C386.862 259.655 387.589 258.862 388.58 258.862C389.505 258.862 390.298 259.655 390.298 260.58V266.593H386.862V260.58ZM382.171 260.58C382.171 259.589 382.964 258.862 383.889 258.862C384.88 258.862 385.607 259.589 385.607 260.58V266.527H382.171V260.58ZM377.546 260.58C377.546 259.655 378.273 258.862 379.264 258.862C380.189 258.862 380.982 259.655 380.982 260.58V266.593H377.546V260.58Z" fill="#437767"/>
<g clip-path="url(#clip1_2176_959)">
<mask id="mask0_2176_959" style="mask-type:luminance" maskUnits="userSpaceOnUse" x="-142" y="209" width="573" height="194">
<path d="M431 403H-141.155V209.383H431V403Z" fill="white"/>
</mask>
<g mask="url(#mask0_2176_959)">
<path d="M425.24 272.387L421.503 237.11C422.048 237.239 422.606 237.303 423.177 237.303C426.291 237.303 428.976 235.638 430.455 233.16C429.132 234.089 427.536 234.631 425.824 234.631C424.033 234.593 422.398 234.012 421.075 233.005L420.842 230.759V229.559L420.764 230.139L420.686 229.559V230.759L420.491 232.54C418.857 231.069 417.845 228.978 417.845 226.616C417.845 224.563 418.662 222.705 419.946 221.311C416.949 222.55 414.887 225.493 414.848 228.939C414.848 232.424 416.988 235.406 420.024 236.645L415.976 271.728C411.851 274.826 405.428 279.589 398.656 284.236C387.174 292.097 379.623 313.395 392 326.832L391.961 333.763L379.078 333.686L379.117 327.529C379.117 327.529 381.375 324.857 381.413 320.714H380.596V322.262H379.973V320.714H379.156L378.961 298.602C378.961 298.602 381.336 298.254 381.336 296.395V296.279V294.227H380.635L380.596 296.047H380.168V294.227H379.467L379.428 296.047H378.961V294.227H378.261L378.222 296.047H378.105L377.677 291.903C378.65 291.361 379.273 290.354 379.312 289.193C379.312 287.76 378.378 286.559 377.054 286.172L376.937 284.972C377.755 284.817 378.339 284.468 378.339 284.004C378.339 283.539 377.638 283.152 376.704 283.036L376.587 281.642C376.86 281.525 377.015 281.254 377.015 280.945C377.015 280.557 376.782 280.248 376.431 280.17L376.354 279.705C376.47 279.705 376.548 279.744 376.665 279.744C377.171 279.744 377.599 279.512 377.833 279.086C377.638 279.241 377.366 279.318 377.093 279.318C376.782 279.318 376.509 279.202 376.276 279.008L376.237 278.66L376.198 278.97C375.964 278.737 375.809 278.389 375.809 278.04C375.809 277.731 375.925 277.421 376.159 277.188C375.653 277.382 375.342 277.847 375.342 278.428C375.342 278.97 375.653 279.396 376.12 279.628L376.042 280.17C375.692 280.248 375.458 280.557 375.458 280.945C375.458 281.254 375.614 281.487 375.887 281.642L375.731 282.997C374.719 283.113 373.979 283.5 373.979 284.004C373.979 284.468 374.602 284.856 375.497 284.972L375.342 286.134C373.979 286.443 372.967 287.682 372.967 289.154C372.967 290.354 373.668 291.439 374.68 291.942L374.213 296.008H374.096V294.188H373.357V296.008H372.89V294.188H372.15V296.008H371.722V294.188H370.982V296.24V296.318C370.982 298.176 373.357 298.564 373.357 298.564L372.928 320.675H372.111V322.224H371.488V320.675H370.671C370.671 324.818 372.928 327.49 372.928 327.49L372.89 333.686L372.033 333.647V337.713H370.593C370.593 340.462 372.851 341.082 372.851 341.082L372.812 345.651H372.072V347.045H368.491L368.102 349.795H366.467L366.428 357.307H363.47V352.854C371.488 344.335 366.779 330.627 359.461 325.515C353.973 321.72 348.875 317.771 346.656 316.028L345.722 303.133C346.228 303.327 346.773 303.443 347.357 303.443C348.952 303.404 350.354 302.552 351.093 301.236C350.431 301.739 349.614 302.01 348.719 302.01C347.434 302.01 346.345 301.468 345.566 300.577L345.527 300.113L345.488 300.5C344.904 299.803 344.515 298.874 344.515 297.905C344.515 296.821 344.904 295.853 345.566 295.117C344.048 295.776 342.958 297.325 342.958 299.106C342.958 300.771 343.931 302.165 345.294 302.901L344.243 316.028C342.024 317.732 336.887 321.643 331.36 325.399C324.003 330.433 319.138 344.064 327.078 352.699V357.152L319.138 357.114L318.321 329.968C318.321 329.968 321.279 329.504 321.279 327.529H319.839V324.586H318.087L318.126 319.397H320.928C320.928 319.397 320.617 315.834 317.97 315.796V313.666H319.372C319.372 313.666 318.632 311.42 316.452 311.42L315.401 298.68L314.234 311.42C312.054 311.42 311.315 313.627 311.315 313.627H312.716L312.677 315.796C310.03 315.796 309.719 319.358 309.719 319.358H312.521L312.482 324.547H310.731V327.49H309.291C309.252 329.465 312.21 329.968 312.21 329.968L311.081 358.275H309.952L309.875 369.892H308.824C308.824 371.906 310.303 372.564 311.042 372.758L310.03 379.883H306.527L306.566 375.507H304.464V373.184C304.464 373.184 306.449 370.899 306.449 367.259H305.749V368.614H305.204V367.259H304.503L304.309 347.975C304.309 347.975 306.372 347.665 306.372 346.039V345.961L306.41 344.141H305.749V345.729H305.36L305.398 344.141H304.737V345.729H304.309V344.141H303.686V345.729H303.569L303.219 342.128C304.036 341.663 304.62 340.772 304.62 339.765C304.62 338.526 303.803 337.481 302.674 337.132L302.557 336.087C303.258 335.971 303.764 335.622 303.764 335.274C303.764 334.848 303.18 334.499 302.363 334.383L302.246 333.182C302.479 333.066 302.635 332.834 302.635 332.563C302.635 332.253 302.401 331.982 302.09 331.905L301.973 330.588V330.394L301.934 330.472V330.394V330.588L301.779 331.905C301.467 331.982 301.273 332.253 301.273 332.563C301.273 332.834 301.428 333.066 301.623 333.182L301.506 334.383C300.611 334.46 299.988 334.809 299.988 335.235C299.988 335.622 300.533 335.971 301.273 336.087L301.156 337.094C299.988 337.403 299.093 338.449 299.093 339.727C299.093 340.811 299.677 341.702 300.572 342.166L300.183 345.729H300.066V344.141H299.443V345.69H299.015V344.102H298.393V345.69H298.003V344.102H297.381V345.922V346C297.342 347.626 299.404 347.936 299.404 347.936L299.054 367.22H298.354V368.576H297.809V367.22H297.108C297.108 370.822 299.054 373.184 299.054 373.184L299.015 375.468H297.069V379.844L280.488 379.767H278.698V383.6H280.488L280.449 391.074H276.129V395.101L248.455 394.985L248.494 392.274H246.393L246.431 390.958H245.264V390.028H244.875V387.628C244.875 387.628 246.081 387.279 246.081 385.808H244.875L244.913 380.348C244.913 380.348 246.12 378.915 246.12 376.708H245.731L245.692 377.559H245.381V376.708H244.952L244.836 364.897C244.836 364.897 246.081 364.703 246.081 363.735V363.658L246.12 362.574H245.731V363.542H245.497V362.574H245.108V363.542H244.836V362.574H244.446V363.542H244.369L244.135 361.334C244.68 361.063 244.991 360.521 245.03 359.863C245.03 359.127 244.524 358.469 243.824 358.275L243.746 357.617C244.174 357.539 244.485 357.346 244.485 357.114C244.485 356.881 244.135 356.649 243.629 356.61L243.551 355.874C243.707 355.797 243.785 355.642 243.785 355.487C243.785 355.294 243.668 355.1 243.473 355.061L243.395 354.248V354.132V354.209L243.357 354.132V354.248L243.279 355.061C243.084 355.139 242.967 355.294 242.967 355.487C242.967 355.642 243.045 355.797 243.201 355.836L243.084 356.571C242.578 356.649 242.189 356.842 242.189 357.114C242.189 357.346 242.5 357.578 242.967 357.656L242.89 358.236C242.189 358.43 241.644 359.088 241.644 359.863C241.644 360.521 241.994 361.063 242.539 361.373L242.306 363.542H242.228V362.574L241.839 362.535V363.542H241.566L241.605 362.535H241.216L241.177 363.503H240.943L240.982 362.535H240.593V363.658V363.697C240.554 364.703 241.839 364.897 241.839 364.897L241.605 376.708H241.177V377.521H240.827V376.669H240.437C240.398 378.915 241.605 380.348 241.605 380.348L241.566 385.808L240.36 385.769C240.36 387.24 241.566 387.589 241.566 387.589V390.028H241.177L241.138 390.958H239.893V392.236H238.141V394.946L236.351 394.908V397.037V403.001H431V276.685C428.86 275.097 426.875 273.626 425.24 272.387Z" fill="#DBAD46"/>
</g>
</g>
<g clip-path="url(#clip2_2176_959)">
<mask id="mask1_2176_959" style="mask-type:luminance" maskUnits="userSpaceOnUse" x="1" y="209" width="573" height="194">
<path d="M0.999634 403H573.155V209.383H0.999634V403Z" fill="white"/>
</mask>
<g mask="url(#mask1_2176_959)">
<path d="M6.76019 272.387L10.4967 237.11C9.95181 237.239 9.39394 237.303 8.82307 237.303C5.7093 237.303 3.02367 235.638 1.54462 233.16C2.86798 234.089 4.46378 234.631 6.17636 234.631C7.96678 234.593 9.60152 234.012 10.9249 233.005L11.1584 230.759V229.559L11.2362 230.139L11.3141 229.559V230.759L11.5087 232.54C13.1434 231.069 14.1554 228.978 14.1554 226.616C14.1554 224.563 13.338 222.705 12.0536 221.311C15.0506 222.55 17.1135 225.493 17.1524 228.939C17.1524 232.424 15.0117 235.406 11.9758 236.645L16.0237 271.728C20.1494 274.826 26.5716 279.589 33.344 284.236C44.8261 292.097 52.377 313.395 39.9997 326.832L40.0386 333.763L52.9219 333.686L52.8829 327.529C52.8829 327.529 50.6255 324.857 50.5865 320.714H51.4039V322.262H52.0267V320.714H52.844L53.0386 298.602C53.0386 298.602 50.6644 298.254 50.6644 296.395V296.279V294.227H51.365L51.4039 296.047H51.832V294.227H52.5326L52.5716 296.047H53.0386V294.227H53.7392L53.7782 296.047H53.8949L54.3231 291.903C53.35 291.361 52.7272 290.354 52.6883 289.193C52.6883 287.76 53.6225 286.559 54.9458 286.172L55.0626 284.972C54.2452 284.817 53.6614 284.468 53.6614 284.004C53.6614 283.539 54.362 283.152 55.2961 283.036L55.4129 281.642C55.1404 281.525 54.9847 281.254 54.9847 280.945C54.9847 280.557 55.2183 280.248 55.5686 280.17L55.6464 279.705C55.5296 279.705 55.4518 279.744 55.3351 279.744C54.8291 279.744 54.4009 279.512 54.1674 279.086C54.362 279.241 54.6344 279.318 54.9069 279.318C55.2183 279.318 55.4907 279.202 55.7243 279.008L55.7632 278.66L55.8021 278.97C56.0356 278.737 56.1913 278.389 56.1913 278.04C56.1913 277.731 56.0746 277.421 55.841 277.188C56.347 277.382 56.6584 277.847 56.6584 278.428C56.6584 278.97 56.347 279.396 55.88 279.628L55.9578 280.17C56.3081 280.248 56.5416 280.557 56.5416 280.945C56.5416 281.254 56.3859 281.487 56.1135 281.642L56.2692 282.997C57.2812 283.113 58.0207 283.5 58.0207 284.004C58.0207 284.468 57.3979 284.856 56.5027 284.972L56.6584 286.134C58.0207 286.443 59.0327 287.682 59.0327 289.154C59.0327 290.354 58.332 291.439 57.3201 291.942L57.7871 296.008H57.9039V294.188H58.6434V296.008H59.1105V294.188H59.85V296.008H60.2782V294.188H61.0177V296.24V296.318C61.0177 298.176 58.6434 298.564 58.6434 298.564L59.0716 320.675H59.8889V322.224H60.5117V320.675H61.3291C61.3291 324.818 59.0716 327.49 59.0716 327.49L59.1105 333.686L59.9668 333.647V337.713H61.4069C61.4069 340.462 59.1494 341.082 59.1494 341.082L59.1883 345.651H59.9279V347.045H63.5087L63.8979 349.795H65.5326L65.5716 357.307H68.5297V352.854C60.5117 344.335 65.2213 330.627 72.5386 325.515C78.0267 321.72 83.1255 317.771 85.344 316.028L86.2782 303.133C85.7722 303.327 85.2273 303.443 84.6434 303.443C83.0476 303.404 81.6464 302.552 80.9069 301.236C81.5686 301.739 82.3859 302.01 83.2812 302.01C84.5656 302.01 85.6554 301.468 86.4338 300.577L86.4728 300.113L86.5117 300.5C87.0955 299.803 87.4847 298.874 87.4847 297.905C87.4847 296.821 87.0955 295.853 86.4338 295.117C87.9518 295.776 89.0416 297.325 89.0416 299.106C89.0416 300.771 88.0686 302.165 86.7063 302.901L87.7572 316.028C89.9758 317.732 95.1135 321.643 100.64 325.399C107.997 330.433 112.862 344.064 104.922 352.699V357.152L112.862 357.114L113.679 329.968C113.679 329.968 110.721 329.504 110.721 327.529H112.161V324.586H113.913L113.874 319.397H111.072C111.072 319.397 111.383 315.834 114.03 315.796V313.666H112.628C112.628 313.666 113.368 311.42 115.548 311.42L116.599 298.68L117.766 311.42C119.946 311.42 120.685 313.627 120.685 313.627H119.284L119.323 315.796C121.97 315.796 122.281 319.358 122.281 319.358H119.479L119.518 324.547H121.269V327.49H122.709C122.748 329.465 119.79 329.968 119.79 329.968L120.919 358.275H122.048L122.125 369.892H123.176C123.176 371.906 121.697 372.564 120.958 372.758L121.97 379.883H125.473L125.434 375.507H127.536V373.184C127.536 373.184 125.551 370.899 125.551 367.259H126.251V368.614H126.796V367.259H127.497L127.691 347.975C127.691 347.975 125.628 347.665 125.628 346.039V345.961L125.59 344.141H126.251V345.729H126.64L126.602 344.141H127.263V345.729H127.691V344.141H128.314V345.729H128.431L128.781 342.128C127.964 341.663 127.38 340.772 127.38 339.765C127.38 338.526 128.197 337.481 129.326 337.132L129.443 336.087C128.742 335.971 128.236 335.622 128.236 335.274C128.236 334.848 128.82 334.499 129.637 334.383L129.754 333.182C129.521 333.066 129.365 332.834 129.365 332.563C129.365 332.253 129.599 331.982 129.91 331.905L130.027 330.588V330.394L130.066 330.472V330.394V330.588L130.221 331.905C130.533 331.982 130.727 332.253 130.727 332.563C130.727 332.834 130.572 333.066 130.377 333.182L130.494 334.383C131.389 334.46 132.012 334.809 132.012 335.235C132.012 335.622 131.467 335.971 130.727 336.087L130.844 337.094C132.012 337.403 132.907 338.449 132.907 339.727C132.907 340.811 132.323 341.702 131.428 342.166L131.817 345.729H131.934V344.141H132.557V345.69H132.985V344.102H133.607V345.69H133.997V344.102H134.619V345.922V346C134.658 347.626 132.596 347.936 132.596 347.936L132.946 367.22H133.646V368.576H134.191V367.22H134.892C134.892 370.822 132.946 373.184 132.946 373.184L132.985 375.468H134.931V379.844L151.512 379.767H153.302V383.6H151.512L151.551 391.074H155.871V395.101L183.545 394.985L183.506 392.274H185.607L185.569 390.958H186.736V390.028H187.125V387.628C187.125 387.628 185.919 387.279 185.919 385.808H187.125L187.087 380.348C187.087 380.348 185.88 378.915 185.88 376.708H186.269L186.308 377.559H186.619V376.708H187.048L187.164 364.897C187.164 364.897 185.919 364.703 185.919 363.735V363.658L185.88 362.574H186.269V363.542H186.503V362.574H186.892V363.542H187.164V362.574H187.554V363.542H187.631L187.865 361.334C187.32 361.063 187.009 360.521 186.97 359.863C186.97 359.127 187.476 358.469 188.176 358.275L188.254 357.617C187.826 357.539 187.515 357.346 187.515 357.114C187.515 356.881 187.865 356.649 188.371 356.61L188.449 355.874C188.293 355.797 188.215 355.642 188.215 355.487C188.215 355.294 188.332 355.1 188.527 355.061L188.605 354.248V354.132V354.209L188.643 354.132V354.248L188.721 355.061C188.916 355.139 189.033 355.294 189.033 355.487C189.033 355.642 188.955 355.797 188.799 355.836L188.916 356.571C189.422 356.649 189.811 356.842 189.811 357.114C189.811 357.346 189.5 357.578 189.033 357.656L189.11 358.236C189.811 358.43 190.356 359.088 190.356 359.863C190.356 360.521 190.006 361.063 189.461 361.373L189.694 363.542H189.772V362.574L190.161 362.535V363.542H190.434L190.395 362.535H190.784L190.823 363.503H191.057L191.018 362.535H191.407V363.658V363.697C191.446 364.703 190.161 364.897 190.161 364.897L190.395 376.708H190.823V377.521H191.173V376.669H191.563C191.602 378.915 190.395 380.348 190.395 380.348L190.434 385.808L191.64 385.769C191.64 387.24 190.434 387.589 190.434 387.589V390.028H190.823L190.862 390.958H192.107V392.236H193.859V394.946L195.649 394.908V397.037V403.001H0.99971V276.685C3.14043 275.097 5.12546 273.626 6.76019 272.387Z" fill="#DBAD46"/>
</g>
</g>
<path d="M390 404.376C390 411.127 312.535 416.582 217 416.582C121.465 416.582 44 411.127 44 404.376C44 397.625 121.465 392.102 217 392.102C312.535 392.102 390 397.625 390 404.376Z" fill="#E8D9C8"/>
<path d="M371.452 392.511V404.376H62.6162V392.511L73.1176 392.579V386.51H75.9134H75.9816L77.4136 386.578V386.51H356.587V386.578L358.019 386.51H360.883L360.951 392.579L371.452 392.511Z" fill="#203833"/>
<path d="M317.104 356.165H117.646V282.383H317.104V356.165Z" fill="#203833"/>
<path fill-rule="evenodd" clip-rule="evenodd" d="M107.622 212.555H78.4368C78.4368 212.555 76.4592 205.667 80.4143 200.212C83.1419 196.462 87.097 194.825 89.6882 194.143C91.3248 193.734 92.4841 192.37 92.7568 190.734L92.9614 189.097C91.5294 188.688 90.5065 187.392 90.5065 185.824C90.5065 183.983 92.0067 182.482 93.8479 182.482C94.1661 182.482 94.4616 182.528 94.7344 182.619C93.2342 182.687 92.0749 183.846 92.0749 185.346C92.0749 186.915 93.3024 188.142 94.8707 188.142C95.689 188.142 96.5073 187.733 96.9847 187.119C96.5073 188.347 95.2799 189.233 93.8479 189.233C93.6206 189.233 93.3705 189.211 93.0978 189.165L93.3024 190.734C93.5751 192.37 94.7344 193.734 96.3709 194.143C98.9622 194.825 102.917 196.462 105.645 200.212C109.6 205.667 107.622 212.555 107.622 212.555ZM83.6875 210.236C83.6875 208.872 83.2101 207.577 82.3236 206.554L82.1191 206.281L81.9145 206.486C81.028 207.577 80.5507 208.872 80.5507 210.236V211.395H83.6875V210.236ZM89.1427 210.236C89.1427 208.872 88.6654 207.577 87.7789 206.486L87.5743 206.281L87.3698 206.486C86.4833 207.508 86.0059 208.872 86.0059 210.236V211.395H89.1427V210.236ZM94.598 210.236C94.598 208.872 94.1206 207.577 93.2342 206.486L93.0296 206.213L92.825 206.417C91.9385 207.508 91.4612 208.872 91.4612 210.236V211.395H94.598V210.236ZM100.053 210.236C100.053 208.872 99.5759 207.508 98.6894 206.486L98.4849 206.213L98.2803 206.417C97.3938 207.508 96.9165 208.804 96.9165 210.168V211.327H100.053V210.236ZM105.509 210.236C105.509 208.872 105.031 207.577 104.145 206.554L103.94 206.281L103.736 206.486C102.849 207.508 102.372 208.872 102.372 210.236V211.395H105.509V210.236Z" fill="#D29A1E"/>
<path fill-rule="evenodd" clip-rule="evenodd" d="M105.918 214.055V248.286H80.1416V214.055H105.918ZM86.8925 223.192C86.8925 220.806 85.6651 218.964 84.1649 218.964C82.6647 218.964 81.4372 220.806 81.4372 223.192V243.922H86.8925V223.192ZM97.1893 223.192C97.1893 220.874 95.3481 218.964 92.9615 218.964C90.643 218.964 88.7336 220.874 88.7336 223.192V243.99H97.1893V223.192ZM104.486 223.192C104.486 220.874 103.258 218.964 101.758 218.964C100.258 218.964 99.0304 220.874 99.0304 223.192V243.99H104.486V223.192Z" fill="#F5F0EB"/>
<path d="M121.601 321.113H99.0977V386.235H121.601V321.113Z" fill="#CC8242"/>
<path d="M105.918 386.235H80.1416V249.104H105.918V386.235Z" fill="#D29A1E"/>
<path d="M107.759 250.126H78.3002C77.5501 250.126 76.8682 249.512 76.8682 248.694V247.875C76.8682 247.057 77.5501 246.443 78.3002 246.443H107.759C108.509 246.443 109.122 247.057 109.122 247.875V248.694C109.122 249.512 108.509 250.126 107.759 250.126Z" fill="#CC8242"/>
<path d="M107.759 215.895H78.3002C77.5501 215.895 76.8682 215.213 76.8682 214.463V213.577C76.8682 212.827 77.5501 212.213 78.3002 212.213H107.759C108.509 212.213 109.122 212.827 109.122 213.577V214.463C109.122 215.213 108.509 215.895 107.759 215.895Z" fill="#CC8242"/>
<path d="M312.398 321.113H334.97V386.235H312.398V321.113Z" fill="#CC8242"/>
<path fill-rule="evenodd" clip-rule="evenodd" d="M355.631 212.555H326.446C326.446 212.555 324.468 205.667 328.423 200.212C331.151 196.462 335.106 194.825 337.697 194.143C339.334 193.734 340.493 192.37 340.766 190.734L340.902 189.097C339.538 188.62 338.584 187.392 338.584 185.824C338.584 183.983 340.084 182.482 341.925 182.482C342.243 182.482 342.539 182.528 342.811 182.619C341.311 182.687 340.152 183.846 340.152 185.346C340.152 186.915 341.379 188.142 342.88 188.142C343.766 188.142 344.584 187.733 345.062 187.119C344.584 188.347 343.357 189.233 341.925 189.233C341.652 189.233 341.402 189.211 341.175 189.165L341.311 190.734C341.516 192.37 342.743 193.734 344.38 194.143C346.971 194.825 350.926 196.462 353.654 200.212C357.609 205.667 355.631 212.555 355.631 212.555ZM331.696 210.236C331.696 208.872 331.219 207.577 330.332 206.486L330.128 206.281L329.923 206.554C329.037 207.577 328.559 208.872 328.559 210.236V211.395H331.696V210.236ZM337.151 210.236C337.151 208.872 336.674 207.508 335.788 206.486L335.583 206.281L335.379 206.554C334.492 207.577 334.015 208.872 334.015 210.236V211.395H337.151V210.236ZM342.607 210.236C342.607 208.872 342.129 207.508 341.175 206.486L341.038 206.213L340.834 206.486C339.947 207.577 339.47 208.872 339.47 210.236V211.395H342.607V210.236ZM348.062 210.236C348.062 208.804 347.585 207.508 346.63 206.417L346.494 206.213L346.289 206.486C345.403 207.508 344.925 208.872 344.925 210.236V211.327H348.062V210.236ZM353.517 210.236C353.517 208.872 352.972 207.577 352.085 206.486L351.949 206.281L351.676 206.554C350.858 207.577 350.381 208.94 350.381 210.304V211.395H353.517V210.236Z" fill="#D29A1E"/>
<path fill-rule="evenodd" clip-rule="evenodd" d="M353.926 214.055V248.286H328.15V214.055H353.926ZM347.039 243.922H352.494V223.192C352.494 220.806 351.267 218.964 349.767 218.964C348.267 218.964 347.039 220.806 347.039 223.192V243.922ZM336.742 243.922H345.198V223.124C345.198 220.806 343.357 218.896 340.97 218.896C338.652 218.896 336.742 220.806 336.742 223.124V243.922ZM329.446 243.922H334.901V223.124C334.901 220.806 333.674 218.896 332.174 218.896C330.673 218.896 329.446 220.806 329.446 223.124V243.922Z" fill="#F5F0EB"/>
<path d="M328.15 386.235H353.926V249.104H328.15V386.235Z" fill="#D29A1E"/>
<path d="M326.31 250.126H355.768C356.518 250.126 357.132 249.512 357.132 248.694V247.875C357.132 247.057 356.518 246.443 355.768 246.443H326.31C325.56 246.443 324.878 247.057 324.878 247.875V248.694C324.878 249.512 325.56 250.126 326.31 250.126Z" fill="#CC8242"/>
<path d="M326.31 215.895H355.768C356.518 215.895 357.132 215.213 357.132 214.463V213.577C357.132 212.827 356.518 212.213 355.768 212.213H326.31C325.56 212.213 324.878 212.827 324.878 213.577V214.463C324.878 215.213 325.56 215.895 326.31 215.895Z" fill="#CC8242"/>
<path d="M255.596 220.873C255.392 218.146 254.778 215.486 253.687 212.963C249.8 203.894 241.413 199.052 233.639 193.665C229.684 190.869 225.797 187.664 222.456 184.187C221.024 182.823 218.091 180.232 218.091 178.049C218.091 175.867 219.728 176.004 220.069 174.708C220.41 173.412 219.796 172.321 218.842 171.435C217.887 170.48 217.75 169.594 217.75 169.594C217.75 169.594 217.682 170.48 216.728 171.435C215.773 172.321 215.159 173.412 215.5 174.708C215.773 176.004 217.41 175.867 217.41 178.049C217.41 182.345 209.636 187.528 206.84 189.71C200.907 194.415 194.293 198.302 188.769 203.485C176.086 215.486 177.518 236.284 190.747 247.468H217.75H244.822C246.527 247.468 250.005 242.012 250.823 240.717C252.391 238.125 253.551 235.125 254.369 232.193C255.392 228.511 255.869 224.692 255.596 220.873Z" fill="#D29A1E"/>
<path d="M245.299 256.538H190.269C188.223 256.538 186.519 254.834 186.519 252.788V250.606C186.519 248.492 188.223 246.787 190.269 246.787H245.299C247.345 246.787 249.05 248.492 249.05 250.606V252.788C249.05 254.834 247.345 256.538 245.299 256.538Z" fill="#437767"/>
<path d="M221.569 165.298C215.568 165.298 210.659 160.457 210.659 154.388C210.659 148.455 215.296 143.682 221.16 143.477C220.069 143.205 218.978 143 217.75 143C210.454 143 204.521 148.933 204.521 156.297C204.521 163.662 210.454 169.594 217.75 169.594C223.342 169.594 228.115 166.117 230.093 161.275C228.047 163.73 225.047 165.298 221.569 165.298Z" fill="#D29A1E"/>
<path fill-rule="evenodd" clip-rule="evenodd" d="M163.879 274.403H118.464C118.464 274.403 115.327 263.561 121.464 255.105C125.692 249.309 131.897 246.786 135.92 245.695C138.444 245.013 140.353 242.899 140.694 240.308L141.171 236.898L141.58 240.308C141.989 242.899 143.831 245.013 146.354 245.695C150.377 246.786 156.582 249.309 160.81 255.105C167.015 263.561 163.879 274.403 163.879 274.403ZM126.647 270.789C126.647 268.675 125.896 266.63 124.533 264.993L124.192 264.584L123.919 264.925C122.487 266.561 121.737 268.607 121.737 270.789V272.562H126.647V270.789ZM135.102 270.789C135.102 268.675 134.352 266.63 132.988 264.993L132.647 264.584L132.375 264.925C131.011 266.561 130.192 268.607 130.192 270.789V272.562H135.102V270.789ZM143.626 270.789C143.626 268.675 142.876 266.63 141.512 264.993L141.171 264.584L140.898 264.925C139.466 266.561 138.716 268.607 138.716 270.789V272.562H143.626V270.789ZM152.082 270.789C152.082 268.675 151.332 266.63 149.968 264.993L149.627 264.584L149.354 264.925C147.99 266.561 147.172 268.607 147.172 270.789V272.562H152.082V270.789ZM160.537 270.789C160.537 268.675 159.855 266.63 158.492 264.993L158.151 264.584L157.878 264.925C156.446 266.561 155.696 268.607 155.696 270.789V272.562H160.537V270.789Z" fill="#F5F0EB"/>
<path fill-rule="evenodd" clip-rule="evenodd" d="M166.265 287.973V386.236H116.009V287.973H166.265ZM152.014 349.413V302.838C152.014 302.838 152.014 300.179 149.695 299.292C147.717 298.474 145.74 299.224 145.74 299.224C146.354 296.701 144.035 295.133 142.671 294.519C141.239 293.905 141.171 292.814 141.171 292.814C141.171 292.814 141.035 293.905 139.603 294.519C138.239 295.133 135.92 296.701 136.534 299.224C136.534 299.224 134.557 298.474 132.579 299.292C130.329 300.179 130.329 302.838 130.329 302.838V349.413H152.014Z" fill="#F5F0EB"/>
<path d="M164.083 279.519H118.259C117.032 279.519 116.009 278.496 116.009 277.269V275.973C116.009 274.746 117.032 273.791 118.259 273.791H164.083C165.311 273.791 166.265 274.746 166.265 275.973V277.269C166.265 278.496 165.311 279.519 164.083 279.519Z" fill="#203833"/>
<path d="M163.538 291.519H118.737C113.623 291.519 109.463 287.36 109.463 282.245V279.518H172.88V282.245C172.88 287.36 168.652 291.519 163.538 291.519Z" fill="#CC8242"/>
<path d="M143.968 237.24C141.581 237.24 139.672 235.33 139.672 232.876C139.672 230.557 141.513 228.648 143.831 228.58C143.377 228.489 142.922 228.42 142.467 228.375C139.535 228.375 137.217 230.762 137.217 233.694C137.217 236.558 139.535 238.945 142.467 238.945C144.65 238.945 146.559 237.581 147.309 235.671C146.559 236.626 145.331 237.24 143.968 237.24Z" fill="#D9AB46"/>
<path fill-rule="evenodd" clip-rule="evenodd" d="M317.241 274.403H271.826C271.826 274.403 268.689 263.561 274.895 255.105C279.122 249.309 285.26 246.786 289.351 245.695C291.874 245.013 293.715 242.899 294.056 240.308L294.534 236.898L295.011 240.308C295.352 242.899 297.193 245.013 299.716 245.695C303.807 246.786 310.013 249.309 314.172 255.105C320.378 263.561 317.241 274.403 317.241 274.403ZM280.009 270.789C280.009 268.675 279.259 266.63 277.895 264.993L277.554 264.584L277.281 264.925C275.917 266.561 275.099 268.607 275.099 270.789V272.562H280.009V270.789ZM288.465 270.789C288.465 268.675 287.783 266.63 286.419 264.993L286.078 264.584L285.805 264.925C284.373 266.561 283.623 268.607 283.623 270.789V272.562H288.465V270.789ZM296.988 270.789C296.988 268.675 296.238 266.63 294.874 264.993L294.534 264.584L294.261 264.925C292.897 266.561 292.079 268.607 292.079 270.789V272.562H296.988V270.789ZM305.444 270.789C305.444 268.675 304.762 266.63 303.398 264.993L303.057 264.584L302.716 264.925C301.353 266.561 300.603 268.607 300.603 270.789V272.562H305.444V270.789ZM313.968 270.789C313.968 268.675 313.218 266.63 311.854 264.993L311.513 264.584L311.24 264.925C309.876 266.561 309.058 268.607 309.058 270.789V272.562H313.968V270.789Z" fill="#F5F0EB"/>
<path fill-rule="evenodd" clip-rule="evenodd" d="M319.695 287.973V386.236H269.438V287.973H319.695ZM305.375 349.413V302.838C305.375 302.838 305.375 300.179 303.125 299.292C301.147 298.474 299.101 299.224 299.101 299.224C299.783 296.701 297.465 295.133 296.033 294.519C294.601 293.905 294.533 292.814 294.533 292.814C294.533 292.814 294.396 293.905 293.032 294.519C291.6 295.133 289.282 296.701 289.964 299.224C289.964 299.224 287.918 298.474 285.941 299.292C283.69 300.179 283.69 302.838 283.69 302.838V349.413H305.375Z" fill="#F5F0EB"/>
<path d="M317.445 279.519H271.621C270.393 279.519 269.438 278.496 269.438 277.269V275.973C269.438 274.746 270.393 273.791 271.621 273.791H317.445C318.672 273.791 319.695 274.746 319.695 275.973V277.269C319.695 278.496 318.672 279.519 317.445 279.519Z" fill="#203833"/>
<path d="M316.9 291.519H272.166C266.984 291.519 262.824 287.36 262.824 282.245V279.518H326.242V282.245C326.242 287.36 322.082 291.519 316.9 291.519Z" fill="#CC8242"/>
<path d="M297.396 237.24C295.01 237.24 293.032 235.33 293.032 232.876C293.032 230.557 294.873 228.648 297.192 228.58C296.783 228.489 296.328 228.42 295.828 228.375C292.964 228.375 290.577 230.762 290.577 233.694C290.577 236.558 292.964 238.945 295.828 238.945C298.078 238.945 299.919 237.581 300.738 235.671C299.919 236.626 298.76 237.24 297.396 237.24Z" fill="#D9AB46"/>
<path fill-rule="evenodd" clip-rule="evenodd" d="M186.314 255.039H249.322C260.437 255.039 269.438 264.04 269.438 275.155V386.238H166.197V275.155C166.197 264.04 175.198 255.039 186.314 255.039ZM191.973 292.408C191.973 292.408 191.973 289.748 190.2 288.793C188.632 287.975 187.064 288.725 187.064 288.725C187.541 286.27 185.768 284.702 184.677 284.088C183.518 283.406 183.45 282.384 183.45 282.384C183.45 282.384 183.381 283.406 182.29 284.088C181.199 284.702 179.358 286.27 179.835 288.725C179.835 288.725 178.335 287.975 176.767 288.793C174.994 289.748 174.994 292.408 174.994 292.408V349.415H191.973V292.408ZM260.71 292.408C260.71 292.408 260.71 289.748 258.937 288.793C257.368 287.975 255.8 288.725 255.8 288.725C256.345 286.27 254.504 284.702 253.413 284.088C252.322 283.406 252.254 282.384 252.254 282.384C252.254 282.384 252.118 283.406 251.027 284.088C249.936 284.702 248.094 286.27 248.64 288.725C248.64 288.725 247.072 287.975 245.503 288.793C243.73 289.748 243.73 292.408 243.73 292.408V349.415H260.71V292.408Z" fill="#D29A1E"/>
<path d="M232.343 282.314C232.547 277.472 226.956 275.29 223.205 274.131C219.387 272.971 217 268.539 217 268.539C217 268.539 214.613 272.971 210.863 274.131C207.112 275.29 201.521 277.472 201.725 282.314H198.793V395.442H235.275V282.314H232.343Z" fill="#203833"/>
</g>
<defs>
<clipPath id="clip0_2176_959">
<rect width="509" height="402" fill="white" transform="translate(-38)"/>
</clipPath>
<clipPath id="clip1_2176_959">
<rect width="195" height="182" fill="white" transform="translate(236 221)"/>
</clipPath>
<clipPath id="clip2_2176_959">
<rect width="195" height="182" fill="white" transform="matrix(-1 0 0 1 196 221)"/>
</clipPath>
</defs>
</svg>
