<svg width="194" height="182" viewBox="0 0 194 182" fill="none" xmlns="http://www.w3.org/2000/svg">
<g clip-path="url(#clip0_2176_1746)">
<mask id="mask0_2176_1746" style="mask-type:luminance" maskUnits="userSpaceOnUse" x="-378" y="-12" width="573" height="194">
<path d="M195 182H-377.155V-11.6172H195V182Z" fill="white"/>
</mask>
<g mask="url(#mask0_2176_1746)">
<path d="M189.24 51.3867L185.503 16.1097C186.048 16.2388 186.606 16.3033 187.177 16.3033C190.291 16.3033 192.976 14.6382 194.455 12.1599C193.132 13.0893 191.536 13.6314 189.824 13.6314C188.033 13.5927 186.398 13.0118 185.075 12.005L184.842 9.75906V8.55863L184.764 9.13948L184.686 8.55863V9.75906L184.491 11.5403C182.857 10.0688 181.845 7.97778 181.845 5.61565C181.845 3.56331 182.662 1.70459 183.946 0.310547C180.949 1.5497 178.887 4.49267 178.848 7.93906C178.848 11.4242 180.988 14.4059 184.024 15.645L179.976 50.7284C175.851 53.8263 169.428 58.5893 162.656 63.2361C151.174 71.0969 143.623 92.3948 156 105.832L155.961 112.763L143.078 112.686L143.117 106.529C143.117 106.529 145.375 103.857 145.413 99.7135H144.596V101.262H143.973V99.7135H143.156L142.961 77.6025C142.961 77.6025 145.336 77.2539 145.336 75.3952V75.2791V73.2267H144.635L144.596 75.0467H144.168V73.2267H143.467L143.428 75.0467H142.961V73.2267H142.261L142.222 75.0467H142.105L141.677 70.9033C142.65 70.3612 143.273 69.3544 143.312 68.1927C143.312 66.7599 142.378 65.5595 141.054 65.1722L140.937 63.9718C141.755 63.8169 142.339 63.4684 142.339 63.0037C142.339 62.5391 141.638 62.1518 140.704 62.0356L140.587 60.6416C140.86 60.5254 141.015 60.2544 141.015 59.9446C141.015 59.5574 140.782 59.2476 140.431 59.1701L140.354 58.7054C140.47 58.7054 140.548 58.7442 140.665 58.7442C141.171 58.7442 141.599 58.5118 141.833 58.0859C141.638 58.2408 141.366 58.3182 141.093 58.3182C140.782 58.3182 140.509 58.202 140.276 58.0084L140.237 57.6599L140.198 57.9697C139.964 57.7374 139.809 57.3888 139.809 57.0403C139.809 56.7305 139.925 56.4208 140.159 56.1884C139.653 56.382 139.342 56.8467 139.342 57.4276C139.342 57.9697 139.653 58.3956 140.12 58.628L140.042 59.1701C139.692 59.2476 139.458 59.5574 139.458 59.9446C139.458 60.2544 139.614 60.4867 139.887 60.6416L139.731 61.9969C138.719 62.1131 137.979 62.5003 137.979 63.0037C137.979 63.4684 138.602 63.8556 139.497 63.9718L139.342 65.1335C137.979 65.4433 136.967 66.6825 136.967 68.1539C136.967 69.3544 137.668 70.4386 138.68 70.942L138.213 75.008H138.096V73.188H137.357V75.008H136.89V73.188H136.15V75.008H135.722V73.188H134.982V75.2403V75.3178C134.982 77.1765 137.357 77.5637 137.357 77.5637L136.928 99.6748H136.111V101.224H135.488V99.6748H134.671C134.671 103.818 136.928 106.49 136.928 106.49L136.89 112.686L136.033 112.647V116.713H134.593C134.593 119.462 136.851 120.082 136.851 120.082L136.812 124.651H136.072V126.045H132.491L132.102 128.795H130.467L130.428 136.307H127.47V131.854C135.488 123.335 130.779 109.627 123.461 104.515C117.973 100.72 112.875 96.7705 110.656 95.028L109.722 82.1331C110.228 82.3267 110.773 82.4429 111.357 82.4429C112.952 82.4042 114.354 81.5522 115.093 80.2356C114.431 80.7391 113.614 81.0101 112.719 81.0101C111.434 81.0101 110.345 80.468 109.566 79.5774L109.527 79.1127L109.488 79.4999C108.904 78.8029 108.515 77.8735 108.515 76.9054C108.515 75.8212 108.904 74.8531 109.566 74.1173C108.048 74.7757 106.958 76.3246 106.958 78.1059C106.958 79.771 107.931 81.165 109.294 81.9008L108.243 95.028C106.024 96.7318 100.887 100.643 95.3596 104.399C88.0033 109.433 83.138 123.064 91.0781 131.699V136.152L83.138 136.114L82.3206 108.968C82.3206 108.968 85.2787 108.504 85.2787 106.529H83.8386V103.586H82.0871L82.126 98.3969H84.9284C84.9284 98.3969 84.6171 94.8344 81.9704 94.7957V92.6659H83.3715C83.3715 92.6659 82.632 90.4199 80.4524 90.4199L79.4015 77.6799L78.2338 90.4199C76.0542 90.4199 75.3147 92.6271 75.3147 92.6271H76.7159L76.6769 94.7957C74.0302 94.7957 73.7188 98.3582 73.7188 98.3582H76.5212L76.4823 103.547H74.7308V106.49H73.2907C73.2518 108.465 76.2099 108.968 76.2099 108.968L75.0811 137.275H73.9524L73.8745 148.892H72.8236C72.8236 150.906 74.3027 151.564 75.0422 151.758L74.0302 158.883H70.5272L70.5662 154.507H68.4644V152.184C68.4644 152.184 70.4494 149.899 70.4494 146.259H69.7488V147.614H69.2039V146.259H68.5033L68.3087 126.975C68.3087 126.975 70.3715 126.665 70.3715 125.039V124.961L70.4105 123.141H69.7488V124.729H69.3596L69.3985 123.141H68.7368V124.729H68.3087V123.141H67.6859V124.729H67.5692L67.2188 121.128C68.0362 120.663 68.62 119.772 68.62 118.765C68.62 117.526 67.8027 116.481 66.6739 116.132L66.5572 115.087C67.2578 114.971 67.7638 114.622 67.7638 114.274C67.7638 113.848 67.1799 113.499 66.3626 113.383L66.2458 112.182C66.4793 112.066 66.635 111.834 66.635 111.563C66.635 111.253 66.4015 110.982 66.0901 110.905L65.9733 109.588V109.394L65.9344 109.472V109.394V109.588L65.7787 110.905C65.4674 110.982 65.2727 111.253 65.2727 111.563C65.2727 111.834 65.4284 112.066 65.623 112.182L65.5063 113.383C64.6111 113.46 63.9883 113.809 63.9883 114.235C63.9883 114.622 64.5332 114.971 65.2727 115.087L65.156 116.094C63.9883 116.403 63.0931 117.449 63.0931 118.727C63.0931 119.811 63.6769 120.702 64.5721 121.166L64.1829 124.729H64.0662V123.141H63.4434V124.69H63.0153V123.102H62.3925V124.69H62.0033V123.102H61.3805V124.922V125C61.3416 126.626 63.4045 126.936 63.4045 126.936L63.0542 146.22H62.3536V147.576H61.8087V146.22H61.1081C61.1081 149.822 63.0542 152.184 63.0542 152.184L63.0153 154.468H61.0691V158.844L44.4883 158.767H42.6979V162.6H44.4883L44.4494 170.074H40.129V174.101L12.4554 173.985L12.4943 171.274H10.3925L10.4314 169.958H9.26376V169.028H8.87454V166.628C8.87454 166.628 10.0811 166.279 10.0811 164.808H8.87454L8.91346 159.348C8.91346 159.348 10.12 157.915 10.12 155.708H9.73083L9.6919 156.559H9.38053V155.708H8.95238L8.83562 143.897C8.83562 143.897 10.0811 143.703 10.0811 142.735V142.658L10.12 141.574H9.73083V142.542H9.49729V141.574H9.10807V142.542H8.83562V141.574H8.44639V142.542H8.36855L8.13502 140.334C8.67993 140.063 8.9913 139.521 9.03023 138.863C9.03023 138.127 8.52424 137.469 7.82364 137.275L7.7458 136.617C8.17394 136.539 8.48532 136.346 8.48532 136.114C8.48532 135.881 8.13502 135.649 7.62903 135.61L7.55118 134.874C7.70687 134.797 7.78472 134.642 7.78472 134.487C7.78472 134.294 7.66795 134.1 7.47334 134.061L7.3955 133.248V133.132V133.209L7.35657 133.132V133.248L7.27873 134.061C7.08412 134.139 6.96735 134.294 6.96735 134.487C6.96735 134.642 7.0452 134.797 7.20089 134.836L7.08412 135.571C6.57813 135.649 6.18891 135.842 6.18891 136.114C6.18891 136.346 6.50029 136.578 6.96735 136.656L6.88951 137.236C6.18891 137.43 5.644 138.088 5.644 138.863C5.644 139.521 5.9943 140.063 6.53921 140.373L6.30568 142.542H6.22783V141.574L5.83861 141.535V142.542H5.56615L5.60508 141.535H5.21586L5.17693 142.503H4.9434L4.98232 141.535H4.5931V142.658V142.697C4.55418 143.703 5.83861 143.897 5.83861 143.897L5.60508 155.708H5.17693V156.521H4.82663V155.669H4.43741C4.39849 157.915 5.60508 159.348 5.60508 159.348L5.56615 164.808L4.35957 164.769C4.35957 166.24 5.56615 166.589 5.56615 166.589V169.028H5.17693L5.13801 169.958H3.8925V171.236H2.14101V173.946L0.350586 173.908V176.037V182.001H195V55.685C192.86 54.0974 190.875 52.6259 189.24 51.3867Z" fill="#DBAD46"/>
</g>
</g>
<defs>
<clipPath id="clip0_2176_1746">
<rect width="195" height="182" fill="white"/>
</clipPath>
</defs>
</svg>
