<svg width="429" height="283" viewBox="0 0 429 283" fill="none" xmlns="http://www.w3.org/2000/svg">
<path fill-rule="evenodd" clip-rule="evenodd" d="M351 282.149H0V96.2568C6.37624 97.6669 12.3233 100.181 17.6573 103.553V71.7327L14.9597 68.1155V62.4749H17.4734V46.5956H15.9406V44.879H14.9597V42.3039H17.7799V40.8325H19.6192C6.25362 33.1687 25.9341 18.6383 25.9341 18.6383V15.6341H28.9383V15.021L27.0377 14.2239V12.9364L28.7544 11.9555V11.2197L28.2639 10.8519V9.25782H29.061L29.9806 0L30.8389 9.25782H31.6973V10.8519L31.1455 11.2197V11.9555L32.8622 12.9364V14.2239L30.9616 15.021V15.6341H33.9658V18.6383C33.9658 18.6383 53.6463 33.1687 40.2807 40.8325H42.12V42.3039H44.9403V44.879H43.9593V46.5956H42.4879V62.4749H44.9403V68.1155L42.2426 71.7327V139.235C42.917 142.791 43.3462 146.47 43.3462 150.21C43.3462 150.782 43.3258 151.354 43.2849 151.926C45.0833 153.439 46.7591 155.074 48.3123 156.831V116.673L45.6147 112.994V107.415H48.0671V91.5359H46.5956V89.8192H45.6147V87.2442H48.4349V85.7727H50.2742C36.9086 78.109 56.5279 63.5172 56.5279 63.5172V60.513H59.5934V59.9612L57.6927 59.1642V57.8767L59.4094 56.8344V56.16L58.8576 55.7921V54.1981H59.716L60.5743 44.9403L61.494 54.1981H62.291V55.7921L61.8005 56.16V56.8344L63.4559 57.8767V59.1642L61.6166 59.9612V60.513H64.6208V63.5172C64.6208 63.5172 84.3013 78.109 70.9357 85.7727H72.775V87.2442H75.5953V89.8192H74.553V91.5359H73.0816V107.415H75.5953V112.994L72.8976 116.673V190.122C78.5382 192.697 83.6882 196.131 88.1025 200.361C93.0686 198.215 98.4026 196.744 103.982 196.131C110.603 173.017 131.878 156.095 157.138 156.095C183.991 156.095 206.37 175.285 211.336 200.668C246.037 197.05 276.815 220.103 275.773 255.969C323.349 245.608 351 282.149 351 282.149ZM26.1794 53.6463C26.1794 52.4201 25.1984 51.3778 23.9722 51.3778C22.746 51.3778 21.7038 52.4201 21.7038 53.6463V61.31H26.1794V53.6463ZM32.1878 53.6463C32.1878 52.4201 31.2068 51.4391 29.9806 51.4391C28.7544 51.4391 27.7121 52.4201 27.7121 53.6463V61.3713H32.1878V53.6463ZM38.1962 53.6463C38.1962 52.4201 37.1539 51.4391 35.9277 51.4391C34.7015 51.4391 33.7205 52.4201 33.7205 53.6463V61.3713H38.1962V53.6463ZM56.8344 98.5252C56.8344 97.299 55.8534 96.3181 54.5659 96.3181C53.3397 96.3181 52.3588 97.299 52.3588 98.5252V106.25H56.8344V98.5252ZM62.8428 98.5252C62.8428 97.299 61.8005 96.3181 60.5743 96.3181C59.3481 96.3181 58.3672 97.299 58.3672 98.5252V106.25H62.8428V98.5252ZM68.7899 98.5252C68.7899 97.299 67.8089 96.3181 66.5827 96.3181C65.3565 96.3181 64.3755 97.299 64.3755 98.5252V106.25H68.7899V98.5252Z" fill="#177767"/>
<path fill-rule="evenodd" clip-rule="evenodd" d="M154.227 255.834C153.185 219.987 183.963 196.947 218.664 200.562C223.63 175.193 246.009 156.013 272.862 156.013C298.122 156.013 319.397 172.926 326.018 196.027C331.597 196.64 336.931 198.111 341.897 200.256C346.312 196.027 351.462 192.596 357.102 190.022V116.611L354.405 112.935V107.359H356.918V91.4876H355.447V89.7718H354.405V87.1982H357.225V85.7275H359.064C345.699 78.0678 365.379 63.4837 365.379 63.4837V60.4811H368.383V59.9296L366.544 59.133V57.8462L368.199 56.8044V56.1304L367.709 55.7627V54.1695H368.506L369.426 44.9166L370.284 54.1695H371.142V55.7627L370.591 56.1304V56.8044L372.307 57.8462V59.133L370.407 59.9296V60.4811H373.472V63.4837C373.472 63.4837 393.091 78.0678 379.726 85.7275H381.565V87.1982H384.385V89.7718H383.404V91.4876H381.933V107.359H384.385V112.935L381.688 116.611V156.748C383.241 154.992 384.917 153.358 386.715 151.846C386.674 151.274 386.654 150.702 386.654 150.13C386.654 146.392 387.083 142.716 387.757 139.162V71.6949L385.06 68.0795V62.442H387.512V46.5711H386.041V44.8553H385.06V42.2816H387.88V40.811H389.719C376.354 33.1512 396.034 18.6284 396.034 18.6284V15.6258H399.038V15.013L397.138 14.2164V12.9296L398.854 11.9492V11.2138L398.303 10.8462V9.25293H399.161L400.019 0L400.939 9.25293H401.736V10.8462L401.246 11.2138V11.9492L402.962 12.9296V14.2164L401.062 15.013V15.6258H404.066V18.6284C404.066 18.6284 423.746 33.1512 410.381 40.811H412.22V42.2816H415.04V44.8553H414.059V46.5711H412.527V62.442H415.04V68.0795L412.343 71.6949V103.498C417.677 100.128 423.624 97.6154 430 96.206V282H79C79 282 106.651 245.478 154.227 255.834ZM403.821 61.2777H408.296V53.618C408.296 52.3924 407.254 51.3507 406.028 51.3507C404.802 51.3507 403.821 52.3924 403.821 53.618V61.2777ZM397.812 61.2777H402.288V53.5567C402.288 52.3312 401.246 51.3507 400.019 51.3507C398.793 51.3507 397.812 52.3312 397.812 53.5567V61.2777ZM391.804 61.2777H396.279V53.5567C396.279 52.3312 395.299 51.3507 394.072 51.3507C392.846 51.3507 391.804 52.3312 391.804 53.5567V61.2777ZM373.166 106.194H377.641V98.4733C377.641 97.2477 376.66 96.2673 375.434 96.2673C374.147 96.2673 373.166 97.2477 373.166 98.4733V106.194ZM367.157 106.194H371.633V98.5345C371.633 97.2477 370.652 96.2673 369.426 96.2673C368.199 96.2673 367.157 97.2477 367.157 98.5345V106.194ZM361.21 106.194H365.624V98.4733C365.624 97.2477 364.643 96.2673 363.417 96.2673C362.191 96.2673 361.21 97.2477 361.21 98.4733V106.194Z" fill="#177767"/>
<path d="M165.347 219.493C164.452 214.806 162.734 210.405 160.373 206.397C153.252 194.375 140.121 186.324 125.128 186.324C105.269 186.324 88.7024 200.458 84.9454 219.207C77.467 211.335 66.9115 206.397 55.1751 206.397C55.1751 188.542 43.7966 173.371 27.8738 167.753C28.0885 166.107 28.2316 164.461 28.2316 162.78C28.2316 145.64 16.1017 131.363 0 128V281.932H133.716H228C195.976 281.932 174.471 241.105 165.347 219.493Z" fill="#10665C"/>
<path d="M264.762 219.653C265.659 214.957 267.379 210.548 269.745 206.534C276.878 194.49 290.032 186.425 305.051 186.425C324.944 186.425 341.54 200.584 345.303 219.366C352.795 211.48 363.369 206.534 375.126 206.534C375.126 188.648 386.524 173.45 402.474 167.822C402.259 166.174 402.116 164.525 402.116 162.84C402.116 145.671 414.267 131.369 430.397 128V282.2H296.448H202C234.08 282.2 255.622 241.302 264.762 219.653Z" fill="#10665C"/>
<path d="M430 277.912V277.348V275.657V273.177H427.858V270.02H425.829V268.442H424.363V267.427H423.912V264.496C423.912 264.496 425.265 264.157 425.265 262.353H423.912L423.799 256.04C423.799 256.04 425.265 254.349 425.265 251.643H424.701V252.658H424.363V251.643L423.799 251.756L423.574 237.776C423.574 237.776 425.039 237.55 425.039 236.423V235.07H424.588V236.197H424.363V235.07H423.912V236.197H423.574V235.07H423.123V236.197H423.01L422.784 233.717C423.348 233.379 423.799 232.702 423.799 231.913C423.799 231.011 423.123 230.222 422.333 229.996L422.221 229.32C422.784 229.207 423.235 228.982 423.235 228.643C423.123 228.418 422.672 228.08 422.108 228.08L421.995 227.178C422.108 227.065 422.221 226.952 422.221 226.727C422.221 226.501 422.108 226.389 421.883 226.276L421.77 225.374L421.657 226.276C421.432 226.389 421.319 226.501 421.319 226.727C421.319 226.952 421.432 227.178 421.544 227.178L421.432 228.08C420.868 228.192 420.417 228.418 420.417 228.756C420.417 228.982 420.868 229.207 421.319 229.32L421.206 229.996C420.417 230.335 419.853 231.011 419.853 231.913C419.853 232.702 420.304 233.266 420.868 233.604L420.642 236.197H420.53V235.07H420.079V236.197H419.74V235.07H419.289V236.197H419.064V235.07H418.613V236.423C418.613 237.663 420.079 237.888 420.079 237.888L419.966 251.756H419.402V252.658H419.064V251.756H418.5C418.5 254.349 419.966 256.04 419.966 256.04V262.466H418.613C418.613 264.157 419.966 264.496 419.966 264.496V267.427H419.515V268.442H418.162L418.275 270.02H415.794V273.177L383.437 273.289V268.554L378.364 268.667V259.873L380.506 259.76L380.393 255.363H378.364H358.972V250.29H356.717V247.584C356.717 247.584 358.972 244.766 358.972 240.594H358.07L358.183 242.173H357.507V240.594H356.605L356.266 217.933C356.266 217.933 358.634 217.482 358.634 215.565V213.423H357.845V215.227H357.394V213.423H356.717V215.227H356.154V213.423H355.477V215.227H355.364L354.913 211.168C355.928 210.605 356.605 209.477 356.605 208.237C356.605 206.771 355.59 205.531 354.124 205.193L354.012 203.953C354.913 203.84 355.59 203.389 355.59 202.938C355.59 202.487 354.801 202.036 353.786 201.923L353.673 200.571C353.899 200.458 354.124 200.12 354.124 199.781C354.012 199.443 353.786 199.105 353.448 199.105L353.335 197.526V197.301L353.222 197.414V197.301V197.526L353.11 198.992C352.771 199.105 352.433 199.443 352.433 199.781C352.433 200.12 352.659 200.458 352.884 200.571L352.771 201.923C351.869 202.149 351.08 202.487 351.08 202.938C351.08 203.389 351.757 203.84 352.546 203.953L352.433 205.193C351.08 205.531 350.178 206.771 350.178 208.237C350.178 209.477 350.855 210.492 351.757 211.056L351.306 215.34H351.193V213.423H350.517V215.34H349.953V213.423H349.276V215.34H348.825V213.423H348.036V215.565V215.678C348.036 217.595 350.517 217.933 350.517 217.933L350.291 240.594H349.502V242.173H348.825V240.594H348.036C348.036 244.878 350.291 247.584 350.291 247.584V250.29H347.923V255.476H343.752L342.625 247.133C343.526 246.908 345.218 246.118 345.218 243.751H343.977V230.109H342.512L341.272 196.737C341.272 196.737 344.654 196.174 344.654 193.806H342.963V190.424H340.933V184.336H344.203C344.203 184.336 343.752 180.051 340.708 180.051V177.571H342.286C342.286 177.571 341.384 174.978 338.904 174.978L337.551 159.983L336.311 174.978C333.718 174.978 332.929 177.571 332.929 177.571H334.507V180.164C331.463 180.164 331.125 184.336 331.125 184.336H334.394V190.424H332.365V193.919H330.674C330.674 196.286 334.169 196.737 334.169 196.737L333.154 228.643L323.909 228.756V223.457C333.154 213.31 327.517 197.301 318.836 191.438C312.41 186.929 306.434 182.419 303.728 180.39L302.601 165.508C302.751 165.508 302.939 165.545 303.165 165.62C305.081 165.508 306.66 164.493 307.562 163.027C306.772 163.591 305.758 163.929 304.743 163.929C303.841 163.929 303.165 163.704 302.375 163.365L302.263 161.674L302.15 163.14C300.797 162.351 299.895 160.772 299.782 159.081C299.782 157.841 300.346 156.714 301.023 155.812C299.219 156.601 297.978 158.405 297.978 160.434C297.978 162.915 299.782 164.944 302.037 165.395L301.023 180.39C298.429 182.419 292.454 187.041 286.028 191.551C277.459 197.526 271.935 213.649 281.293 223.683V228.869H277.91L277.798 220.075H275.881L275.43 216.805H271.258V215.227H270.357V209.815C270.357 209.815 272.95 209.139 272.95 205.869H271.258V201.134H270.357L270.244 193.919C270.244 193.919 272.837 190.762 272.837 185.801H271.935V187.718H271.258L271.146 185.801H270.244L269.793 159.87C269.793 159.87 272.499 159.419 272.499 157.277V157.165V154.684H271.709V156.826H271.146V154.684H270.357V156.826H269.793L269.68 154.684H268.891V156.826H268.778L268.214 152.091C269.342 151.415 270.244 150.175 270.244 148.822C270.244 147.018 269.004 145.665 267.425 145.214L267.2 143.861C268.327 143.748 269.004 143.297 269.004 142.734C269.004 142.17 268.102 141.719 266.974 141.606L266.749 139.915C267.087 139.802 267.312 139.464 267.312 139.126C267.312 138.675 266.974 138.337 266.636 138.224L266.523 137.66C266.674 137.735 266.824 137.773 266.974 137.773C267.651 137.773 268.102 137.435 268.44 136.984C268.139 137.134 267.839 137.209 267.538 137.209C267.087 137.209 266.749 136.984 266.411 136.758V136.42L266.298 136.646C266.185 136.307 266.072 136.082 266.072 135.744C266.072 135.293 266.185 134.954 266.411 134.729C265.847 134.954 265.509 135.518 265.509 136.195C265.509 136.758 265.734 137.209 266.298 137.547L266.185 138.224C265.734 138.337 265.396 138.675 265.396 139.126C265.396 139.464 265.621 139.802 265.96 139.915L265.847 141.606C264.719 141.719 263.93 142.17 263.93 142.734C263.93 143.297 264.607 143.748 265.621 143.861L265.396 145.214C263.93 145.778 262.803 147.131 262.803 148.822C262.803 150.175 263.592 151.415 264.719 151.978L264.156 156.826H264.043V154.684H263.141V156.826H262.577V154.684L261.788 154.797V156.826L261.224 156.939V154.797H260.435V157.165V157.277C260.435 159.419 263.254 159.87 263.254 159.87L262.916 185.914H262.014V187.718H261.224V185.914H260.322C260.322 190.762 263.028 193.919 263.028 193.919V201.134L247.921 201.247V193.017C262.465 177.233 253.558 152.317 240.142 142.959C232.813 137.886 225.711 132.7 220.863 129.092L216.578 87.6025C217.18 87.7528 217.819 87.828 218.495 87.828C222.103 87.828 225.372 85.9114 227.063 82.9801C225.485 84.1075 223.681 84.6712 221.652 84.6712C219.51 84.6712 217.593 83.9948 216.015 82.7546L215.789 80.1615V78.6959L215.676 79.4851V78.6959V80.1615L215.338 82.1909C213.534 80.4997 212.294 78.0194 212.294 75.3136C212.294 72.8332 213.196 70.6911 214.775 69C211.279 70.4657 208.799 73.9607 208.799 78.0194C208.799 82.0781 211.279 85.5731 214.775 87.0388L210.152 128.303C205.304 131.91 197.75 137.547 189.858 142.959C176.442 152.317 167.535 177.233 182.079 193.017V201.247L166.972 201.134V193.919C166.972 193.919 169.677 190.762 169.677 185.914H168.776V187.718H167.986V185.914H167.084L166.746 159.87C166.746 159.87 169.565 159.419 169.565 157.277V157.165V154.797H168.776V156.939L168.212 156.826V154.797L167.423 154.684V156.826H166.859V154.684H165.957V156.826H165.844L165.281 151.978C166.408 151.415 167.197 150.175 167.197 148.822C167.197 147.131 166.07 145.778 164.604 145.214L164.379 143.861C165.393 143.748 166.07 143.297 166.07 142.734C166.07 142.17 165.281 141.719 164.153 141.606L164.04 139.915C164.379 139.802 164.604 139.464 164.604 139.126C164.604 138.675 164.266 138.337 163.815 138.224V137.66C163.89 137.735 164.003 137.773 164.153 137.773C164.717 137.773 165.168 137.435 165.506 136.984C165.281 137.134 164.98 137.209 164.604 137.209C164.266 137.209 163.928 137.096 163.702 136.871L163.589 136.42V136.758C163.251 136.533 163.138 136.195 163.138 135.744C163.138 135.293 163.251 134.954 163.477 134.729C162.913 134.954 162.575 135.518 162.575 136.195C162.575 136.758 162.913 137.322 163.477 137.547L163.364 138.224C163.026 138.337 162.687 138.675 162.687 139.126C162.687 139.464 162.913 139.802 163.251 139.915L163.026 141.606C161.898 141.719 160.996 142.17 160.996 142.734C160.996 143.297 161.673 143.748 162.8 143.861L162.575 145.214C160.996 145.665 159.756 147.018 159.756 148.822C159.756 150.175 160.658 151.415 161.786 152.091L161.222 156.826H161.109V154.684H160.32L160.207 156.826H159.643V154.684H158.854V156.826H158.29V154.684H157.501V157.165V157.277C157.501 159.419 160.207 159.87 160.207 159.87L159.756 185.801H158.854L158.741 187.718H158.065V185.801H157.163C157.163 190.762 159.756 193.919 159.756 193.919L159.643 201.134H158.741V205.869H157.05C157.05 209.139 159.643 209.815 159.643 209.815V215.227H158.741V216.805H154.57L154.119 220.075H152.202L152.09 228.869H148.707V223.683C158.065 213.649 152.541 197.526 143.972 191.551C137.546 187.041 131.571 182.419 128.977 180.39L127.963 165.169C128.564 165.395 129.203 165.545 129.879 165.62C131.683 165.508 133.374 164.493 134.276 163.027C133.487 163.591 132.472 163.929 131.458 163.929C129.992 163.929 128.639 163.253 127.737 162.238V161.674L127.625 162.125C126.948 161.336 126.497 160.209 126.497 159.081C126.497 157.841 126.948 156.714 127.737 155.812C125.933 156.601 124.693 158.405 124.693 160.434C124.693 162.464 125.821 164.155 127.399 164.944L126.272 180.39C123.566 182.419 117.59 186.929 111.164 191.438C102.483 197.301 96.8458 213.31 106.091 223.457V228.756L96.8458 228.643L95.8311 196.737C95.8311 196.737 99.3262 196.286 99.3262 193.919H97.635V190.424H95.6057V184.336H98.8752C98.8752 184.336 98.537 180.164 95.4929 180.164V177.571H97.0713C97.0713 177.571 96.2821 174.978 93.689 174.978L92.4489 159.983L91.0959 174.978C88.6156 174.978 87.7137 177.571 87.7137 177.571H89.2921V180.051C86.248 180.051 85.7971 184.336 85.7971 184.336H89.0666V190.424H87.0372V193.806H85.3461C85.3461 196.174 88.7284 196.737 88.7284 196.737L87.4882 230.109H86.0225V243.751H84.7824C84.7824 246.118 86.4735 246.908 87.3755 247.133L86.248 255.476H82.0765V250.29H79.709V247.584C79.709 247.584 81.9638 244.878 81.9638 240.594H81.1746V242.173H80.4982V240.594H79.709L79.4835 217.933C79.4835 217.933 81.9638 217.595 81.9638 215.678V215.565V213.423H81.1746V215.34H80.7236V213.423H80.0472V215.34H79.4835V213.423H78.807V215.34H78.6943L78.2433 211.056C79.1452 210.492 79.8217 209.477 79.8217 208.237C79.8217 206.771 78.9198 205.531 77.5668 205.193L77.4541 203.953C78.2433 203.84 78.9198 203.389 78.9198 202.938C78.9198 202.487 78.1306 202.149 77.2286 201.923L77.1159 200.571C77.3414 200.458 77.5668 200.12 77.5668 199.781C77.5668 199.443 77.2286 199.105 76.8904 198.992L76.7777 197.526V197.301V197.414L76.6649 197.301V197.526L76.5522 199.105C76.2139 199.105 75.8757 199.443 75.8757 199.781C75.8757 200.12 76.1012 200.458 76.3267 200.571L76.2139 201.923C75.1993 202.036 74.4101 202.487 74.4101 202.938C74.4101 203.389 75.0865 203.84 75.9884 203.953L75.8757 205.193C74.4101 205.531 73.3954 206.771 73.3954 208.237C73.3954 209.477 74.0718 210.605 75.0865 211.168L74.6355 215.227H74.5228V213.423H73.8464V215.227H73.2826V213.423H72.6062V215.227H72.1552V213.423H71.366V215.565C71.366 217.482 73.7336 217.933 73.7336 217.933L73.3954 240.594H72.4934V242.173H71.817L71.9297 240.594H71.0278C71.0278 244.766 73.2826 247.584 73.2826 247.584V250.29H71.0278V255.363H51.6361H49.6067L49.494 259.76L51.6361 259.873V268.667L46.5627 268.554V273.289L14.2056 273.177V270.02H11.7252L11.838 268.442H10.4851V267.427H10.0341V264.496C10.0341 264.496 11.387 264.157 11.387 262.466H10.0341V256.04C10.0341 256.04 11.4997 254.349 11.4997 251.756H10.936V252.658H10.5978V251.756H10.0341L9.92134 237.888C9.92134 237.888 11.387 237.663 11.387 236.423V235.07H10.936V236.197H10.7105V235.07H10.2596V236.197H9.92134V235.07H9.47037V236.197H9.35763L9.13214 233.604C9.69586 233.266 10.1468 232.702 10.1468 231.913C10.1468 231.011 9.58311 230.335 8.79392 229.996L8.68117 229.32C9.13214 229.207 9.58311 228.982 9.58311 228.756C9.58311 228.418 9.13214 228.192 8.56843 228.08L8.45569 227.178C8.56843 227.178 8.68117 226.952 8.68117 226.727C8.68117 226.501 8.56843 226.389 8.34295 226.276L8.2302 225.374L8.11746 226.276C7.89198 226.389 7.77923 226.501 7.77923 226.727C7.77923 226.952 7.89198 227.065 8.00472 227.178L7.89198 228.08C7.32826 228.08 6.87729 228.418 6.76455 228.643C6.76455 228.982 7.21552 229.207 7.77923 229.32L7.66649 229.996C6.87729 230.222 6.20084 231.011 6.20084 231.913C6.20084 232.702 6.65181 233.379 7.21552 233.717L6.99004 236.197H6.87729V235.07H6.42632V236.197H6.0881V235.07H5.63713V236.197H5.41164V235.07H4.96067V236.423C4.96067 237.55 6.42632 237.776 6.42632 237.776L6.20084 251.756L5.63713 251.643V252.658H5.2989V251.643H4.73519C4.73519 254.349 6.20084 256.04 6.20084 256.04L6.0881 262.353H4.73519C4.73519 264.157 6.0881 264.496 6.0881 264.496V267.427H5.63713V268.442H4.17147V270.02H2.14211V273.177H0V275.657V282.647H430V277.912Z" fill="#DBAD46"/>
</svg>
