<svg width="195" height="182" viewBox="0 0 195 182" fill="none" xmlns="http://www.w3.org/2000/svg">
<g clip-path="url(#clip0_2176_1805)">
<mask id="mask0_2176_1805" style="mask-type:luminance" maskUnits="userSpaceOnUse" x="0" y="-12" width="573" height="194">
<path d="M-0.000366211 182H572.155V-11.6172H-0.000366211V182Z" fill="white"/>
</mask>
<g mask="url(#mask0_2176_1805)">
<path d="M5.76019 51.3867L9.49672 16.1097C8.95181 16.2388 8.39394 16.3033 7.82307 16.3033C4.7093 16.3033 2.02367 14.6382 0.544617 12.1599C1.86798 13.0893 3.46378 13.6314 5.17636 13.6314C6.96678 13.5927 8.60152 13.0118 9.92487 12.005L10.1584 9.75906V8.55863L10.2362 9.13948L10.3141 8.55863V9.75906L10.5087 11.5403C12.1434 10.0688 13.1554 7.97778 13.1554 5.61565C13.1554 3.56331 12.338 1.70459 11.0536 0.310547C14.0506 1.5497 16.1135 4.49267 16.1524 7.93906C16.1524 11.4242 14.0117 14.4059 10.9758 15.645L15.0237 50.7284C19.1494 53.8263 25.5716 58.5893 32.344 63.2361C43.8261 71.0969 51.377 92.3948 38.9997 105.832L39.0386 112.763L51.9219 112.686L51.8829 106.529C51.8829 106.529 49.6255 103.857 49.5865 99.7135H50.4039V101.262H51.0267V99.7135H51.844L52.0386 77.6025C52.0386 77.6025 49.6644 77.2539 49.6644 75.3952V75.2791V73.2267H50.365L50.4039 75.0467H50.832V73.2267H51.5326L51.5716 75.0467H52.0386V73.2267H52.7392L52.7782 75.0467H52.8949L53.3231 70.9033C52.35 70.3612 51.7272 69.3544 51.6883 68.1927C51.6883 66.7599 52.6225 65.5595 53.9458 65.1722L54.0626 63.9718C53.2452 63.8169 52.6614 63.4684 52.6614 63.0037C52.6614 62.5391 53.362 62.1518 54.2961 62.0356L54.4129 60.6416C54.1404 60.5254 53.9847 60.2544 53.9847 59.9446C53.9847 59.5574 54.2183 59.2476 54.5686 59.1701L54.6464 58.7054C54.5296 58.7054 54.4518 58.7442 54.3351 58.7442C53.8291 58.7442 53.4009 58.5118 53.1674 58.0859C53.362 58.2408 53.6344 58.3182 53.9069 58.3182C54.2183 58.3182 54.4907 58.202 54.7243 58.0084L54.7632 57.6599L54.8021 57.9697C55.0356 57.7374 55.1913 57.3888 55.1913 57.0403C55.1913 56.7305 55.0746 56.4208 54.841 56.1884C55.347 56.382 55.6584 56.8467 55.6584 57.4276C55.6584 57.9697 55.347 58.3956 54.88 58.628L54.9578 59.1701C55.3081 59.2476 55.5416 59.5574 55.5416 59.9446C55.5416 60.2544 55.3859 60.4867 55.1135 60.6416L55.2692 61.9969C56.2812 62.1131 57.0207 62.5003 57.0207 63.0037C57.0207 63.4684 56.3979 63.8556 55.5027 63.9718L55.6584 65.1335C57.0207 65.4433 58.0327 66.6825 58.0327 68.1539C58.0327 69.3544 57.332 70.4386 56.3201 70.942L56.7871 75.008H56.9039V73.188H57.6434V75.008H58.1105V73.188H58.85V75.008H59.2782V73.188H60.0177V75.2403V75.3178C60.0177 77.1765 57.6434 77.5637 57.6434 77.5637L58.0716 99.6748H58.8889V101.224H59.5117V99.6748H60.3291C60.3291 103.818 58.0716 106.49 58.0716 106.49L58.1105 112.686L58.9668 112.647V116.713H60.4069C60.4069 119.462 58.1494 120.082 58.1494 120.082L58.1883 124.651H58.9279V126.045H62.5087L62.8979 128.795H64.5326L64.5716 136.307H67.5297V131.854C59.5117 123.335 64.2213 109.627 71.5386 104.515C77.0267 100.72 82.1255 96.7705 84.344 95.028L85.2782 82.1331C84.7722 82.3267 84.2273 82.4429 83.6434 82.4429C82.0476 82.4042 80.6464 81.5522 79.9069 80.2356C80.5686 80.7391 81.3859 81.0101 82.2812 81.0101C83.5656 81.0101 84.6554 80.468 85.4338 79.5774L85.4728 79.1127L85.5117 79.4999C86.0955 78.8029 86.4847 77.8735 86.4847 76.9054C86.4847 75.8212 86.0955 74.8531 85.4338 74.1173C86.9518 74.7757 88.0416 76.3246 88.0416 78.1059C88.0416 79.771 87.0686 81.165 85.7063 81.9008L86.7572 95.028C88.9758 96.7318 94.1135 100.643 99.6404 104.399C106.997 109.433 111.862 123.064 103.922 131.699V136.152L111.862 136.114L112.679 108.968C112.679 108.968 109.721 108.504 109.721 106.529H111.161V103.586H112.913L112.874 98.3969H110.072C110.072 98.3969 110.383 94.8344 113.03 94.7957V92.6659H111.628C111.628 92.6659 112.368 90.4199 114.548 90.4199L115.599 77.6799L116.766 90.4199C118.946 90.4199 119.685 92.6271 119.685 92.6271H118.284L118.323 94.7957C120.97 94.7957 121.281 98.3582 121.281 98.3582H118.479L118.518 103.547H120.269V106.49H121.709C121.748 108.465 118.79 108.968 118.79 108.968L119.919 137.275H121.048L121.125 148.892H122.176C122.176 150.906 120.697 151.564 119.958 151.758L120.97 158.883H124.473L124.434 154.507H126.536V152.184C126.536 152.184 124.551 149.899 124.551 146.259H125.251V147.614H125.796V146.259H126.497L126.691 126.975C126.691 126.975 124.628 126.665 124.628 125.039V124.961L124.59 123.141H125.251V124.729H125.64L125.602 123.141H126.263V124.729H126.691V123.141H127.314V124.729H127.431L127.781 121.128C126.964 120.663 126.38 119.772 126.38 118.765C126.38 117.526 127.197 116.481 128.326 116.132L128.443 115.087C127.742 114.971 127.236 114.622 127.236 114.274C127.236 113.848 127.82 113.499 128.637 113.383L128.754 112.182C128.521 112.066 128.365 111.834 128.365 111.563C128.365 111.253 128.599 110.982 128.91 110.905L129.027 109.588V109.394L129.066 109.472V109.394V109.588L129.221 110.905C129.533 110.982 129.727 111.253 129.727 111.563C129.727 111.834 129.572 112.066 129.377 112.182L129.494 113.383C130.389 113.46 131.012 113.809 131.012 114.235C131.012 114.622 130.467 114.971 129.727 115.087L129.844 116.094C131.012 116.403 131.907 117.449 131.907 118.727C131.907 119.811 131.323 120.702 130.428 121.166L130.817 124.729H130.934V123.141H131.557V124.69H131.985V123.102H132.607V124.69H132.997V123.102H133.619V124.922V125C133.658 126.626 131.596 126.936 131.596 126.936L131.946 146.22H132.646V147.576H133.191V146.22H133.892C133.892 149.822 131.946 152.184 131.946 152.184L131.985 154.468H133.931V158.844L150.512 158.767H152.302V162.6H150.512L150.551 170.074H154.871V174.101L182.545 173.985L182.506 171.274H184.607L184.569 169.958H185.736V169.028H186.125V166.628C186.125 166.628 184.919 166.279 184.919 164.808H186.125L186.087 159.348C186.087 159.348 184.88 157.915 184.88 155.708H185.269L185.308 156.559H185.619V155.708H186.048L186.164 143.897C186.164 143.897 184.919 143.703 184.919 142.735V142.658L184.88 141.574H185.269V142.542H185.503V141.574H185.892V142.542H186.164V141.574H186.554V142.542H186.631L186.865 140.334C186.32 140.063 186.009 139.521 185.97 138.863C185.97 138.127 186.476 137.469 187.176 137.275L187.254 136.617C186.826 136.539 186.515 136.346 186.515 136.114C186.515 135.881 186.865 135.649 187.371 135.61L187.449 134.874C187.293 134.797 187.215 134.642 187.215 134.487C187.215 134.294 187.332 134.1 187.527 134.061L187.605 133.248V133.132V133.209L187.643 133.132V133.248L187.721 134.061C187.916 134.139 188.033 134.294 188.033 134.487C188.033 134.642 187.955 134.797 187.799 134.836L187.916 135.571C188.422 135.649 188.811 135.842 188.811 136.114C188.811 136.346 188.5 136.578 188.033 136.656L188.11 137.236C188.811 137.43 189.356 138.088 189.356 138.863C189.356 139.521 189.006 140.063 188.461 140.373L188.694 142.542H188.772V141.574L189.161 141.535V142.542H189.434L189.395 141.535H189.784L189.823 142.503H190.057L190.018 141.535H190.407V142.658V142.697C190.446 143.703 189.161 143.897 189.161 143.897L189.395 155.708H189.823V156.521H190.173V155.669H190.563C190.602 157.915 189.395 159.348 189.395 159.348L189.434 164.808L190.64 164.769C190.64 166.24 189.434 166.589 189.434 166.589V169.028H189.823L189.862 169.958H191.107V171.236H192.859V173.946L194.649 173.908V176.037V182.001H-0.000289917V55.685C2.14043 54.0974 4.12546 52.6259 5.76019 51.3867Z" fill="#DBAD46"/>
</g>
</g>
<defs>
<clipPath id="clip0_2176_1805">
<rect width="195" height="182" fill="white" transform="matrix(-1 0 0 1 195 0)"/>
</clipPath>
</defs>
</svg>
