<svg width="272" height="220" viewBox="0 0 272 220" fill="none" xmlns="http://www.w3.org/2000/svg">
<path fill-rule="evenodd" clip-rule="evenodd" d="M0.17868 219.301H273V74.7963C268.044 75.9195 263.419 77.8357 259.257 80.4787V55.7668L261.371 52.9256V48.5647H259.455V36.2088H260.578V34.8873H261.371V32.9051H259.19V31.7157H257.737C268.11 25.769 252.847 14.4703 252.847 14.4703V12.1577H250.535V11.6952L251.988 11.0344V10.0433L250.667 9.25042V8.72182L251.063 8.45753V7.20211H250.403L249.742 0L249.015 7.20211H248.42V8.45753L248.817 8.72182V9.25042L247.495 10.0433V11.0344L248.949 11.6952V12.1577H246.57V14.4703C246.57 14.4703 231.307 25.769 241.681 31.7157H240.293V32.9051H238.047V34.8873H238.84V36.2088H240.029V48.5647H238.047V52.9256L240.161 55.7668V108.23C239.632 111.005 239.302 113.846 239.302 116.754C239.302 117.194 239.324 117.635 239.368 118.075C237.959 119.264 236.659 120.542 235.47 121.907V90.6541L237.584 87.8129V83.452H235.602V71.0961H236.791V69.7746H237.584V67.7924H235.338V66.6691H233.95C244.324 60.7224 229.061 49.3576 229.061 49.3576V47.045H226.682V46.5825L228.135 45.9878V44.9967L226.814 44.1377V43.6091L227.21 43.3448V42.0894H226.616L225.889 34.8873L225.228 42.0894H224.567V43.3448L224.964 43.6091V44.1377L223.642 44.9967V45.9878L225.096 46.5825V47.045H222.783V49.3576C222.783 49.3576 207.454 60.7224 217.894 66.6691H216.44V67.7924H214.26V69.7746H215.053V71.0961H216.176V83.452H214.26V87.8129L216.374 90.6541V147.742C211.947 149.725 207.983 152.434 204.547 155.737C200.648 154.02 196.486 152.896 192.191 152.434C187.037 134.461 170.519 121.313 150.894 121.313C130.015 121.313 112.637 136.179 108.739 155.936C81.7806 153.161 57.8617 171.067 58.6546 198.95C21.6529 190.889 0.17868 219.301 0.17868 219.301ZM252.649 41.693C252.649 40.7018 253.442 39.909 254.367 39.909C255.358 39.909 256.085 40.7018 256.085 41.693V47.6397H252.649V41.693ZM247.958 41.693C247.958 40.7679 248.751 39.975 249.742 39.975C250.667 39.975 251.46 40.7679 251.46 41.693V47.7057H247.958V41.693ZM243.333 41.693C243.333 40.7018 244.125 39.975 245.051 39.975C246.042 39.975 246.768 40.7018 246.768 41.693V47.7057H243.333V41.693ZM228.862 76.5803C228.862 75.6552 229.589 74.8623 230.58 74.8623C231.505 74.8623 232.298 75.6552 232.298 76.5803V82.593H228.862V76.5803ZM224.171 76.5803C224.171 75.5891 224.964 74.8623 225.889 74.8623C226.88 74.8623 227.607 75.5891 227.607 76.5803V82.527H224.171V76.5803ZM219.546 76.5803C219.546 75.6552 220.273 74.8623 221.264 74.8623C222.189 74.8623 222.982 75.6552 222.982 76.5803V82.593H219.546V76.5803Z" fill="#437767"/>
</svg>
