<svg width="273" height="220" viewBox="0 0 273 220" fill="none" xmlns="http://www.w3.org/2000/svg">
<path fill-rule="evenodd" clip-rule="evenodd" d="M272.82 219.3H0V74.7959C4.95556 75.9192 9.58075 77.8353 13.7434 80.4783V55.7666L11.629 52.9254V48.5645H13.5452V36.2086H12.4219V34.8871H11.629V32.9049H13.8095V31.7156H15.2631C4.88949 25.7689 20.1526 14.4702 20.1526 14.4702V12.1576H22.4652V11.6951L21.0116 11.0344V10.0433L22.3331 9.25038V8.72178L21.9366 8.45749V7.20208H22.5973L23.2581 0L23.9849 7.20208H24.5796V8.45749L24.1831 8.72178V9.25038L25.5046 10.0433V11.0344L24.051 11.6951V12.1576H26.4296V14.4702C26.4296 14.4702 41.6928 25.7689 31.3191 31.7156H32.7067V32.9049H34.9532V34.8871H34.1603V36.2086H32.971V48.5645H34.9532V52.9254L32.8388 55.7666V108.229C33.3674 111.005 33.6978 113.846 33.6978 116.753C33.6978 117.193 33.6758 117.634 33.6317 118.074C35.0413 119.264 36.3408 120.541 37.5301 121.907V90.6537L35.4157 87.8125V83.4516H37.398V71.0958H36.2086V69.7743H35.4157V67.792H37.6623V66.6688H39.0498C28.6762 60.7221 43.9393 49.3574 43.9393 49.3574V47.0448H46.318V46.5823L44.8643 45.9876V44.9965L46.1858 44.1375V43.6089L45.7894 43.3446V42.0892H46.384L47.1109 34.8871L47.7716 42.0892H48.4323V43.3446L48.0359 43.6089V44.1375L49.3574 44.9965V45.9876L47.9037 46.5823V47.0448H50.2163V49.3574C50.2163 49.3574 65.5455 60.7221 55.1058 66.6688H56.5594V67.792H58.7399V69.7743H57.947V71.0958H56.8237V83.4516H58.7399V87.8125L56.6255 90.6537V147.742C61.0525 149.724 65.0169 152.433 68.4528 155.737C72.3512 154.019 76.5138 152.896 80.8087 152.433C85.9624 134.461 102.481 121.312 122.105 121.312C142.984 121.312 160.362 136.179 164.26 155.935C191.219 153.16 215.137 171.066 214.344 198.949C251.346 190.888 272.82 219.3 272.82 219.3ZM20.3508 41.6928C20.3508 40.7017 19.5579 39.9088 18.6329 39.9088C17.6418 39.9088 16.915 40.7017 16.915 41.6928V47.6394H20.3508V41.6928ZM25.0421 41.6928C25.0421 40.7677 24.2492 39.9748 23.2581 39.9748C22.3331 39.9748 21.5402 40.7677 21.5402 41.6928V47.7055H25.0421V41.6928ZM29.6673 41.6928C29.6673 40.7017 28.8744 39.9748 27.9494 39.9748C26.9582 39.9748 26.2314 40.7017 26.2314 41.6928V47.7055H29.6673V41.6928ZM44.1375 76.5799C44.1375 75.6549 43.4107 74.862 42.4196 74.862C41.4945 74.862 40.7017 75.6549 40.7017 76.5799V82.5927H44.1375V76.5799ZM48.8288 76.5799C48.8288 75.5888 48.0359 74.862 47.1109 74.862C46.1197 74.862 45.3929 75.5888 45.3929 76.5799V82.5266H48.8288V76.5799ZM53.454 76.5799C53.454 75.6549 52.7271 74.862 51.736 74.862C50.811 74.862 50.0181 75.6549 50.0181 76.5799V82.5927H53.454V76.5799Z" fill="#437767"/>
</svg>
