<svg width="429" height="558" viewBox="0 0 429 558" fill="none" xmlns="http://www.w3.org/2000/svg">
<g clip-path="url(#clip0_2176_1599)">
<mask id="mask0_2176_1599" style="mask-type:luminance" maskUnits="userSpaceOnUse" x="-22" y="-25" width="474" height="662">
<path d="M451.446 636.999H-21.2295V-24.9629H451.446V636.999Z" fill="white"/>
</mask>
<g mask="url(#mask0_2176_1599)">
<path d="M0.386719 236.764C0.541117 236.713 0.721249 236.687 0.927114 236.687C1.31311 236.533 1.69911 236.456 2.0851 236.224C2.3939 235.993 2.6255 235.608 2.7799 235.222C2.8571 234.914 2.9343 234.529 3.01149 234.221C3.01149 234.169 3.01149 234.118 3.01149 234.066C3.11443 234.477 3.21736 234.863 3.32029 235.222C3.47469 235.685 3.70629 236.07 4.09228 236.301C4.34962 236.404 4.60695 236.507 4.86428 236.61C5.09588 236.687 5.40467 236.687 5.63627 236.764C5.68774 236.764 5.71347 236.764 5.71347 236.764C5.35321 236.867 4.96721 236.969 4.55548 237.072C4.16948 237.149 3.86069 237.38 3.62909 237.689C3.39749 237.997 3.32029 238.305 3.24309 238.614C3.19163 238.871 3.11443 239.153 3.01149 239.461C3.01149 239.307 2.98576 239.153 2.9343 238.999C2.88283 238.742 2.80563 238.485 2.7027 238.228C2.5483 237.612 2.0851 237.226 1.46751 237.072C1.10725 236.969 0.746982 236.867 0.386719 236.764Z" fill="#E6D6B6"/>
<path d="M337.361 434.839C337.516 434.839 337.696 434.813 337.902 434.762C338.288 434.685 338.674 434.531 339.06 434.377C339.446 434.068 339.6 433.76 339.755 433.375C339.832 432.989 339.909 432.681 339.986 432.296C339.986 432.244 339.986 432.219 339.986 432.219C340.089 432.578 340.192 432.964 340.295 433.375C340.449 433.76 340.681 434.146 341.067 434.377C341.324 434.48 341.582 434.582 341.839 434.685C342.148 434.762 342.379 434.762 342.611 434.839C342.662 434.839 342.688 434.839 342.688 434.839C342.328 434.942 341.942 435.045 341.53 435.147C341.221 435.302 340.835 435.456 340.604 435.764C340.449 436.072 340.295 436.381 340.218 436.689C340.166 436.997 340.089 437.305 339.986 437.614C339.986 437.408 339.96 437.254 339.909 437.151C339.857 436.843 339.78 436.56 339.677 436.304C339.523 435.687 339.06 435.379 338.519 435.147C338.108 435.045 337.722 434.942 337.361 434.839Z" fill="#E6D6B6"/>
<path d="M117.961 407.403C118.115 407.351 118.295 407.3 118.501 407.248C118.887 407.171 119.273 407.094 119.659 406.863C120.045 406.632 120.2 406.247 120.354 405.861C120.431 405.476 120.509 405.168 120.586 404.782C120.586 404.782 120.586 404.756 120.586 404.705C120.689 405.116 120.792 405.501 120.895 405.861C121.049 406.247 121.281 406.632 121.667 406.863C121.924 407.017 122.181 407.12 122.438 407.171C122.747 407.248 122.979 407.326 123.21 407.326C123.262 407.377 123.288 407.403 123.288 407.403C122.927 407.505 122.541 407.608 122.13 407.711C121.821 407.788 121.435 407.942 121.203 408.327C121.049 408.559 120.895 408.867 120.817 409.175C120.766 409.484 120.714 409.792 120.663 410.1C120.611 409.946 120.56 409.792 120.509 409.638C120.457 409.381 120.38 409.098 120.277 408.79C120.123 408.25 119.659 407.865 119.119 407.711C118.707 407.608 118.321 407.505 117.961 407.403Z" fill="#E6D6B6"/>
<path d="M424.52 133.41C424.674 133.359 424.854 133.308 425.06 133.256C425.446 133.179 425.832 133.102 426.218 132.871C426.527 132.64 426.758 132.254 426.913 131.869C426.99 131.561 427.067 131.175 427.144 130.867C427.144 130.816 427.144 130.764 427.144 130.713C427.247 131.124 427.35 131.509 427.453 131.869C427.607 132.331 427.839 132.717 428.225 132.871C428.482 133.025 428.74 133.128 428.997 133.179C429.306 133.256 429.537 133.333 429.769 133.41C429.821 133.41 429.846 133.41 429.846 133.41C429.486 133.513 429.1 133.616 428.688 133.719C428.379 133.796 427.993 134.027 427.762 134.335C427.607 134.566 427.453 134.875 427.376 135.26C427.324 135.517 427.247 135.8 427.144 136.108C427.144 135.954 427.119 135.8 427.067 135.645C427.016 135.389 426.938 135.106 426.836 134.798C426.681 134.258 426.218 133.873 425.678 133.719C425.266 133.616 424.88 133.513 424.52 133.41Z" fill="#E6D6B6"/>
<path d="M268.423 3.69857C268.629 3.69857 268.809 3.67288 268.963 3.6215C269.426 3.54442 269.812 3.39028 270.121 3.15906C270.507 2.92785 270.739 2.61956 270.816 2.2342C270.97 1.84884 271.048 1.54056 271.125 1.1552C271.125 1.10382 271.125 1.07812 271.125 1.07812C271.228 1.43779 271.331 1.82315 271.434 2.2342C271.511 2.61956 271.742 3.00492 272.206 3.23614C272.463 3.3389 272.72 3.44166 272.978 3.54442C273.209 3.6215 273.441 3.6215 273.672 3.69857C273.724 3.69857 273.775 3.69857 273.827 3.69857C273.415 3.80133 273.029 3.90409 272.669 4.00685C272.283 4.161 271.974 4.31514 271.742 4.62343C271.511 4.93172 271.434 5.24 271.356 5.54829C271.253 5.85658 271.176 6.16487 271.125 6.47315C271.073 6.26763 271.048 6.11348 271.048 6.01072C270.945 5.70243 270.867 5.41984 270.816 5.16293C270.584 4.54636 270.198 4.161 269.581 4.00685C269.221 3.90409 268.835 3.80133 268.423 3.69857Z" fill="#E6D6B6"/>
<path d="M421.817 17.7268C421.972 17.6754 422.152 17.6497 422.358 17.6497C422.744 17.4956 423.13 17.4185 423.516 17.1873C423.902 16.9561 424.056 16.5707 424.211 16.1854C424.288 15.8771 424.365 15.4917 424.442 15.1834C424.442 15.1321 424.468 15.0807 424.519 15.0293C424.571 15.4403 424.648 15.8257 424.751 16.1854C424.905 16.6478 425.137 17.0332 425.523 17.1873C425.78 17.3415 426.063 17.4699 426.372 17.5727C426.604 17.6497 426.835 17.6497 427.067 17.7268C427.118 17.7268 427.144 17.7268 427.144 17.7268C426.784 17.8296 426.424 17.9323 426.063 18.0351C425.677 18.1122 425.291 18.3434 425.06 18.6517C424.905 18.96 424.751 19.2682 424.674 19.5765C424.622 19.8334 424.571 20.116 424.519 20.4243C424.468 20.2702 424.416 20.116 424.365 19.9619C424.313 19.705 424.236 19.4481 424.133 19.1912C423.979 18.5746 423.516 18.1892 422.975 18.0351C422.564 17.9323 422.178 17.8296 421.817 17.7268Z" fill="#E6D6B6"/>
<path d="M0.386719 48.015C0.541117 47.9636 0.721249 47.9379 0.927114 47.9379C1.31311 47.8608 1.69911 47.7067 2.0851 47.4755C2.3939 47.2443 2.6255 46.936 2.7799 46.4735C2.8571 46.1652 2.9343 45.7799 3.01149 45.4716C3.01149 45.4202 3.01149 45.3945 3.01149 45.3945C3.11443 45.7542 3.21736 46.1139 3.32029 46.4735C3.47469 46.936 3.70629 47.3213 4.09228 47.5525C4.34962 47.6553 4.60695 47.7581 4.86428 47.8608C5.09588 47.9379 5.40467 47.9379 5.63627 48.015C5.68774 48.015 5.71347 48.015 5.71347 48.015C5.35321 48.1177 4.96721 48.2205 4.55548 48.3233C4.16948 48.4774 3.86069 48.6315 3.62909 48.9398C3.39749 49.2481 3.32029 49.5564 3.24309 49.8647C3.19163 50.1216 3.11443 50.4042 3.01149 50.7125C3.01149 50.5583 2.98576 50.4042 2.9343 50.2501C2.88283 49.9931 2.80563 49.7362 2.7027 49.4793C2.5483 48.8628 2.0851 48.4774 1.46751 48.3233C1.10725 48.2205 0.746982 48.1177 0.386719 48.015Z" fill="#E6D6B6"/>
<path d="M26.8662 190.907C26.9691 190.907 27.0978 190.881 27.2522 190.829C27.4838 190.829 27.7154 190.752 27.947 190.598C28.1786 190.444 28.333 190.213 28.4102 189.982C28.4617 189.725 28.5131 189.494 28.5646 189.288C28.5646 189.237 28.5646 189.211 28.5646 189.211C28.6675 189.468 28.7447 189.725 28.7962 189.982C28.8734 190.213 29.0278 190.444 29.2594 190.598C29.4138 190.701 29.5939 190.778 29.7998 190.829C29.9542 190.881 30.1086 190.907 30.263 190.907C30.263 190.907 30.2887 190.907 30.3402 190.907C30.0828 191.009 29.8255 191.086 29.5682 191.138C29.3109 191.189 29.105 191.318 28.9506 191.523C28.8477 191.729 28.7705 191.934 28.719 192.14C28.6675 192.294 28.6161 192.474 28.5646 192.679C28.5646 192.576 28.5646 192.474 28.5646 192.371C28.5131 192.217 28.4617 192.037 28.4102 191.831C28.2558 191.472 27.9985 191.24 27.6382 191.138C27.3809 191.086 27.1235 191.009 26.8662 190.907Z" fill="#E6D6B6"/>
<path d="M309.57 407.403C309.725 407.351 309.853 407.326 309.956 407.326C310.188 407.248 310.497 407.171 310.651 407.017C310.96 406.863 311.037 406.632 311.114 406.401C311.217 406.195 311.269 405.964 311.269 405.707C311.32 405.707 311.346 405.707 311.346 405.707C311.397 405.913 311.449 406.144 311.5 406.401C311.577 406.709 311.732 406.94 311.963 407.094C312.169 407.146 312.349 407.197 312.504 407.248C312.658 407.3 312.813 407.351 312.967 407.403C313.019 407.403 313.044 407.403 313.044 407.403C312.787 407.454 312.555 407.505 312.349 407.557C312.092 407.659 311.886 407.814 311.732 408.019C311.577 408.173 311.475 408.353 311.423 408.559C311.423 408.764 311.397 408.97 311.346 409.175C311.294 409.021 311.269 408.918 311.269 408.867C311.217 408.661 311.166 408.482 311.114 408.327C310.96 407.916 310.703 407.659 310.342 407.557C310.085 407.505 309.828 407.454 309.57 407.403Z" fill="#E6D6B6"/>
<path d="M142.742 116.84C142.845 116.789 142.948 116.763 143.051 116.763C143.36 116.686 143.591 116.609 143.823 116.455C144.055 116.301 144.209 116.146 144.286 115.838C144.338 115.633 144.389 115.401 144.441 115.145C144.492 115.35 144.569 115.581 144.672 115.838C144.749 116.146 144.904 116.378 145.135 116.532C145.29 116.583 145.47 116.635 145.676 116.686C145.83 116.737 145.985 116.789 146.139 116.84C146.139 116.84 146.165 116.84 146.216 116.84C145.959 116.892 145.701 116.943 145.444 116.994C145.187 117.097 144.981 117.251 144.827 117.457C144.724 117.611 144.646 117.791 144.595 117.996C144.544 118.202 144.492 118.407 144.441 118.613C144.441 118.51 144.415 118.407 144.363 118.304C144.312 118.099 144.26 117.919 144.209 117.765C144.106 117.354 143.849 117.097 143.437 116.994C143.231 116.943 143 116.892 142.742 116.84Z" fill="#E6D6B6"/>
<path d="M88.7031 433.143C88.8061 433.143 88.9347 433.117 89.0891 433.066C89.3207 432.989 89.5523 432.912 89.7839 432.835C90.0155 432.68 90.1699 432.449 90.2471 432.141C90.2986 431.935 90.35 431.73 90.4015 431.524C90.4015 431.473 90.4272 431.447 90.4787 431.447C90.5302 431.704 90.5816 431.935 90.6331 432.141C90.7103 432.449 90.8647 432.68 91.0963 432.835C91.3022 432.886 91.4823 432.937 91.6367 432.989C91.7911 433.04 91.9455 433.091 92.0999 433.143C92.1514 433.143 92.1771 433.143 92.1771 433.143C91.9198 433.194 91.6624 433.271 91.4051 433.374C91.1992 433.425 91.0191 433.554 90.8647 433.759C90.7103 433.914 90.6074 434.093 90.5559 434.299C90.5044 434.504 90.4787 434.71 90.4787 434.915C90.4272 434.813 90.4015 434.71 90.4015 434.607C90.35 434.402 90.2986 434.222 90.2471 434.068C90.0927 433.708 89.8354 433.477 89.4751 433.374C89.2178 433.271 88.9605 433.194 88.7031 433.143Z" fill="#E6D6B6"/>
<path d="M384.839 344.358C384.942 344.306 385.045 344.281 385.148 344.281C385.456 344.204 385.688 344.126 385.92 343.972C386.151 343.818 386.306 343.587 386.383 343.356C386.434 343.15 386.486 342.919 386.537 342.662C386.589 342.868 386.64 343.099 386.692 343.356C386.769 343.664 386.923 343.895 387.232 344.049C387.386 344.101 387.541 344.152 387.695 344.204C387.85 344.255 388.03 344.306 388.236 344.358C388.03 344.409 387.798 344.46 387.541 344.512C387.284 344.615 387.078 344.769 386.923 344.974C386.82 345.128 386.743 345.308 386.692 345.514C386.64 345.719 386.589 345.925 386.537 346.13C386.537 345.976 386.512 345.873 386.46 345.822C386.409 345.617 386.357 345.437 386.306 345.283C386.203 344.871 385.945 344.615 385.534 344.512C385.276 344.46 385.045 344.409 384.839 344.358Z" fill="#E6D6B6"/>
<path d="M39.2949 344.358C39.4493 344.306 39.578 344.281 39.6809 344.281C39.9125 344.204 40.1441 344.126 40.3757 343.972C40.6845 343.818 40.7617 343.587 40.8389 343.356C40.8904 343.15 40.9418 342.919 40.9933 342.662C41.0448 342.662 41.0705 342.662 41.0705 342.662C41.122 342.868 41.1734 343.099 41.2249 343.356C41.3021 343.664 41.4565 343.895 41.6881 344.049C41.894 344.101 42.0741 344.152 42.2285 344.204C42.3829 344.255 42.5373 344.306 42.6917 344.358C42.7432 344.358 42.7689 344.358 42.7689 344.358C42.5116 344.409 42.2542 344.46 41.9969 344.512C41.791 344.615 41.6109 344.769 41.4565 344.974C41.3021 345.128 41.1992 345.308 41.1477 345.514C41.1477 345.719 41.122 345.925 41.0705 346.13C41.019 345.976 40.9933 345.873 40.9933 345.822C40.9418 345.617 40.8904 345.437 40.8389 345.283C40.6845 344.871 40.4272 344.615 40.0669 344.512C39.8096 344.46 39.5523 344.409 39.2949 344.358Z" fill="#E6D6B6"/>
<path d="M307.871 295.879C307.974 295.879 308.077 295.853 308.18 295.802C308.489 295.725 308.72 295.648 308.952 295.571C309.184 295.417 309.338 295.186 309.415 294.877C309.467 294.672 309.518 294.466 309.569 294.261C309.569 294.209 309.569 294.184 309.569 294.184C309.621 294.389 309.698 294.62 309.801 294.877C309.878 295.186 310.033 295.417 310.264 295.571C310.419 295.622 310.599 295.674 310.805 295.725C310.959 295.776 311.113 295.828 311.268 295.879C311.268 295.879 311.294 295.879 311.345 295.879C311.088 295.931 310.83 295.982 310.573 296.033C310.316 296.136 310.11 296.29 309.955 296.496C309.853 296.65 309.775 296.83 309.724 297.035C309.672 297.241 309.621 297.446 309.569 297.652C309.569 297.549 309.544 297.446 309.492 297.344C309.492 297.138 309.467 296.958 309.415 296.804C309.261 296.444 308.978 296.187 308.566 296.033C308.36 295.982 308.128 295.931 307.871 295.879Z" fill="#E6D6B6"/>
<path d="M426.372 258.345C426.526 258.294 426.655 258.268 426.758 258.268C426.99 258.191 427.298 258.114 427.53 257.96C427.762 257.805 427.839 257.574 427.916 257.343C428.019 257.137 428.096 256.906 428.148 256.649C428.148 256.649 428.148 256.624 428.148 256.572C428.199 256.829 428.251 257.086 428.302 257.343C428.379 257.651 428.534 257.882 428.842 258.037C428.997 258.088 429.151 258.139 429.306 258.191C429.46 258.242 429.614 258.294 429.769 258.345C429.82 258.345 429.846 258.345 429.846 258.345C429.589 258.396 429.357 258.448 429.151 258.499C428.894 258.602 428.688 258.73 428.534 258.884C428.379 259.09 428.302 259.295 428.302 259.501C428.251 259.707 428.199 259.886 428.148 260.04C428.096 259.938 428.07 259.861 428.07 259.809C428.019 259.604 427.968 259.424 427.916 259.27C427.813 258.859 427.556 258.602 427.144 258.499C426.887 258.448 426.629 258.396 426.372 258.345Z" fill="#E6D6B6"/>
<path d="M140.194 305.975C140.297 305.975 140.4 305.949 140.503 305.898C140.812 305.898 141.044 305.821 141.275 305.667C141.507 305.512 141.661 305.281 141.738 305.05C141.79 304.793 141.841 304.562 141.893 304.356C141.893 304.305 141.893 304.279 141.893 304.279C141.944 304.536 142.021 304.793 142.124 305.05C142.202 305.281 142.279 305.512 142.588 305.667C142.742 305.769 142.922 305.846 143.128 305.898C143.282 305.949 143.437 305.975 143.591 305.975C143.591 305.975 143.617 305.975 143.668 305.975C143.411 306.078 143.154 306.155 142.896 306.206C142.639 306.257 142.433 306.386 142.279 306.591C142.176 306.797 142.099 307.003 142.047 307.208C141.996 307.362 141.944 307.542 141.893 307.748C141.893 307.645 141.867 307.542 141.816 307.439C141.764 307.285 141.713 307.105 141.661 306.9C141.558 306.54 141.301 306.309 140.889 306.206C140.683 306.155 140.452 306.078 140.194 305.975Z" fill="#E6D6B6"/>
<path d="M273.595 518.924C273.698 518.873 273.826 518.847 273.981 518.847C274.212 518.77 274.444 518.693 274.676 518.539C274.907 518.385 275.062 518.153 275.139 517.922C275.19 517.717 275.242 517.485 275.293 517.229C275.396 517.434 275.473 517.665 275.525 517.922C275.602 518.23 275.756 518.462 275.988 518.616C276.142 518.667 276.322 518.719 276.528 518.77C276.683 518.821 276.837 518.873 276.991 518.924C276.991 518.924 277.017 518.924 277.069 518.924C276.811 518.975 276.554 519.027 276.297 519.078C276.039 519.181 275.834 519.335 275.679 519.541C275.576 519.695 275.499 519.875 275.448 520.08C275.396 520.286 275.345 520.491 275.293 520.697C275.293 520.543 275.293 520.44 275.293 520.388C275.242 520.183 275.19 520.003 275.139 519.849C274.984 519.438 274.727 519.181 274.367 519.078C274.109 519.027 273.852 518.975 273.595 518.924Z" fill="#E6D6B6"/>
<path d="M152.624 526.247C152.727 526.196 152.83 526.17 152.933 526.17C153.242 526.093 153.473 526.016 153.705 525.862C153.936 525.708 154.091 525.477 154.168 525.245C154.219 525.04 154.271 524.809 154.322 524.552C154.322 524.552 154.322 524.526 154.322 524.475C154.374 524.732 154.451 524.988 154.554 525.245C154.631 525.554 154.786 525.785 155.017 525.939C155.172 525.99 155.352 526.042 155.558 526.093C155.712 526.144 155.866 526.196 156.021 526.247C156.021 526.247 156.047 526.247 156.098 526.247C155.841 526.299 155.583 526.35 155.326 526.401C155.069 526.504 154.863 526.658 154.708 526.864C154.605 527.018 154.528 527.198 154.477 527.403C154.425 527.609 154.374 527.814 154.322 528.02C154.322 527.866 154.322 527.763 154.322 527.712C154.271 527.506 154.219 527.326 154.168 527.172C154.014 526.761 153.731 526.504 153.319 526.401C153.113 526.35 152.881 526.299 152.624 526.247Z" fill="#E6D6B6"/>
<path d="M34.3545 6.62812C34.4574 6.57674 34.5861 6.55105 34.7405 6.55105C34.9721 6.47398 35.2037 6.39691 35.4353 6.24276C35.6669 6.08862 35.8213 5.8574 35.8985 5.62619C35.9499 5.36928 36.0014 5.13807 36.0529 4.93254C36.0529 4.93254 36.0529 4.90685 36.0529 4.85547C36.1558 5.11237 36.233 5.36928 36.2845 5.62619C36.3617 5.8574 36.5161 6.16569 36.7477 6.24276C36.9021 6.34552 37.0822 6.4226 37.2881 6.47398C37.4425 6.52536 37.5969 6.55105 37.7513 6.55105C37.8027 6.55105 37.8285 6.57674 37.8285 6.62812C37.5711 6.6795 37.3138 6.73088 37.0565 6.78226C36.8506 6.83365 36.6447 6.9621 36.4389 7.16762C36.3359 7.37315 36.2587 7.57867 36.2073 7.7842C36.1558 7.93834 36.1301 8.11818 36.1301 8.3237C36.0786 8.22094 36.0529 8.11818 36.0529 8.01541C36.0014 7.86127 35.9499 7.68144 35.8985 7.47591C35.7441 7.11624 35.4867 6.88503 35.1265 6.78226C34.8692 6.73088 34.6118 6.6795 34.3545 6.62812Z" fill="#E6D6B6"/>
<path d="M71.4102 63.8147C71.5131 63.7633 71.616 63.7376 71.719 63.7376C72.0278 63.6606 72.2593 63.5835 72.4909 63.4294C72.7225 63.3523 72.8769 63.1211 72.9541 62.8128C73.0056 62.6073 73.0571 62.376 73.1085 62.1191C73.16 62.3247 73.2115 62.5559 73.2629 62.8128C73.4173 63.1211 73.4945 63.3523 73.8033 63.5064C73.9577 63.5578 74.1121 63.6092 74.2665 63.6606C74.4209 63.712 74.6011 63.7633 74.8069 63.8147C74.6011 63.8661 74.3695 63.9175 74.1121 63.9689C73.8548 64.0716 73.6489 64.2258 73.4945 64.4313C73.3916 64.5854 73.3144 64.7653 73.2629 64.9708C73.2115 65.1763 73.16 65.3818 73.1085 65.5874C73.1085 65.4846 73.0828 65.3818 73.0313 65.2791C72.9799 65.0736 72.9284 64.8937 72.8769 64.7396C72.774 64.3799 72.5167 64.123 72.105 63.9689C71.8991 63.9175 71.6675 63.8661 71.4102 63.8147Z" fill="#E6D6B6"/>
<path d="M262.787 72.8323C262.89 72.8323 263.019 72.8066 263.173 72.7552C263.405 72.7552 263.636 72.6782 263.868 72.524C264.099 72.3699 264.254 72.1387 264.331 71.9074C264.383 71.6505 264.434 71.4193 264.486 71.2138C264.486 71.1624 264.486 71.1367 264.486 71.1367C264.588 71.3936 264.666 71.6505 264.717 71.9074C264.794 72.1387 264.949 72.3699 265.18 72.524C265.335 72.6268 265.515 72.7038 265.721 72.7552C265.875 72.8066 266.029 72.8323 266.184 72.8323C266.235 72.8323 266.261 72.8323 266.261 72.8323C266.004 72.9351 265.746 73.0121 265.489 73.0635C265.283 73.1149 265.077 73.2433 264.871 73.4489C264.769 73.6544 264.691 73.8599 264.64 74.0654C264.588 74.2196 264.563 74.3994 264.563 74.605C264.511 74.5022 264.486 74.3994 264.486 74.2967C264.434 74.1425 264.383 73.9627 264.331 73.7572C264.177 73.3975 263.919 73.1663 263.559 73.0635C263.302 73.0121 263.044 72.9351 262.787 72.8323Z" fill="#E6D6B6"/>
<path d="M384.839 4.93281C384.942 4.88143 385.045 4.85574 385.148 4.85574C385.456 4.77866 385.688 4.70159 385.92 4.54745C386.151 4.39331 386.306 4.16209 386.383 3.93087C386.434 3.67397 386.486 3.44275 386.537 3.23723C386.537 3.23723 386.537 3.21154 386.537 3.16016C386.589 3.41706 386.64 3.67397 386.692 3.93087C386.769 4.16209 386.923 4.47038 387.232 4.54745C387.386 4.65021 387.541 4.72728 387.695 4.77866C387.85 4.83005 388.03 4.85574 388.236 4.85574C388.236 4.85574 388.236 4.88143 388.236 4.93281C388.03 4.98419 387.798 5.03557 387.541 5.08695C387.284 5.13833 387.078 5.26679 386.923 5.47231C386.82 5.67784 386.743 5.88336 386.692 6.08889C386.64 6.24303 386.589 6.42286 386.537 6.62839C386.537 6.52563 386.512 6.42286 386.46 6.3201C386.409 6.16596 386.357 5.98612 386.306 5.7806C386.203 5.42093 385.945 5.18971 385.534 5.08695C385.276 5.03557 385.045 4.98419 384.839 4.93281Z" fill="#E6D6B6"/>
<path d="M338.288 169.482C338.391 169.43 338.494 169.405 338.597 169.405C338.906 169.327 339.137 169.25 339.369 169.096C339.6 168.942 339.755 168.711 339.832 168.48C339.884 168.274 339.935 168.043 339.986 167.786C339.986 167.786 339.986 167.76 339.986 167.709C340.038 167.966 340.089 168.223 340.141 168.48C340.295 168.788 340.372 169.019 340.681 169.173C340.836 169.225 340.99 169.276 341.144 169.327C341.35 169.379 341.53 169.43 341.685 169.482C341.479 169.533 341.247 169.584 340.99 169.636C340.733 169.739 340.527 169.867 340.372 170.021C340.27 170.227 340.192 170.432 340.141 170.638C340.089 170.843 340.038 171.023 339.986 171.177C339.986 171.074 339.961 170.997 339.909 170.946C339.858 170.74 339.806 170.561 339.755 170.406C339.652 169.995 339.395 169.739 338.983 169.636C338.777 169.584 338.545 169.533 338.288 169.482Z" fill="#E6D6B6"/>
<path d="M389.239 94.3362C389.342 94.3362 389.445 94.3105 389.548 94.2591C389.857 94.1821 390.088 94.105 390.32 94.0279C390.552 93.8738 390.706 93.6426 390.783 93.3343C390.835 93.1287 390.886 92.9232 390.938 92.7177C390.938 92.6663 390.938 92.6406 390.938 92.6406C390.989 92.8975 391.066 93.1287 391.169 93.3343C391.246 93.6426 391.324 93.8738 391.632 94.0279C391.787 94.0793 391.967 94.1307 392.173 94.1821C392.327 94.2334 392.482 94.2848 392.636 94.3362C392.636 94.3362 392.662 94.3362 392.713 94.3362C392.456 94.3876 392.199 94.4647 391.941 94.5674C391.684 94.6188 391.478 94.7473 391.324 94.9528C391.221 95.1069 391.144 95.2868 391.092 95.4923C391.041 95.6978 390.989 95.9033 390.938 96.1089C390.938 96.0061 390.912 95.9033 390.86 95.8006C390.809 95.595 390.758 95.4152 390.706 95.2611C390.603 94.9014 390.346 94.6702 389.934 94.5674C389.728 94.4647 389.497 94.3876 389.239 94.3362Z" fill="#E6D6B6"/>
<path d="M354.886 59.9621C354.989 59.9107 355.117 59.885 355.272 59.885C355.503 59.808 355.735 59.7309 355.967 59.5767C356.198 59.4226 356.353 59.1914 356.43 58.9602C356.481 58.7546 356.533 58.5234 356.584 58.2665C356.584 58.2665 356.584 58.2408 356.584 58.1895C356.687 58.4464 356.764 58.7033 356.816 58.9602C356.893 59.2685 357.047 59.4997 357.279 59.6538C357.433 59.7052 357.613 59.7566 357.819 59.808C357.974 59.8593 358.128 59.9107 358.283 59.9621C358.283 59.9621 358.308 59.9621 358.36 59.9621C358.102 60.0135 357.845 60.0649 357.588 60.1162C357.33 60.219 357.125 60.3475 356.97 60.5016C356.867 60.7071 356.79 60.9127 356.739 61.1182C356.687 61.3237 356.636 61.5035 356.584 61.6577C356.584 61.5549 356.584 61.4778 356.584 61.4265C356.533 61.2209 356.481 61.0411 356.43 60.887C356.275 60.4759 356.018 60.219 355.658 60.1162C355.4 60.0649 355.143 60.0135 354.886 59.9621Z" fill="#E6D6B6"/>
<path d="M195.778 38.6906C195.881 38.6392 196.01 38.6135 196.164 38.6135C196.396 38.5365 196.628 38.4594 196.859 38.3053C197.091 38.1511 197.245 37.9199 197.322 37.6887C197.374 37.4318 197.425 37.2006 197.477 36.995C197.477 36.995 197.477 36.9693 197.477 36.918C197.528 37.1749 197.605 37.4318 197.708 37.6887C197.786 37.9199 197.94 38.2282 198.172 38.3053C198.326 38.408 198.506 38.4851 198.712 38.5365C198.866 38.5879 199.021 38.6135 199.175 38.6135C199.175 38.6135 199.201 38.6392 199.252 38.6906C198.995 38.742 198.738 38.7934 198.48 38.8448C198.223 38.8961 198.017 39.0246 197.863 39.2301C197.76 39.4356 197.683 39.6412 197.631 39.8467C197.58 40.0008 197.528 40.1807 197.477 40.3862C197.477 40.2834 197.477 40.1807 197.477 40.0779C197.425 39.9238 197.374 39.7439 197.322 39.5384C197.168 39.1787 196.911 38.9475 196.55 38.8448C196.293 38.7934 196.036 38.742 195.778 38.6906Z" fill="#E6D6B6"/>
<path d="M67.2412 286.861C67.55 286.81 67.8331 286.758 68.0904 286.707C68.708 286.553 69.3256 286.399 69.866 286.091C70.4064 285.705 70.7152 285.166 70.8696 284.549C71.024 284.01 71.1784 283.47 71.2556 283.008C71.307 282.905 71.3328 282.854 71.3328 282.854C71.4872 283.393 71.6416 284.01 71.796 284.549C71.9504 285.243 72.3364 285.782 72.954 286.091C73.34 286.322 73.726 286.476 74.1891 286.63C74.4979 286.707 74.8839 286.784 75.2699 286.861C75.3214 286.861 75.3729 286.861 75.4243 286.861C74.8067 287.015 74.2663 287.17 73.6488 287.324C73.1084 287.478 72.568 287.786 72.2592 288.249C71.9504 288.711 71.796 289.173 71.6416 289.636C71.5644 290.098 71.41 290.561 71.3328 291.023C71.2556 290.715 71.2556 290.561 71.1784 290.329C71.0754 289.867 70.9725 289.43 70.8696 289.019C70.5608 288.171 69.866 287.555 69.0168 287.324C68.3992 287.17 67.8588 287.015 67.2412 286.861Z" fill="#E6D6B6"/>
<path d="M210.986 553.298C211.295 553.246 211.578 553.195 211.836 553.144C212.453 552.989 213.071 552.835 213.611 552.45C214.152 552.142 214.46 551.602 214.692 550.986C214.846 550.446 214.924 549.907 215.078 549.367C215.078 549.316 215.078 549.264 215.078 549.213C215.232 549.829 215.387 550.446 215.541 550.986C215.773 551.602 216.082 552.219 216.699 552.527C217.085 552.758 217.471 552.912 217.934 552.989C218.32 553.144 218.629 553.144 219.015 553.298C219.067 553.298 219.118 553.298 219.169 553.298C218.629 553.452 218.011 553.606 217.471 553.76C216.853 553.914 216.39 554.223 216.004 554.685C215.695 555.147 215.541 555.61 215.387 556.072C215.309 556.535 215.232 556.92 215.078 557.46C215.078 557.151 215.001 556.92 214.923 556.766C214.821 556.304 214.718 555.867 214.615 555.456C214.306 554.531 213.688 553.991 212.762 553.76C212.222 553.606 211.604 553.452 210.986 553.298Z" fill="#E6D6B6"/>
<path d="M358.9 311.909C359.209 311.806 359.492 311.729 359.75 311.678C360.367 311.601 360.985 311.37 361.525 311.061C362.066 310.676 362.374 310.136 362.529 309.52C362.683 309.057 362.838 308.518 362.915 307.978C362.966 307.927 362.992 307.876 362.992 307.824C363.146 308.364 363.301 308.98 363.455 309.597C363.61 310.213 363.996 310.753 364.613 311.138C364.999 311.292 365.385 311.447 365.771 311.601C366.157 311.678 366.543 311.755 366.929 311.832C366.981 311.832 367.032 311.858 367.084 311.909C366.466 312.063 365.926 312.14 365.308 312.294C364.768 312.526 364.227 312.757 363.918 313.296C363.61 313.682 363.455 314.144 363.301 314.684C363.224 315.069 363.069 315.531 362.992 315.994C362.915 315.763 362.915 315.531 362.838 315.3C362.735 314.889 362.632 314.478 362.529 314.067C362.22 313.142 361.525 312.603 360.676 312.294C360.058 312.14 359.518 312.063 358.9 311.909Z" fill="#E6D6B6"/>
<path d="M305.479 27.746C305.787 27.6946 306.07 27.6433 306.328 27.5919C306.945 27.4377 307.563 27.2836 308.103 26.9753C308.644 26.5899 308.952 26.0504 309.184 25.4339C309.338 24.8944 309.416 24.3549 309.57 23.8924C309.57 23.841 309.57 23.7897 309.57 23.7383C309.724 24.2778 309.879 24.8944 310.033 25.4339C310.265 26.1275 310.574 26.667 311.191 26.9753C311.577 27.2065 311.963 27.3607 312.426 27.5148C312.735 27.5919 313.121 27.6689 313.507 27.746C313.559 27.746 313.61 27.746 313.662 27.746C313.121 27.9002 312.504 28.0543 311.963 28.2084C311.346 28.3626 310.882 28.6709 310.496 29.1333C310.188 29.5957 310.033 30.0582 309.879 30.5206C309.802 30.983 309.724 31.4455 309.57 31.9079C309.57 31.5996 309.493 31.4455 309.416 31.2142C309.313 30.7518 309.21 30.3151 309.107 29.904C308.798 29.0562 308.18 28.4397 307.254 28.2084C306.714 28.0543 306.096 27.9002 305.479 27.746Z" fill="#E6D6B6"/>
<path d="M116.571 4.00773C116.829 3.95635 117.086 3.90497 117.343 3.85359C117.961 3.69945 118.578 3.5453 119.119 3.23702C119.659 2.85166 120.045 2.31215 120.2 1.69558C120.354 1.15608 120.431 0.616575 120.586 0.154144C120.586 0.0513812 120.586 0 120.586 0C120.74 0.539503 120.894 1.15608 121.049 1.69558C121.28 2.38923 121.589 2.92873 122.207 3.23702C122.593 3.46823 123.056 3.62238 123.442 3.77652C123.828 3.85359 124.214 3.93066 124.523 4.00773C124.626 4.00773 124.677 4.00773 124.677 4.00773C124.137 4.16188 123.519 4.31602 122.979 4.47017C122.361 4.62431 121.898 4.9326 121.512 5.39503C121.203 5.85746 121.049 6.31989 120.972 6.78232C120.817 7.24475 120.74 7.70718 120.663 8.16961C120.586 7.86133 120.508 7.70718 120.508 7.47597C120.406 7.01354 120.277 6.5768 120.122 6.16575C119.814 5.31796 119.196 4.70138 118.27 4.47017C117.729 4.31602 117.112 4.16188 116.571 4.00773Z" fill="#E6D6B6"/>
</g>
</g>
<defs>
<clipPath id="clip0_2176_1599">
<rect width="430" height="558" fill="white"/>
</clipPath>
</defs>
</svg>
