<svg width="430" height="192" viewBox="0 0 430 192" fill="none" xmlns="http://www.w3.org/2000/svg">
<path d="M207.892 89.0864C193.992 63.9864 203.092 32.3864 228.192 18.4864C253.292 4.58636 284.892 13.6864 298.692 38.7864C312.592 63.8864 303.492 95.4864 278.392 109.386C253.292 123.286 221.692 114.186 207.892 89.0864Z" fill="#2D2B69"/>
<path d="M230.791 131.386C220.691 112.986 227.291 89.9861 245.591 79.8861C263.891 69.7861 286.991 76.3861 297.091 94.6861C307.191 112.986 300.591 136.086 282.291 146.186C263.991 156.286 240.891 149.686 230.791 131.386Z" fill="#2D2B69"/>
<path d="M355.092 72.2854C342.092 48.7854 350.592 19.0854 374.192 6.08537C397.692 -6.91463 427.392 1.58537 440.392 25.1854C453.392 48.6854 444.892 78.3854 421.292 91.3854C397.792 104.385 368.092 95.8854 355.092 72.2854Z" fill="#2D2B69"/>
<path d="M373.392 146.886C365.992 133.486 370.892 116.486 384.292 109.086C397.692 101.686 414.592 106.586 422.092 119.986C429.492 133.386 424.592 150.286 411.192 157.786C397.792 165.186 380.892 160.286 373.392 146.886Z" fill="#2D2B69"/>
<path d="M193.892 118.286C187.692 106.886 191.792 92.6857 203.092 86.3857C214.392 80.1857 228.592 84.2857 234.892 95.5857C241.192 106.886 237.092 121.186 225.692 127.386C214.392 133.686 200.192 129.586 193.892 118.286Z" fill="#2D2B69"/>
<path d="M270.192 165.586C256.792 141.286 265.592 110.786 289.892 97.3857C314.092 83.9857 344.692 92.7857 358.092 116.986C371.492 141.286 362.692 171.786 338.392 185.186C314.192 198.586 283.692 189.786 270.192 165.586Z" fill="#2D2B69"/>
<path d="M404.292 88.8864C390.292 63.3864 399.492 31.3863 424.892 17.2863C450.392 3.18634 482.392 12.4863 496.492 37.8863C510.592 63.3863 501.292 95.3863 475.892 109.486C450.392 123.486 418.392 114.286 404.292 88.8864Z" fill="#2D2B69"/>
<path d="M359.292 106.485C345.292 81.0854 354.492 48.9854 379.892 34.9854C405.392 20.8854 437.392 30.0854 451.492 55.5854C465.592 80.9854 456.292 112.985 430.892 127.085C405.392 141.185 373.392 131.985 359.292 106.485Z" fill="#2D2B69"/>
<path d="M252.891 126.086C231.591 87.5856 245.591 39.1856 284.091 17.8856C322.591 -3.4144 370.991 10.5856 392.291 49.0856C413.591 87.5856 399.591 135.986 361.091 157.286C322.591 178.586 274.191 164.586 252.891 126.086Z" fill="#2D2B69"/>
<path d="M221.19 89.0861C235.09 63.9859 225.99 32.3856 200.89 18.4854C175.789 4.58532 144.189 13.6854 130.389 38.7856C116.489 63.8859 125.589 95.4862 150.689 109.386C175.79 123.286 207.39 114.186 221.19 89.0861Z" fill="#2D2B69"/>
<path d="M198.29 131.384C208.39 112.984 201.79 89.9836 183.49 79.8835C165.19 69.7834 142.09 76.3835 131.99 94.6837C121.89 112.984 128.49 136.084 146.79 146.184C165.09 156.284 188.19 149.684 198.29 131.384Z" fill="#2D2B69"/>
<path d="M73.9887 72.2851C86.9888 48.7849 78.4887 19.0846 54.8885 6.08451C31.3883 -6.91561 1.68804 1.58448 -11.3121 25.1847C-24.3122 48.6849 -15.8121 78.3852 7.78811 91.3853C31.2883 104.385 60.9886 95.8853 73.9887 72.2851Z" fill="#2D2B69"/>
<path d="M55.688 146.886C63.0881 133.486 58.188 116.485 44.7879 109.085C31.3878 101.685 14.4876 106.585 6.98756 119.986C-0.412507 133.386 4.48754 150.286 17.8877 157.786C31.2878 165.186 48.1879 160.286 55.688 146.886Z" fill="#2D2B69"/>
<path d="M235.19 118.286C241.39 106.885 237.29 92.6854 225.99 86.3853C214.689 80.1852 200.489 84.2853 194.189 95.5854C187.889 106.885 191.989 121.186 203.389 127.386C214.689 133.686 228.89 129.586 235.19 118.286Z" fill="#2D2B69"/>
<path d="M158.89 165.585C172.29 141.285 163.49 110.785 139.19 97.3848C114.989 83.9847 84.389 92.7848 70.9889 116.985C57.5888 141.285 66.3889 171.785 90.6891 185.186C114.889 198.586 145.39 189.786 158.89 165.585Z" fill="#2D2B69"/>
<path d="M24.7882 88.8861C38.7883 63.3858 29.5883 31.3855 4.18803 17.2854C-21.3122 3.18528 -53.3125 12.4854 -67.4126 37.8856C-81.5128 63.3859 -72.2127 95.3862 -46.8124 109.486C-21.3122 123.486 10.6881 114.286 24.7882 88.8861Z" fill="#2D2B69"/>
<path d="M69.7892 106.485C83.7893 81.0849 74.5892 48.9846 49.189 34.9845C23.6888 20.8844 -8.31153 30.0845 -22.4117 55.5847C-36.5118 80.9849 -27.2117 112.985 -1.81146 127.085C23.6888 141.185 55.6891 131.985 69.7892 106.485Z" fill="#2D2B69"/>
<path d="M176.19 126.085C197.49 87.5848 183.49 39.1844 144.99 17.8842C106.489 -3.416 58.0889 10.5841 36.7887 49.0845C15.4885 87.5849 29.4886 135.985 67.989 157.285C106.489 178.586 154.89 164.586 176.19 126.085Z" fill="#2D2B69"/>
</svg>
