<svg width="364" height="1025" viewBox="0 0 364 1025" fill="none" xmlns="http://www.w3.org/2000/svg">
<g clip-path="url(#clip0_2169_545)">
<rect x="1" y="723" width="362" height="302" fill="#F3D373"/>
<rect x="16" y="723" width="332.41" height="302" fill="#2D2B69"/>
<path d="M363 202.463V725H1V202.463C1 180.399 6.33916 163.525 16.9112 152.24C20.2581 148.7 24.0035 145.826 28.1208 143.696C30.6708 122.032 38.6928 105.663 53.1962 92.3821C68.2308 78.5954 88.8703 70.1317 115.221 61.6415C144.493 52.193 162.157 36.703 166.912 28.5587L182.186 -0.0527344L197.167 28.745C202.002 36.8626 219.666 52.2463 248.779 61.6415C275.13 70.1317 295.743 78.5954 310.804 92.3821C325.307 105.663 333.303 122.032 335.879 143.696C339.997 145.826 343.742 148.7 347.062 152.24C357.661 163.498 363 180.399 363 202.463Z" fill="#F3D373"/>
<path d="M348.205 202.462V724.999H15.7959V202.462C15.7959 184.31 19.8069 170.816 27.7227 162.406C29.8743 160.09 32.2915 158.227 34.8947 156.896L41.9073 153.277L42.837 145.452C44.962 127.247 51.2309 114.259 63.1842 103.32C76.2532 91.3694 95.2457 83.651 119.763 75.7463C151.001 65.6591 172.385 48.5721 179.689 36.0629L179.822 35.8234L182.027 31.7246L184.232 35.9831L184.471 36.3557C191.855 48.7318 213.212 65.7389 244.237 75.7463C268.755 83.651 287.747 91.3694 300.816 103.32C312.743 114.259 319.039 127.247 321.164 145.452L322.093 153.277L329.079 156.896C331.709 158.227 334.126 160.09 336.278 162.406C344.194 170.816 348.205 184.31 348.205 202.462Z" fill="#2D2B69"/>
</g>
<defs>
<clipPath id="clip0_2169_545">
<rect width="364" height="1025" fill="white"/>
</clipPath>
</defs>
</svg>
