<svg width="83" height="111" viewBox="0 0 83 111" fill="none" xmlns="http://www.w3.org/2000/svg">
<g clip-path="url(#clip0_2169_520)">
<g style="mix-blend-mode:multiply" opacity="0.1">
<path d="M-35.7717 102.675C-35.7717 107.08 -16.4255 110.692 7.42614 110.692C31.2777 110.692 50.624 107.08 50.624 102.675C50.624 98.2261 31.2777 94.6582 7.42614 94.6582C-16.4255 94.6582 -35.7717 98.2261 -35.7717 102.675Z" fill="#2D2B69"/>
</g>
<path d="M33.9277 101.795L24.0337 67.5698C25.0496 65.94 25.3588 65.3674 25.7563 63.6055C25.7563 63.6055 27.4347 64.4424 29.1132 66.3805C31.2775 68.8912 38.0796 89.7698 40.8623 101.134C38.5655 101.369 36.2539 101.589 33.9277 101.795Z" fill="#E18F22"/>
<path d="M37.6377 101.441L25.7561 63.6043L30.1289 63.252C30.1289 63.252 38.2119 88.227 41.4805 101.089C40.2143 101.206 38.9334 101.324 37.6377 101.441Z" fill="#EDBC5B"/>
<path d="M-5.56016 105.099L-12.0089 68.9355C-10.8605 67.4378 -10.4188 66.8652 -9.84461 65.1914C-9.84461 65.1914 -8.25451 66.2045 -6.79691 68.3188C-4.89761 71.0497 -0.215634 93.2497 1.28613 104.702C-1.01069 104.849 -3.29278 104.981 -5.56016 105.099Z" fill="#E18F22"/>
<path d="M-1.89429 104.922L-9.84482 65.1914L-5.47203 65.2795C-5.47203 65.2795 0.0491732 91.7081 1.9043 104.658C0.638101 104.746 -0.62809 104.834 -1.89429 104.922Z" fill="#EDBC5B"/>
<path d="M-24.0229 70.1244C-26.4081 66.9089 -29.5883 64.4423 -32.7685 61.7113C-34.2261 60.2137 -35.5512 58.628 -36.7438 56.9982C-37.1266 56.176 -37.4505 55.3244 -37.7155 54.4434C-38.5547 50.0387 -38.5989 45.4137 -38.4222 40.9208C-38.113 37.6613 -37.6713 34.4018 -37.2738 31.1423C-36.8763 27.8387 -36.8321 24.4911 -35.9929 21.2315C-35.4629 20.0423 -34.977 19.0732 -34.5353 17.8399C-33.5636 17.3113 -32.4152 16.7387 -31.2668 16.4303C-29.0583 15.6375 -26.8056 14.8006 -24.5088 14.1399C-7.0618 9.33868 36.3128 -0.439889 39.758 0.485111C28.3622 4.40535 20.235 17.7077 22.5318 36.2518C24.652 53.0339 33.8393 65.9839 43.9541 67.3053C32.1166 69.1553 19.0424 69.728 7.02831 69.9482C-10.0212 70.3006 -23.8463 70.1684 -23.8463 70.1684C-23.9051 70.1684 -23.964 70.1538 -24.0229 70.1244Z" fill="#3D469D"/>
<path d="M-37.7154 34.0489C-37.4945 32.2429 -37.362 30.437 -37.1853 28.631C-16.1606 23.6977 12.8588 16.2096 24.6963 14.2715C23.0178 17.7953 21.8694 24.3143 21.5161 29.1596C7.24929 31.6703 -11.7878 34.2251 -38.5104 40.5679C-38.2454 38.3655 -37.9362 36.2072 -37.7154 34.0489Z" fill="#2D2B68"/>
<path d="M-36.346 57.6143C-36.7288 56.792 -37.0527 55.9551 -37.3178 55.1036C-37.5828 53.694 -37.7595 52.2845 -37.892 50.875C-15.9397 50.0821 10.6946 46.1178 24.0338 44.5762C25.4914 48.8928 26.419 54.1345 28.7158 57.3059C22.2229 58.1428 10.7388 58.9797 -3.96969 59.7726C-17.7064 60.5214 -24.5969 61.3143 -34.0492 61.3143C-35.4185 59.9047 -35.2418 59.2 -36.346 57.6143Z" fill="#2D2B68"/>
<path d="M12.5057 37.0447C12.8149 39.5114 15.5534 41.5376 16.0834 43.8281C16.6134 46.2947 14.9792 49.29 15.7742 51.4483C16.6576 53.8709 19.8378 55.1043 20.9862 57.0864C22.2672 59.3328 21.8255 62.7245 23.4597 64.3102C25.3149 66.1162 28.5834 65.5435 30.7919 66.3364C33.0445 67.1293 35.253 69.64 37.8149 69.2435C39.935 68.9352 40.5534 65.8078 41.9668 63.8257C43.071 62.284 46.0746 61.2269 46.7813 58.8483C47.3113 56.9543 45.412 54.3554 45.6771 51.9769C45.8979 49.9507 48.4597 47.9245 48.5039 45.634C48.5039 43.5197 46.0746 41.4055 45.9862 39.115C45.8537 37.0007 48.0622 34.6221 47.7972 32.4197C47.5322 30.2614 44.882 28.4995 44.5286 26.4733C44.1753 24.2709 46.0746 21.7602 45.6329 19.7781C45.1028 17.5757 42.2318 16.2102 41.6134 14.3162C40.8626 12.1138 42.276 9.25069 41.3484 7.53283C40.2442 5.3745 37.1081 5.11022 35.7389 3.87688C33.9721 2.37926 32.5587 -0.351689 30.3944 0.0447391C27.7 0.529263 26.1099 3.5245 24.1223 4.58164C21.8255 5.81498 18.4244 5.63879 16.9668 7.57688C15.465 9.47093 16.4809 12.7305 15.7301 15.2412C15.0233 17.4435 12.2848 19.4257 12.064 22.0245C11.8431 24.359 14.1841 26.9138 14.3166 29.4685C14.405 31.8471 12.2407 34.49 12.5057 37.0447Z" fill="#EDE6E1"/>
<path d="M25.1817 36.1629C27.346 54.751 35.9149 68.8903 44.3072 67.7891C48.9891 67.1724 52.6552 61.9307 54.5545 54.1783C56.1004 48.0557 56.5421 40.3474 55.6146 32.1545C53.4503 13.5664 45.9414 1.27716 37.3725 0.396205C36.1358 0.264062 34.4132 1.01287 33.4856 1.58549C26.9043 5.68192 23.2824 19.9093 25.1817 36.1629Z" fill="#D66820"/>
<path d="M28.4501 36.2075C30.4378 54.7516 38.0791 68.9349 45.5879 67.7897C49.7841 67.173 53.0084 61.9313 54.7311 54.1789C56.1003 48.0563 56.4978 40.348 55.6586 32.1551C53.671 13.567 46.0296 -0.572247 38.5208 0.528943C37.5932 0.661086 36.6657 1.05751 35.8265 1.63013C29.9961 5.68251 26.7717 19.9539 28.4501 36.2075Z" fill="#EDE6E1"/>
<path d="M37.2846 35.0181C38.2563 44.2681 42.0549 51.3157 45.8093 50.7431C47.8853 50.4348 49.5196 47.836 50.3588 43.9598C51.0213 40.9205 51.2422 37.0884 50.8005 32.9919C49.8287 23.7419 46.0302 16.6943 42.2757 17.2669C41.8046 17.3257 41.3629 17.5019 40.9507 17.7955C38.0355 19.8217 36.4454 26.9134 37.2846 35.0181Z" fill="#E1AA4E"/>
<path d="M29.996 1.85093C32.8671 0.617597 37.6374 0.441406 37.6374 0.441406V0.485454C37.2546 0.456089 36.8718 0.470771 36.489 0.529502C28.0967 1.63069 23.0172 17.5759 25.1816 36.164C27.2575 54.1355 35.3406 67.9664 43.4678 67.8343L39.6692 68.0986C39.3747 68.1573 39.0803 68.1866 38.7858 68.1866C30.7028 68.2307 22.6197 54.4438 20.5437 36.4724C18.3794 17.8843 21.6038 5.46283 29.996 1.85093Z" fill="#E18F22"/>
<path d="M12.6819 103.777C11.9458 103.836 11.2243 103.894 10.5176 103.953C11.3568 92.2806 14.537 70.5651 16.2597 67.702C17.5406 65.5437 19.0865 64.3984 19.0865 64.3984C19.7491 66.0722 20.1908 66.6008 21.4717 68.0103L17.4522 103.337C15.8621 103.483 14.272 103.63 12.6819 103.777Z" fill="#EDBC5B"/>
<path d="M12.6823 103.777C11.74 103.836 10.8125 103.909 9.89963 103.997C10.9597 90.783 14.7141 64.7949 14.7141 64.7949L19.0869 64.3984L13.7866 103.689C13.4038 103.718 13.0357 103.748 12.6823 103.777Z" fill="#E18F22"/>
<path d="M82.9115 37.2638C83.1323 36.2948 82.4698 35.3257 81.4981 35.1495L46.5157 28.8507C45.544 28.6745 44.6164 29.3353 44.4398 30.3043C44.2631 31.2734 44.8815 32.1984 45.8532 32.3745L80.8355 38.6293C81.8073 38.8055 82.6906 38.2329 82.9115 37.2638Z" fill="#E39223"/>
<path d="M45.5446 35.0188C49.1223 35.6795 52.3909 34.2259 52.8326 31.8033C53.2743 29.3807 50.7566 26.914 47.1347 26.2533C43.557 25.5926 40.2884 27.0461 39.8025 29.4688C39.3608 31.8914 41.9227 34.358 45.5446 35.0188Z" fill="#D66820"/>
<path d="M64.9344 74.6173C65.7736 74.0447 65.9061 72.8994 65.2878 72.1066L43.3796 44.4447C42.7613 43.6959 41.6129 43.5637 40.862 44.1363C40.0669 44.753 39.9344 45.8542 40.5528 46.647L62.4609 74.309C63.0793 75.0578 64.1394 75.1899 64.9344 74.6173Z" fill="#E39223"/>
<path d="M38.477 48.4091C40.7738 51.2722 44.1749 52.3293 46.1183 50.7877C48.0618 49.29 47.841 45.7662 45.5883 42.9031C43.3357 40.04 39.9346 38.9829 37.947 40.5246C36.0035 42.0222 36.2243 45.546 38.477 48.4091Z" fill="#D66820"/>
</g>
<defs>
<clipPath id="clip0_2169_520">
<rect width="125" height="111" fill="white" transform="matrix(-1 0 0 1 83 0)"/>
</clipPath>
</defs>
</svg>
