<svg width="224" height="212" viewBox="0 0 224 212" fill="none" xmlns="http://www.w3.org/2000/svg">
<g clip-path="url(#clip0_2169_132)">
<path d="M126.186 168.8H177.486L166.386 49.5996H134.986L126.186 168.8Z" fill="#EDE6E1"/>
<path d="M131.485 43.9004H170.185V49.6004H131.485V43.9004Z" fill="#D66820"/>
<path d="M128.485 93.9H175.185L172.985 87H130.685L128.485 93.9Z" fill="#D66820"/>
<path d="M137.086 20.7008C148.486 15.6008 150.786 1.30078 150.786 1.30078C150.786 1.30078 153.086 15.6008 164.586 20.7008C177.486 26.4008 177.586 41.7008 167.486 43.9008H134.186C124.086 41.7008 124.086 26.4008 137.086 20.7008Z" fill="#EDE6E1"/>
<path d="M154.386 73.6V61.7C154.386 59.7 152.786 58 150.786 58C148.786 58 147.186 59.7 147.186 61.7V73.6" fill="#1E3477"/>
<path d="M158.586 73.6H165.786V61.7C165.786 59.7 164.186 58 162.186 58C160.186 58 158.586 59.7 158.586 61.7V73.6Z" fill="#1E3477"/>
<path d="M143.886 73.6V61.7C143.886 59.7 142.186 58 140.186 58C138.186 58 136.586 59.7 136.586 61.7V73.6" fill="#1E3477"/>
<path d="M157.386 75.0996H166.386V73.5996H157.386V75.0996Z" fill="#D66820"/>
<path d="M146.286 75.0996H155.286V73.5996H146.286V75.0996Z" fill="#D66820"/>
<path d="M135.786 75.0996H144.686V73.5996H135.786V75.0996Z" fill="#D66820"/>
<path d="M84.9854 91.3008H106.885V96.5008H84.9854V91.3008Z" fill="#D66820"/>
<path d="M86.9861 76.1996C94.4861 72.9996 95.9861 63.5996 95.9861 63.5996C95.9861 63.5996 97.4861 72.9996 104.886 76.1996C113.286 79.8996 113.286 89.7996 106.786 91.2996H85.0861C78.5861 89.7996 78.5861 79.8996 86.9861 76.1996Z" fill="#EDE6E1"/>
<path fill-rule="evenodd" clip-rule="evenodd" d="M86.9854 96.5H104.885L106.885 190.2H84.9854L86.9854 96.5ZM100.885 102.5H103.985V100.9C103.985 100.1 103.285 99.4 102.385 99.4C101.585 99.4 100.885 100.1 100.885 100.9V102.5ZM96.4854 102.5H99.5854V101C99.5854 100.1 98.8854 99.5 98.0854 99.5C97.1854 99.5 96.4854 100.1 96.4854 101V102.5ZM92.1854 102.5H95.1854V101C95.1854 100.1 94.4854 99.4 93.6854 99.4C92.7854 99.4 92.1854 100.1 92.1854 101V102.5ZM87.7854 102.5H90.7854V100.9C90.7854 100.1 90.1854 99.4 89.2854 99.4C88.4854 99.4 87.7854 100.1 87.7854 100.9V102.5Z" fill="#EDE6E1"/>
<path d="M86.0859 107.899H105.786V105.699H86.0859V107.899Z" fill="#D66820"/>
<path d="M86.9854 145.8L88.4854 148.6L89.9854 145.9L90.6854 118.5L89.1854 115.9L87.6854 118.4L86.9854 145.8Z" fill="#1E3477"/>
<path d="M104.585 145.8L103.185 148.6L101.585 145.9L100.985 118.5L102.385 115.9L103.985 118.4L104.585 145.8Z" fill="#1E3477"/>
<path d="M94.5859 146.1L95.9859 148.1L97.2859 146.1V117.4L95.9859 115.6L94.5859 117.4V146.1Z" fill="#1E3477"/>
<path d="M84.9854 154H106.885V151.6H84.9854V154Z" fill="#D66820"/>
<path d="M102.386 161.1H105.486V158.6C105.486 157.8 104.786 157.1 103.986 157.1C103.086 157.1 102.386 157.8 102.386 158.6V161.1Z" fill="#EDE6E1"/>
<path d="M98.3857 161.1H101.486V158.6C101.486 157.8 100.786 157.1 99.9857 157.1C99.0857 157.1 98.3857 157.8 98.3857 158.6V161.1Z" fill="#EDE6E1"/>
<path d="M94.3857 161.1H97.4857V158.6C97.4857 157.8 96.7857 157.1 95.9857 157.1C95.0857 157.1 94.3857 157.8 94.3857 158.6V161.1Z" fill="#EDE6E1"/>
<path d="M90.3857 161.1H93.4857V158.6C93.4857 157.8 92.7857 157.1 91.9857 157.1C91.0857 157.1 90.3857 157.8 90.3857 158.6V161.1Z" fill="#EDE6E1"/>
<path d="M86.3857 161.1H89.4857V158.6C89.4857 157.8 88.7857 157.1 87.8857 157.1C87.0857 157.1 86.3857 157.8 86.3857 158.6V161.1Z" fill="#EDE6E1"/>
<path d="M121.586 180.4H143.586L141.486 113H123.686L121.586 180.4Z" fill="#3D469D"/>
<path d="M123.685 93.0996C131.085 89.8996 132.585 80.5996 132.585 80.5996C132.585 80.5996 134.085 89.8996 141.485 93.0996C149.885 96.7996 149.985 106.8 143.385 108.2H121.785C115.285 106.8 115.285 96.7996 123.685 93.0996Z" fill="#3D469D"/>
<path d="M121.586 107.9H143.586V113H121.586V107.9Z" fill="#D66820"/>
<path d="M134.686 125.001H138.886V122.901C138.886 121.801 137.986 120.801 136.786 120.801C135.586 120.801 134.686 121.801 134.686 122.901V125.001Z" fill="#EDE6E1"/>
<path d="M126.286 125.001H130.486V122.901C130.486 121.801 129.586 120.801 128.386 120.801C127.286 120.801 126.286 121.801 126.286 122.901V125.001Z" fill="#EDE6E1"/>
<path d="M134.686 141.501H138.886V139.401C138.886 138.201 137.986 137.301 136.786 137.301C135.586 137.301 134.686 138.201 134.686 139.401V141.501Z" fill="#EDE6E1"/>
<path d="M126.286 141.501H130.486V139.401C130.486 138.201 129.586 137.301 128.386 137.301C127.286 137.301 126.286 138.201 126.286 139.401V141.501Z" fill="#EDE6E1"/>
<path d="M45.7861 180.401H67.7861L65.6861 116.801H47.7861L45.7861 180.401Z" fill="#3D469D"/>
<path d="M45.7861 111.699H67.7861V116.799H45.7861V111.699Z" fill="#D66820"/>
<path d="M47.8862 96.6C55.2862 93.3 56.7862 84 56.7862 84C56.7862 84 58.2862 93.3 65.6862 96.6C74.0862 100.3 74.0862 110.2 67.5862 111.7H45.9862C39.3862 110.2 39.4862 100.3 47.8862 96.6Z" fill="#3D469D"/>
<path d="M58.8857 127.1H63.0857V125C63.0857 123.8 62.0857 122.9 60.9857 122.9C59.7857 122.9 58.8857 123.8 58.8857 125V127.1Z" fill="#EDE6E1"/>
<path d="M50.4854 127.1H54.6854V125C54.6854 123.8 53.6854 122.9 52.5854 122.9C51.3854 122.9 50.4854 123.8 50.4854 125V127.1Z" fill="#EDE6E1"/>
<path d="M58.8857 140.1H63.0857V138C63.0857 136.8 62.0857 135.9 60.9857 135.9C59.7857 135.9 58.8857 136.8 58.8857 138V140.1Z" fill="#EDE6E1"/>
<path d="M50.4854 140.1H54.6854V138C54.6854 136.8 53.6854 135.9 52.5854 135.9C51.3854 135.9 50.4854 136.8 50.4854 138V140.1Z" fill="#EDE6E1"/>
<path d="M58.8857 153.1H63.0857V151C63.0857 149.8 62.0857 148.9 60.9857 148.9C59.7857 148.9 58.8857 149.8 58.8857 151V153.1Z" fill="#EDE6E1"/>
<path d="M50.4854 153.1H54.6854V151C54.6854 149.8 53.6854 148.9 52.5854 148.9C51.3854 148.9 50.4854 149.8 50.4854 151V153.1Z" fill="#EDE6E1"/>
<path d="M83.9861 168.4C141.586 168.4 188.286 121.7 188.286 64.1004C188.286 39.9004 179.986 17.6004 166.086 -0.0996094C200.386 19.3004 223.586 56.1004 223.586 98.4004C223.586 160.8 172.986 211.5 110.486 211.5C58.2861 211.5 14.2861 176 1.28613 127.7C20.3861 152.5 50.2861 168.4 83.9861 168.4Z" fill="#F3D373"/>
<path d="M104.386 194.7C166.886 194.7 217.486 144.1 217.486 81.6004C217.486 71.2004 216.086 61.0004 213.386 51.4004C219.986 65.7004 223.586 81.6004 223.586 98.4004C223.586 160.8 172.986 211.5 110.486 211.5C58.5859 211.5 14.8859 176.5 1.58594 128.8C19.4859 167.7 58.7859 194.7 104.386 194.7Z" fill="#E27F3D"/>
<path d="M166.086 -0.0996094C168.286 1.16706 170.453 2.50039 172.586 3.90039C174.986 9.10039 176.953 14.5337 178.486 20.2004C175.186 12.9004 170.986 6.10039 166.086 -0.0996094Z" fill="#DD883B"/>
</g>
<defs>
<clipPath id="clip0_2169_132">
<rect width="223" height="212" fill="white" transform="translate(0.885742)"/>
</clipPath>
</defs>
</svg>
