<svg width="51" height="222" viewBox="0 0 51 222" fill="none" xmlns="http://www.w3.org/2000/svg">
<path d="M0 106.3H50.4V102H0V106.3Z" fill="#D66820"/>
<path d="M20.4008 90.9004H30.0008C36.1008 90.9004 41.0008 95.9004 41.0008 102H9.30078C9.30078 95.9004 14.3008 90.9004 20.4008 90.9004Z" fill="#EDE6E1"/>
<path fill-rule="evenodd" clip-rule="evenodd" d="M25.2002 78.6992C27.9002 78.6992 30.1002 80.8992 30.1002 83.6992V90.8992H20.2002V83.6992C20.2002 80.8992 22.4002 78.6992 25.2002 78.6992ZM25.2002 86.3992C26.4002 86.3992 27.4002 85.3992 27.4002 84.1992C27.4002 82.9992 26.4002 81.9992 25.2002 81.9992C24.0002 81.9992 23.0002 82.9992 23.0002 84.1992C23.0002 85.3992 24.0002 86.3992 25.2002 86.3992Z" fill="#3D469D"/>
<path d="M9.40078 114.901H41.0008L43.0008 106.301H7.30078L9.40078 114.901Z" fill="#3D469D"/>
<path d="M9.40078 114.9H17.2008H33.2008H41.0008L47.0008 132L33.2008 171.5H17.2008L3.30078 132L9.40078 114.9Z" fill="#EDE6E1"/>
<path d="M13.6002 122.5H19.3002H31.0002H36.7002L41.1002 135L31.0002 163.8H19.3002L9.2002 135L13.6002 122.5Z" fill="#3D469D"/>
<path d="M11.3008 176.4H39.0008V171.5H11.3008V176.4Z" fill="#D66820"/>
<path d="M16.7006 182.2H33.6006L35.7006 176.4H14.6006L16.7006 182.2Z" fill="#3D469D"/>
<path d="M22.1007 185.9H28.2007C28.9007 187.4 27.4007 214.1 25.2007 221.5C23.0007 214.1 21.5007 187.4 22.1007 185.9Z" fill="#1E3477"/>
<path d="M25.2 189.599C28 189.599 30.3 187.299 30.3 184.499V182.199H20V184.499C20 187.299 22.3 189.599 25.2 189.599Z" fill="#EDE6E1"/>
<path d="M18.5006 161.4L18.1006 160.4H32.2006L31.9006 161.4H18.5006Z" fill="#D66820"/>
<path d="M33.9004 155.4L33.6004 156.4H16.7004L16.4004 155.4H33.9004Z" fill="#D66820"/>
<path d="M37.5004 145.4L37.1004 146.4H13.2004L12.9004 145.4H37.5004Z" fill="#D66820"/>
<path d="M35.7006 150.4L35.4006 151.4H15.0006L14.6006 150.4H35.7006Z" fill="#D66820"/>
<path d="M39.5 130.4L39.8 131.3H10.5L10.9 130.4H39.5Z" fill="#D66820"/>
<path d="M37.7008 125.4L38.0008 126.3H12.3008L12.6008 125.4H37.7008Z" fill="#D66820"/>
<path d="M39.2006 140.4L38.9006 141.3H11.4006L11.1006 140.4H39.2006Z" fill="#D66820"/>
<path d="M41.0004 135.4L40.7004 136.3H9.70039L9.40039 135.4H41.0004Z" fill="#D66820"/>
<path d="M24.4004 83H26.4004V0L24.4004 1.30823V83Z" fill="#EDE6E1"/>
</svg>
