<svg width="51" height="193" viewBox="0 0 51 193" fill="none" xmlns="http://www.w3.org/2000/svg">
<g clip-path="url(#clip0_2169_46)">
<path d="M0.599609 77.3H50.9996V73H0.599609V77.3Z" fill="#D66820"/>
<path d="M21.0004 61.9004H30.6004C36.7004 61.9004 41.6004 66.9004 41.6004 73.0004H9.90039C9.90039 66.9004 14.9004 61.9004 21.0004 61.9004Z" fill="#EDE6E1"/>
<path fill-rule="evenodd" clip-rule="evenodd" d="M25.7998 49.6992C28.4998 49.6992 30.6998 51.8992 30.6998 54.6992V61.8992H20.7998V54.6992C20.7998 51.8992 22.9998 49.6992 25.7998 49.6992ZM25.7998 57.3992C26.9998 57.3992 27.9998 56.3992 27.9998 55.1992C27.9998 53.9992 26.9998 52.9992 25.7998 52.9992C24.5998 52.9992 23.5998 53.9992 23.5998 55.1992C23.5998 56.3992 24.5998 57.3992 25.7998 57.3992Z" fill="#3D469D"/>
<path d="M10.0004 85.9008H41.6004L43.6004 77.3008H7.90039L10.0004 85.9008Z" fill="#3D469D"/>
<path d="M10.0004 85.9004H17.8004H33.8004H41.6004L47.6004 103L33.8004 142.5H17.8004L3.90039 103L10.0004 85.9004Z" fill="#EDE6E1"/>
<path d="M14.1998 93.5H19.8998H31.5998H37.2998L41.6998 106L31.5998 134.8H19.8998L9.7998 106L14.1998 93.5Z" fill="#3D469D"/>
<path d="M11.9004 147.4H39.6004V142.5H11.9004V147.4Z" fill="#D66820"/>
<path d="M17.3002 153.2H34.2002L36.3002 147.4H15.2002L17.3002 153.2Z" fill="#3D469D"/>
<path d="M22.7004 156.9H28.8004C29.5004 158.4 28.0004 185.1 25.8004 192.5C23.6004 185.1 22.1004 158.4 22.7004 156.9Z" fill="#1E3477"/>
<path d="M25.7996 160.599C28.5996 160.599 30.8996 158.299 30.8996 155.499V153.199H20.5996V155.499C20.5996 158.299 22.8996 160.599 25.7996 160.599Z" fill="#EDE6E1"/>
<path d="M19.1002 132.4L18.7002 131.4H32.8002L32.5002 132.4H19.1002Z" fill="#D66820"/>
<path d="M34.5 126.4L34.2 127.4H17.3L17 126.4H34.5Z" fill="#D66820"/>
<path d="M38.1 116.4L37.7 117.4H13.8L13.5 116.4H38.1Z" fill="#D66820"/>
<path d="M36.3002 121.4L36.0002 122.4H15.6002L15.2002 121.4H36.3002Z" fill="#D66820"/>
<path d="M40.0996 101.4L40.3996 102.3H11.0996L11.4996 101.4H40.0996Z" fill="#D66820"/>
<path d="M38.3004 96.4004L38.6004 97.3004H12.9004L13.2004 96.4004H38.3004Z" fill="#D66820"/>
<path d="M39.8002 111.4L39.5002 112.3H12.0002L11.7002 111.4H39.8002Z" fill="#D66820"/>
<path d="M41.6 106.4L41.3 107.3H10.3L10 106.4H41.6Z" fill="#D66820"/>
<path d="M25 54.1996H26.5V-2.90039L25 -2.00039V54.1996Z" fill="#EDE6E1"/>
</g>
<defs>
<clipPath id="clip0_2169_46">
<rect width="51" height="196" fill="white" transform="translate(0 -3)"/>
</clipPath>
</defs>
</svg>
