<svg width="65" height="175" viewBox="0 0 65 175" fill="none" xmlns="http://www.w3.org/2000/svg">
<g clip-path="url(#clip0_2169_233)">
<path d="M64.5855 70.0004H1.68555V64.9004H64.5855V70.0004Z" fill="#D66820"/>
<path d="M56.5855 76.1H9.68555L7.68555 70H58.5855L56.5855 76.1Z" fill="#3D469D"/>
<path d="M35.5857 76.0996H30.6857H12.8857L18.5857 123.8H30.6857H35.5857H47.6857L53.3857 76.0996H35.5857Z" fill="#EDE6E1"/>
<path d="M34.9855 79.9004H31.3855H18.1855L22.3855 119.8H31.3855H34.9855H43.9855L48.1855 79.9004H34.9855Z" fill="#3D469D"/>
<path d="M47.6859 58.4004H42.5859H23.6859H18.5859C18.2859 63.2004 14.5859 64.9004 14.5859 64.9004H51.7859C51.7859 64.9004 47.9859 63.2004 47.6859 58.4004Z" fill="#EDE6E1"/>
<path fill-rule="evenodd" clip-rule="evenodd" d="M41.8857 58.3992H24.3857C24.3857 58.3992 24.8857 49.4992 33.1857 46.1992C41.3857 49.4992 41.8857 58.3992 41.8857 58.3992ZM35.4857 53.2992C35.4857 51.9992 34.4857 50.8992 33.1857 50.8992C31.7857 50.8992 30.7857 51.9992 30.7857 53.2992C30.7857 54.5992 31.7857 55.6992 33.1857 55.6992C34.4857 55.6992 35.4857 54.5992 35.4857 53.2992Z" fill="#3D469D"/>
<path d="M53.0854 129.901H12.4854L14.5854 123.801H51.0854L53.0854 129.901Z" fill="#D66820"/>
<path d="M43.4861 136H22.0861C20.2861 136 18.7861 134.5 18.7861 132.6V129.9H46.7861V132.6C46.7861 134.5 45.2861 136 43.4861 136Z" fill="#3D469D"/>
<path d="M35.8857 139H29.6857C29.0857 140.4 30.5857 167.1 32.7857 174.5C34.9857 167.1 36.4857 140.4 35.8857 139Z" fill="#1E3477"/>
<path d="M32.7855 142C29.9855 142 27.6855 139.7 27.6855 136.9V136H37.8855V136.9C37.8855 139.7 35.5855 142 32.7855 142Z" fill="#EDE6E1"/>
<path d="M37.8859 79.9004H36.1859L20.5859 102.9L20.7859 105L37.8859 79.9004Z" fill="#D66820"/>
<path d="M23.0861 79.9004L18.7861 86.2004L19.0861 88.3004L24.7861 79.9004H23.0861Z" fill="#D66820"/>
<path d="M44.5854 79.9004H42.8854L21.4854 111.4L21.6854 113.5L44.5854 79.9004Z" fill="#D66820"/>
<path d="M31.3855 79.9004H29.7855L19.6855 94.7004L19.8855 96.8004L31.3855 79.9004Z" fill="#D66820"/>
<path d="M46.3859 96.8004L46.6859 93.9004L29.0859 119.8H30.7859L46.3859 96.8004Z" fill="#D66820"/>
<path d="M47.5857 85.3008L47.8857 82.3008L22.3857 119.801H24.0857L47.5857 85.3008Z" fill="#D66820"/>
<path d="M44.1857 117L42.3857 119.8H43.9857L44.1857 117Z" fill="#D66820"/>
<path d="M45.1855 108.4L45.4855 105.5L35.6855 119.8H37.3855L45.1855 108.4Z" fill="#D66820"/>
<path d="M32.3857 52.3008H33.8857V0.700781L32.3857 0.300781V52.3008Z" fill="#EDE6E1"/>
</g>
<defs>
<clipPath id="clip0_2169_233">
<rect width="64" height="175" fill="white" transform="translate(0.885742)"/>
</clipPath>
</defs>
</svg>
