<svg width="222" height="209" viewBox="0 0 222 209" fill="none" xmlns="http://www.w3.org/2000/svg">
<path d="M6.60018 58.5766L10.8628 18.1505C10.2211 18.288 9.55652 18.3568 8.869 18.3568C5.36265 18.3568 2.26881 16.4317 0.618763 13.6129C2.13131 14.6442 3.91886 15.2629 5.91267 15.2629C7.90647 15.2629 9.83153 14.5754 11.3441 13.4754L11.6191 10.8628V9.48776L11.6878 10.1753L11.7566 9.48776V10.8628L11.9628 12.9254C13.8191 11.2066 14.9879 8.80025 14.9879 6.11892C14.9879 3.78136 14.0941 1.65005 12.6504 0C16.0192 1.44379 18.4255 4.81263 18.4255 8.73149C18.4255 12.7191 16.0192 16.1567 12.5129 17.6005L17.1192 57.8204C21.7944 61.3955 29.1508 66.8269 36.851 72.1208C49.9827 81.196 58.5766 105.534 44.4825 120.935V128.91L59.1954 128.841L59.1267 121.76C59.1267 121.76 56.5828 118.735 56.5828 113.991L57.4766 113.922V115.778H58.1641V113.922H59.1267L59.3329 88.6212C59.3329 88.6212 56.6516 88.2087 56.6516 86.0774V85.9399V83.6024H57.4766V85.6649H57.9579V83.6024H58.7829V85.6649H59.3329V83.6024H60.1579V85.6649H60.2954L60.7767 80.921C59.6767 80.3023 58.9892 79.1335 58.9892 77.8272C58.9204 76.1771 60.0204 74.8021 61.533 74.3208L61.6705 73.0146C60.708 72.8083 60.0892 72.3958 60.0892 71.9145C60.0204 71.3645 60.8455 70.8832 61.8767 70.7457L62.083 69.1644C61.7392 69.0269 61.533 68.7519 61.533 68.3394C61.533 67.9269 61.808 67.5832 62.2205 67.5144L62.2893 66.9644C62.2205 66.9644 62.083 67.0331 61.9455 67.0331C61.3955 67.0331 60.9142 66.6894 60.6392 66.2769C60.8684 66.4602 61.1434 66.5519 61.4642 66.5519C61.808 66.5519 62.1517 66.4144 62.358 66.1394L62.4268 65.7269L62.4955 66.0706C62.7705 65.7956 62.908 65.4518 62.908 65.0393C62.908 64.6956 62.7705 64.3518 62.5643 64.0768C63.1143 64.2831 63.458 64.8331 63.458 65.4518C63.458 66.0706 63.1143 66.6206 62.5643 66.8956L62.633 67.5144C63.0455 67.5832 63.3205 67.9269 63.3205 68.3394C63.3205 68.6832 63.1143 69.0269 62.8393 69.1644L63.0455 70.7457C64.1456 70.8832 65.0393 71.2958 65.0393 71.9145C65.0393 72.3958 64.2831 72.8771 63.3205 73.0146L63.458 74.3208C65.0393 74.6646 66.1394 76.1084 66.2081 77.7584C66.2081 79.2022 65.3831 80.371 64.2143 80.9898L64.7643 85.6649H64.9018V83.5336H65.7269V85.6649H66.2769V83.5336H67.1019V85.6649H67.5832V83.5336H68.4082V85.9399V86.0087C68.4769 88.14 65.7269 88.5525 65.7269 88.5525L66.2081 113.922H67.1706V115.71H67.8582V113.922H68.7519C68.8207 118.666 66.2081 121.76 66.2081 121.76L66.2769 128.841H67.2394V133.448H68.8894C68.8894 136.61 66.3456 137.298 66.3456 137.298V142.523H67.1706V144.173L71.2958 144.104L71.7083 147.267H73.6333V155.929H77.0022V150.773C67.8582 141.01 73.2208 125.335 81.6085 119.491C87.7962 115.091 93.6401 110.622 96.184 108.559L97.2152 93.7776C96.6652 94.0068 96.0465 94.1214 95.3589 94.1214C93.5714 94.1214 91.9213 93.1589 91.0963 91.6463C91.8526 92.1963 92.8151 92.5401 93.8464 92.5401C95.2902 92.5401 96.5277 91.9213 97.4215 90.8901L97.4902 90.34V90.8213C98.1778 89.9963 98.5903 88.965 98.5903 87.7962C98.5903 86.5587 98.1778 85.4587 97.4215 84.6336C99.1403 85.3899 100.378 87.1775 100.378 89.1713C100.378 91.0963 99.2778 92.7464 97.6965 93.5714L98.934 108.559C101.478 110.553 107.322 115.022 113.647 119.353C122.035 125.129 127.535 140.735 118.46 150.635L118.528 155.723L127.535 155.654L128.497 124.579C128.497 124.579 125.129 124.028 125.129 121.76H126.779V118.391H128.772L128.704 112.478H125.541C125.541 112.478 125.885 108.353 128.91 108.353V105.878H127.26C127.26 105.878 128.154 103.334 130.629 103.334L131.797 88.69L133.173 103.334C135.648 103.265 136.473 105.878 136.473 105.878H134.891V108.353C137.916 108.284 138.329 112.409 138.329 112.409H135.098L135.166 118.322H137.16V121.691H138.81C138.81 124.028 135.441 124.579 135.441 124.579L136.748 157.029H138.054L138.123 170.367H139.291C139.291 172.636 137.641 173.392 136.816 173.667L137.916 181.78H141.904L152.767 181.711L171.605 181.643H173.667V186.043H171.674V194.637H176.624V199.243L208.181 199.106L208.112 196.012H210.518V194.499H211.825V193.399H212.237V190.649C212.237 190.649 210.862 190.237 210.862 188.587H212.237L212.168 182.33C212.168 182.33 210.793 180.68 210.793 178.136H211.275V179.099H211.687V178.136H212.168L212.306 164.592C212.306 164.592 210.862 164.386 210.862 163.286V163.217V161.911H211.275V163.08H211.55V161.911H212.031V163.08H212.306V161.911H212.718V163.08H212.787L213.062 160.536C212.512 160.192 212.1 159.573 212.1 158.886C212.1 157.992 212.65 157.236 213.475 157.029L213.544 156.273C213.062 156.204 212.65 155.998 212.65 155.723C212.65 155.448 213.062 155.173 213.681 155.104L213.75 154.279C213.612 154.142 213.475 154.004 213.475 153.798C213.475 153.592 213.612 153.386 213.819 153.317L213.956 152.423L214.094 153.317C214.3 153.386 214.437 153.592 214.437 153.798C214.437 154.004 214.3 154.142 214.162 154.211L214.3 155.104C214.85 155.173 215.331 155.379 215.331 155.723C215.331 155.998 214.919 156.204 214.437 156.273L214.506 156.961C215.331 157.167 215.95 157.923 215.95 158.817C215.95 159.573 215.537 160.261 214.919 160.536L215.194 163.011H215.262V161.911H215.675V163.011H216.019V161.911H216.431V163.011H216.706V161.911H217.119L217.187 163.148V163.217C217.187 164.386 215.744 164.592 215.744 164.592L215.95 178.136H216.5V179.099H216.844V178.136H217.325C217.325 180.68 215.95 182.33 215.95 182.33L216.019 188.587L217.394 188.518C217.394 190.237 216.019 190.649 216.019 190.649V193.399H216.5V194.499L217.944 194.43V195.943H219.937V199.037H222V201.443V208.318H0V63.458C2.47507 61.6705 4.67513 60.0204 6.60018 58.5766Z" fill="#2D2B69"/>
</svg>
