<svg width="601" height="113" viewBox="0 0 601 113" fill="none" xmlns="http://www.w3.org/2000/svg">
<mask id="mask0_2185_462" style="mask-type:alpha" maskUnits="userSpaceOnUse" x="0" y="0" width="601" height="113">
<rect width="601" height="112.492" transform="matrix(-1 8.74228e-08 8.74228e-08 1 601 0)" fill="#D9D9D9"/>
</mask>
<g mask="url(#mask0_2185_462)">
<path d="M293.535 5.86781C279.057 -20.2762 288.535 -53.1906 314.679 -67.6688C340.823 -82.147 373.738 -72.6684 388.112 -46.5244C402.59 -20.3804 393.111 12.534 366.967 27.0122C340.823 41.4903 307.909 32.0118 293.535 5.86781Z" fill="white"/>
<path d="M317.387 49.9273C306.867 30.762 313.741 6.80533 332.802 -3.71478C351.864 -14.2349 375.924 -7.36037 386.444 11.7008C396.965 30.762 390.09 54.8228 371.029 65.3429C351.968 75.863 327.907 68.9885 317.387 49.9273Z" fill="white"/>
<path d="M446.857 -11.6313C433.317 -36.1088 442.17 -67.0441 466.752 -80.5849C491.229 -94.1256 522.165 -85.2721 535.705 -60.6904C549.246 -36.213 540.393 -5.27762 515.811 8.26312C491.334 21.8039 460.398 12.9503 446.857 -11.6313Z" fill="white"/>
<path d="M465.918 66.0703C458.21 52.1129 463.314 34.4058 477.271 26.698C491.228 18.9902 508.831 24.094 516.643 38.0514C524.351 52.0087 519.247 69.6117 505.29 77.4236C491.333 85.1314 473.73 80.0276 465.918 66.0703Z" fill="white"/>
<path d="M278.952 36.2822C272.494 24.408 276.765 9.6174 288.535 3.05536C300.305 -3.40253 315.096 0.867998 321.658 12.638C328.22 24.408 323.949 39.3028 312.075 45.7607C300.305 52.3228 285.514 48.0522 278.952 36.2822Z" fill="white"/>
<path d="M358.427 85.5488C344.469 60.2381 353.635 28.4695 378.946 14.5121C404.153 0.554715 436.026 9.72073 449.983 34.9273C463.94 60.2381 454.774 92.0067 429.464 105.964C404.257 119.921 372.488 110.755 358.427 85.5488Z" fill="white"/>
<path d="M498.104 5.65777C483.521 -20.9029 493.104 -54.2339 519.56 -68.9204C546.121 -83.6069 579.452 -73.9201 594.139 -47.4636C608.825 -20.9029 599.138 12.4281 572.682 27.1146C546.121 41.6969 512.79 32.1143 498.104 5.65777Z" fill="white"/>
<path d="M451.232 23.9885C436.649 -2.46798 446.232 -35.9032 472.688 -50.4855C499.249 -65.172 532.58 -55.5893 547.267 -29.0287C561.953 -2.57217 552.266 30.7589 525.81 45.4453C499.249 60.1318 465.918 50.5492 451.232 23.9885Z" fill="white"/>
<path d="M340.406 44.4049C318.22 4.30353 332.802 -46.1097 372.903 -68.2956C413.005 -90.4816 463.418 -75.8993 485.604 -35.7979C507.79 4.30348 493.207 54.7167 453.106 76.9026C413.005 99.0886 362.591 84.5063 340.406 44.4049Z" fill="white"/>
<path d="M307.386 5.86945C321.864 -20.2748 312.386 -53.1895 286.241 -67.6678C260.097 -82.1461 227.182 -72.6675 212.808 -46.5232C198.33 -20.379 207.809 12.5357 233.953 27.014C260.097 41.4923 293.012 32.0137 307.386 5.86945Z" fill="white"/>
<path d="M283.534 49.9252C294.054 30.7596 287.179 6.80274 268.118 -3.71745C249.057 -14.2376 224.996 -7.36305 214.475 11.6983C203.955 30.7597 210.83 54.8207 229.891 65.3409C248.953 75.8611 273.014 68.9865 283.534 49.9252Z" fill="white"/>
<path d="M154.062 -11.6297C167.603 -36.1074 158.75 -67.043 134.168 -80.5839C109.69 -94.1247 78.7543 -85.2711 65.2135 -60.6892C51.6726 -36.2115 60.5263 -5.27585 85.1082 8.265C109.586 21.8058 140.521 12.9522 154.062 -11.6297Z" fill="white"/>
<path d="M135.001 66.0721C142.709 52.1146 137.605 34.4073 123.647 26.6994C109.69 18.9916 92.0867 24.0954 84.2746 38.0529C76.5668 52.0104 81.6706 69.6135 95.6281 77.4256C109.586 85.1334 127.189 80.0296 135.001 66.0721Z" fill="white"/>
<path d="M321.968 36.284C328.426 24.4097 324.155 9.61897 312.385 3.05687C300.615 -3.40108 285.824 0.869501 279.262 12.6396C272.7 24.4098 276.971 39.3047 288.845 45.7626C300.615 52.3247 315.406 48.0542 321.968 36.284Z" fill="white"/>
<path d="M242.494 85.5505C256.451 60.2395 247.285 28.4706 221.974 14.5131C196.768 0.555603 164.894 9.72172 150.937 34.9285C136.979 60.2395 146.146 92.0084 171.457 105.966C196.663 119.923 228.432 110.757 242.494 85.5505Z" fill="white"/>
<path d="M102.815 5.6594C117.398 -20.9015 107.815 -54.2328 81.3582 -68.9195C54.7973 -83.6061 21.4659 -73.9191 6.77932 -47.4624C-7.90729 -20.9015 1.77964 12.4299 28.2364 27.1165C54.7973 41.6989 88.1286 32.1162 102.815 5.6594Z" fill="white"/>
<path d="M149.688 23.9902C164.271 -2.46659 154.688 -35.9021 128.231 -50.4845C101.67 -65.1712 68.339 -55.5884 53.6524 -29.0275C38.9658 -2.57072 48.6527 30.7606 75.1094 45.4472C101.67 60.1338 135.002 50.5511 149.688 23.9902Z" fill="white"/>
<path d="M260.515 44.4064C282.701 4.30462 268.119 -46.109 228.017 -68.2952C187.915 -90.4813 137.501 -75.8989 115.315 -35.7971C93.1291 4.30467 107.712 54.7183 147.813 76.9045C187.915 99.0906 238.329 84.5082 260.515 44.4064Z" fill="white"/>
</g>
</svg>
