<svg width="128" height="634" viewBox="0 0 128 634" fill="none" xmlns="http://www.w3.org/2000/svg">
<g style="mix-blend-mode:multiply">
<path d="M128 633.416L123.17 307.25H91.4091C103.411 287.531 108.241 268.25 107.948 249.992C108.046 243.273 107.509 236.749 106.338 230.419C93.7509 163.667 17.3491 111.668 -16.6073 91.3643C-22.3155 86.5442 -26.8527 83.1847 -29.1945 81.4319C-27.8773 80.2633 -26.9991 78.6566 -26.9991 76.9038C-26.9991 75.2971 -27.7309 73.9825 -28.7555 72.814C-25.3891 71.3533 -23.0473 67.9938 -23.0473 64.05C-23.0473 62.0051 -23.6328 60.1062 -24.6573 58.4995C-20.12 57.6231 -15.7291 54.9939 -12.3627 51.6344C-7.23999 46.376 -4.16638 39.657 -1.23912 33.084C-5.48366 35.7132 -9.72816 38.4884 -14.5582 39.803C-19.5345 40.9715 -24.95 40.8255 -29.0482 37.7581C-35.6346 33.084 -35.9273 22.2751 -30.5118 16.1403C-25.0964 9.85946 -15.8754 8.25274 -7.9718 10.4437C-11.1918 7.23027 -13.8264 3.57862 -18.0709 1.67976C-23.34 -0.657298 -28.7554 -0.365165 -33.7318 1.38763C-40.3182 3.72469 -46.0264 8.69094 -50.1246 13.9493C-54.0764 19.0616 -57.0036 24.4661 -55.9791 31.0391C-55.3936 35.1289 -53.3446 39.0727 -51.0027 42.5783C-47.9291 47.3985 -43.3918 52.5108 -38.1227 55.7242C-40.9036 57.477 -42.8064 60.5444 -42.8064 64.05C-42.8064 67.9938 -40.4646 71.3533 -37.0982 72.814C-38.1228 73.9825 -38.7082 75.2971 -38.7082 76.9038C-38.7082 78.6566 -37.83 80.2633 -36.6591 81.2858C-39.0009 83.0386 -43.5382 86.5442 -49.3927 91.3643C-65.9318 101.297 -92.57 118.679 -117.013 141.611C-147.456 170.24 -174.387 207.633 -174.095 249.554C-174.387 267.958 -169.411 287.385 -157.409 307.25H-163.41H-194V633.416H-155.945V634H-153.018V633.416H-113.939H-80.8609H19.2518H52.33H81.8954V634H84.8227V633.416H128Z" fill="#F5F1E3"/>
</g>
</svg>
