<svg width="136" height="652" viewBox="0 0 136 652" fill="none" xmlns="http://www.w3.org/2000/svg">
<g style="mix-blend-mode:multiply">
<path d="M330 651.399L325.05 315.973H292.5C304.8 295.694 309.75 275.866 309.45 257.09C309.55 250.18 309 243.47 307.8 236.961C294.9 168.314 216.6 114.838 181.8 93.9583C175.95 89.0013 171.3 85.5464 168.9 83.7438C170.25 82.5421 171.15 80.8898 171.15 79.0872C171.15 77.4349 170.4 76.0829 169.35 74.8812C172.8 73.3791 175.2 69.9242 175.2 65.8684C175.2 63.7655 174.6 61.8127 173.55 60.1603C178.2 59.2591 182.7 56.5552 186.15 53.1003C191.4 47.6927 194.55 40.7829 197.55 34.0233C193.2 36.7271 188.85 39.5812 183.9 40.9331C178.8 42.1348 173.25 41.9846 169.05 38.8301C162.3 34.0233 162 22.9075 167.55 16.5985C173.1 10.1394 182.55 8.48704 190.65 10.7402C187.35 7.43555 184.65 3.68022 180.3 1.72745C174.9 -0.67596 169.35 -0.375532 164.25 1.42703C157.5 3.83044 151.65 8.93768 147.45 14.3454C143.4 19.6028 140.4 25.1607 141.45 31.9203C142.05 36.1263 144.15 40.182 146.55 43.7871C149.7 48.7441 154.35 54.0016 159.75 57.3063C156.9 59.1089 154.95 62.2633 154.95 65.8684C154.95 69.9242 157.35 73.3791 160.8 74.8812C159.75 76.0829 159.15 77.4349 159.15 79.0872C159.15 80.8898 160.05 82.5421 161.25 83.5936C158.85 85.3961 154.2 89.0013 148.2 93.9583C131.25 104.173 103.95 122.048 78.9 145.632C47.7 175.073 20.1 213.528 20.4 256.639C20.1 275.566 25.2 295.544 37.5 315.973H31.35H0V651.399H39V652H42V651.399H82.05H115.95H218.55H252.45H282.75V652H285.75V651.399H330Z" fill="#F5F1E3"/>
</g>
</svg>
