<svg width="33" height="171" viewBox="0 0 33 171" fill="none" xmlns="http://www.w3.org/2000/svg">
<path fill-rule="evenodd" clip-rule="evenodd" d="M-1.51813 34.3513C-5.59685 34.3513 -8.84473 31.0367 -8.84473 27.0442C-8.84473 23.0517 -5.59685 19.8125 -1.51813 19.8125C2.48506 19.8125 5.73294 23.0517 5.73294 27.0442C5.73294 31.0367 2.48506 34.3513 -1.51813 34.3513ZM-1.51813 20.9425C-4.91707 20.9425 -7.71175 23.7297 -7.71175 27.0442C-7.71175 30.4341 -4.91707 33.2213 -1.51813 33.2213C1.80527 33.2213 4.59996 30.4341 4.59996 27.0442C4.59996 23.7297 1.80527 20.9425 -1.51813 20.9425Z" fill="#516B4C"/>
<path d="M2.5611 37.8912C2.5611 40.1511 0.748338 42.0344 -1.51762 42.0344C-3.85911 42.0344 -5.67188 40.1511 -5.67188 37.8912C-5.67188 35.6313 -3.85911 33.748 -1.51762 33.748C0.748338 33.748 2.5611 35.6313 2.5611 37.8912Z" fill="#1D313F"/>
<path d="M-17.9843 170.623H9.73589C12.3795 170.623 14.4944 167.158 14.4944 162.939V161.357H-22.8184V162.939C-22.8184 167.158 -20.6279 170.623 -17.9843 170.623Z" fill="#516B56"/>
<path d="M-26.2166 163.391H17.9695C22.1993 163.391 25.5982 160.002 25.5982 155.783V154.201H-33.9209V155.783C-33.9209 160.002 -30.4464 163.391 -26.2166 163.391Z" fill="#94A45D"/>
<path d="M-37.4717 90.6969H32.3953C32.3953 81.0546 26.1262 72.5423 18.9507 65.9132C9.28258 57.0996 -1.89615 51.6758 -1.89615 51.6758H-3.10466C-3.10466 51.6758 -11.111 55.5176 -19.344 61.996C-28.2568 68.9264 -37.4717 79.0207 -37.4717 90.6969Z" fill="#516B56"/>
<path d="M-37.4717 95.5937H32.3953V90.6973H-37.4717V95.5937Z" fill="#1B1C1E"/>
<path d="M-37.4717 95.5938C-37.3206 100.189 -37.2451 105.161 -37.094 110.208V110.283C-37.0185 114.502 -36.8674 118.72 -36.7919 122.863C-36.4142 138.005 -35.8855 151.64 -34.4504 156.009C-34.3497 156.41 -34.2238 156.712 -34.0727 156.913H25.5975C25.7989 156.712 26.0003 156.41 26.2017 156.009C28.7698 150.51 30.5826 126.856 31.5645 110.886C31.5645 110.836 31.5645 110.785 31.5645 110.735C32.1687 101.997 32.3953 95.5938 32.3953 95.5938H-37.4717Z" fill="#94A461"/>
<path d="M-18.3613 119.323V156.913H13.2865V119.323H10.1897C10.4163 118.118 10.2653 115.933 7.62165 114.125C3.61846 111.413 -1.74431 110.434 -1.74431 107.496H-3.25494C-3.25494 110.434 -8.69324 111.413 -12.6964 114.125C-15.3401 115.933 -15.4911 118.118 -15.2645 119.323H-18.3613Z" fill="#2F383F"/>
<path d="M6.41278 154.202V126.104C5.95959 125.702 5.5064 125.25 5.05321 124.748C3.76917 123.166 2.86278 121.282 2.56066 119.324C1.7298 118.872 0.823421 118.42 -0.00743008 118.043C-0.762749 117.667 -1.66913 117.29 -2.49998 116.838C-3.40637 117.29 -4.31275 117.667 -5.06807 118.043C-5.89892 118.42 -6.8053 118.872 -7.63615 119.324C-7.93828 121.282 -8.84466 123.166 -10.1287 124.748C-10.5315 125.25 -10.9847 125.702 -11.4883 126.104V154.202H6.41278Z" fill="#EFBE66"/>
<path d="M19.6309 119.324V156.914H25.5979C25.7993 156.713 26.0007 156.411 26.2021 156.01C28.7702 150.511 30.583 126.857 31.5649 110.887C29.7521 111.791 27.3351 112.77 25.3713 114.126C22.6521 115.934 22.5766 118.118 22.8032 119.324H19.6309Z" fill="#2F383F"/>
<path d="M16.9873 113.447L23.5586 106.894L16.9873 100.34L10.416 106.894L16.9873 113.447Z" fill="#EFBE66"/>
<path d="M12.6816 90.7739L13.9656 90.6986C12.0773 69.3801 -1.29182 51.5268 -1.44289 51.3008L-2.4248 52.0541C-2.27374 52.2801 10.8688 69.8321 12.6816 90.7739Z" fill="#1D313F"/>
<g style="mix-blend-mode:soft-light" opacity="0.4">
<path d="M-37.4717 90.697H32.3953C32.3953 81.0547 26.1262 72.5423 18.9507 65.9133C18.573 67.2692 17.9688 68.5498 16.9868 69.6045C15.1741 71.789 12.3039 72.919 9.50917 73.2957C6.63896 73.6723 3.76874 73.371 0.97406 72.9943C-4.16211 72.3164 -9.44934 71.4124 -13.7547 68.6252C-16.2472 67.0432 -18.2866 64.6327 -19.344 61.9961C-28.2568 68.9265 -37.4717 79.0208 -37.4717 90.697Z" fill="#1B1C1E"/>
</g>
<path d="M-6.95605 46.8546C-6.95605 49.5665 -4.76563 51.7511 -2.04648 51.7511C0.672669 51.7511 2.93863 49.5665 2.93863 46.8546C2.93863 44.1427 0.672669 41.8828 -2.04648 41.8828C-4.76563 41.8828 -6.95605 44.1427 -6.95605 46.8546Z" stroke="#516B4C" stroke-width="2" stroke-miterlimit="10"/>
<path d="M9.96231 100.49C10.2644 101.244 10.1134 102.147 9.50912 102.675C9.13146 103.127 8.5272 103.277 7.92295 103.277C6.48784 103.277 5.2038 102.072 5.43039 100.566C5.58146 99.3603 7.09209 98.9083 8.14954 99.1343C8.90486 99.2096 9.66018 99.7369 9.96231 100.49Z" fill="#2F383F"/>
</svg>
