<svg width="47" height="115" viewBox="0 0 47 115" fill="none" xmlns="http://www.w3.org/2000/svg">
<g clip-path="url(#clip0_2172_48)">
<path fill-rule="evenodd" clip-rule="evenodd" d="M18.0928 18.1877C18.0928 15.5026 20.2659 13.3242 22.9444 13.3242C25.6229 13.3242 27.8465 15.5026 27.8465 18.1877C27.8465 20.8727 25.6229 23.1018 22.9444 23.1018C20.2659 23.1018 18.0928 20.8727 18.0928 18.1877ZM18.8508 18.1877C18.8508 20.4674 20.6702 22.3418 22.9444 22.3418C25.2186 22.3418 27.0379 20.4674 27.0379 18.1877C27.0379 15.9586 25.2186 14.0841 22.9444 14.0841C20.6702 14.0841 18.8508 15.9586 18.8508 18.1877Z" fill="#516B4C"/>
<path d="M20.2148 25.4817C20.2148 27.0015 21.4277 28.268 22.9439 28.268C24.46 28.268 25.7234 27.0015 25.7234 25.4817C25.7234 23.9618 24.46 22.6953 22.9439 22.6953C21.4277 22.6953 20.2148 23.9618 20.2148 25.4817Z" fill="#1D313F"/>
<path d="M33.9616 114.747H15.4143C13.6455 114.747 12.2305 112.417 12.2305 109.58V108.516H37.1455V109.58C37.1455 112.417 35.7305 114.747 33.9616 114.747Z" fill="#516B56"/>
<path d="M39.4696 109.884H9.90508C7.07498 109.884 4.80078 107.604 4.80078 104.767V103.703H44.5739V104.767C44.5739 107.604 42.2997 109.884 39.4696 109.884Z" fill="#94A45D"/>
<path d="M47.0002 60.9962H0.25293C0.25293 54.5116 4.44755 48.7869 9.24863 44.3288C15.6669 38.4015 23.197 34.7539 23.197 34.7539H24.0056C24.0056 34.7539 29.3626 37.3376 34.8712 41.6944C40.8346 46.3552 47.0002 53.1438 47.0002 60.9962Z" fill="#516B56"/>
<path d="M47.0002 64.289H0.25293V60.9961H47.0002V64.289Z" fill="#1B1C1E"/>
<path d="M47.0002 64.2891C46.8992 67.3794 46.7981 70.723 46.7476 74.1173V74.1679C46.6465 77.0049 46.5959 79.8419 46.5454 82.6283C46.2422 92.8111 45.8884 101.981 44.9787 104.919C44.8777 105.189 44.7934 105.392 44.726 105.527H4.80132C4.66655 105.392 4.53178 105.189 4.39702 104.919C2.67874 101.221 1.46583 85.3133 0.808844 74.5732C0.775152 74.5394 0.758306 74.5057 0.758306 74.4719C0.404543 68.5952 0.25293 64.2891 0.25293 64.2891H47.0002Z" fill="#94A461"/>
<path d="M34.2141 80.2467V105.526H12.9883V80.2467H15.1109C14.9592 79.4361 15.0603 77.967 16.8291 76.7511C19.5076 74.9273 23.0958 74.2687 23.0958 72.293H24.1066C24.1066 74.2687 27.7453 74.9273 30.4238 76.7511C32.1926 77.967 32.2431 79.4361 32.142 80.2467H34.2141Z" fill="#2F383F"/>
<path d="M17.6377 103.702V84.8055C17.9409 84.5353 18.2273 84.2313 18.4968 83.8936C19.4065 82.8297 20.013 81.5632 20.2151 80.246C20.7205 79.9421 21.3269 79.6381 21.9334 79.3848C22.4388 79.1315 22.9947 78.8782 23.6011 78.5742C24.2076 78.8782 24.814 79.1315 25.2689 79.3848C25.8753 79.6381 26.4818 79.9421 27.0377 80.246C27.2398 81.5632 27.7958 82.8297 28.7054 83.8936C28.975 84.2313 29.2782 84.5353 29.6151 84.8055V103.702H17.6377Z" fill="#EFBE66"/>
<path d="M8.79354 80.2463V105.526H4.80107C4.6663 105.391 4.53153 105.188 4.39677 104.918C2.67849 101.22 1.46558 85.3124 0.808594 74.5723C2.0215 75.1802 3.58816 75.8388 4.95268 76.7507C6.7215 77.9665 6.82257 79.4357 6.67096 80.2463H8.79354Z" fill="#2F383F"/>
<path d="M46.7472 74.168C46.6461 77.005 46.5955 79.842 46.545 82.6283C46.2418 92.8111 45.888 101.981 44.9783 104.919C44.8773 105.189 44.793 105.392 44.7257 105.527H38.0547V80.2473H40.1773C40.0257 79.4367 40.1267 77.9675 41.8955 76.7517C43.5128 75.6371 45.4332 74.9785 46.7472 74.168Z" fill="#2F383F"/>
<path d="M10.512 76.2955L6.11523 71.888L10.512 67.4805L14.9593 71.888L10.512 76.2955Z" fill="#EFBE66"/>
<path d="M37.095 76.2955L32.6982 71.888L37.095 67.4805L41.5423 71.888L37.095 76.2955Z" fill="#EFBE66"/>
<path d="M13.4431 61.0463L12.584 60.9956C13.8474 46.6586 22.7926 34.652 22.8937 34.5L23.5507 35.0066C23.4496 35.1586 14.656 46.9626 13.4431 61.0463Z" fill="#1D313F"/>
<path d="M33.4054 61.0463C32.1925 46.9626 23.3484 35.1586 23.2979 35.0066L23.9548 34.5C24.0559 34.652 33.0011 46.6586 34.214 60.9956L33.4054 61.0463Z" fill="#1D313F"/>
<g style="mix-blend-mode:soft-light" opacity="0.4">
<path d="M47.0002 60.9951H0.25293C0.25293 54.5105 4.44755 48.7859 9.24863 44.3277C9.50132 45.2396 9.90562 46.1008 10.5121 46.8101C11.7755 48.2793 13.6959 49.0392 15.5658 49.2925C17.4863 49.5458 19.4067 49.3431 21.2766 49.0898C24.7131 48.6339 28.2508 48.026 31.1314 46.1515C32.7486 45.0876 34.1637 43.4665 34.8712 41.6934C40.8346 46.3542 47.0002 53.1427 47.0002 60.9951Z" fill="#1B1C1E"/>
</g>
<path d="M26.5823 31.5116C26.5823 33.3354 25.1168 34.8045 23.2974 34.8045C21.4275 34.8045 19.9619 33.3354 19.9619 31.5116C19.9619 29.6878 21.4275 28.168 23.2974 28.168C25.1168 28.168 26.5823 29.6878 26.5823 31.5116Z" stroke="#516B4C" stroke-width="2" stroke-miterlimit="10"/>
<path d="M15.2622 67.5825C15.0601 68.0891 15.1611 68.697 15.5149 69.0516C15.8181 69.3556 16.2224 69.4569 16.6267 69.4569C17.5869 69.4569 18.3955 68.6463 18.2945 67.6331C18.1934 66.8226 17.1826 66.5186 16.4751 66.6706C15.9192 66.7212 15.4644 67.0759 15.2622 67.5825Z" fill="#2F383F"/>
<path d="M28.6044 67.5825C28.4527 68.0891 28.5538 68.697 28.9076 69.0516C29.1603 69.3556 29.5646 69.4569 29.9689 69.4569C30.9291 69.4569 31.7882 68.6463 31.6872 67.6331C31.5861 66.8226 30.5753 66.5186 29.8678 66.6706C29.3119 66.7212 28.8065 67.0759 28.6044 67.5825Z" fill="#2F383F"/>
<path d="M23.0957 11.3981V-1.875" stroke="#516B4C" stroke-width="4" stroke-linecap="round" stroke-linejoin="round"/>
</g>
<defs>
<clipPath id="clip0_2172_48">
<rect width="47" height="115" fill="white"/>
</clipPath>
</defs>
</svg>
