<svg width="66" height="175" viewBox="0 0 66 175" fill="none" xmlns="http://www.w3.org/2000/svg">
<g clip-path="url(#clip0_2172_74)">
<path fill-rule="evenodd" clip-rule="evenodd" d="M25.0332 38.0997C25.0332 34.285 28.0975 31.1855 31.8689 31.1855C35.6403 31.1855 38.7046 34.285 38.7046 38.0997C38.7046 41.8667 35.6403 44.9662 31.8689 44.9662C28.0975 44.9662 25.0332 41.8667 25.0332 38.0997ZM26.1175 38.0997C26.1175 41.2945 28.7103 43.9172 31.8689 43.9172C35.0275 43.9172 37.6203 41.2945 37.6203 38.0997C37.6203 34.8572 35.0275 32.2346 31.8689 32.2346C28.7103 32.2346 26.1175 34.8572 26.1175 38.0997Z" fill="#516B4C"/>
<path d="M28.0029 48.3515C28.0029 50.545 29.7472 52.3093 31.8686 52.3093C34.0372 52.3093 35.7344 50.545 35.7344 48.3515C35.7344 46.2057 34.0372 44.4414 31.8686 44.4414C29.7472 44.4414 28.0029 46.2057 28.0029 48.3515Z" fill="#1D313F"/>
<path d="M47.3315 174.713H21.3086C18.8572 174.713 16.8301 171.471 16.8301 167.418V165.939H51.8101V167.418C51.8101 171.471 49.7829 174.713 47.3315 174.713Z" fill="#516B56"/>
<path d="M55.0626 167.848H13.5768C9.61685 167.848 6.41113 164.606 6.41113 160.6V159.074H62.2283V160.6C62.2283 164.606 59.0226 167.848 55.0626 167.848Z" fill="#94A45D"/>
<path d="M65.6229 98.6575H0C0 89.4545 5.89286 81.3482 12.6814 75.054C21.6857 66.6139 32.2457 61.5117 32.2457 61.5117H33.3771C33.3771 61.5117 40.8729 65.1357 48.6043 71.2869C56.9486 77.9627 65.6229 87.4995 65.6229 98.6575Z" fill="#94A461"/>
<path d="M65.6229 103.284H0V98.6582H65.6229V103.284Z" fill="#516B56"/>
<path d="M65.6229 103.283C65.4814 107.67 65.34 112.391 65.2457 117.207V117.302C65.1514 121.308 65.0571 125.313 64.9629 129.271C64.5857 143.719 64.0671 156.689 62.7471 160.79C62.6529 161.171 62.5271 161.473 62.37 161.696H6.41143C6.22286 161.505 5.98714 161.219 5.84571 160.79C3.44143 155.592 1.69714 133.086 0.801429 117.827C0.77 117.795 0.754286 117.763 0.754286 117.731C0.282857 109.434 0 103.283 0 103.283H65.6229Z" fill="#2F383F"/>
<path d="M47.7083 125.886V161.697H17.9141V125.886H20.8841C20.6955 124.742 20.7898 122.691 23.2883 120.927C27.0126 118.352 32.1041 117.398 32.1041 114.633H33.5183C33.5183 117.398 38.5626 118.352 42.3341 120.927C44.8326 122.691 44.9269 124.742 44.7383 125.886H47.7083Z" fill="#EFBE66"/>
<g style="mix-blend-mode:soft-light" opacity="0.8">
<path d="M24.4199 159.074V132.323C24.8599 131.942 25.2685 131.529 25.6456 131.084C26.9185 129.605 27.7199 127.794 28.0028 125.886C28.7571 125.457 29.6056 125.076 30.4542 124.646C31.1614 124.313 31.9628 123.931 32.8113 123.502C33.6599 123.931 34.4614 124.313 35.1685 124.646C35.9699 125.076 36.8185 125.457 37.5728 125.886C37.9028 127.794 38.7042 129.605 39.9771 131.084C40.3542 131.529 40.7628 131.942 41.2028 132.323V159.074H24.4199Z" fill="#1B1C1E"/>
</g>
<path d="M11.9746 125.885V161.695H6.41176C6.22319 161.505 5.98747 161.219 5.84604 160.789C3.44176 155.592 1.69747 133.085 0.801758 117.826C2.4989 118.732 4.76176 119.638 6.60033 120.926C9.14604 122.69 9.24033 124.74 9.05176 125.885H11.9746Z" fill="#EFBE66"/>
<path d="M65.2459 117.303C65.1516 121.308 65.0573 125.314 64.963 129.271C64.5859 143.72 64.0673 156.69 62.7473 160.79C62.653 161.172 62.5273 161.474 62.3702 161.696H53.083V125.886H56.053C55.8173 124.741 55.9587 122.691 58.4573 120.927C60.673 119.401 63.4073 118.399 65.2459 117.303Z" fill="#EFBE66"/>
<path d="M14.4726 120.259L8.29688 114.012L14.4726 107.766L20.6483 114.012L14.4726 120.259Z" fill="#516B56"/>
<path d="M51.7626 120.259L45.5869 114.012L51.7626 107.766L57.9383 114.012L51.7626 120.259Z" fill="#516B56"/>
<path d="M18.5272 98.705L17.3486 98.6096C19.0929 78.3439 31.6329 61.3208 31.7743 61.1777L32.7172 61.893C32.5758 62.036 20.2243 78.7731 18.5272 98.705Z" fill="#516B4C"/>
<path d="M46.5298 98.705C44.7856 78.7731 32.4341 62.036 32.3398 61.893L33.2827 61.1777C33.377 61.3208 45.9641 78.3439 47.7084 98.6096L46.5298 98.705Z" fill="#516B4C"/>
<g style="mix-blend-mode:soft-light" opacity="0.4">
<path d="M65.6229 98.6577H0C0 89.4547 5.89286 81.3484 12.6814 75.0541C13.0114 76.3416 13.5771 77.5337 14.4257 78.5828C16.2171 80.6332 18.8571 81.7299 21.4971 82.1114C24.1843 82.4451 26.8714 82.1114 29.5114 81.7776C34.32 81.11 39.27 80.2994 43.3243 77.6291C45.6343 76.1032 47.5671 73.8144 48.6043 71.2871C56.9486 77.9629 65.6229 87.4996 65.6229 98.6577Z" fill="#1B1C1E"/>
</g>
<path d="M36.96 56.8879C36.96 59.5105 34.8857 61.6086 32.34 61.6086C29.7471 61.6086 27.6729 59.5105 27.6729 56.8879C27.6729 54.3129 29.7471 52.2148 32.34 52.2148C34.8857 52.2148 36.96 54.3129 36.96 56.8879Z" stroke="#516B4C" stroke-width="2" stroke-miterlimit="10"/>
<path d="M21.0733 108.003C20.7905 108.671 20.979 109.529 21.4505 110.054C21.8748 110.435 22.3933 110.673 22.959 110.673C24.3262 110.626 25.5048 109.434 25.3633 108.051C25.2219 106.906 23.7605 106.477 22.7705 106.62C22.0162 106.763 21.3562 107.288 21.0733 108.003Z" fill="#EFBE66"/>
<path d="M39.8356 108.003C39.5528 108.671 39.6942 109.529 40.2128 110.054C40.5899 110.435 41.1556 110.673 41.7213 110.673C43.0885 110.626 44.267 109.434 44.0785 108.051C43.9842 106.906 42.5227 106.477 41.5327 106.62C40.7785 106.763 40.1185 107.288 39.8356 108.003Z" fill="#EFBE66"/>
<path d="M31.8682 26.1777V-1.33594" stroke="#516B4C" stroke-width="4" stroke-linecap="round" stroke-linejoin="round"/>
</g>
<defs>
<clipPath id="clip0_2172_74">
<rect width="66" height="175" fill="white"/>
</clipPath>
</defs>
</svg>
