<svg width="43" height="192" viewBox="0 0 43 192" fill="none" xmlns="http://www.w3.org/2000/svg">
<path fill-rule="evenodd" clip-rule="evenodd" d="M37.5949 49.3342C33.4235 49.3342 30.0342 45.9336 30.0342 41.8007C30.0342 37.6154 33.4235 34.2148 37.5949 34.2148C41.7142 34.2148 45.1035 37.6154 45.1035 41.8007C45.1035 45.9336 41.7142 49.3342 37.5949 49.3342ZM37.5949 35.3658C34.0492 35.3658 31.2335 38.2432 31.2335 41.8007C31.2335 45.3059 34.0492 48.1832 37.5949 48.1832C41.0885 48.1832 43.9563 45.3059 43.9563 41.8007C43.9563 38.2432 41.0885 35.3658 37.5949 35.3658Z" fill="#516B4C"/>
<path d="M41.8712 53.0477C41.8712 55.4543 39.9419 57.39 37.5954 57.39C35.1969 57.39 33.2676 55.4543 33.2676 53.0477C33.2676 50.6935 35.1969 48.7578 37.5954 48.7578C39.9419 48.7578 41.8712 50.6935 41.8712 53.0477Z" fill="#1D313F"/>
<path d="M20.4917 191.687H49.2745C51.9859 191.687 54.2281 188.129 54.2281 183.682V182.061H15.5381V183.682C15.5381 188.129 17.7802 191.687 20.4917 191.687Z" fill="#516B56"/>
<path d="M11.9404 184.153H57.8261C62.2061 184.153 65.7518 180.596 65.7518 176.201V174.527H4.01465V176.201C4.01465 180.596 7.56036 184.153 11.9404 184.153Z" fill="#94A45D"/>
<path d="M0.260742 108.243H72.8436C72.8436 98.1455 66.3257 89.2518 58.8172 82.346C48.8579 73.0861 37.1779 67.4883 37.1779 67.4883H35.9265C35.9265 67.4883 27.6357 71.4643 19.0843 78.2131C9.85503 85.5373 0.260742 96.0005 0.260742 108.243Z" fill="#94A461"/>
<path d="M0.260742 113.317H72.8436V108.242H0.260742V113.317Z" fill="#516B56"/>
<path d="M0.260742 113.316C0.417171 118.129 0.573599 123.309 0.677885 128.593V128.697C0.782171 133.092 0.886456 137.486 0.990742 141.829C1.40789 157.68 1.92931 171.91 3.38931 176.41C3.52836 176.828 3.66741 177.159 3.80646 177.404H65.7522C65.9607 177.194 66.1693 176.88 66.3779 176.41C69.0372 170.707 70.9665 146.014 71.9572 129.273C71.9919 129.238 71.9919 129.203 71.9572 129.168C72.5307 120.065 72.8436 113.316 72.8436 113.316H0.260742Z" fill="#2F383F"/>
<path d="M20.0752 138.114V177.404H53.0295V138.114H49.7445C49.9531 136.859 49.8488 134.609 47.0852 132.673C42.9659 129.848 37.3345 128.802 37.3345 125.768H35.7702C35.7702 128.802 30.1388 129.848 26.0195 132.673C23.2559 134.609 23.1516 136.859 23.3602 138.114H20.0752Z" fill="#EFBE66"/>
<g style="mix-blend-mode:soft-light" opacity="0.8">
<path d="M45.8334 174.526V145.177C45.3467 144.758 44.8948 144.305 44.4777 143.816C43.0698 142.195 42.1834 140.206 41.8705 138.114C40.9841 137.643 40.0455 137.224 39.1591 136.754C38.3769 136.387 37.4905 135.969 36.5519 135.498C35.6134 135.969 34.7269 136.387 33.9448 136.754C33.0584 137.224 32.0677 137.643 31.2334 138.114C30.9205 140.206 30.0341 142.195 28.6262 143.816C28.2091 144.305 27.7572 144.758 27.2705 145.177V174.526H45.8334Z" fill="#1B1C1E"/>
</g>
<path d="M0.677734 128.697C0.78202 133.092 0.886306 137.486 0.990592 141.829C1.40773 157.68 1.92916 171.91 3.38916 176.41C3.52821 176.828 3.66726 177.159 3.80631 177.404H14.1306V138.114H10.8456C11.1063 136.859 10.9499 134.609 8.18631 132.673C5.68345 130.999 2.71131 129.901 0.677734 128.697Z" fill="#EFBE66"/>
<path d="M15.5905 131.941L22.4212 125.088L15.5905 118.234L8.75977 125.088L15.5905 131.941Z" fill="#516B56"/>
<path d="M52.3512 108.294L53.6548 108.189C51.7255 85.9549 37.8555 67.278 37.6991 67.1211L36.6562 67.9058C36.8127 68.0628 50.4741 86.4257 52.3512 108.294Z" fill="#516B4C"/>
<path d="M21.3788 108.294C23.2559 86.4257 36.9173 68.0628 37.0738 67.9058L36.0309 67.1211C35.8745 67.278 22.0045 85.9549 20.0752 108.189L21.3788 108.294Z" fill="#516B4C"/>
<g style="mix-blend-mode:soft-light" opacity="0.4">
<path d="M0.260742 108.242H72.8436C72.8436 98.1453 66.3257 89.2516 58.8172 82.3459C58.4522 83.7584 57.8265 85.0663 56.8357 86.2173C54.9065 88.4668 51.9865 89.6701 49.0143 90.0886C46.0943 90.4549 43.1222 90.0886 40.15 89.7224C34.8315 88.99 29.3565 88.1006 24.8722 85.1709C22.3693 83.4968 20.2315 80.9856 19.0843 78.2129C9.85503 85.5371 0.260742 96.0004 0.260742 108.242Z" fill="#1B1C1E"/>
</g>
<path d="M31.9639 62.4121C31.9639 65.2895 34.2582 67.5914 37.0739 67.5914C39.8896 67.5914 42.1839 65.2895 42.1839 62.4121C42.1839 59.5871 39.8896 57.2852 37.0739 57.2852C34.2582 57.2852 31.9639 59.5871 31.9639 62.4121Z" stroke="#516B4C" stroke-width="2" stroke-miterlimit="10"/>
<path d="M28.7832 118.496C29.0439 119.228 28.8874 120.17 28.366 120.745C27.8967 121.164 27.271 121.425 26.6974 121.425C25.1853 121.373 23.8817 120.065 24.0382 118.548C24.1946 117.292 25.7589 116.821 26.906 116.978C27.6882 117.135 28.4703 117.711 28.7832 118.496Z" fill="#EFBE66"/>
</svg>
