<svg width="430" height="391" viewBox="0 0 430 391" fill="none" xmlns="http://www.w3.org/2000/svg">
<g style="mix-blend-mode:multiply">
<path d="M413 358.669L410.27 173.953H392.318C399.102 162.785 401.832 151.866 401.749 141.526C401.749 137.776 401.418 134.081 400.756 130.441C393.725 92.6377 350.541 63.1889 331.265 51.6907C328.039 49.0436 325.557 47.0583 324.151 46.0656C324.895 45.4866 325.392 44.5767 325.392 43.5013C325.392 42.6741 325.061 41.8469 324.482 41.2678C326.302 40.3579 327.625 38.4553 327.625 36.2218C327.625 35.0637 327.295 33.9883 326.715 33.1611C329.28 32.5821 331.845 31.0931 333.665 29.1905C336.56 26.2953 338.297 22.4901 340.035 18.7676C337.635 20.2566 335.154 21.7456 332.424 22.4901C329.694 23.2346 326.55 23.0691 324.234 21.4147C320.511 18.6849 320.345 12.5636 323.406 9.08926C326.467 5.61497 331.679 4.62232 336.146 5.86313C334.326 4.12599 332.92 1.97524 330.521 0.982582C327.46 -0.340957 324.399 -0.258236 321.586 0.81714C317.946 2.14068 314.637 4.87048 312.321 7.93116C310.087 10.7437 308.433 13.8044 309.012 17.5268C309.425 19.9257 310.501 22.0765 311.825 24.0618C313.645 26.7916 316.126 29.6868 319.105 31.5067C317.533 32.4994 316.54 34.2365 316.54 36.2218C316.54 38.4553 317.864 40.3579 319.684 41.2678C319.105 41.8469 318.774 42.6741 318.774 43.5013C318.774 44.4939 319.27 45.4039 319.932 45.9829C318.608 46.9756 316.044 48.9609 312.735 51.6907C303.386 57.3157 288.33 67.1596 274.515 80.2295C257.307 96.4429 242.085 117.537 242.334 141.36C242.168 151.783 244.898 162.703 251.765 173.953H248.29H231V358.669H252.509V359H254.164V358.669H276.335H294.948H351.534H370.23H386.941V359H388.595V358.669H413Z" fill="#F2EACD"/>
</g>
<g style="mix-blend-mode:multiply">
<path d="M199 358.669L196.27 173.953H178.318C185.102 162.785 187.832 151.866 187.749 141.526C187.749 137.776 187.418 134.081 186.756 130.441C179.725 92.6377 136.541 63.1889 117.265 51.6907C114.039 49.0436 111.557 47.0583 110.151 46.0656C110.895 45.4866 111.392 44.5767 111.392 43.5013C111.392 42.6741 111.061 41.8469 110.482 41.2678C112.302 40.3579 113.625 38.4553 113.625 36.2218C113.625 35.0637 113.295 33.9883 112.715 33.1611C115.28 32.5821 117.845 31.0931 119.665 29.1905C122.56 26.2953 124.297 22.4901 126.035 18.7676C123.635 20.2566 121.154 21.7456 118.424 22.4901C115.694 23.2346 112.55 23.0691 110.234 21.4147C106.511 18.6849 106.345 12.5636 109.406 9.08926C112.467 5.61497 117.679 4.62232 122.146 5.86313C120.326 4.12599 118.92 1.97524 116.521 0.982582C113.46 -0.340957 110.399 -0.258236 107.586 0.81714C103.946 2.14068 100.637 4.87048 98.3209 7.93116C96.0873 10.7437 94.4327 13.8044 95.0118 17.5268C95.4254 19.9257 96.5009 22.0765 97.8245 24.0618C99.6445 26.7916 102.126 29.6868 105.105 31.5067C103.533 32.4994 102.54 34.2365 102.54 36.2218C102.54 38.4553 103.864 40.3579 105.684 41.2678C105.105 41.8469 104.774 42.6741 104.774 43.5013C104.774 44.4939 105.27 45.4039 105.932 45.9829C104.608 46.9756 102.044 48.9609 98.7345 51.6907C89.3864 57.3157 74.33 67.1596 60.5145 80.2295C43.3073 96.4429 28.0854 117.537 28.3336 141.36C28.1681 151.783 30.8982 162.703 37.7645 173.953H34.29H17V358.669H38.5091V359H40.1636V358.669H62.3345H80.9482H137.534H156.23H172.941V359H174.595V358.669H199Z" fill="#F2EACD"/>
</g>
<g clip-path="url(#clip0_2186_776)">
<path d="M432.007 106.299V359H381.545V106.299H432.007Z" fill="#516B56"/>
<path d="M434.357 106.298H378.859C369.517 90.0231 377.741 75.3092 387.643 65.054C389.153 63.4377 390.664 61.9886 392.23 60.6509C399.615 54.0742 406.608 50.2285 406.608 50.2285C406.608 50.2285 421.937 58.7002 431.28 71.9093C434.581 76.4796 437.098 81.6072 438.049 87.1249C439.056 93.1443 438.217 99.6095 434.357 106.298Z" fill="#94A461"/>
<path d="M396.146 106.298C396.146 106.298 389.041 76.3124 406.607 50.2285C406.607 50.2285 373.432 75.9222 383.782 106.298" stroke="#516B4C" stroke-width="2" stroke-linecap="round" stroke-linejoin="round"/>
<path d="M417.069 106.298C417.069 106.298 424.174 76.3124 406.607 50.2285C406.607 50.2285 439.783 75.9222 429.433 106.298" stroke="#516B4C" stroke-width="2" stroke-linecap="round" stroke-linejoin="round"/>
<path d="M434.021 191.015H379.195C376.733 191.015 374.775 189.008 374.775 186.612V185.274C374.775 182.822 376.733 180.871 379.195 180.871H434.021C436.483 180.871 438.441 182.822 438.441 185.274V186.612C438.441 189.008 436.483 191.015 434.021 191.015Z" fill="#2F383F"/>
<path d="M434.021 268.599H379.195C376.733 268.599 374.775 266.592 374.775 264.14V262.858C374.775 260.406 376.733 258.455 379.195 258.455H434.021C436.483 258.455 438.441 260.406 438.441 262.858V264.14C438.441 266.592 436.483 268.599 434.021 268.599Z" fill="#2F383F"/>
<path d="M418.916 164.82H395.587C395.587 164.82 393.405 153.227 394.244 143.752C395.027 134.277 401.293 128.592 407.279 122.35C407.279 122.35 407.615 122.628 408.174 123.13C410.804 125.526 418.244 132.939 418.916 141.299C419.083 143.362 419.139 146.316 419.139 149.437C419.195 156.682 418.916 164.82 418.916 164.82Z" fill="#EFBE66"/>
<path d="M418.916 245.97H395.587C395.587 245.97 393.405 234.321 394.244 224.846C394.915 216.932 399.391 211.693 404.37 206.51C405.321 205.506 406.272 204.503 407.279 203.5C407.279 203.5 418.132 212.306 418.916 222.45C419.027 223.565 419.083 224.902 419.139 226.407C419.307 234.266 418.916 245.97 418.916 245.97Z" fill="#EFBE66"/>
<path d="M381.488 298.919C381.787 298.919 382.066 298.919 382.327 298.919C387.195 299.141 392.398 297.971 396.202 294.961M396.202 294.961C395.139 294.46 394.188 293.791 393.349 292.955C391.391 291.004 390.439 287.939 391.502 285.431C392.565 282.867 395.922 281.362 398.328 282.755C400.006 283.647 400.845 285.654 400.733 287.604C400.621 289.499 399.726 291.227 398.496 292.732C397.824 293.568 397.041 294.293 396.202 294.961ZM396.202 294.961C397.6 295.63 399.223 296.02 400.789 296.243C405.88 296.968 411.251 295.574 415.447 292.676M415.447 292.676C414.104 291.171 413.041 289.388 412.706 287.381C412.314 285.263 412.929 282.811 414.664 281.474C416.398 280.08 419.195 280.136 420.594 281.864C422.384 284.149 420.929 287.437 418.971 289.611C417.964 290.781 416.734 291.784 415.447 292.676ZM415.447 292.676C415.596 292.825 415.727 292.973 415.838 293.122C419.139 296.633 423.783 298.974 428.594 299.532C429.75 299.68 430.888 299.717 432.007 299.643" stroke="#1D313F" stroke-width="3" stroke-miterlimit="10"/>
<path d="M381.488 334.309C381.787 334.346 382.066 334.365 382.327 334.365C387.251 334.588 392.398 333.361 396.202 330.408M396.202 330.408C395.139 329.906 394.188 329.237 393.349 328.401C391.391 326.45 390.439 323.385 391.502 320.877C392.565 318.313 395.922 316.808 398.328 318.146C400.006 319.093 400.845 321.1 400.733 322.995C400.621 324.89 399.726 326.673 398.496 328.122C397.824 328.977 397.06 329.739 396.202 330.408ZM396.202 330.408C397.6 331.076 399.223 331.466 400.789 331.689C405.88 332.358 411.251 331.021 415.447 328.067M415.447 328.067C414.104 326.562 413.041 324.834 412.706 322.828C412.314 320.654 412.929 318.257 414.664 316.864C416.398 315.526 419.195 315.582 420.594 317.31C422.384 319.539 420.929 322.883 418.971 325.001C417.964 326.172 416.734 327.231 415.447 328.067ZM415.447 328.067C415.596 328.215 415.727 328.364 415.838 328.513C419.139 332.08 423.783 334.42 428.594 334.978C429.75 335.089 430.888 335.108 432.007 335.034" stroke="#94A461" stroke-width="3" stroke-miterlimit="10"/>
<g style="mix-blend-mode:soft-light" opacity="0.4">
<path d="M434.357 106.299H378.859C369.517 90.0246 377.741 75.3106 387.643 65.0554C389.153 63.4391 390.664 61.99 392.23 60.6523C392.193 61.0239 392.193 61.3955 392.23 61.767C392.398 66.2258 395.251 70.3502 399 72.8025C402.748 75.3106 407.279 76.3138 411.755 76.7597C418.189 77.317 425.07 76.481 430.273 72.6911C430.646 72.431 430.981 72.1709 431.28 71.9108C434.581 76.481 437.098 81.6086 438.049 87.1264C439.056 93.1457 438.217 99.6109 434.357 106.299Z" fill="#1B1C1E"/>
</g>
<path d="M434.021 113.433H379.195C376.733 113.433 374.775 111.426 374.775 109.03V107.692C374.775 105.296 376.733 103.289 379.195 103.289H434.021C436.483 103.289 438.441 105.296 438.441 107.692V109.03C438.441 111.426 436.483 113.433 434.021 113.433Z" fill="#2F383F"/>
<g style="mix-blend-mode:soft-light" opacity="0.4">
<path d="M409.126 113.434V359.001H381.545V113.434H409.126Z" fill="#1B1C1E"/>
</g>
<g style="mix-blend-mode:soft-light" opacity="0.8">
<path d="M419.139 149.437C419.195 156.682 418.916 164.82 418.916 164.82H395.587C395.587 164.82 393.405 153.227 394.244 143.752C395.027 134.277 401.293 128.592 407.279 122.35C407.279 122.35 407.615 122.628 408.174 123.13C407.279 124.022 405.824 124.969 405.265 125.582C402.636 128.425 400.622 131.936 400.062 135.782C399.279 141.076 401.685 147.04 406.552 149.381C410.412 151.276 414.888 150.663 419.139 149.437Z" fill="#1B1C1E"/>
</g>
<g style="mix-blend-mode:soft-light" opacity="0.8">
<path d="M427.755 143.864C427.718 143.604 427.681 143.344 427.644 143.084C427.718 143.344 427.755 143.604 427.755 143.864Z" fill="#1B1C1E"/>
</g>
<g style="mix-blend-mode:soft-light" opacity="0.8">
<path d="M418.916 245.97H395.587C395.587 245.97 393.405 234.321 394.244 224.847C394.915 216.932 399.391 211.693 404.37 206.51C402.692 211.526 402.747 216.988 406.272 221.335C409.349 225.069 414.328 226.853 419.139 226.407C419.307 234.266 418.916 245.97 418.916 245.97Z" fill="#1B1C1E"/>
</g>
<path d="M-1.0625 106.299V359H49.3998V106.299H-1.0625Z" fill="#516B56"/>
<path d="M-3.41295 106.298H52.0844C61.4272 90.0231 53.2033 75.3092 43.3011 65.054C41.7906 63.4377 40.28 61.9886 38.7136 60.6509C31.3289 54.0742 24.3357 50.2285 24.3357 50.2285C24.3357 50.2285 9.00683 58.7002 -0.335978 71.9093C-3.63673 76.4796 -6.15425 81.6072 -7.10531 87.1249C-8.11232 93.1443 -7.27315 99.6095 -3.41295 106.298Z" fill="#94A461"/>
<path d="M34.7976 106.298C34.7976 106.298 41.9026 76.3124 24.3359 50.2285C24.3359 50.2285 57.5113 75.9222 47.1615 106.298" stroke="#516B4C" stroke-width="2" stroke-linecap="round" stroke-linejoin="round"/>
<path d="M13.8742 106.298C13.8742 106.298 6.76924 76.3124 24.3359 50.2285C24.3359 50.2285 -8.8394 75.9222 1.51041 106.298" stroke="#516B4C" stroke-width="2" stroke-linecap="round" stroke-linejoin="round"/>
<path d="M-3.07644 191.015H51.7496C54.2112 191.015 56.1692 189.008 56.1692 186.612V185.274C56.1692 182.822 54.2112 180.871 51.7496 180.871H-3.07644C-5.53802 180.871 -7.49609 182.822 -7.49609 185.274V186.612C-7.49609 189.008 -5.53802 191.015 -3.07644 191.015Z" fill="#2F383F"/>
<path d="M-3.07644 268.599H51.7496C54.2112 268.599 56.1692 266.592 56.1692 264.14V262.858C56.1692 260.406 54.2112 258.455 51.7496 258.455H-3.07644C-5.53802 258.455 -7.49609 260.406 -7.49609 262.858V264.14C-7.49609 266.592 -5.53802 268.599 -3.07644 268.599Z" fill="#2F383F"/>
<path d="M12.0281 164.82H35.3571C35.3571 164.82 37.5389 153.227 36.6998 143.752C35.9165 134.277 29.6507 128.592 23.6646 122.35C23.6646 122.35 23.3289 122.628 22.7695 123.13C20.1401 125.526 12.6994 132.939 12.0281 141.299C11.8602 143.362 11.8043 146.316 11.8043 149.437C11.7483 156.682 12.0281 164.82 12.0281 164.82Z" fill="#EFBE66"/>
<path d="M12.0283 245.97H35.3573C35.3573 245.97 37.5392 234.321 36.7 224.846C36.0287 216.932 31.5531 211.693 26.574 206.51C25.6229 205.506 24.6718 204.503 23.6648 203.5C23.6648 203.5 12.8115 212.306 12.0283 222.45C11.9164 223.565 11.8605 224.902 11.8045 226.407C11.6367 234.266 12.0283 245.97 12.0283 245.97Z" fill="#EFBE66"/>
<path d="M-1.0625 299.643C0.0563986 299.717 1.19395 299.68 2.35014 299.532C7.16141 298.974 11.8048 296.633 15.1056 293.122C15.2175 292.973 15.348 292.825 15.4972 292.676M15.4972 292.676C14.2105 291.784 12.9797 290.781 11.9727 289.611C10.0146 287.437 8.56003 284.149 10.3503 281.864C11.7489 280.136 14.5461 280.08 16.2804 281.474C18.0147 282.811 18.6301 285.263 18.2385 287.381C17.9028 289.388 16.8399 291.171 15.4972 292.676ZM15.4972 292.676C19.6931 295.574 25.0638 296.968 30.1548 296.243C31.7212 296.02 33.3436 295.63 34.7423 294.961M34.7423 294.961C33.9031 294.293 33.1199 293.568 32.4485 292.732C31.2177 291.227 30.3226 289.499 30.2107 287.604C30.0988 285.654 30.938 283.647 32.6163 282.755C35.022 281.362 38.3787 282.867 39.4416 285.431C40.5046 287.939 39.5535 291.004 37.5954 292.955C36.7563 293.791 35.8052 294.46 34.7423 294.961ZM34.7423 294.961C38.5465 297.971 43.7494 299.141 48.6166 298.919C48.8777 298.919 49.1574 298.919 49.4558 298.919" stroke="#1D313F" stroke-width="3" stroke-miterlimit="10"/>
<path d="M-1.0625 335.034C0.0563986 335.108 1.19395 335.089 2.35014 334.978C7.16141 334.42 11.8048 332.08 15.1056 328.513C15.2175 328.364 15.348 328.215 15.4972 328.067M15.4972 328.067C14.2105 327.231 12.9797 326.172 11.9727 325.001C10.0146 322.883 8.56003 319.539 10.3503 317.31C11.7489 315.582 14.5461 315.526 16.2804 316.864C18.0147 318.257 18.6301 320.654 18.2385 322.828C17.9028 324.834 16.8399 326.562 15.4972 328.067ZM15.4972 328.067C19.6931 331.021 25.0638 332.358 30.1548 331.689C31.7212 331.466 33.3436 331.076 34.7423 330.408M34.7423 330.408C33.8844 329.739 33.1199 328.977 32.4485 328.122C31.2177 326.673 30.3226 324.89 30.2107 322.995C30.0988 321.1 30.938 319.093 32.6163 318.146C35.022 316.808 38.3787 318.313 39.4416 320.877C40.5046 323.385 39.5535 326.45 37.5954 328.401C36.7563 329.237 35.8052 329.906 34.7423 330.408ZM34.7423 330.408C38.5465 333.361 43.6934 334.588 48.6166 334.365C48.8777 334.365 49.1574 334.346 49.4558 334.309" stroke="#94A461" stroke-width="3" stroke-miterlimit="10"/>
<g style="mix-blend-mode:soft-light" opacity="0.4">
<path d="M-3.41295 106.299H52.0844C61.4272 90.0246 53.2033 75.3106 43.3011 65.0554C41.7906 63.4391 40.28 61.99 38.7136 60.6523C38.7509 61.0239 38.7509 61.3955 38.7136 61.767C38.5457 66.2258 35.6926 70.3502 31.9442 72.8025C28.1959 75.3106 23.6644 76.3138 19.1888 76.7597C12.7551 77.317 5.87391 76.481 0.67103 72.6911C0.298064 72.431 -0.0376055 72.1709 -0.335978 71.9108C-3.63673 76.481 -6.15425 81.6086 -7.10531 87.1264C-8.11232 93.1457 -7.27315 99.6109 -3.41295 106.299Z" fill="#1B1C1E"/>
</g>
<path d="M-3.07644 113.433H51.7496C54.2112 113.433 56.1692 111.426 56.1692 109.03V107.692C56.1692 105.296 54.2112 103.289 51.7496 103.289H-3.07644C-5.53802 103.289 -7.49609 105.296 -7.49609 107.692V109.03C-7.49609 111.426 -5.53802 113.433 -3.07644 113.433Z" fill="#2F383F"/>
<g style="mix-blend-mode:soft-light" opacity="0.4">
<path d="M21.8184 113.434V359.001H49.3992V113.434H21.8184Z" fill="#1B1C1E"/>
</g>
<g style="mix-blend-mode:soft-light" opacity="0.8">
<path d="M11.8043 149.437C11.7483 156.682 12.0281 164.82 12.0281 164.82H35.3571C35.3571 164.82 37.5389 153.227 36.6998 143.752C35.9165 134.277 29.6507 128.592 23.6646 122.35C23.6646 122.35 23.3289 122.628 22.7695 123.13C23.6646 124.022 25.1192 124.969 25.6786 125.582C28.308 128.425 30.322 131.936 30.8815 135.782C31.6647 141.076 29.2591 147.04 24.3919 149.381C20.5317 151.276 16.0561 150.663 11.8043 149.437Z" fill="#1B1C1E"/>
</g>
<g style="mix-blend-mode:soft-light" opacity="0.8">
<path d="M3.18945 143.864C3.22658 143.604 3.26371 143.344 3.30084 143.084C3.22658 143.344 3.18945 143.604 3.18945 143.864Z" fill="#1B1C1E"/>
</g>
<g style="mix-blend-mode:soft-light" opacity="0.8">
<path d="M12.0283 245.97H35.3573C35.3573 245.97 37.5392 234.321 36.7 224.847C36.0287 216.932 31.5531 211.693 26.574 206.51C28.2523 211.526 28.1964 216.988 24.6718 221.335C21.5949 225.069 16.6158 226.853 11.8045 226.407C11.6367 234.266 12.0283 245.97 12.0283 245.97Z" fill="#1B1C1E"/>
</g>
<path d="M377.852 279.967H309.096C297.515 261.686 307.753 245.245 319.949 233.763C330.914 223.452 343.446 217.154 343.446 217.154C343.446 217.154 377.908 234.432 382.384 258.51C383.67 265.198 382.607 272.443 377.852 279.967Z" fill="#5A755F"/>
<path d="M330.523 279.967C330.523 279.967 321.74 246.359 343.447 217.154C343.447 217.154 302.383 245.913 315.25 279.967" stroke="#1D313F" stroke-width="2" stroke-linecap="round" stroke-linejoin="round"/>
<path d="M356.426 279.967C356.426 279.967 365.209 246.359 343.446 217.154C343.446 217.154 384.51 245.913 371.698 279.967" stroke="#1D313F" stroke-width="2" stroke-linecap="round" stroke-linejoin="round"/>
<g style="mix-blend-mode:soft-light" opacity="0.4">
<path d="M377.852 280.637H309.096C297.515 262.356 307.753 245.858 319.949 234.377C325.432 247.642 340.537 265.087 382.384 259.123C383.67 265.867 382.607 273.057 377.852 280.637Z" fill="#1B1C1E"/>
</g>
<path d="M346.243 212.083C346.243 213.587 345.013 214.814 343.502 214.814C341.992 214.814 340.761 213.587 340.761 212.083C340.761 210.578 341.992 209.352 343.502 209.352C345.013 209.352 346.243 210.578 346.243 212.083Z" fill="#353D44"/>
<path d="M345.125 215.65C345.125 216.541 344.397 217.266 343.502 217.266C342.607 217.266 341.88 216.541 341.88 215.65C341.88 214.758 342.607 214.033 343.502 214.033C344.397 214.033 345.125 214.758 345.125 215.65Z" fill="#353D44"/>
<path d="M343.222 194.583C341.432 195.251 339.809 196.645 338.634 198.094C337.571 199.487 336.788 201.048 337.068 202.831C337.236 204.002 337.739 205.117 338.411 206.064C339.641 207.959 341.543 209.965 343.781 210.523C345.739 211.024 347.809 210.077 349.264 208.628C350.662 207.179 351.502 205.284 352.341 203.444C351.166 204.169 349.935 204.949 348.593 205.284C347.25 205.674 345.683 205.562 344.565 204.782C342.718 203.444 342.662 200.435 344.173 198.707C345.683 196.979 348.257 196.478 350.495 197.091C349.544 196.255 348.816 195.196 347.641 194.694C346.187 194.025 344.676 194.081 343.222 194.583Z" fill="#94A461"/>
<path d="M307.026 279.969H298.467V359.001H388.482L387.14 279.969H375.727H307.026Z" fill="#222C33"/>
<path d="M364.37 320.711V359.001H323.81V320.711C324.481 314.636 332.201 309.062 344.118 303.768C344.341 303.879 344.584 303.991 344.845 304.102C354.356 308.505 362.859 313.298 364.37 320.711Z" fill="#DD8A37"/>
<g style="mix-blend-mode:soft-light" opacity="0.5">
<path d="M364.37 339.271V359.001H323.81V320.711C324.481 314.636 332.201 309.062 344.118 303.768C344.341 303.879 344.584 303.991 344.845 304.102C339.922 312.462 338.691 321.993 341.488 330.91C342.327 333.418 343.558 336.038 346.188 337.766C349.488 339.828 354.132 340.051 358.439 339.884C360.398 339.828 362.412 339.661 364.37 339.271Z" fill="#1B1C1E"/>
</g>
<path d="M298.467 279.969L316.817 293.958L331.306 279.969L344.174 293.958L360.286 279.969L372.09 293.958L387.14 279.969H298.467Z" fill="#94A461"/>
<path d="M280.9 209.798H151.276C129.457 175.409 148.758 144.309 171.807 122.629C192.451 103.233 216.116 91.3613 216.116 91.3613C216.116 91.3613 281.012 123.91 289.515 169.334C291.921 181.986 289.907 195.585 280.9 209.798Z" fill="#94A461"/>
<path d="M191.723 209.798C191.723 209.798 175.107 146.483 216.115 91.3613C216.115 91.3613 138.687 145.591 162.855 209.798" stroke="#516B4C" stroke-width="4" stroke-linecap="round" stroke-linejoin="round"/>
<path d="M240.507 209.798C240.507 209.798 257.067 146.483 216.115 91.3613C216.115 91.3613 293.487 145.591 269.319 209.798" stroke="#516B4C" stroke-width="4" stroke-linecap="round" stroke-linejoin="round"/>
<g style="mix-blend-mode:soft-light" opacity="0.4">
<path d="M280.9 211.025H151.276C129.457 176.581 148.758 145.536 171.807 123.855C182.101 148.88 210.577 181.764 289.515 170.561C291.921 183.213 289.907 196.812 280.9 211.025Z" fill="#1B1C1E"/>
</g>
<path d="M221.375 81.7751C221.375 84.6733 219.025 86.9585 216.172 86.9585C213.318 86.9585 210.969 84.6733 210.969 81.7751C210.969 78.9327 213.318 76.5918 216.172 76.5918C219.025 76.5918 221.375 78.9327 221.375 81.7751Z" fill="#EFBE66"/>
<path d="M219.249 88.5752C219.249 90.2472 217.85 91.6406 216.172 91.6406C214.493 91.6406 213.095 90.2472 213.095 88.5752C213.095 86.8474 214.493 85.5098 216.172 85.5098C217.85 85.5098 219.249 86.8474 219.249 88.5752Z" fill="#EFBE66"/>
<path d="M215.668 48.8352C212.255 50.0613 209.234 52.6809 207.052 55.4676C204.982 58.0871 203.472 60.9853 203.975 64.3852C204.311 66.6146 205.318 68.6767 206.549 70.516C208.899 73.9715 212.479 77.8172 216.675 78.8762C220.367 79.768 224.339 77.9845 226.969 75.2534C229.654 72.5224 231.277 69.0112 232.899 65.5556C230.605 66.949 228.367 68.3423 225.794 69.0112C223.22 69.68 220.311 69.5685 218.185 68.0079C214.661 65.4999 214.549 59.8149 217.402 56.5823C220.255 53.2939 225.123 52.4022 229.318 53.5726C227.584 51.9006 226.241 50.0056 224.004 49.0024C221.206 47.7762 218.353 47.8877 215.668 48.8352Z" fill="#353D44"/>
<path d="M300.984 358.834H131.191V209.799H298.467L300.537 334.756L300.984 358.834Z" fill="#2F383F"/>
<path d="M173.485 358.832V282.476C174.884 270.381 191.5 259.234 217.29 248.645C238.437 257.674 257.794 267.316 261.095 282.476V358.832H173.485Z" fill="#EFBE66"/>
<path d="M243.696 299.921V358.833H190.884V299.921C191.723 290.557 201.793 281.974 217.29 273.781C217.625 273.967 217.961 274.153 218.297 274.339C230.605 281.138 241.738 288.495 243.696 299.921Z" fill="#DD8A37"/>
<g style="mix-blend-mode:soft-light" opacity="0.5">
<path d="M243.696 328.513V358.833H190.884V299.921C191.723 290.557 201.793 281.974 217.29 273.781C217.625 273.967 217.961 274.153 218.297 274.339C211.807 287.158 210.241 301.872 213.877 315.582C214.94 319.484 216.563 323.497 220.031 326.116C224.283 329.349 230.381 329.683 235.975 329.405C238.549 329.293 241.178 329.07 243.696 328.513Z" fill="#1B1C1E"/>
</g>
<path d="M131.247 209.799L161.513 248.534L190.884 209.799L217.29 248.646L247.836 209.799L275.585 250.597L298.466 209.799H131.247Z" fill="#516B56"/>
<g style="mix-blend-mode:soft-light" opacity="0.5">
<path d="M300.984 358.834H131.191V209.799H131.695C132.031 210.523 132.254 211.359 132.478 212.418C133.597 218.048 134.436 223.677 135.555 229.306C137.793 240.119 140.59 250.931 144.786 261.186C157.206 291.617 181.933 316.865 212.2 329.963C239.836 341.89 271.781 343.562 300.537 334.756L300.984 358.834Z" fill="#1B1C1E"/>
</g>
<path d="M121.848 279.967H53.0919C41.5672 261.686 51.7492 245.245 64.0011 233.763C74.9664 223.452 87.498 217.154 87.498 217.154C87.498 217.154 121.904 234.432 126.436 258.51C127.722 265.198 126.659 272.443 121.848 279.967Z" fill="#5A755F"/>
<path d="M74.575 279.967C74.575 279.967 65.7917 246.359 87.4983 217.154C87.4983 217.154 46.4347 245.913 59.2461 279.967" stroke="#1D313F" stroke-width="2" stroke-linecap="round" stroke-linejoin="round"/>
<path d="M100.421 279.967C100.421 279.967 109.205 246.359 87.498 217.154C87.498 217.154 128.562 245.913 115.75 279.967" stroke="#1D313F" stroke-width="2" stroke-linecap="round" stroke-linejoin="round"/>
<g style="mix-blend-mode:soft-light" opacity="0.4">
<path d="M121.848 280.637H53.0919C41.5672 262.356 51.7492 245.858 64.0011 234.377C69.4278 247.642 84.5329 265.087 126.436 259.123C127.722 265.867 126.659 273.057 121.848 280.637Z" fill="#1B1C1E"/>
</g>
<path d="M90.2954 212.083C90.2954 213.587 89.0646 214.814 87.5541 214.814C85.9876 214.814 84.7568 213.587 84.7568 212.083C84.7568 210.578 85.9876 209.352 87.5541 209.352C89.0646 209.352 90.2954 210.578 90.2954 212.083Z" fill="#353D44"/>
<path d="M89.1767 215.65C89.1767 216.541 88.4494 217.266 87.5543 217.266C86.6033 217.266 85.876 216.541 85.876 215.65C85.876 214.758 86.6033 214.033 87.5543 214.033C88.4494 214.033 89.1767 214.758 89.1767 215.65Z" fill="#353D44"/>
<path d="M87.274 194.583C85.4838 195.251 83.8614 196.645 82.6865 198.094C81.6236 199.487 80.7844 201.048 81.0641 202.831C81.2319 204.002 81.7914 205.117 82.4627 206.064C83.6935 207.959 85.5397 209.965 87.7775 210.523C89.7356 211.024 91.8615 210.077 93.2601 208.628C94.6587 207.179 95.5539 205.284 96.393 203.444C95.2182 204.169 93.9874 204.949 92.6447 205.284C91.302 205.674 89.7356 205.562 88.6167 204.782C86.7705 203.444 86.6586 200.435 88.1691 198.707C89.6796 196.979 92.309 196.478 94.4909 197.091C93.5958 196.255 92.8685 195.196 91.6936 194.694C90.1831 194.025 88.6726 194.081 87.274 194.583Z" fill="#94A461"/>
<path d="M51.0215 279.969H42.4619V359.001H132.477L131.191 279.969H119.778H51.0215Z" fill="#222C33"/>
<path d="M108.365 320.711V359.001H67.8613V320.711C68.5327 314.636 76.1971 309.062 88.1134 303.768C88.3745 303.879 88.6355 303.991 88.8966 304.102C98.3513 308.505 106.911 313.298 108.365 320.711Z" fill="#DD8A37"/>
<g style="mix-blend-mode:soft-light" opacity="0.5">
<path d="M108.365 339.271V359.001H67.8613V320.711C68.5327 314.636 76.1971 309.062 88.1134 303.768C88.3745 303.879 88.6355 303.991 88.8966 304.102C83.9175 312.462 82.7427 321.993 85.5399 330.91C86.3231 333.418 87.5539 336.038 90.2393 337.766C93.4841 339.828 98.1835 340.051 102.435 339.884C104.449 339.828 106.463 339.661 108.365 339.271Z" fill="#1B1C1E"/>
</g>
<path d="M42.4619 279.969L60.8678 293.958L75.3575 279.969L88.1689 293.958L104.337 279.969L116.141 293.958L131.191 279.969H42.4619Z" fill="#94A461"/>
<path d="M293.711 214.814H133.765C129.793 214.814 126.548 211.582 126.548 207.569V207.346C126.548 203.389 129.793 200.156 133.765 200.156H293.711C297.739 200.156 300.984 203.389 300.984 207.346V207.569C300.984 211.582 297.739 214.814 293.711 214.814Z" fill="#2F383F"/>
</g>
<mask id="mask0_2186_776" style="mask-type:alpha" maskUnits="userSpaceOnUse" x="-73" y="283" width="577" height="108">
<rect width="577" height="108" transform="matrix(1 0 0 -1 -73 391)" fill="#D9D9D9"/>
</mask>
<g mask="url(#mask0_2186_776)">
<path d="M222.187 385.367C236.087 410.467 226.987 442.067 201.887 455.967C176.787 469.867 145.187 460.767 131.387 435.667C117.487 410.567 126.587 378.967 151.687 365.067C176.787 351.167 208.387 360.267 222.187 385.367Z" fill="white"/>
<path d="M199.288 343.067C209.388 361.467 202.788 384.467 184.488 394.567C166.188 404.667 143.088 398.067 132.988 379.767C122.888 361.467 129.488 338.367 147.788 328.267C166.088 318.167 189.188 324.767 199.288 343.067Z" fill="white"/>
<path d="M74.9869 402.168C87.9869 425.668 79.4869 455.368 55.8869 468.368C32.3869 481.368 2.68692 472.868 -10.3131 449.268C-23.3131 425.768 -14.8131 396.068 8.7869 383.068C32.2869 370.068 61.9869 378.568 74.9869 402.168Z" fill="white"/>
<path d="M56.6875 327.567C64.0875 340.967 59.1875 357.967 45.7875 365.367C32.3875 372.767 15.4875 367.867 7.98754 354.467C0.587537 341.067 5.48754 324.167 18.8875 316.667C32.2875 309.267 49.1875 314.167 56.6875 327.567Z" fill="white"/>
<path d="M236.187 356.167C242.387 367.567 238.287 381.767 226.987 388.067C215.687 394.267 201.487 390.167 195.187 378.867C188.887 367.567 192.987 353.267 204.387 347.067C215.687 340.767 229.887 344.867 236.187 356.167Z" fill="white"/>
<path d="M159.887 308.867C173.287 333.167 164.487 363.667 140.187 377.067C115.987 390.467 85.3869 381.667 71.9869 357.467C58.5869 333.167 67.3869 302.667 91.6869 289.267C115.887 275.867 146.387 284.667 159.887 308.867Z" fill="white"/>
<path d="M25.7873 385.567C39.7873 411.067 30.5873 443.067 5.18733 457.167C-20.3127 471.267 -52.3127 461.967 -66.4127 436.567C-80.5127 411.067 -71.2127 379.067 -45.8127 364.967C-20.3127 350.967 11.6873 360.167 25.7873 385.567Z" fill="white"/>
<path d="M70.7873 367.968C84.7873 393.368 75.5873 425.468 50.1873 439.468C24.6873 453.568 -7.31267 444.368 -21.4127 418.868C-35.5127 393.468 -26.2127 361.468 -0.81268 347.368C24.6873 333.268 56.6873 342.468 70.7873 367.968Z" fill="white"/>
<path d="M177.188 348.368C198.488 386.868 184.488 435.268 145.988 456.568C107.488 477.868 59.0877 463.868 37.7877 425.368C16.4877 386.868 30.4877 338.468 68.9876 317.168C107.488 295.868 155.888 309.868 177.188 348.368Z" fill="white"/>
<path d="M208.889 385.367C194.989 410.467 204.089 442.068 229.189 455.968C254.29 469.868 285.89 460.768 299.69 435.667C313.59 410.567 304.49 378.967 279.39 365.067C254.29 351.167 222.689 360.267 208.889 385.367Z" fill="white"/>
<path d="M231.789 343.069C221.689 361.469 228.289 384.47 246.589 394.57C264.889 404.67 287.989 398.07 298.089 379.769C308.19 361.469 301.589 338.369 283.289 328.269C264.989 318.169 241.889 324.769 231.789 343.069Z" fill="white"/>
<path d="M356.09 402.168C343.09 425.668 351.59 455.369 375.191 468.369C398.691 481.369 428.391 472.869 441.391 449.268C454.391 425.768 445.891 396.068 422.291 383.068C398.791 370.068 369.091 378.568 356.09 402.168Z" fill="white"/>
<path d="M374.391 327.567C366.991 340.967 371.891 357.968 385.291 365.368C398.691 372.768 415.591 367.868 423.092 354.468C430.492 341.067 425.592 324.167 412.191 316.667C398.791 309.267 381.891 314.167 374.391 327.567Z" fill="white"/>
<path d="M194.89 356.168C188.689 367.568 192.789 381.768 204.09 388.068C215.39 394.268 229.59 390.168 235.89 378.868C242.19 367.568 238.09 353.268 226.69 347.067C215.39 340.767 201.19 344.867 194.89 356.168Z" fill="white"/>
<path d="M271.189 308.868C257.789 333.168 266.589 363.668 290.89 377.068C315.09 390.468 345.69 381.668 359.09 357.468C372.49 333.168 363.69 302.668 339.39 289.268C315.19 275.867 284.689 284.667 271.189 308.868Z" fill="white"/>
<path d="M405.291 385.567C391.291 411.067 400.491 443.068 425.891 457.168C451.391 471.268 483.392 461.968 497.492 436.568C511.592 411.067 502.292 379.067 476.892 364.967C451.391 350.967 419.391 360.167 405.291 385.567Z" fill="white"/>
<path d="M360.29 367.968C346.29 393.368 355.49 425.469 380.89 439.469C406.39 453.569 438.391 444.369 452.491 418.868C466.591 393.468 457.291 361.468 431.891 347.368C406.39 333.268 374.39 342.468 360.29 367.968Z" fill="white"/>
<path d="M253.889 348.368C232.589 386.868 246.589 435.269 285.089 456.569C323.59 477.869 371.99 463.869 393.29 425.369C414.591 386.868 400.59 338.468 362.09 317.168C323.59 295.867 275.189 309.868 253.889 348.368Z" fill="white"/>
</g>
<defs>
<clipPath id="clip0_2186_776">
<rect width="447" height="311" fill="white" transform="translate(-8 48)"/>
</clipPath>
</defs>
</svg>
