<svg width="430" height="418" viewBox="0 0 430 418" fill="none" xmlns="http://www.w3.org/2000/svg">
<g clip-path="url(#clip0_2172_299)">
<g style="mix-blend-mode:multiply">
<path d="M202.241 318.458L200.49 199.377H188.915C193.292 192.086 195.043 185.087 194.946 178.379C195.011 175.982 194.816 173.616 194.362 171.283C189.791 146.884 161.972 127.928 149.521 120.54C147.479 118.79 145.825 117.526 144.95 116.846C145.436 116.457 145.728 115.874 145.728 115.193C145.728 114.61 145.533 114.124 145.144 113.735C146.312 113.152 147.187 111.985 147.187 110.527C147.187 109.75 146.993 109.069 146.603 108.486C148.257 108.194 149.911 107.222 151.078 105.958C152.926 104.111 154.093 101.584 155.163 99.251C153.607 100.223 152.05 101.195 150.3 101.681C148.452 102.07 146.506 101.973 145.047 100.904C142.615 99.1538 142.518 95.2654 144.464 93.0296C146.409 90.7938 149.813 90.1133 152.731 90.891C151.467 89.8217 150.591 88.4608 149.035 87.7803C147.09 86.9054 145.144 87.0026 143.296 87.6831C140.962 88.4608 138.822 90.3077 137.266 92.2519C135.904 94.0989 134.834 96.0431 135.223 98.4733C135.418 99.9315 136.098 101.39 136.974 102.653C138.141 104.403 139.795 106.347 141.643 107.514C140.67 108.097 139.989 109.264 139.989 110.527C139.989 111.985 140.865 113.152 142.032 113.735C141.74 114.124 141.448 114.61 141.448 115.193C141.448 115.874 141.74 116.457 142.226 116.846C141.351 117.429 139.697 118.693 137.557 120.54C131.527 124.137 121.8 130.455 112.949 138.815C101.86 149.314 92.0358 162.923 92.133 178.282C92.0358 184.99 93.7866 192.086 98.261 199.377H96.0238H84.8379V318.458H98.7473V318.652H99.8172V318.458H114.116H126.08H162.653H174.714H185.511V318.652H186.581V318.458H202.241Z" fill="#F5F1E3"/>
</g>
<g style="mix-blend-mode:multiply">
<path d="M34.3553 415.958L32.6045 296.877H21.0295C25.4066 289.586 27.1575 282.587 27.0602 275.977C27.125 273.514 26.9305 271.116 26.4766 268.783C21.9049 244.384 -5.91386 225.428 -18.3642 218.04C-20.5042 216.29 -22.0605 215.026 -22.9359 214.346C-22.4495 213.957 -22.1577 213.374 -22.1577 212.693C-22.1577 212.207 -22.4495 211.624 -22.7413 211.235C-21.5741 210.652 -20.6987 209.485 -20.6987 208.027C-20.6987 207.25 -20.8932 206.569 -21.2823 205.986C-19.6287 205.694 -18.0724 204.722 -16.808 203.458C-14.9598 201.611 -13.7926 199.181 -12.7227 196.751C-14.279 197.723 -15.8353 198.695 -17.6834 199.181C-19.4342 199.667 -21.3796 199.57 -22.9359 198.501C-25.3676 196.751 -25.3676 192.765 -23.4222 190.53C-21.4768 188.294 -18.0724 187.613 -15.2517 188.488C-16.4189 187.322 -17.2943 185.961 -18.8506 185.28C-20.796 184.405 -22.8386 184.503 -24.5894 185.183C-27.0211 186.058 -29.0638 187.808 -30.6201 189.752C-32.0791 191.599 -33.0518 193.64 -32.76 195.973C-32.4682 197.529 -31.7873 198.89 -30.9119 200.251C-29.7447 202 -28.1884 203.847 -26.243 205.014C-27.2157 205.694 -27.8966 206.764 -27.8966 208.027C-27.8966 209.485 -27.0212 210.652 -25.8539 211.235C-26.243 211.624 -26.4375 212.207 -26.4375 212.693C-26.4375 213.374 -26.1457 213.957 -25.6594 214.346C-26.5348 215.026 -28.1884 216.29 -30.3283 218.04C-36.3589 221.637 -46.0858 227.955 -55.0345 236.412C-66.1231 246.814 -75.85 260.423 -75.7527 275.782C-75.85 282.49 -74.0991 289.586 -69.7221 296.877H-71.862H-83.0479V415.958H-69.2357V416.152H-68.1658V415.958H-53.8673H-41.806H-5.23299H6.82832H17.5279V416.152H18.5978V415.958H34.3553Z" fill="#F5F1E3"/>
</g>
<g style="mix-blend-mode:multiply">
<path d="M518.558 415.958L516.807 296.877H505.135C509.512 289.586 511.36 282.587 511.263 275.977C511.263 273.514 511.036 271.116 510.582 268.783C506.01 244.384 478.192 225.428 465.741 218.04C463.699 216.29 462.045 215.026 461.17 214.346C461.656 213.957 461.948 213.374 461.948 212.693C461.948 212.207 461.753 211.624 461.364 211.235C462.629 210.652 463.407 209.485 463.407 208.027C463.407 207.25 463.212 206.569 462.823 205.986C464.477 205.694 466.13 204.722 467.298 203.458C469.146 201.611 470.313 199.181 471.383 196.751C469.827 197.723 468.27 198.695 466.519 199.181C464.769 199.667 462.726 199.57 461.267 198.501C458.835 196.751 458.738 192.765 460.683 190.53C462.629 188.294 466.033 187.613 468.951 188.488C467.784 187.322 466.811 185.961 465.255 185.28C463.31 184.405 461.364 184.503 459.516 185.183C457.182 186.058 455.042 187.808 453.583 189.752C452.124 191.599 451.054 193.64 451.443 195.973C451.637 197.529 452.318 198.89 453.194 200.251C454.361 202 456.014 203.847 457.96 205.014C456.89 205.694 456.306 206.764 456.306 208.027C456.306 209.485 457.084 210.652 458.349 211.235C457.96 211.624 457.765 212.207 457.765 212.693C457.765 213.374 458.057 213.957 458.446 214.346C457.571 215.026 455.917 216.29 453.875 218.04C447.747 221.637 438.02 227.955 429.168 236.412C418.08 246.814 408.255 260.423 408.353 275.782C408.255 282.49 410.104 289.586 414.481 296.877H412.244H401.058V415.958H414.967V416.152H416.037V415.958H430.335H442.397H478.872H490.934H501.731V416.152H502.801V415.958H518.558Z" fill="#F5F1E3"/>
</g>
<g style="mix-blend-mode:multiply">
<path d="M357.676 330.122L355.925 211.041H344.253C348.63 203.75 350.478 196.751 350.381 190.043C350.381 187.646 350.186 185.28 349.797 182.947C345.225 158.548 317.309 139.592 304.956 132.204C302.816 130.454 301.26 129.19 300.287 128.51C300.774 128.121 301.163 127.538 301.163 126.857C301.163 126.274 300.871 125.788 300.482 125.399C301.746 124.816 302.622 123.552 302.622 122.191C302.622 121.414 302.33 120.733 301.941 120.15C303.692 119.858 305.248 118.886 306.512 117.623C308.36 115.776 309.43 113.248 310.598 110.915C309.041 111.887 307.388 112.859 305.637 113.345C303.886 113.734 301.843 113.637 300.384 112.568C297.953 110.818 297.855 106.929 299.898 104.694C301.843 102.458 305.248 101.777 308.069 102.555C306.901 101.486 305.929 100.125 304.372 99.4444C302.427 98.5695 300.482 98.6667 298.634 99.3471C296.299 100.125 294.159 101.972 292.7 103.916C291.241 105.763 290.171 107.707 290.56 110.137C290.852 111.596 291.533 113.054 292.408 114.317C293.576 116.067 295.132 118.011 297.077 119.178C296.105 119.761 295.424 120.928 295.424 122.191C295.424 123.552 296.299 124.816 297.466 125.399C297.077 125.788 296.883 126.274 296.883 126.857C296.883 127.538 297.175 128.121 297.661 128.51C296.786 129.093 295.132 130.357 292.992 132.204C286.961 135.801 277.235 142.119 268.286 150.479C257.197 160.978 247.373 174.587 247.568 189.946C247.373 196.654 249.221 203.75 253.598 211.041H251.361H240.272V330.122H254.085V330.316H255.155V330.122H269.453H281.514H317.99H330.051H340.848V330.316H341.918V330.122H357.676Z" fill="#F5F1E3"/>
</g>
<path d="M431.601 104.889C431.601 106.445 430.336 107.708 428.78 107.708C427.223 107.708 425.959 106.445 425.959 104.889C425.959 103.334 427.223 102.07 428.78 102.07C430.336 102.07 431.601 103.334 431.601 104.889Z" fill="#94A461"/>
<path d="M321.687 4.17983C321.687 6.22123 320.033 7.87379 317.991 7.87379C315.851 7.87379 314.197 6.22123 314.197 4.17983C314.197 2.04123 315.851 0.388672 317.991 0.388672C320.033 0.388672 321.687 2.04123 321.687 4.17983Z" fill="#2F383F"/>
<path d="M234.048 33.1485C234.048 34.5095 232.978 35.5788 231.616 35.5788C230.254 35.5788 229.087 34.5095 229.087 33.1485C229.087 31.6904 230.254 30.6211 231.616 30.6211C232.978 30.6211 234.048 31.6904 234.048 33.1485Z" fill="#94A461"/>
<path d="M133.666 268.589C130.359 266.645 127.052 264.798 123.258 262.659C123.064 262.465 122.772 262.659 122.772 262.951C122.48 265.089 122.383 266.353 122.286 267.908C122.188 268.2 121.897 268.394 121.702 268.2C119.368 266.645 117.131 265.187 114.115 263.145C113.823 263.048 113.532 263.145 113.532 263.437C113.045 265.673 112.364 267.52 112.851 268.783C120.632 287.739 121.119 335.566 119.368 355.786C119.368 355.98 108.571 352.481 108.571 352.481C108.279 352.481 111.975 328.081 112.073 327.887C114.893 309.222 114.504 290.558 110.322 271.991C109.933 270.144 108.765 268.492 107.89 266.839C106.723 266.936 106.528 266.936 105.361 267.034C103.61 272.283 101.859 277.532 100.011 282.879C99.914 283.267 99.4276 283.267 99.3304 282.879C98.844 281.809 98.3577 280.643 97.6768 278.796C97.4823 278.504 96.9959 278.504 96.8987 278.893C95.0505 283.851 93.4943 287.934 91.938 292.114C91.8407 292.405 91.3544 292.405 91.2571 292.016C90.9329 290.461 90.5762 288.906 90.1871 287.35C89.0199 287.35 89.2144 287.35 88.0472 287.35C87.1718 290.655 86.1991 293.863 85.421 296.877C85.3237 297.266 84.9346 297.266 84.7401 297.071C80.7521 291.822 80.0712 284.24 84.7401 278.115C88.7281 272.963 93.8833 268.881 98.5522 264.409C98.844 264.117 98.5522 263.728 98.2604 263.728C93.6888 264.798 88.8254 265.964 83.281 267.228C82.9892 267.325 82.6974 266.936 82.892 266.645C83.6701 265.478 84.2537 264.506 85.3237 262.951C85.5182 262.659 85.3237 262.367 84.9346 262.367C78.7094 263.437 73.2624 264.409 67.2317 265.381C66.9399 265.478 66.6481 264.992 66.9399 264.701C68.2044 263.534 69.2744 262.465 70.4416 261.395C69.7607 260.326 69.858 260.423 69.1771 259.354C64.8 260.618 60.3257 261.881 56.1431 263.048C55.8513 263.145 55.5595 262.854 55.6568 262.562C58.4776 253.23 67.0372 250.605 89.409 252.841C89.798 252.841 89.9926 252.258 89.6035 252.063C88.2417 251.286 87.0745 250.605 85.7128 249.827C85.421 249.633 85.5182 249.147 85.81 249.147C87.1718 248.758 88.339 248.467 90.3817 248.078C90.6735 247.981 90.7707 247.494 90.4789 247.3C84.9346 244.384 80.4603 242.051 75.5968 239.523C75.305 239.329 75.4023 238.746 75.7914 238.746L80.363 238.551C80.6548 237.093 80.6548 237.385 80.8493 235.927C77.2504 234.468 73.5542 233.01 70.1498 231.649C69.858 231.455 69.858 231.066 70.1498 230.872C79.293 225.72 85.421 228.539 101.665 245.453C101.859 245.745 102.346 245.55 102.346 245.161C101.373 231.261 99.4276 217.262 115.38 209.486C115.769 209.388 116.061 209.68 115.963 210.069C113.921 214.346 112.17 218.234 110.419 222.026C111.392 222.803 111.294 222.706 112.267 223.484C113.434 222.512 114.699 221.442 116.061 220.276C116.352 220.081 116.741 220.373 116.644 220.762C114.796 225.914 113.143 230.677 111.489 235.343C112.267 236.024 112.267 236.024 113.045 236.607C113.726 236.218 114.504 235.732 115.477 235.246C115.769 235.052 116.158 235.343 115.963 235.732C114.602 239.232 113.337 242.634 112.073 245.842C111.975 246.231 112.462 246.522 112.753 246.231C123.161 235.052 135.612 229.705 151.564 232.33C151.953 232.427 152.05 232.913 151.661 233.108C147.673 234.566 144.074 235.829 139.794 237.385C139.502 237.482 139.405 237.871 139.697 238.065C141.448 239.426 142.809 240.301 143.879 241.079C144.074 241.273 143.977 241.662 143.685 241.759C138.238 242.634 132.499 243.606 126.857 244.578C126.663 245.939 126.663 245.842 126.566 247.106C128.997 248.078 131.429 248.953 134.25 250.022C134.639 250.216 134.542 250.702 134.25 250.8C127.927 252.549 122.286 254.202 116.741 255.757C116.352 255.854 116.352 256.438 116.741 256.535C127.149 257.41 137.751 256.632 145.922 266.159C146.117 266.45 145.825 266.936 145.533 266.839C141.059 265.575 137.071 264.506 132.402 263.242C132.11 263.145 131.818 263.534 131.915 263.826C132.888 265.575 133.569 266.839 134.25 268.103C134.347 268.394 134.055 268.783 133.666 268.589Z" fill="#94A461"/>
<path d="M291.825 268.589C295.132 266.645 298.439 264.798 302.233 262.659C302.427 262.465 302.719 262.659 302.816 262.951C303.011 265.089 303.108 266.353 303.302 267.908C303.302 268.2 303.594 268.394 303.886 268.2C306.221 266.645 308.36 265.187 311.473 263.145C311.668 263.048 311.959 263.145 312.057 263.437C312.446 265.673 313.224 267.52 312.64 268.783C304.859 287.739 304.47 335.566 306.123 355.786C306.123 355.98 316.92 352.481 316.92 352.481C317.212 352.481 313.516 328.081 313.516 327.887C310.695 309.222 310.987 290.558 315.266 271.991C315.656 270.144 316.726 268.492 317.601 266.839C318.865 266.936 318.963 266.936 320.227 267.034C321.978 272.283 323.729 277.532 325.48 282.879C325.577 283.267 326.063 283.267 326.258 282.879C326.647 281.809 327.133 280.643 327.911 278.796C328.009 278.504 328.495 278.504 328.592 278.893C330.44 283.851 331.997 287.934 333.553 292.114C333.65 292.405 334.137 292.405 334.234 292.016C334.623 290.461 334.98 288.906 335.304 287.35C336.471 287.35 336.277 287.35 337.444 287.35C338.416 290.655 339.292 293.863 340.07 296.877C340.167 297.266 340.556 297.266 340.751 297.071C344.739 291.822 345.42 284.24 340.751 278.115C336.86 272.963 331.608 268.881 326.939 264.409C326.647 264.117 326.939 263.728 327.328 263.728C331.802 264.798 336.763 265.964 342.21 267.228C342.599 267.325 342.794 266.936 342.599 266.645C341.918 265.478 341.237 264.506 340.167 262.951C339.973 262.659 340.265 262.367 340.556 262.367C346.879 263.437 352.326 264.409 358.259 265.381C358.648 265.478 358.843 264.992 358.551 264.701C357.287 263.534 356.217 262.465 355.147 261.395C355.73 260.326 355.633 260.423 356.314 259.354C360.788 260.618 365.165 261.881 369.445 263.048C369.737 263.145 369.931 262.854 369.834 262.562C367.111 253.23 358.551 250.605 336.179 252.841C335.79 252.841 335.596 252.258 335.887 252.063C337.249 251.286 338.416 250.605 339.778 249.827C340.07 249.633 340.07 249.147 339.681 249.147C338.416 248.758 337.152 248.467 335.109 248.078C334.817 247.981 334.72 247.494 335.109 247.3C340.556 244.384 345.031 242.051 349.894 239.523C350.283 239.329 350.186 238.746 349.797 238.746L345.128 238.551C344.836 237.093 344.933 237.385 344.642 235.927C348.338 234.468 351.937 233.01 355.341 231.649C355.633 231.455 355.633 231.066 355.341 230.872C346.295 225.72 340.07 228.539 323.826 245.453C323.632 245.745 323.145 245.55 323.243 245.161C324.118 231.261 326.063 217.262 310.111 209.486C309.819 209.388 309.43 209.68 309.625 210.069C311.57 214.346 313.418 218.234 315.169 222.026C314.099 222.803 314.294 222.706 313.224 223.484C312.057 222.512 310.889 221.442 309.43 220.276C309.139 220.081 308.749 220.373 308.847 220.762C310.695 225.914 312.348 230.677 314.002 235.343C313.321 236.024 313.224 236.024 312.543 236.607C311.765 236.218 310.987 235.732 310.111 235.246C309.722 235.052 309.43 235.343 309.528 235.732C310.889 239.232 312.154 242.634 313.418 245.842C313.516 246.231 313.029 246.522 312.738 246.231C302.33 235.052 289.977 229.705 273.927 232.33C273.538 232.427 273.538 232.913 273.83 233.108C277.818 234.566 281.514 235.829 285.794 237.385C286.086 237.482 286.086 237.871 285.891 238.065C284.043 239.426 282.682 240.301 281.709 241.079C281.417 241.273 281.514 241.662 281.806 241.759C287.253 242.634 292.992 243.606 298.731 244.578C298.828 245.939 298.828 245.842 298.925 247.106C296.591 248.078 294.159 248.953 291.241 250.022C290.949 250.216 290.949 250.702 291.241 250.8C297.564 252.549 303.205 254.202 308.847 255.757C309.236 255.854 309.139 256.438 308.75 256.535C298.342 257.41 287.739 256.632 279.666 266.159C279.374 266.45 279.666 266.936 280.055 266.839C284.53 265.575 288.42 264.506 293.089 263.242C293.478 263.145 293.673 263.534 293.576 263.826C292.603 265.575 291.922 266.839 291.338 268.103C291.144 268.394 291.533 268.783 291.825 268.589Z" fill="#94A461"/>
<path d="M48.5566 52.8822L50.9884 7.29102H52.0583L54.49 52.8822H48.5566Z" fill="#EFBE66"/>
<path d="M60.618 59.978C60.618 65.0328 56.6299 69.1156 51.572 69.1156C46.514 69.1156 42.4287 65.0328 42.4287 59.978C42.4287 55.0203 46.514 50.9375 51.572 50.9375C56.6299 50.9375 60.618 55.0203 60.618 59.978Z" fill="#2F383F"/>
<path d="M80.1683 125.594V404.196H24.6279V125.594H80.1683Z" fill="#516B56"/>
<path d="M82.6979 125.594H21.7105C11.4001 107.61 20.446 91.3765 31.3401 80.003C32.9937 78.2533 34.7445 76.6979 36.3981 75.2398C44.5686 67.9491 52.1556 63.6719 52.1556 63.6719C52.1556 63.6719 68.9831 73.1012 79.3908 87.5854C82.8925 92.6402 85.7133 98.2784 86.7832 104.403C87.8532 111.013 86.9778 118.109 82.6979 125.594Z" fill="#94A461"/>
<path d="M40.6774 125.594C40.6774 125.594 32.8959 92.4458 52.155 63.6719C52.155 63.6719 15.7766 92.057 27.157 125.594" stroke="#516B4C" stroke-linecap="round" stroke-linejoin="round"/>
<path d="M63.7302 125.594C63.7302 125.594 71.5117 92.4458 52.1553 63.6719C52.1553 63.6719 88.631 92.057 77.2506 125.594" stroke="#516B4C" stroke-linecap="round" stroke-linejoin="round"/>
<path d="M82.309 218.915H22.0998C19.3762 218.915 17.2363 216.777 17.2363 214.055V212.597C17.2363 209.972 19.3762 207.736 22.0998 207.736H82.309C85.0325 207.736 87.1724 209.972 87.1724 212.597V214.055C87.1724 216.777 85.0325 218.915 82.309 218.915Z" fill="#94A461"/>
<path d="M82.309 304.46H22.0998C19.3762 304.46 17.2363 302.322 17.2363 299.6V298.142C17.2363 295.42 19.3762 293.281 22.0998 293.281H82.309C85.0325 293.281 87.1724 295.42 87.1724 298.142V299.6C87.1724 302.322 85.0325 304.46 82.309 304.46Z" fill="#94A461"/>
<path d="M65.773 190.045H40.0941C40.0941 190.045 37.6624 177.213 38.5378 166.812C39.5105 156.313 46.3193 150.092 52.9335 143.287C52.9335 143.287 53.3226 143.579 53.9062 144.065C56.8243 146.689 64.9948 154.855 65.773 164.09C65.8703 166.423 65.9675 169.631 65.9675 173.033C66.0648 181.102 65.773 190.045 65.773 190.045Z" fill="#EFBE66"/>
<path d="M65.773 279.476H40.0941C40.0941 279.476 37.6624 266.645 38.5378 256.243C39.3159 247.495 44.2766 241.662 49.7237 236.024C50.7612 234.922 51.8312 233.82 52.9335 232.719C52.9335 232.719 64.8003 242.342 65.773 253.619C65.8703 254.785 65.8703 256.341 65.9675 257.896C66.1621 266.645 65.773 279.476 65.773 279.476Z" fill="#EFBE66"/>
<path d="M24.6279 337.9C24.8873 337.9 25.1791 337.9 25.5033 337.9C30.8531 338.192 36.592 336.831 40.7745 333.526M40.7745 333.526C39.6073 332.942 38.5373 332.262 37.6619 331.387C35.522 329.151 34.4521 325.846 35.6193 323.027C36.7865 320.208 40.4827 318.555 43.109 320.014C44.9571 321.083 45.8325 323.319 45.7352 325.36C45.6379 327.499 44.568 329.443 43.3035 331.095C42.5254 332.003 41.6824 332.813 40.7745 333.526ZM40.7745 333.526C42.3308 334.303 44.0816 334.789 45.8325 334.984C51.3768 335.762 57.3102 334.206 61.9791 330.998M61.9791 330.998C60.4228 329.346 59.2556 327.402 58.8665 325.263C58.4774 322.833 59.1583 320.208 61.0064 318.653C62.9518 317.097 66.0643 317.195 67.5234 319.139C69.566 321.569 67.9124 325.263 65.7725 327.596C64.6702 328.892 63.4057 330.026 61.9791 330.998ZM61.9791 330.998C62.1088 331.193 62.2384 331.355 62.3681 331.484C65.9671 335.373 71.0251 337.997 76.3748 338.581C77.6069 338.71 78.8714 338.743 80.1683 338.678" stroke="#1D313F" stroke-width="1.5" stroke-miterlimit="10"/>
<path d="M24.6279 376.978C24.8873 376.978 25.1791 376.978 25.5033 376.978C30.8531 377.27 36.592 375.909 40.7745 372.604M40.7745 372.604C39.6073 372.021 38.5373 371.34 37.6619 370.465C35.522 368.229 34.4521 364.924 35.6193 362.105C36.7865 359.286 40.4827 357.634 43.109 359.092C44.9571 360.161 45.8325 362.397 45.7352 364.438C45.6379 366.577 44.568 368.521 43.3035 370.174C42.5254 371.081 41.6824 371.891 40.7745 372.604ZM40.7745 372.604C42.3308 373.381 44.0816 373.868 45.8325 374.062C51.3768 374.84 57.3102 373.284 61.9791 370.076M61.9791 370.076C60.4228 368.424 59.2556 366.48 58.8665 364.341C58.4774 361.911 59.1583 359.189 61.0064 357.731C62.9518 356.175 66.0643 356.273 67.5234 358.217C69.566 360.647 67.9124 364.341 65.7725 366.674C64.6702 367.97 63.4057 369.104 61.9791 370.076ZM61.9791 370.076C62.1088 370.271 62.2384 370.433 62.3681 370.562C65.9671 374.451 71.0251 377.075 76.3748 377.659C77.6069 377.788 78.8714 377.821 80.1683 377.756" stroke="#94A461" stroke-width="1.5" stroke-miterlimit="10"/>
<g style="mix-blend-mode:soft-light" opacity="0.4">
<path d="M82.6979 125.595H21.7105C11.4001 107.611 20.446 91.377 31.3401 80.0035C32.9937 78.2537 34.7445 76.6984 36.3981 75.2402C36.3981 75.6291 36.3981 76.0179 36.3981 76.4067C36.5926 81.3644 39.7052 85.836 43.7905 88.5579C47.9731 91.377 52.9338 92.4463 57.8945 92.9323C64.8978 93.5156 72.4847 92.6407 78.2236 88.4607C78.6127 88.2015 79.0017 87.9098 79.3908 87.5858C82.8925 92.6407 85.7133 98.2788 86.7832 104.403C87.8532 111.013 86.9778 118.11 82.6979 125.595Z" fill="#1B1C1E"/>
</g>
<path d="M82.309 133.37H22.0998C19.3762 133.37 17.2363 131.232 17.2363 128.51V127.052C17.2363 124.427 19.3762 122.191 22.0998 122.191H82.309C85.0325 122.191 87.1724 124.427 87.1724 127.052V128.51C87.1724 131.232 85.0325 133.37 82.309 133.37Z" fill="#2F383F"/>
<g style="mix-blend-mode:soft-light" opacity="0.4">
<path d="M54.9757 133.371V404.196H24.6279V133.371H54.9757Z" fill="#1B1C1E"/>
</g>
<g style="mix-blend-mode:soft-light" opacity="0.8">
<path d="M65.9675 173.033C66.0648 181.102 65.773 190.045 65.773 190.045H40.0941C40.0941 190.045 37.6624 177.213 38.5378 166.812C39.5105 156.313 46.3193 150.092 52.9335 143.287C52.9335 143.287 53.3226 143.579 53.9062 144.065C52.9335 145.037 51.3772 146.106 50.6964 146.787C47.8756 149.897 45.6384 153.786 45.0548 157.966C44.1794 163.895 46.8056 170.409 52.1554 173.033C56.4352 175.172 61.2986 174.491 65.9675 173.033Z" fill="#1B1C1E"/>
</g>
<g style="mix-blend-mode:soft-light" opacity="0.8">
<path d="M75.4029 167.005C75.4029 166.681 75.3705 166.357 75.3057 166.033C75.4354 166.357 75.4678 166.681 75.4029 167.005Z" fill="#1B1C1E"/>
</g>
<g style="mix-blend-mode:soft-light" opacity="0.8">
<path d="M65.773 279.476H40.0941C40.0941 279.476 37.6624 266.644 38.5378 256.243C39.3159 247.494 44.2766 241.662 49.7237 236.023C47.8756 241.564 47.9728 247.591 51.8636 252.355C55.1707 256.437 60.715 258.382 65.9675 257.896C66.1621 266.644 65.773 279.476 65.773 279.476Z" fill="#1B1C1E"/>
</g>
<path d="M381.507 52.8822L383.939 7.29102H385.009L387.44 52.8822H381.507Z" fill="#EFBE66"/>
<path d="M393.568 59.978C393.568 65.0328 389.483 69.1156 384.425 69.1156C379.464 69.1156 375.379 65.0328 375.379 59.978C375.379 55.0203 379.464 50.9375 384.425 50.9375C389.483 50.9375 393.568 55.0203 393.568 59.978Z" fill="#2F383F"/>
<path d="M412.341 125.594V404.196H356.897V125.594H412.341Z" fill="#516B56"/>
<path d="M414.967 125.594H353.883C343.669 107.61 352.715 91.3765 363.61 80.003C365.263 78.2533 366.917 76.6979 368.667 75.2398C376.741 67.9491 384.425 63.6719 384.425 63.6719C384.425 63.6719 401.252 73.1012 411.563 87.5854C415.162 92.6402 417.983 98.2784 419.053 104.403C420.123 111.013 419.247 118.109 414.967 125.594Z" fill="#94A461"/>
<path d="M372.947 125.594C372.947 125.594 365.165 92.4458 384.425 63.6719C384.425 63.6719 348.046 92.057 359.427 125.594" stroke="#516B4C" stroke-linecap="round" stroke-linejoin="round"/>
<path d="M395.902 125.594C395.902 125.594 403.781 92.4458 384.425 63.6719C384.425 63.6719 420.901 92.057 409.52 125.594" stroke="#516B4C" stroke-linecap="round" stroke-linejoin="round"/>
<path d="M414.578 218.915H354.272C351.645 218.915 349.408 216.777 349.408 214.055V212.597C349.408 209.972 351.645 207.736 354.272 207.736H414.578C417.302 207.736 419.442 209.972 419.442 212.597V214.055C419.442 216.777 417.302 218.915 414.578 218.915Z" fill="#94A461"/>
<path d="M414.578 304.46H354.272C351.645 304.46 349.408 302.322 349.408 299.6V298.142C349.408 295.42 351.645 293.281 354.272 293.281H414.578C417.302 293.281 419.442 295.42 419.442 298.142V299.6C419.442 302.322 417.302 304.46 414.578 304.46Z" fill="#94A461"/>
<path d="M397.945 190.045H372.364C372.364 190.045 369.932 177.213 370.807 166.812C371.683 156.313 378.589 150.092 385.203 143.287C385.203 143.287 385.495 143.579 386.176 144.065C388.997 146.689 397.264 154.855 397.945 164.09C398.14 166.423 398.237 169.631 398.237 173.033C398.334 181.102 397.945 190.045 397.945 190.045Z" fill="#EFBE66"/>
<path d="M397.945 279.476H372.364C372.364 279.476 369.932 266.645 370.807 256.243C371.585 247.495 376.546 241.662 381.993 236.024C383.031 234.922 384.101 233.82 385.203 232.719C385.203 232.719 397.07 242.342 397.945 253.619C398.043 254.785 398.14 256.341 398.237 257.896C398.432 266.645 397.945 279.476 397.945 279.476Z" fill="#EFBE66"/>
<path d="M356.897 337.9C357.157 337.9 357.449 337.9 357.773 337.9C363.123 338.192 368.861 336.831 373.044 333.526M373.044 333.526C371.877 332.942 370.807 332.262 369.834 331.387C367.792 329.151 366.722 325.846 367.889 323.027C369.056 320.208 372.655 318.555 375.378 320.014C377.129 321.083 378.102 323.319 378.005 325.36C377.907 327.499 376.838 329.443 375.573 331.095C374.795 332.003 373.952 332.813 373.044 333.526ZM373.044 333.526C374.6 334.303 376.351 334.789 378.005 334.984C383.646 335.762 389.482 334.206 394.151 330.998M394.151 330.998C392.692 329.346 391.525 327.402 391.136 325.263C390.747 322.833 391.428 320.208 393.276 318.653C395.221 317.097 398.334 317.195 399.793 319.139C401.738 321.569 400.182 325.263 398.042 327.596C396.875 328.892 395.578 330.026 394.151 330.998ZM394.151 330.998C394.281 331.193 394.443 331.355 394.638 331.484C398.237 335.373 403.295 337.997 408.644 338.581C409.876 338.71 411.108 338.743 412.341 338.678" stroke="#1D313F" stroke-width="1.5" stroke-miterlimit="10"/>
<path d="M356.897 376.978C357.157 376.978 357.449 376.978 357.773 376.978C363.123 377.27 368.861 375.909 373.044 372.604M373.044 372.604C371.877 372.021 370.807 371.34 369.834 370.465C367.792 368.229 366.722 364.924 367.889 362.105C369.056 359.286 372.655 357.634 375.378 359.092C377.129 360.161 378.102 362.397 378.005 364.438C377.907 366.577 376.838 368.521 375.573 370.174C374.795 371.081 373.952 371.891 373.044 372.604ZM373.044 372.604C374.6 373.381 376.351 373.868 378.005 374.062C383.646 374.84 389.482 373.284 394.151 370.076M394.151 370.076C392.692 368.424 391.525 366.48 391.136 364.341C390.747 361.911 391.428 359.189 393.276 357.731C395.221 356.175 398.334 356.273 399.793 358.217C401.738 360.647 400.182 364.341 398.042 366.674C396.875 367.97 395.578 369.104 394.151 370.076ZM394.151 370.076C394.281 370.271 394.443 370.433 394.638 370.562C398.237 374.451 403.295 377.075 408.644 377.659C409.876 377.788 411.108 377.821 412.341 377.756" stroke="#94A461" stroke-width="1.5" stroke-miterlimit="10"/>
<g style="mix-blend-mode:soft-light" opacity="0.4">
<path d="M414.967 125.595H353.883C343.669 107.611 352.715 91.377 363.61 80.0035C365.263 78.2537 366.917 76.6984 368.667 75.2402C368.603 75.6291 368.603 76.0179 368.667 76.4067C368.765 81.3644 371.975 85.836 376.06 88.5579C380.242 91.377 385.203 92.4463 390.067 92.9323C397.167 93.5156 404.754 92.6407 410.493 88.4607C410.882 88.2015 411.239 87.9098 411.563 87.5858C415.162 92.6407 417.983 98.2788 419.053 104.403C420.123 111.013 419.247 118.11 414.967 125.595Z" fill="#1B1C1E"/>
</g>
<path d="M414.578 133.37H354.272C351.645 133.37 349.408 131.232 349.408 128.51V127.052C349.408 124.427 351.645 122.191 354.272 122.191H414.578C417.302 122.191 419.442 124.427 419.442 127.052V128.51C419.442 131.232 417.302 133.37 414.578 133.37Z" fill="#2F383F"/>
<g style="mix-blend-mode:soft-light" opacity="0.4">
<path d="M387.245 133.371V404.196H356.897V133.371H387.245Z" fill="#1B1C1E"/>
</g>
<g style="mix-blend-mode:soft-light" opacity="0.8">
<path d="M398.237 173.033C398.334 181.102 397.945 190.045 397.945 190.045H372.364C372.364 190.045 369.932 177.213 370.807 166.812C371.683 156.313 378.589 150.092 385.203 143.287C385.203 143.287 385.495 143.579 386.176 144.065C385.203 145.037 383.549 146.106 382.966 146.787C380.048 149.897 377.908 153.786 377.227 157.966C376.352 163.895 379.075 170.409 384.328 173.033C388.705 175.172 393.568 174.491 398.237 173.033Z" fill="#1B1C1E"/>
</g>
<g style="mix-blend-mode:soft-light" opacity="0.8">
<path d="M397.945 279.476H372.364C372.364 279.476 369.932 266.644 370.807 256.243C371.585 247.494 376.546 241.662 381.993 236.023C380.145 241.564 380.145 247.591 384.133 252.355C387.44 256.437 392.985 258.382 398.237 257.896C398.432 266.644 397.945 279.476 397.945 279.476Z" fill="#1B1C1E"/>
</g>
<path d="M210.897 106.347L211.676 75.7266H214.302L215.08 106.639L210.897 106.347Z" fill="#EFBE66"/>
<path d="M367.598 308.446H66.8432C66.8432 308.446 66.2596 254.3 68.594 231.359C68.594 231.035 68.6264 230.711 68.6913 230.387C69.2749 224.846 70.053 221.443 71.123 221.443C76.3755 221.443 363.026 218.819 365.36 222.61C365.75 223.29 366.139 226.887 366.43 232.331C366.43 232.72 366.43 233.109 366.43 233.497C367.598 256.633 367.598 308.446 367.598 308.446Z" fill="#2F383F"/>
<path d="M384.425 395.35H49.2373C49.2373 395.35 49.2373 350.342 49.2373 327.693V315.541C49.2373 308.834 66.8429 308.445 66.8429 308.445H367.597C367.597 308.445 375.962 306.89 379.367 308.445C380.242 308.834 381.02 315.055 381.701 323.999C381.701 324.387 381.734 324.744 381.799 325.068C383.549 350.342 384.425 395.35 384.425 395.35Z" fill="#94A461"/>
<path d="M157.595 288.322V307.764H96.3154V288.322C96.3154 288.322 96.3154 269.95 105.653 266.353C106.918 265.867 108.182 265.186 109.447 264.311C117.909 258.673 126.955 246.23 126.955 246.23C126.955 246.23 138.822 262.756 148.16 266.353C152.148 267.908 154.482 272.088 155.844 276.463C157.595 282.295 157.595 288.322 157.595 288.322Z" fill="#EFBE66"/>
<path d="M249.416 288.322V307.764H188.137V288.322C188.137 288.322 188.137 272.671 195.529 267.422C196.178 266.968 196.858 266.612 197.572 266.353C206.91 262.756 218.874 246.23 218.874 246.23C218.874 246.23 229.476 261.006 238.522 265.672C239.041 265.932 239.559 266.158 240.078 266.353C249.416 269.95 249.416 288.322 249.416 288.322Z" fill="#EFBE66"/>
<path d="M341.335 288.322V307.764H280.056V288.322C280.056 288.322 280.056 269.95 289.393 266.353C291.242 265.672 293.187 264.506 295.132 262.95C303.011 256.923 310.793 246.23 310.793 246.23C310.793 246.23 322.562 262.756 331.997 266.353C334.332 267.325 336.18 269.172 337.444 271.505C341.335 278.115 341.335 288.322 341.335 288.322Z" fill="#EFBE66"/>
<path d="M103.611 363.175H77.7373V352.482C77.7373 345.288 83.4762 339.553 90.674 339.553C97.7746 339.553 103.611 345.288 103.611 352.482V363.175Z" fill="#2F383F"/>
<path d="M152.829 363.175H126.955V352.482C126.955 345.288 132.694 339.553 139.892 339.553C146.992 339.553 152.829 345.288 152.829 352.482V363.175Z" fill="#2F383F"/>
<path d="M201.949 363.175H176.075V352.482C176.075 345.288 181.911 339.553 189.012 339.553C196.21 339.553 201.949 345.288 201.949 352.482V363.175Z" fill="#2F383F"/>
<path d="M251.167 363.175H225.294V352.482C225.294 345.288 231.13 339.553 238.231 339.553C245.429 339.553 251.167 345.288 251.167 352.482V363.175Z" fill="#2F383F"/>
<path d="M300.385 363.175H274.512V352.482C274.512 345.288 280.348 339.553 287.448 339.553C294.646 339.553 300.385 345.288 300.385 352.482V363.175Z" fill="#2F383F"/>
<path d="M349.603 363.175H323.729V352.482C323.729 345.288 329.566 339.553 336.666 339.553C343.767 339.553 349.603 345.288 349.603 352.482V363.175Z" fill="#2F383F"/>
<path d="M273.636 221.444H155.066C149.813 221.444 145.631 217.166 145.631 211.917C145.631 206.668 149.813 202.391 155.066 202.391H273.636C278.986 202.391 283.169 206.668 283.169 211.917C283.169 217.166 278.986 221.444 273.636 221.444Z" fill="#516B56"/>
<path d="M268.384 202.39H157.595C144.95 184.698 159.054 155.146 177.146 144.162C178.508 143.319 179.87 142.606 181.231 142.023C201.074 133.372 211.579 113.93 211.579 113.93H214.4C214.4 113.93 224.905 133.372 244.748 142.023C250.973 144.745 256.906 149.8 261.77 156.021C272.469 169.728 277.722 189.267 268.384 202.39Z" fill="#94A461"/>
<path d="M217.998 110.917C217.998 113.736 215.761 115.972 212.94 115.972C210.217 115.972 207.979 113.736 207.979 110.917C207.979 108.195 210.217 105.959 212.94 105.959C215.761 105.959 217.998 108.195 217.998 110.917Z" fill="#606060"/>
<g style="mix-blend-mode:soft-light" opacity="0.8">
<path d="M157.595 288.323V307.765H96.3154V288.323C96.3154 288.323 96.3154 269.951 105.653 266.354C106.918 265.868 108.182 265.187 109.447 264.312C108.863 269.659 110.128 275.492 114.407 279.574C120.049 284.824 129.387 285.699 137.363 283.949C143.977 282.491 149.91 279.477 155.844 276.464C157.595 282.296 157.595 288.323 157.595 288.323Z" fill="#1B1C1E"/>
</g>
<g style="mix-blend-mode:soft-light" opacity="0.8">
<path d="M249.416 288.324V307.765H188.137V288.324C188.137 288.324 188.137 272.673 195.529 267.424C195.659 268.072 195.853 268.72 196.113 269.368C197.864 273.062 202.727 274.812 207.299 275.395C218.679 276.853 230.643 272.965 238.522 265.674C239.041 265.933 239.559 266.16 240.078 266.354C249.416 269.951 249.416 288.324 249.416 288.324Z" fill="#1B1C1E"/>
</g>
<g style="mix-blend-mode:soft-light" opacity="0.8">
<path d="M341.335 288.323V307.765H280.056V288.323C280.056 288.323 280.056 269.95 289.393 266.353C291.242 265.673 293.187 264.507 295.132 262.951C293.771 266.159 291.631 269.659 291.144 270.728C289.588 274.616 288.421 279.282 291.242 282.49C293.576 285.212 297.856 285.893 301.747 285.99C315.364 286.281 328.787 280.546 337.444 271.506C341.335 278.116 341.335 288.323 341.335 288.323Z" fill="#1B1C1E"/>
</g>
<path d="M170.531 202.39C168.683 180.226 170.337 170.213 188.137 156.701C205.937 143.287 212.94 115.971 212.94 115.971C212.94 115.971 215.858 144.161 230.935 151.258C245.914 158.257 259.046 175.366 257.781 202.876" stroke="#516B4C" stroke-width="2" stroke-linecap="round" stroke-linejoin="round"/>
<path d="M212.94 115.971V202.876" stroke="#516B4C" stroke-width="2" stroke-linecap="round" stroke-linejoin="round"/>
<path d="M366.43 233.497C366.236 233.367 366.041 233.238 365.847 233.108C364.29 232.136 362.928 231.261 360.01 231.261C357.092 231.261 355.633 232.136 354.077 233.108C352.521 234.08 350.965 235.15 347.755 235.15C344.545 235.15 342.891 234.08 341.335 233.108C339.876 232.136 338.417 231.261 335.499 231.261C332.581 231.261 331.219 232.136 329.663 233.108C328.106 234.08 326.453 235.15 323.243 235.15C320.13 235.15 318.477 234.08 316.92 233.108C315.364 232.136 314.002 231.261 311.084 231.261C308.166 231.261 306.707 232.136 305.248 233.108C303.692 234.08 302.038 235.15 298.829 235.15C295.619 235.15 294.062 234.08 292.506 233.108C290.95 232.136 289.491 231.261 286.573 231.261C283.655 231.261 282.293 232.136 280.737 233.108C279.18 234.08 277.624 235.15 274.414 235.15C271.204 235.15 269.551 234.08 267.994 233.108C266.535 232.136 265.076 231.261 262.158 231.261C259.24 231.261 257.781 232.136 256.322 233.108C254.766 234.08 253.112 235.15 249.902 235.15C246.693 235.15 245.136 234.08 243.58 233.108C242.024 232.136 240.565 231.261 237.744 231.261C234.826 231.261 233.367 232.136 231.81 233.108C230.254 234.08 228.698 235.15 225.488 235.15C222.278 235.15 220.625 234.08 219.068 233.108C217.609 232.136 216.15 231.261 213.232 231.261C210.314 231.261 208.952 232.136 207.396 233.108C205.84 234.08 204.186 235.15 200.976 235.15C197.864 235.15 196.21 234.08 194.654 233.108C193.098 232.136 191.736 231.261 188.818 231.261C185.9 231.261 184.441 232.136 182.982 233.108C181.425 234.08 179.772 235.15 176.562 235.15C173.352 235.15 171.796 234.08 170.239 233.108C168.683 232.136 167.224 231.261 164.306 231.261C161.485 231.261 160.026 232.136 158.47 233.108C156.914 234.08 155.357 235.15 152.147 235.15C148.938 235.15 147.284 234.08 145.728 233.108C144.269 232.136 142.81 231.261 139.892 231.261C136.974 231.261 135.515 232.136 134.056 233.108C132.499 234.08 130.846 235.15 127.636 235.15C124.523 235.15 122.87 234.08 121.313 233.108C119.757 232.136 118.395 231.261 115.477 231.261C112.559 231.261 111.1 232.136 109.641 233.108C107.988 234.08 106.431 235.15 103.221 235.15C100.011 235.15 98.4552 234.08 96.8016 233.108C95.3426 232.136 93.8836 231.261 90.9655 231.261C88.0475 231.261 86.6857 232.136 85.1294 233.108C83.5731 234.08 82.0168 235.15 78.807 235.15C75.5971 235.15 73.9435 234.08 72.3872 233.108C71.3173 232.428 70.2473 231.747 68.5938 231.358C68.5938 231.034 68.6262 230.71 68.691 230.386C70.5391 230.775 71.7063 231.553 72.8736 232.233C74.4299 233.205 75.8889 234.177 78.807 234.177C81.725 234.177 83.0868 233.205 84.6431 232.233C86.1994 231.261 87.7557 230.289 90.9655 230.289C94.1754 230.289 95.8289 231.261 97.3852 232.233C98.8443 233.205 100.303 234.177 103.221 234.177C106.139 234.177 107.598 233.205 109.057 232.233C110.614 231.261 112.267 230.289 115.477 230.289C118.687 230.289 120.243 231.261 121.8 232.233C123.356 233.205 124.718 234.177 127.636 234.177C130.554 234.177 132.013 233.205 133.569 232.233C135.125 231.261 136.682 230.289 139.892 230.289C143.102 230.289 144.755 231.261 146.311 232.233C147.77 233.205 149.229 234.177 152.147 234.177C155.066 234.177 156.427 233.205 157.984 232.233C159.54 231.261 161.193 230.289 164.306 230.289C167.516 230.289 169.169 231.261 170.726 232.233C172.282 233.205 173.644 234.177 176.562 234.177C179.48 234.177 180.939 233.205 182.398 232.233C183.954 231.261 185.608 230.289 188.818 230.289C192.028 230.289 193.584 231.261 195.14 232.233C196.696 233.205 198.058 234.177 200.976 234.177C203.894 234.177 205.353 233.205 206.91 232.233C208.466 231.261 210.022 230.289 213.232 230.289C216.442 230.289 218.096 231.261 219.652 232.233C221.111 233.205 222.57 234.177 225.488 234.177C228.406 234.177 229.768 233.205 231.324 232.233C232.88 231.261 234.534 230.289 237.744 230.289C240.856 230.289 242.51 231.261 244.066 232.233C245.623 233.205 246.984 234.177 249.902 234.177C252.82 234.177 254.28 233.205 255.739 232.233C257.295 231.261 258.948 230.289 262.158 230.289C265.368 230.289 266.924 231.261 268.481 232.233C270.037 233.205 271.496 234.177 274.414 234.177C277.332 234.177 278.694 233.205 280.25 232.233C281.807 231.261 283.363 230.289 286.573 230.289C289.783 230.289 291.436 231.261 292.992 232.233C294.451 233.205 295.91 234.177 298.829 234.177C301.747 234.177 303.206 233.205 304.665 232.233C306.221 231.261 307.875 230.289 311.084 230.289C314.294 230.289 315.851 231.261 317.407 232.233C318.963 233.205 320.325 234.177 323.243 234.177C326.161 234.177 327.62 233.205 329.176 232.233C330.733 231.261 332.289 230.289 335.499 230.289C338.709 230.289 340.362 231.261 341.919 232.233C343.378 233.205 344.837 234.177 347.755 234.177C350.673 234.177 352.132 233.205 353.591 232.233C355.147 231.261 356.801 230.289 360.01 230.289C363.22 230.289 364.777 231.261 366.333 232.233C366.333 232.233 366.365 232.266 366.43 232.33C366.43 232.719 366.43 233.108 366.43 233.497Z" fill="#FBFAF6"/>
<path d="M381.799 325.068C380.923 325.36 380.242 325.749 379.561 326.137C377.713 327.11 375.768 328.179 371.975 328.179C368.181 328.179 366.333 327.11 364.388 326.137C362.637 325.165 360.983 324.29 357.481 324.29C353.98 324.29 352.326 325.165 350.575 326.137C348.727 327.11 346.782 328.179 342.988 328.179C339.195 328.179 337.25 327.11 335.402 326.137C333.651 325.165 331.9 324.29 328.495 324.29C324.994 324.29 323.34 325.165 321.589 326.137C319.644 327.11 317.796 328.179 314.002 328.179C310.209 328.179 308.264 327.11 306.415 326.137C304.665 325.165 302.914 324.29 299.509 324.29C296.008 324.29 294.354 325.165 292.506 326.137C290.658 327.11 288.81 328.179 284.919 328.179C281.126 328.179 279.278 327.11 277.429 326.137C275.581 325.165 273.928 324.29 270.426 324.29C267.022 324.29 265.271 325.165 263.52 326.137C261.672 327.11 259.727 328.179 255.933 328.179C252.14 328.179 250.292 327.11 248.346 326.137C246.595 325.165 244.942 324.29 241.44 324.29C238.036 324.29 236.285 325.165 234.534 326.137C232.686 327.11 230.741 328.179 226.947 328.179C223.154 328.179 221.208 327.11 219.36 326.137C217.609 325.165 215.956 324.29 212.454 324.29C208.952 324.29 207.299 325.165 205.548 326.137C203.7 327.11 201.754 328.179 197.961 328.179C194.167 328.179 192.222 327.11 190.374 326.137C188.623 325.165 186.872 324.29 183.468 324.29C179.966 324.29 178.313 325.165 176.465 326.137C174.617 327.11 172.768 328.179 168.975 328.179C165.181 328.179 163.236 327.11 161.388 326.137C159.637 325.165 157.886 324.29 154.482 324.29C150.98 324.29 149.327 325.165 147.479 326.137C145.63 327.11 143.782 328.179 139.989 328.179C136.195 328.179 134.25 327.11 132.402 326.137C130.651 325.165 128.9 324.29 125.399 324.29C121.994 324.29 120.341 325.165 118.493 326.137C116.644 327.11 114.699 328.179 111.003 328.179C107.112 328.179 105.264 327.11 103.416 326.137C101.568 325.165 99.9142 324.29 96.4126 324.29C93.0082 324.29 91.2573 325.165 89.5065 326.137C87.6584 327.11 85.713 328.179 81.9196 328.179C78.1261 328.179 76.278 327.11 74.3326 326.137C72.5818 325.165 70.9282 324.29 67.4265 324.29C64.0221 324.29 62.2713 325.165 60.5205 326.137C58.6724 327.11 56.727 328.179 52.9335 328.179C51.4745 328.179 50.21 327.984 49.2373 327.693V326.721C50.21 327.012 51.3772 327.207 52.9335 327.207C56.4352 327.207 58.0887 326.235 59.9368 325.263C61.6877 324.29 63.6331 323.318 67.4265 323.318C71.22 323.318 73.1654 324.29 75.0135 325.263C76.7643 326.235 78.5152 327.207 81.9196 327.207C85.4212 327.207 87.0748 326.235 88.9229 325.263C90.771 324.29 92.6191 323.318 96.4126 323.318C100.206 323.318 102.151 324.29 104 325.263C105.75 326.235 107.501 327.207 111.003 327.207C114.407 327.207 116.061 326.235 117.909 325.263C119.757 324.29 121.702 323.318 125.399 323.318C129.289 323.318 131.137 324.29 132.986 325.263C134.834 326.235 136.487 327.207 139.989 327.207C143.393 327.207 145.144 326.235 146.895 325.263C148.743 324.29 150.688 323.318 154.482 323.318C158.275 323.318 160.123 324.29 161.972 325.263C163.82 326.235 165.473 327.207 168.975 327.207C172.379 327.207 174.13 326.235 175.881 325.263C177.729 324.29 179.674 323.318 183.468 323.318C187.261 323.318 189.11 324.29 191.055 325.263C192.806 326.235 194.459 327.207 197.961 327.207C201.365 327.207 203.116 326.235 204.867 325.263C206.715 324.29 208.661 323.318 212.454 323.318C216.247 323.318 218.193 324.29 220.041 325.263C221.792 326.235 223.543 327.207 226.947 327.207C230.449 327.207 232.102 326.235 233.853 325.263C235.701 324.29 237.647 323.318 241.44 323.318C245.234 323.318 247.179 324.29 249.027 325.263C250.778 326.235 252.529 327.207 255.933 327.207C259.435 327.207 261.088 326.235 262.936 325.263C264.785 324.29 266.633 323.318 270.426 323.318C274.22 323.318 276.165 324.29 278.013 325.263C279.861 326.235 281.515 327.207 284.919 327.207C288.421 327.207 290.074 326.235 291.922 325.263C293.771 324.29 295.716 323.318 299.509 323.318C303.303 323.318 305.151 324.29 306.999 325.263C308.847 326.235 310.501 327.207 314.002 327.207C317.407 327.207 319.158 326.235 320.909 325.263C322.757 324.29 324.702 323.318 328.495 323.318C332.289 323.318 334.234 324.29 336.082 325.263C337.833 326.235 339.487 327.207 342.988 327.207C346.393 327.207 348.144 326.235 349.895 325.263C351.743 324.29 353.688 323.318 357.481 323.318C361.275 323.318 363.22 324.29 365.068 325.263C366.819 326.235 368.57 327.207 371.975 327.207C375.476 327.207 377.13 326.235 378.978 325.263C379.756 324.874 380.631 324.388 381.701 323.999C381.701 324.388 381.734 324.744 381.799 325.068Z" fill="#FBFAF6"/>
<path d="M-80.2275 416.736H157.108C157.497 416.736 157.886 416.736 158.275 416.736C158.664 404.682 155.552 392.433 148.354 382.81C141.253 373.089 129.97 366.284 118.006 365.701C106.042 365.02 93.5914 371.047 87.5608 381.351C90.8679 369.395 85.0318 355.397 74.0405 349.37C63.0491 343.343 48.167 345.87 39.8019 355.202C43.109 337.316 46.2216 318.068 38.732 301.445C33.1877 288.905 21.5154 279.282 8.18961 276.074C-5.23345 272.866 -19.921 276.171 -30.6205 284.725C-42.5846 294.252 -38.402 313.499 -32.8577 327.692C-38.8884 319.915 -50.8524 319.429 -59.9957 323.317C-72.1542 328.372 -81.3947 340.037 -83.6319 353.161C-85.7718 366.187 -80.8111 380.282 -70.8897 389.031C-79.1576 387.962 -88.6899 387.184 -94.7205 392.919C-99.3894 397.294 -100.459 405.07 -97.055 410.514C-93.6506 416.055 -86.2582 419.069 -80.2275 416.736Z" fill="#FBFAF6"/>
<path d="M520.407 416.639H257.295C256.906 416.639 256.42 416.639 256.031 416.639C255.544 403.321 259.046 389.712 266.925 379.019C274.804 368.228 287.351 360.743 300.58 360.063C313.906 359.285 327.62 365.993 334.332 377.463C330.636 364.146 337.153 348.689 349.311 341.982C361.47 335.372 378.103 338.093 387.343 348.398C383.647 328.567 380.145 307.278 388.413 288.808C394.638 275.005 407.575 264.312 422.36 260.715C437.145 257.118 453.486 260.812 465.353 270.339C478.581 280.934 473.912 302.223 467.882 317.971C474.496 309.32 487.822 308.833 497.84 313.013C511.458 318.749 521.671 331.678 524.103 346.162C526.535 360.646 520.99 376.2 509.999 385.92C519.142 384.754 529.745 383.879 536.456 390.198C541.611 395.155 542.779 403.71 538.985 409.834C535.192 415.861 527.021 419.166 520.407 416.639Z" fill="#FBFAF6"/>
<path d="M-16.9058 203.751L9.16222 196.266L-17.7812 192.669L-9.80515 178.282L-22.3528 187.808L-29.9397 151.258L-35.7759 186.059L-52.2143 175.269L-39.6666 192.766L-65.0537 193.641L-40.6393 205.792L-48.518 214.249L-36.1649 210.167L-29.9397 243.898L-22.3528 210.361L-5.52533 221.832L-16.9058 203.751Z" fill="#353D44"/>
<path d="M434.712 165.353L415.745 159.035L435.393 155.924L429.655 143.773L438.798 151.841L444.342 120.734L448.525 150.286L460.391 141.051L451.248 155.924L469.729 156.507L451.929 167.006L457.571 174.102L448.719 170.7L444.05 199.279L438.603 170.894L426.347 180.713L434.712 165.353Z" fill="#EFBE66"/>
<path d="M275.095 52.9784L260.019 48.0207L275.582 45.5905L271.01 35.8695L278.208 42.2854L282.682 17.6914L285.892 41.0216L295.327 33.7309L288.129 45.5905L302.719 46.0765L288.616 54.3393L293.187 59.8802L286.087 57.2556L282.39 79.8081L278.111 57.3528L268.481 65.1295L275.095 52.9784Z" fill="#EFBE66"/>
<g style="mix-blend-mode:soft-light" opacity="0.4">
<path d="M268.384 202.39H157.595C144.95 184.698 159.054 155.147 177.146 144.162C175.979 146.592 174.617 148.925 174.033 151.55C172.672 157.966 174.033 165.645 179.383 170.02C185.608 175.075 194.557 174.2 202.533 173.13C218.193 170.895 234.048 168.659 248.638 162.729C253.21 160.882 257.587 158.646 261.77 156.022C272.469 169.728 277.722 189.267 268.384 202.39Z" fill="#1B1C1E"/>
</g>
<path d="M223.187 429.367C237.087 454.467 227.987 486.067 202.887 499.967C177.787 513.867 146.187 504.767 132.387 479.667C118.487 454.567 127.587 422.967 152.687 409.067C177.787 395.167 209.387 404.267 223.187 429.367Z" fill="white"/>
<path d="M200.288 387.067C210.388 405.467 203.788 428.467 185.488 438.567C167.188 448.667 144.088 442.067 133.988 423.767C123.888 405.467 130.488 382.367 148.788 372.267C167.088 362.167 190.188 368.767 200.288 387.067Z" fill="white"/>
<path d="M75.9869 446.168C88.9869 469.668 80.4869 499.368 56.8869 512.368C33.3869 525.368 3.68692 516.868 -9.31309 493.268C-22.3131 469.768 -13.8131 440.068 9.7869 427.068C33.2869 414.068 62.9869 422.568 75.9869 446.168Z" fill="white"/>
<path d="M57.6875 371.567C65.0875 384.967 60.1875 401.967 46.7875 409.367C33.3875 416.767 16.4875 411.867 8.98754 398.467C1.58754 385.067 6.48754 368.167 19.8875 360.667C33.2875 353.267 50.1875 358.167 57.6875 371.567Z" fill="white"/>
<path d="M237.187 400.167C243.387 411.567 239.287 425.767 227.987 432.067C216.687 438.267 202.487 434.167 196.187 422.867C189.887 411.567 193.987 397.267 205.387 391.067C216.687 384.767 230.887 388.867 237.187 400.167Z" fill="white"/>
<path d="M160.887 352.867C174.287 377.167 165.487 407.667 141.187 421.067C116.987 434.467 86.3869 425.667 72.9869 401.467C59.5869 377.167 68.3869 346.667 92.6869 333.267C116.887 319.867 147.387 328.667 160.887 352.867Z" fill="white"/>
<path d="M26.7873 429.567C40.7873 455.067 31.5873 487.067 6.18733 501.167C-19.3127 515.267 -51.3127 505.967 -65.4127 480.567C-79.5127 455.067 -70.2127 423.067 -44.8127 408.967C-19.3127 394.967 12.6873 404.167 26.7873 429.567Z" fill="white"/>
<path d="M71.7873 411.968C85.7873 437.368 76.5873 469.468 51.1873 483.468C25.6873 497.568 -6.31267 488.368 -20.4127 462.868C-34.5127 437.468 -25.2127 405.468 0.18732 391.368C25.6873 377.268 57.6873 386.468 71.7873 411.968Z" fill="white"/>
<path d="M178.188 392.368C199.488 430.868 185.488 479.268 146.988 500.568C108.488 521.868 60.0877 507.868 38.7877 469.368C17.4877 430.868 31.4877 382.468 69.9876 361.168C108.488 339.868 156.888 353.868 178.188 392.368Z" fill="white"/>
<path d="M209.889 429.367C195.989 454.467 205.089 486.068 230.189 499.968C255.29 513.868 286.89 504.768 300.69 479.667C314.59 454.567 305.49 422.967 280.39 409.067C255.29 395.167 223.689 404.267 209.889 429.367Z" fill="white"/>
<path d="M232.789 387.069C222.689 405.469 229.289 428.47 247.589 438.57C265.889 448.67 288.989 442.07 299.089 423.769C309.19 405.469 302.589 382.369 284.289 372.269C265.989 362.169 242.889 368.769 232.789 387.069Z" fill="white"/>
<path d="M357.09 446.168C344.09 469.668 352.59 499.369 376.191 512.369C399.691 525.369 429.391 516.869 442.391 493.268C455.391 469.768 446.891 440.068 423.291 427.068C399.791 414.068 370.091 422.568 357.09 446.168Z" fill="white"/>
<path d="M375.391 371.567C367.991 384.967 372.891 401.968 386.291 409.368C399.691 416.768 416.591 411.868 424.092 398.468C431.492 385.067 426.592 368.167 413.191 360.667C399.791 353.267 382.891 358.167 375.391 371.567Z" fill="white"/>
<path d="M195.89 400.168C189.689 411.568 193.789 425.768 205.09 432.068C216.39 438.268 230.59 434.168 236.89 422.868C243.19 411.568 239.09 397.268 227.69 391.067C216.39 384.767 202.19 388.867 195.89 400.168Z" fill="white"/>
<path d="M272.189 352.868C258.789 377.168 267.589 407.668 291.89 421.068C316.09 434.468 346.69 425.668 360.09 401.468C373.49 377.168 364.69 346.668 340.39 333.268C316.19 319.867 285.689 328.667 272.189 352.868Z" fill="white"/>
<path d="M406.291 429.567C392.291 455.067 401.491 487.068 426.891 501.168C452.391 515.268 484.392 505.968 498.492 480.568C512.592 455.067 503.292 423.067 477.892 408.967C452.391 394.967 420.391 404.167 406.291 429.567Z" fill="white"/>
<path d="M361.29 411.968C347.29 437.368 356.49 469.469 381.89 483.469C407.39 497.569 439.391 488.369 453.491 462.868C467.591 437.468 458.291 405.468 432.891 391.368C407.39 377.268 375.39 386.468 361.29 411.968Z" fill="white"/>
<path d="M254.889 392.368C233.589 430.868 247.589 479.269 286.089 500.569C324.59 521.869 372.99 507.869 394.29 469.369C415.591 430.868 401.59 382.468 363.09 361.168C324.59 339.867 276.189 353.868 254.889 392.368Z" fill="white"/>
</g>
<defs>
<clipPath id="clip0_2172_299">
<rect width="641" height="418" fill="white" transform="translate(-99)"/>
</clipPath>
</defs>
</svg>
