<svg width="430" height="432" viewBox="0 0 430 432" fill="none" xmlns="http://www.w3.org/2000/svg">
<mask id="mask0_2183_459" style="mask-type:luminance" maskUnits="userSpaceOnUse" x="-65" y="0" width="567" height="429">
<path d="M-64.999 0V428.894H501.999V0H-64.999Z" fill="white"/>
</mask>
<g mask="url(#mask0_2183_459)">
<path d="M202.891 294.223L201.433 194.205H191.654C195.342 188.114 196.801 182.196 196.715 176.62C196.772 174.561 196.6 172.56 196.2 170.615C192.426 150.2 169.008 134.159 158.629 127.983C156.828 126.525 155.455 125.496 154.769 124.895C155.198 124.638 155.455 124.123 155.455 123.523C155.455 123.094 155.198 122.665 154.941 122.322C155.97 121.807 156.656 120.778 156.656 119.577C156.656 118.977 156.485 118.376 156.141 117.947C157.514 117.69 158.886 116.832 159.916 115.803C161.46 114.259 162.403 112.114 163.347 110.141C162.06 110.913 160.688 111.771 159.229 112.2C157.771 112.543 156.056 112.457 154.769 111.6C152.796 110.141 152.71 106.796 154.34 104.909C155.97 103.022 158.886 102.507 161.288 103.193C160.259 102.25 159.487 101.049 158.2 100.534C156.57 99.7621 154.941 99.8479 153.396 100.448C151.424 101.135 149.622 102.679 148.336 104.308C147.135 105.767 146.277 107.482 146.534 109.455C146.792 110.742 147.392 111.943 148.078 113.058C149.022 114.516 150.394 116.06 152.024 117.089C151.166 117.604 150.652 118.548 150.652 119.577C150.652 120.778 151.338 121.807 152.367 122.322C152.024 122.665 151.852 123.094 151.852 123.523C151.852 124.123 152.11 124.552 152.453 124.895C151.767 125.41 150.394 126.525 148.593 127.983C143.532 130.986 135.383 136.39 127.92 143.424C118.57 152.173 110.336 163.582 110.421 176.534C110.336 182.196 111.88 188.114 115.568 194.205H113.681H104.331V294.223H115.997V294.394H116.855V294.223H128.864H138.986H169.609H179.731H188.737V294.394H189.681V294.223H202.891Z" fill="#D8CDA7"/>
<path d="M66.2435 387.893L64.7852 287.875H55.0064C58.6949 281.784 60.1531 275.951 60.0674 270.29C60.1245 268.288 59.953 266.287 59.5527 264.285C55.7785 243.87 32.3608 227.915 21.9816 221.739C20.1802 220.195 18.8078 219.166 18.1215 218.651C18.4646 218.308 18.722 217.793 18.722 217.279C18.722 216.764 18.5504 216.335 18.2931 215.992C19.3224 215.563 20.0087 214.534 20.0087 213.333C20.0087 212.647 19.8371 212.132 19.494 211.617C20.8665 211.36 22.2389 210.588 23.2683 209.473C24.8123 207.929 25.7558 205.87 26.6994 203.811C25.4127 204.669 24.0403 205.441 22.582 205.87C21.1238 206.299 19.4082 206.213 18.1215 205.27C16.1486 203.811 16.0628 200.466 17.6926 198.579C19.3224 196.692 22.1531 196.177 24.6407 196.863C23.6114 195.92 22.8394 194.805 21.5527 194.204C19.9229 193.518 18.2073 193.604 16.7491 194.118C14.6904 194.805 12.9748 196.349 11.6881 197.978C10.4872 199.522 9.62942 201.152 9.88676 203.211C10.1441 204.498 10.6588 205.699 11.4308 206.728C12.3744 208.186 13.7468 209.816 15.3766 210.759C14.5188 211.274 14.0042 212.218 14.0042 213.333C14.0042 214.534 14.6904 215.563 15.7197 215.992C15.3766 216.335 15.2051 216.764 15.2051 217.279C15.2051 217.793 15.4624 218.308 15.8055 218.565C15.1193 219.166 13.7468 220.195 11.9455 221.739C6.88452 224.741 -1.26448 230.06 -8.81301 237.094C-18.0771 245.929 -26.3119 257.337 -26.2261 270.204C-26.3119 275.866 -24.7679 281.784 -21.0794 287.875H-22.9665H-32.3164V387.893H-20.7363V388.064H-19.7927V387.893H-7.78366H2.33823H32.9613H43.0832H52.09V388.064H53.0335V387.893H66.2435Z" fill="#D8CDA7"/>
<path d="M469.577 387.207L468.119 287.189H458.34C462.029 281.098 463.487 275.265 463.401 269.604C463.459 267.545 463.287 265.544 462.887 263.599C459.112 243.184 435.695 227.229 425.316 220.967C423.514 219.509 422.142 218.48 421.456 217.965C421.799 217.622 422.056 217.107 422.056 216.593C422.056 216.078 421.884 215.649 421.627 215.306C422.656 214.877 423.343 213.848 423.343 212.647C423.343 211.961 423.171 211.446 422.828 210.931C424.2 210.674 425.573 209.816 426.602 208.787C428.146 207.243 429.09 205.184 430.033 203.125C428.747 203.983 427.374 204.755 425.916 205.184C424.458 205.527 422.742 205.441 421.456 204.584C419.483 203.125 419.397 199.78 421.027 197.893C422.656 196.006 425.487 195.491 427.975 196.177C426.945 195.234 426.173 194.119 424.887 193.518C423.257 192.832 421.541 192.832 419.997 193.432C418.024 194.119 416.309 195.663 415.022 197.292C413.821 198.836 412.963 200.466 413.221 202.439C413.478 203.726 413.993 204.927 414.765 206.042C415.708 207.5 417.081 209.044 418.711 210.073C417.853 210.588 417.338 211.532 417.338 212.647C417.338 213.848 418.024 214.877 419.054 215.306C418.711 215.649 418.539 216.078 418.539 216.593C418.539 217.107 418.796 217.536 419.14 217.879C418.453 218.48 417.081 219.509 415.279 220.967C410.219 224.055 402.07 229.374 394.521 236.408C385.257 245.157 377.022 256.651 377.108 269.518C377.022 275.18 378.566 281.098 382.255 287.189H380.367H371.018V387.207H382.598V387.378H383.541V387.207H395.55H405.672H436.295H446.417H455.424V387.378H456.368V387.207H469.577Z" fill="#D8CDA7"/>
<path d="M339.278 333.424L337.648 217.795H326.325C330.614 210.761 332.329 203.984 332.244 197.465C332.244 195.12 332.044 192.804 331.643 190.517C327.183 166.928 300.162 148.4 288.153 141.28C286.095 139.564 284.551 138.363 283.693 137.763C284.122 137.334 284.465 136.734 284.465 136.133C284.465 135.533 284.208 135.104 283.864 134.675C285.065 134.16 285.837 132.959 285.837 131.587C285.837 130.815 285.666 130.214 285.237 129.614C286.867 129.271 288.497 128.413 289.612 127.126C291.413 125.325 292.528 122.923 293.557 120.607C292.099 121.551 290.555 122.494 288.84 122.923C287.124 123.438 285.151 123.352 283.693 122.237C281.377 120.607 281.291 116.747 283.178 114.603C285.151 112.372 288.411 111.772 291.156 112.544C290.041 111.429 289.097 110.142 287.639 109.456C285.752 108.684 283.864 108.77 282.063 109.37C279.747 110.228 277.688 111.944 276.23 113.831C274.858 115.632 273.828 117.519 274.171 119.835C274.429 121.293 275.115 122.752 275.973 123.953C277.088 125.668 278.632 127.47 280.519 128.67C279.575 129.271 278.889 130.3 278.889 131.587C278.889 132.959 279.747 134.16 280.862 134.675C280.519 135.104 280.347 135.533 280.347 136.133C280.347 136.734 280.605 137.334 281.034 137.677C280.176 138.278 278.632 139.564 276.573 141.28C270.655 144.797 261.219 150.973 252.555 159.122C241.833 169.244 232.311 182.454 232.397 197.379C232.311 203.898 234.027 210.761 238.316 217.795H236.171H225.363V333.424H238.831V333.682H239.86V333.424H253.67H265.422H300.849H312.515H322.98V333.682H324.009V333.424H339.278Z" fill="#D8CDA7"/>
<path d="M396.578 126.009C396.578 127.296 395.549 128.325 394.262 128.325C392.976 128.325 391.86 127.296 391.86 126.009C391.86 124.637 392.976 123.607 394.262 123.607C395.549 123.607 396.578 124.637 396.578 126.009Z" fill="#94A461"/>
<path d="M302.393 46.1504C302.393 47.866 300.935 49.3242 299.22 49.3242C297.504 49.3242 296.046 47.866 296.046 46.1504C296.046 44.349 297.504 42.9766 299.22 42.9766C300.935 42.9766 302.393 44.349 302.393 46.1504Z" fill="#2F383F"/>
<path d="M80.3975 70.8517C80.3975 72.0526 79.454 72.9961 78.253 72.9961C77.1379 72.9961 76.1943 72.0526 76.1943 70.8517C76.1943 69.7365 77.1379 68.793 78.253 68.793C79.454 68.793 80.3975 69.7365 80.3975 70.8517Z" fill="#94A461"/>
<path d="M8.77295 115.031C8.77295 116.832 7.31472 118.376 5.51336 118.376C3.62623 118.376 2.16797 116.832 2.16797 115.031C2.16797 113.23 3.62623 111.771 5.51336 111.771C7.31472 111.771 8.77295 113.23 8.77295 115.031Z" fill="#2F383F"/>
<path d="M72.1619 368.677C72.1619 368.677 69.3312 275.264 72.7623 275.264C76.1935 275.264 369.643 269.517 372.559 272.605C375.39 275.779 372.559 368.677 372.559 368.677H72.1619Z" fill="#2A3D2C"/>
<path d="M107.503 336.682H89.2324V319.698C89.2324 314.723 93.2641 310.605 98.325 310.605C103.386 310.605 107.503 314.723 107.503 319.698V336.682Z" fill="white"/>
<path d="M343.652 336.682H325.381V319.698C325.381 314.723 329.498 310.605 334.559 310.605C339.62 310.605 343.652 314.723 343.652 319.698V336.682Z" fill="white"/>
<path d="M139.671 285.386C136.84 283.842 134.095 282.212 130.922 280.411C130.75 280.325 130.493 280.411 130.407 280.668C130.235 282.47 130.15 283.585 130.064 284.871C130.064 285.129 129.721 285.214 129.549 285.129C127.576 283.842 125.775 282.555 123.201 280.926C123.03 280.754 122.773 280.84 122.687 281.097C122.344 282.984 121.743 284.528 122.172 285.558C128.691 301.512 129.034 341.657 127.662 358.641C127.662 358.813 118.569 355.896 118.569 355.896C118.312 355.896 121.4 335.395 121.486 335.224C123.802 319.526 123.545 303.828 120.028 288.303C119.685 286.759 118.741 285.386 117.969 283.928C116.94 284.014 116.854 284.014 115.824 284.099C114.366 288.56 112.908 292.935 111.364 297.481C111.278 297.738 110.849 297.738 110.764 297.481C110.42 296.537 109.991 295.508 109.391 294.05C109.305 293.792 108.876 293.792 108.791 294.05C107.247 298.253 105.96 301.684 104.673 305.201C104.502 305.458 104.073 305.458 104.073 305.115C103.73 303.8 103.415 302.485 103.129 301.169C102.186 301.169 102.357 301.169 101.328 301.169C100.556 303.914 99.7838 306.659 99.0976 309.233C99.0118 309.49 98.7545 309.576 98.5829 309.318C95.2376 304.944 94.6371 298.51 98.5829 293.449C101.843 289.16 106.217 285.643 110.163 281.955C110.42 281.698 110.163 281.354 109.906 281.354C106.131 282.298 101.928 283.242 97.382 284.271C97.0389 284.357 96.8674 284.014 97.0389 283.756C97.6394 282.813 98.154 282.041 99.0976 280.754C99.1834 280.497 99.0118 280.154 98.7545 280.239C93.4362 281.097 88.8899 281.869 83.9147 282.727C83.5716 282.813 83.4001 282.384 83.6574 282.212C84.6867 281.183 85.6303 280.239 86.4881 279.382C85.9734 278.438 86.0592 278.61 85.5445 277.666C81.7703 278.695 78.0818 279.81 74.5649 280.84C74.3075 280.926 74.0502 280.668 74.136 280.411C76.5378 272.519 83.6574 270.289 102.443 272.176C102.786 272.176 102.958 271.747 102.615 271.576C101.499 270.889 100.556 270.375 99.3549 269.689C99.1834 269.517 99.1834 269.174 99.4407 269.088C100.556 268.831 101.585 268.573 103.301 268.145C103.558 268.145 103.644 267.716 103.387 267.544C98.7545 265.142 94.9802 263.169 90.8628 261.025C90.6055 260.853 90.6913 260.424 91.0344 260.424L94.8945 260.253C95.1518 259.052 95.066 259.224 95.3233 258.023C92.2353 256.822 89.2331 255.535 86.3166 254.42C86.0592 254.248 86.0592 253.905 86.3166 253.819C93.9509 249.445 99.1834 251.761 112.736 266C112.994 266.257 113.337 266.086 113.337 265.828C112.479 254.077 110.849 242.325 124.317 235.806C124.574 235.72 124.831 235.977 124.745 236.235C123.03 239.923 121.572 243.097 120.113 246.357C120.971 246.957 120.8 246.871 121.657 247.558C122.687 246.7 123.716 245.842 124.831 244.898C125.089 244.641 125.432 244.898 125.346 245.242C123.802 249.616 122.429 253.562 120.971 257.508C121.657 258.108 121.657 258.108 122.258 258.623C122.858 258.28 123.545 257.851 124.317 257.422C124.574 257.251 124.917 257.508 124.831 257.851C123.63 260.853 122.601 263.598 121.572 266.343C121.4 266.686 121.829 266.944 122.086 266.686C130.836 257.251 141.215 252.79 154.682 255.02C155.025 255.02 155.025 255.535 154.682 255.621C151.337 256.822 148.335 257.937 144.732 259.224C144.475 259.309 144.475 259.652 144.646 259.824C146.19 260.939 147.305 261.711 148.163 262.312C148.42 262.483 148.335 262.826 147.992 262.912C143.445 263.684 138.642 264.456 133.838 265.314C133.752 266.429 133.752 266.257 133.666 267.373C135.639 268.145 137.698 269.002 140.1 269.86C140.443 270.032 140.357 270.375 140.1 270.461C134.867 272.005 130.064 273.377 125.432 274.664C125.089 274.749 125.089 275.264 125.432 275.264C134.181 276.036 143.016 275.436 149.879 283.413C150.05 283.67 149.879 284.014 149.536 283.928C145.761 282.898 142.502 282.041 138.556 280.926C138.299 280.926 138.041 281.183 138.213 281.44C138.985 282.898 139.499 283.928 140.1 284.957C140.271 285.3 139.928 285.558 139.671 285.386Z" fill="#94A461"/>
<path d="M297.076 299.713C299.821 298.169 302.566 296.539 305.74 294.738C305.997 294.652 306.255 294.824 306.255 294.995C306.426 296.797 306.512 297.912 306.598 299.198C306.683 299.456 306.941 299.627 307.112 299.456C309.085 298.169 310.972 296.882 313.46 295.253C313.717 295.081 313.975 295.167 313.975 295.424C314.318 297.311 315.004 298.855 314.489 299.97C307.97 315.839 307.627 355.984 309.085 372.968C309.085 373.14 318.092 370.223 318.092 370.223C318.349 370.223 315.261 349.722 315.261 349.551C312.86 333.853 313.117 318.155 316.634 302.63C316.977 301.085 317.92 299.713 318.693 298.341C319.722 298.426 319.808 298.426 320.837 298.512C322.295 302.887 323.753 307.262 325.297 311.808C325.383 312.065 325.812 312.065 325.898 311.808C326.241 310.864 326.67 309.921 327.27 308.377C327.442 308.119 327.785 308.119 327.871 308.377C329.501 312.58 330.787 316.097 332.074 319.528C332.16 319.785 332.589 319.785 332.674 319.442C332.96 318.127 333.246 316.812 333.532 315.496C334.476 315.496 334.39 315.496 335.334 315.496C336.106 318.241 336.878 320.986 337.564 323.56C337.65 323.817 337.993 323.903 338.164 323.645C341.424 319.271 342.024 312.923 338.079 307.776C334.819 303.487 330.444 299.97 326.498 296.282C326.327 296.025 326.498 295.681 326.841 295.767C330.616 296.625 334.733 297.569 339.365 298.598C339.623 298.684 339.88 298.341 339.708 298.083C339.022 297.225 338.507 296.368 337.65 295.081C337.478 294.824 337.65 294.566 337.907 294.566C343.225 295.424 347.772 296.282 352.747 297.054C353.09 297.14 353.261 296.711 353.09 296.539C351.975 295.51 351.031 294.652 350.173 293.709C350.688 292.765 350.602 292.937 351.203 291.993C354.891 293.108 358.58 294.137 362.182 295.167C362.354 295.253 362.611 294.995 362.526 294.738C360.209 286.846 353.004 284.616 334.219 286.503C333.875 286.589 333.79 286.074 334.047 285.903C335.162 285.302 336.191 284.702 337.307 284.016C337.564 283.844 337.478 283.501 337.221 283.415C336.106 283.158 335.076 282.9 333.361 282.557C333.103 282.472 333.103 282.043 333.361 281.957C337.907 279.469 341.681 277.496 345.799 275.352C346.056 275.18 345.97 274.751 345.627 274.751L341.767 274.58C341.51 273.379 341.595 273.551 341.338 272.35C344.426 271.149 347.428 269.862 350.345 268.747C350.602 268.661 350.602 268.318 350.345 268.146C342.711 263.772 337.564 266.088 323.925 280.327C323.753 280.584 323.325 280.413 323.41 280.155C324.182 268.404 325.812 256.652 312.345 250.219C312.088 250.047 311.83 250.304 311.916 250.648C313.632 254.25 315.09 257.51 316.634 260.684C315.69 261.37 315.862 261.198 315.004 261.885C313.975 261.027 313.031 260.169 311.83 259.225C311.573 259.054 311.23 259.311 311.316 259.569C312.86 263.943 314.318 267.889 315.69 271.921C315.004 272.435 315.004 272.435 314.404 272.95C313.803 272.607 313.117 272.264 312.345 271.749C312.088 271.578 311.744 271.835 311.916 272.178C313.031 275.18 314.06 277.925 315.176 280.67C315.261 281.013 314.832 281.271 314.575 281.013C305.826 271.578 295.446 267.117 282.065 269.347C281.722 269.433 281.636 269.862 281.979 269.948C285.325 271.149 288.327 272.264 291.93 273.636C292.187 273.722 292.273 273.979 292.015 274.151C290.471 275.266 289.356 276.038 288.498 276.639C288.327 276.81 288.413 277.153 288.67 277.239C293.216 278.011 298.02 278.783 302.823 279.641C302.909 280.756 302.909 280.67 302.995 281.785C301.022 282.557 298.963 283.329 296.562 284.187C296.304 284.359 296.304 284.788 296.562 284.873C301.88 286.332 306.598 287.704 311.316 288.991C311.659 289.076 311.573 289.591 311.23 289.677C302.48 290.449 293.645 289.763 286.783 297.74C286.611 297.997 286.869 298.341 287.126 298.255C290.9 297.225 294.246 296.368 298.106 295.338C298.363 295.253 298.62 295.51 298.534 295.767C297.677 297.225 297.162 298.341 296.562 299.37C296.476 299.627 296.733 299.885 297.076 299.713Z" fill="#94A461"/>
<path d="M76.1961 143.338V377.257H29.6182V143.338H76.1961Z" fill="#516B56"/>
<path d="M78.3382 143.336H27.1283C18.5504 128.239 26.0989 114.6 35.2773 105.164C36.6497 103.706 38.0222 102.333 39.4804 101.047C46.3427 94.9564 52.7761 91.4395 52.7761 91.4395C52.7761 91.4395 66.8439 99.2453 75.5075 111.426C78.5098 115.715 80.9116 120.433 81.7694 125.579C82.7129 131.155 81.9409 137.16 78.3382 143.336Z" fill="#94A461"/>
<path d="M43.0838 143.336C43.0838 143.336 36.5646 115.543 52.7768 91.4395C52.7768 91.4395 22.1538 115.2 31.6753 143.336" stroke="#516B4C" stroke-linecap="round" stroke-linejoin="round"/>
<path d="M62.3856 143.336C62.3856 143.336 68.9047 115.543 52.7783 91.4395C52.7783 91.4395 83.3156 115.2 73.7941 143.336" stroke="#516B4C" stroke-linecap="round" stroke-linejoin="round"/>
<path d="M77.9966 221.739H27.4728C25.1568 221.739 23.3555 219.937 23.3555 217.621V216.42C23.3555 214.19 25.1568 212.389 27.4728 212.389H77.9966C80.3126 212.389 82.114 214.19 82.114 216.42V217.621C82.114 219.937 80.3126 221.739 77.9966 221.739Z" fill="#2F383F"/>
<path d="M77.9966 293.535H27.4728C25.1568 293.535 23.3555 291.734 23.3555 289.504V288.303C23.3555 285.987 25.1568 284.186 27.4728 284.186H77.9966C80.3126 284.186 82.114 285.987 82.114 288.303V289.504C82.114 291.734 80.3126 293.535 77.9966 293.535Z" fill="#2F383F"/>
<path d="M64.0988 197.552H42.5684C42.5684 197.552 40.5955 186.744 41.2817 177.995C42.0537 169.245 47.8009 163.927 53.3765 158.18C53.3765 158.18 53.6338 158.437 54.1485 158.952C56.5503 161.096 63.4984 167.958 64.0988 175.764C64.2704 177.651 64.3562 180.396 64.3562 183.227C64.3562 190.004 64.0988 197.552 64.0988 197.552Z" fill="#EFBE66"/>
<path d="M64.0988 272.605H42.5684C42.5684 272.605 40.5955 261.883 41.2817 253.133C41.9679 245.756 46.0853 240.867 50.6315 236.063C51.5465 235.148 52.4615 234.233 53.3765 233.318C53.3765 233.318 63.3268 241.467 64.0988 250.817C64.1846 251.847 64.2704 253.133 64.2704 254.506C64.442 261.797 64.0988 272.605 64.0988 272.605Z" fill="#EFBE66"/>
<path d="M29.6182 321.672C29.8469 321.672 30.0757 321.672 30.3044 321.672C34.8507 321.844 39.6543 320.729 43.1712 317.984M43.1712 317.984C42.1419 317.555 41.2841 316.954 40.5121 316.182C38.7107 314.381 37.8529 311.465 38.7965 309.149C39.8259 306.832 42.9139 305.46 45.0584 306.661C46.6024 307.519 47.4602 309.406 47.2886 311.121C47.2029 312.923 46.345 314.553 45.2299 315.925C44.6009 316.668 43.9146 317.355 43.1712 317.984ZM43.1712 317.984C44.4579 318.584 45.9162 319.013 47.3744 319.185C52.0922 319.871 56.9816 318.584 60.9274 315.839M60.9274 315.839C59.6408 314.467 58.6972 312.837 58.3541 311.036C58.011 308.977 58.6114 306.747 60.1555 305.46C61.7853 304.173 64.3586 304.259 65.6453 305.889C67.2751 307.948 65.9026 311.036 64.187 313.009C63.2149 314.095 62.1283 315.039 60.9274 315.839ZM60.9274 315.839C61.0418 316.011 61.1562 316.154 61.2706 316.268C64.3586 319.528 68.5618 321.672 73.0223 322.187C74.0516 322.358 75.1095 322.416 76.1961 322.358" stroke="#1D313F" stroke-width="1.5" stroke-miterlimit="10"/>
<path d="M29.6182 354.439C29.8469 354.439 30.0757 354.439 30.3044 354.439C34.8507 354.696 39.6543 353.581 43.1712 350.75M43.1712 350.75C42.1419 350.321 41.2841 349.721 40.5121 348.949C38.7107 347.147 37.8529 344.317 38.7965 342.001C39.8259 339.599 42.9139 338.226 45.0584 339.427C46.6024 340.371 47.4602 342.172 47.2886 343.973C47.2029 345.689 46.345 347.319 45.2299 348.691C44.6009 349.492 43.9146 350.178 43.1712 350.75ZM43.1712 350.75C44.4579 351.436 45.9162 351.779 47.3744 352.037C52.0922 352.637 56.9816 351.35 60.9274 348.691M60.9274 348.691C59.6408 347.233 58.6972 345.603 58.3541 343.802C58.011 341.829 58.6114 339.513 60.1555 338.312C61.7853 337.025 64.3586 337.111 65.6453 338.655C67.2751 340.8 65.9026 343.888 64.187 345.861C63.2149 346.89 62.1283 347.834 60.9274 348.691ZM60.9274 348.691C61.0418 348.806 61.1562 348.92 61.2706 349.034C64.3586 352.38 68.5618 354.524 73.0223 355.039C74.0516 355.153 75.1095 355.182 76.1961 355.125" stroke="#94A461" stroke-width="1.5" stroke-miterlimit="10"/>
<g style="mix-blend-mode:soft-light" opacity="0.4">
<path d="M78.3382 143.336H27.1283C18.5504 128.239 26.0989 114.6 35.2773 105.164C36.6497 103.706 38.0222 102.334 39.4804 101.047C39.4804 101.39 39.4804 101.733 39.4804 102.076C39.652 106.279 42.2253 110.054 45.7423 112.284C49.1734 114.6 53.3766 115.629 57.494 115.972C63.4127 116.487 69.7604 115.715 74.564 112.198C74.9071 111.969 75.2216 111.712 75.5075 111.426C78.5098 115.715 80.9116 120.433 81.7694 125.58C82.7129 131.155 81.9409 137.16 78.3382 143.336Z" fill="#1B1C1E"/>
</g>
<path d="M77.9966 149.942H27.4728C25.1568 149.942 23.3555 148.14 23.3555 145.824V144.623C23.3555 142.393 25.1568 140.506 27.4728 140.506H77.9966C80.3126 140.506 82.114 142.393 82.114 144.623V145.824C82.114 148.14 80.3126 149.942 77.9966 149.942Z" fill="#2F383F"/>
<g style="mix-blend-mode:soft-light" opacity="0.4">
<path d="M55.0945 149.943V377.257H29.6182V149.943H55.0945Z" fill="#1B1C1E"/>
</g>
<g style="mix-blend-mode:soft-light" opacity="0.8">
<path d="M64.3562 183.227C64.3562 190.004 64.0988 197.552 64.0988 197.552H42.5684C42.5684 197.552 40.5955 186.744 41.2817 177.995C42.0537 169.245 47.8009 163.927 53.3765 158.18C53.3765 158.18 53.6338 158.437 54.1485 158.952C53.3765 159.724 52.004 160.581 51.4893 161.182C49.0875 163.841 47.2004 167.015 46.6857 170.618C45.9995 175.507 48.2298 181.083 52.6903 183.227C56.293 185.028 60.4103 184.428 64.3562 183.227Z" fill="#1B1C1E"/>
</g>
<g style="mix-blend-mode:soft-light" opacity="0.8">
<path d="M72.2488 178.163C72.1917 177.877 72.1631 177.619 72.1631 177.391C72.2203 177.619 72.2488 177.877 72.2488 178.163Z" fill="#1B1C1E"/>
</g>
<g style="mix-blend-mode:soft-light" opacity="0.8">
<path d="M64.0988 272.606H42.5684C42.5684 272.606 40.5955 261.884 41.2817 253.134C41.9679 245.757 46.0853 240.868 50.6315 236.064C49.0875 240.782 49.1733 245.843 52.4329 249.789C55.2636 253.306 59.8957 254.936 64.2704 254.507C64.442 261.798 64.0988 272.606 64.0988 272.606Z" fill="#1B1C1E"/>
</g>
<path d="M59.8116 88.3531C59.8116 92.5562 56.4662 95.9874 52.1773 95.9874C47.9741 95.9874 44.543 92.5562 44.543 88.3531C44.543 84.1499 47.9741 80.7188 52.1773 80.7188C56.4662 80.7188 59.8116 84.1499 59.8116 88.3531Z" fill="#2F383F"/>
<path d="M56.3792 75.0586C56.3792 77.2889 54.492 79.176 52.176 79.176C49.9457 79.176 48.0586 77.2889 48.0586 75.0586C48.0586 72.7426 49.9457 70.8555 52.176 70.8555C54.492 70.8555 56.3792 72.7426 56.3792 75.0586Z" fill="#2F383F"/>
<path d="M51.1485 46.4071C48.5751 47.3507 46.2591 49.3236 44.5435 51.468C42.9995 53.5267 41.7986 55.6712 42.2275 58.3303C42.4848 60.0459 43.2568 61.5899 44.2004 63.0482C46.0017 65.7073 48.7467 68.7096 51.9205 69.4816C54.7512 70.1678 57.8392 68.7954 59.8121 66.6509C61.8708 64.5922 63.1575 61.8473 64.3584 59.1881C62.6428 60.3033 60.9273 61.3326 58.9544 61.8473C56.9814 62.4477 54.7512 62.2762 53.1214 61.0753C50.3765 59.1881 50.2907 54.8134 52.5209 52.3258C54.6654 49.8382 58.4397 49.152 61.6135 50.0098C60.3268 48.7231 59.2975 47.2649 57.5819 46.4929C55.4374 45.5493 53.2072 45.6351 51.1485 46.4071Z" fill="#EFBE66"/>
<path d="M386.456 86.5542C386.456 90.7574 383.025 94.1886 378.822 94.1886C374.533 94.1886 371.188 90.7574 371.188 86.5542C371.188 82.3511 374.533 78.9199 378.822 78.9199C383.025 78.9199 386.456 82.3511 386.456 86.5542Z" fill="#2F383F"/>
<path d="M382.939 73.258C382.939 75.574 381.052 77.3754 378.821 77.3754C376.505 77.3754 374.618 75.574 374.618 73.258C374.618 70.942 376.505 69.1406 378.821 69.1406C381.052 69.1406 382.939 70.942 382.939 73.258Z" fill="#2F383F"/>
<path d="M377.792 44.6044C375.133 45.5479 372.817 47.5208 371.101 49.6653C369.557 51.724 368.356 53.9542 368.785 56.5276C369.042 58.2432 369.814 59.873 370.758 61.2455C372.559 63.9046 375.304 66.9069 378.478 67.6789C381.309 68.3651 384.397 66.9926 386.456 64.9339C388.428 62.7895 389.715 60.1303 390.916 57.4712C389.2 58.5005 387.485 59.6157 385.512 60.1303C383.539 60.645 381.309 60.5592 379.679 59.3583C377.02 57.3854 376.934 53.0107 379.079 50.5231C381.223 48.0355 384.997 47.3493 388.171 48.2071C386.884 47.0062 385.855 45.4621 384.139 44.6901C381.995 43.7466 379.765 43.8323 377.792 44.6044Z" fill="#EFBE66"/>
<path d="M402.068 143.338V377.257H355.49V143.338H402.068Z" fill="#516B56"/>
<path d="M404.213 143.336H353.003C344.425 128.239 352.059 114.6 361.152 105.164C362.524 103.706 363.983 102.333 365.355 101.047C372.217 94.9564 378.651 91.4395 378.651 91.4395C378.651 91.4395 392.719 99.2453 401.382 111.426C404.384 115.715 406.786 120.433 407.644 125.579C408.588 131.155 407.816 137.16 404.213 143.336Z" fill="#94A461"/>
<path d="M368.958 143.336C368.958 143.336 362.439 115.543 378.651 91.4395C378.651 91.4395 348.028 115.2 357.635 143.336" stroke="#516B4C" stroke-linecap="round" stroke-linejoin="round"/>
<path d="M388.258 143.336C388.258 143.336 394.777 115.543 378.65 91.4395C378.65 91.4395 409.188 115.2 399.666 143.336" stroke="#516B4C" stroke-linecap="round" stroke-linejoin="round"/>
<path d="M403.955 221.739H353.346C351.116 221.739 349.229 219.937 349.229 217.621V216.42C349.229 214.19 351.116 212.389 353.346 212.389H403.955C406.186 212.389 407.987 214.19 407.987 216.42V217.621C407.987 219.937 406.186 221.739 403.955 221.739Z" fill="#2F383F"/>
<path d="M403.955 293.535H353.346C351.116 293.535 349.229 291.734 349.229 289.504V288.303C349.229 285.987 351.116 284.186 353.346 284.186H403.955C406.186 284.186 407.987 285.987 407.987 288.303V289.504C407.987 291.734 406.186 293.535 403.955 293.535Z" fill="#2F383F"/>
<path d="M389.974 197.552H368.444C368.444 197.552 366.471 186.744 367.243 177.995C367.929 169.245 373.762 163.927 379.252 158.18C379.252 158.18 379.595 158.437 380.109 158.952C382.511 161.096 389.374 167.958 389.974 175.764C390.146 177.651 390.231 180.396 390.231 183.227C390.231 190.004 389.974 197.552 389.974 197.552Z" fill="#EFBE66"/>
<path d="M389.974 272.605H368.444C368.444 272.605 366.471 261.883 367.243 253.133C367.843 245.756 371.96 240.867 376.507 236.063C377.422 235.148 378.337 234.233 379.252 233.318C379.252 233.318 389.288 241.467 389.974 250.817C390.06 251.847 390.146 253.133 390.146 254.506C390.403 261.797 389.974 272.605 389.974 272.605Z" fill="#EFBE66"/>
<path d="M355.49 321.672C355.719 321.672 355.976 321.672 356.262 321.672C360.723 321.844 365.526 320.729 369.043 317.984M369.043 317.984C368.1 317.555 367.156 316.954 366.384 316.182C364.583 314.381 363.725 311.465 364.754 309.149C365.698 306.832 368.786 305.46 371.016 306.661C372.56 307.519 373.332 309.406 373.246 311.121C373.161 312.923 372.303 314.553 371.188 315.925C370.502 316.668 369.787 317.355 369.043 317.984ZM369.043 317.984C370.33 318.584 371.788 319.013 373.246 319.185C377.964 319.871 382.854 318.584 386.8 315.839M386.8 315.839C385.599 314.467 384.569 312.837 384.226 311.036C383.883 308.977 384.483 306.747 386.027 305.46C387.657 304.173 390.231 304.259 391.517 305.889C393.147 307.948 391.86 311.036 390.059 313.009C389.087 314.095 388 315.039 386.8 315.839ZM386.8 315.839C386.914 316.011 387.028 316.154 387.143 316.268C390.231 319.528 394.434 321.672 398.894 322.187C399.981 322.358 401.039 322.416 402.068 322.358" stroke="#1D313F" stroke-width="1.5" stroke-miterlimit="10"/>
<path d="M355.49 354.439C355.719 354.439 355.976 354.439 356.262 354.439C360.723 354.696 365.526 353.581 369.043 350.75M369.043 350.75C368.1 350.321 367.156 349.721 366.384 348.949C364.583 347.147 363.725 344.317 364.754 342.001C365.698 339.599 368.786 338.226 371.016 339.427C372.56 340.371 373.332 342.172 373.246 343.973C373.161 345.689 372.303 347.319 371.188 348.691C370.559 349.492 369.844 350.178 369.043 350.75ZM369.043 350.75C370.33 351.436 371.788 351.779 373.246 352.037C377.964 352.637 382.854 351.35 386.8 348.691M386.8 348.691C385.599 347.233 384.569 345.603 384.226 343.802C383.883 341.829 384.483 339.513 386.027 338.312C387.657 337.025 390.231 337.111 391.517 338.655C393.147 340.8 391.86 343.888 390.059 345.861C389.087 346.89 388 347.834 386.8 348.691ZM386.8 348.691C386.914 348.806 387.028 348.92 387.143 349.034C390.231 352.38 394.434 354.524 398.894 355.039C399.981 355.153 401.039 355.182 402.068 355.125" stroke="#94A461" stroke-width="1.5" stroke-miterlimit="10"/>
<g style="mix-blend-mode:soft-light" opacity="0.4">
<path d="M404.213 143.336H353.003C344.425 128.239 352.059 114.6 361.152 105.164C362.524 103.706 363.983 102.334 365.355 101.047C365.355 101.39 365.355 101.733 365.355 102.076C365.527 106.279 368.186 110.054 371.617 112.284C375.048 114.6 379.251 115.629 383.369 115.972C389.287 116.487 395.635 115.715 400.524 112.198C400.81 111.969 401.096 111.712 401.382 111.426C404.384 115.715 406.786 120.433 407.644 125.58C408.588 131.155 407.816 137.16 404.213 143.336Z" fill="#1B1C1E"/>
</g>
<path d="M403.955 149.942H353.346C351.116 149.942 349.229 148.14 349.229 145.824V144.623C349.229 142.393 351.116 140.506 353.346 140.506H403.955C406.186 140.506 407.987 142.393 407.987 144.623V145.824C407.987 148.14 406.186 149.942 403.955 149.942Z" fill="#2F383F"/>
<g style="mix-blend-mode:soft-light" opacity="0.4">
<path d="M380.967 149.943V377.257H355.49V149.943H380.967Z" fill="#1B1C1E"/>
</g>
<g style="mix-blend-mode:soft-light" opacity="0.8">
<path d="M390.231 183.227C390.231 190.004 389.974 197.552 389.974 197.552H368.444C368.444 197.552 366.471 186.744 367.243 177.995C367.929 169.245 373.762 163.927 379.252 158.18C379.252 158.18 379.595 158.437 380.109 158.952C379.252 159.724 377.879 160.581 377.365 161.182C374.963 163.841 373.161 167.015 372.647 170.618C371.875 175.507 374.105 181.083 378.565 183.227C382.168 185.028 386.286 184.428 390.231 183.227Z" fill="#1B1C1E"/>
</g>
<g style="mix-blend-mode:soft-light" opacity="0.8">
<path d="M389.974 272.606H368.444C368.444 272.606 366.471 261.884 367.243 253.134C367.843 245.757 371.96 240.868 376.507 236.064C375.048 240.782 375.048 245.843 378.308 249.789C381.139 253.306 385.771 254.936 390.146 254.507C390.403 261.798 389.974 272.606 389.974 272.606Z" fill="#1B1C1E"/>
</g>
<path d="M275.631 246.273C238.403 248.933 201.261 249.104 164.29 246.273C137.527 224.314 153.653 198.666 175.27 179.023C195.256 160.923 219.96 148.057 219.96 148.057C219.96 148.057 263.021 170.531 281.464 197.723C292.1 213.506 294.502 230.747 275.631 246.273Z" fill="#94A461"/>
<g style="mix-blend-mode:soft-light" opacity="0.4">
<path d="M275.631 246.272C238.403 248.931 201.261 249.103 164.29 246.272C137.527 224.313 153.653 198.665 175.27 179.021C190.452 193.175 221.419 208.358 281.464 197.721C292.1 213.505 294.502 230.746 275.631 246.272Z" fill="#1B1C1E"/>
</g>
<path d="M311.056 372.797C311.056 372.797 261.047 386.007 222.79 384.034H216.785C178.528 386.007 128.519 372.797 128.519 372.797C121.828 348.865 123.115 331.023 127.146 318.07C133.494 297.741 146.618 289.592 146.618 289.592H292.957C292.957 289.592 304.88 297.055 311.485 315.325C316.203 328.45 318.176 347.149 311.056 372.797Z" fill="#94A461"/>
<g style="mix-blend-mode:soft-light" opacity="0.7">
<path d="M311.486 315.325C303.166 323.474 291.414 326.906 280.091 329.307C232.741 339.343 182.732 336.856 136.669 322.102C133.409 320.987 130.064 319.786 127.147 318.07C133.495 297.741 146.619 289.592 146.619 289.592H292.958C292.958 289.592 304.881 297.055 311.486 315.325Z" fill="#1B1C1E"/>
</g>
<path d="M291.329 311.547C287.956 312.176 284.553 312.748 281.122 313.263C271.057 314.75 260.964 315.836 250.842 316.522C245.123 316.98 239.405 317.266 233.686 317.38C223.679 317.666 213.614 317.609 203.492 317.209C199.946 317.037 196.401 316.837 192.855 316.608C182.848 315.979 172.783 314.978 162.661 313.606C157.972 313.034 153.283 312.348 148.594 311.547C139.415 265.57 164.291 246.27 164.291 246.27H275.632C298.964 259.565 291.329 311.547 291.329 311.547Z" fill="#2F383F"/>
<path d="M224.764 259.655C191.911 259.655 156.055 252.878 154.511 252.621C150.308 251.849 147.563 247.732 148.421 243.529C149.193 239.325 153.224 236.58 157.427 237.438C157.771 237.438 193.369 244.129 224.764 244.129C255.987 244.129 279.834 238.725 280.091 238.725C284.209 237.696 288.412 240.355 289.355 244.472C290.299 248.675 287.725 252.793 283.522 253.736C282.493 253.994 257.874 259.655 224.764 259.655Z" fill="#516B56"/>
<path d="M192.855 316.613C182.847 315.984 172.782 314.983 162.66 313.61C161.717 301.258 160.773 269.606 177.758 268.748C178.272 268.691 178.787 268.691 179.302 268.748C188.909 269.263 192.769 278.098 194.056 288.134C195.428 299.285 193.627 311.981 192.855 316.613Z" fill="#EFBE66"/>
<path d="M233.683 317.384C223.676 317.67 213.611 317.613 203.489 317.212C202.889 311.379 202.117 298.598 204.261 287.876C206.234 278.097 210.694 270.034 219.959 270.549C227.593 270.978 231.624 276.725 233.597 284.273C236.514 295.682 234.713 311.036 233.683 317.384Z" fill="#EFBE66"/>
<path d="M281.12 313.267C271.055 314.753 260.962 315.84 250.84 316.526C250.411 313.61 249.553 307.605 249.296 300.829C248.781 286.761 250.926 269.434 264.479 268.747C266.28 268.661 267.91 268.833 269.454 269.434C282.664 274.066 281.977 301.515 281.12 313.267Z" fill="#EFBE66"/>
<path d="M219.96 148.057C219.96 148.057 172.524 186.486 181.36 254.165" stroke="#516B4C" stroke-width="2" stroke-linecap="round" stroke-linejoin="round"/>
<path d="M219.96 252.619C219.96 252.619 213.098 174.904 219.96 141.793" stroke="#516B4C" stroke-width="2" stroke-linecap="round" stroke-linejoin="round"/>
<path d="M255.816 246.272C255.816 246.272 276.488 193.089 220.646 148.398" stroke="#516B4C" stroke-width="2" stroke-linecap="round" stroke-linejoin="round"/>
<path d="M216.958 137.507L219.017 95.6465H219.874L221.933 137.507H216.958Z" fill="#2F383F"/>
<path d="M227.079 143.337C227.079 147.541 223.648 150.972 219.445 150.972C215.242 150.972 211.811 147.541 211.811 143.337C211.811 139.134 215.242 135.703 219.445 135.703C223.648 135.703 227.079 139.134 227.079 143.337Z" fill="#EFBE66"/>
<g style="mix-blend-mode:soft-light" opacity="0.8">
<path d="M192.855 316.609C182.847 315.98 172.782 314.979 162.66 313.606C161.717 301.254 160.773 269.602 177.758 268.744C174.755 277.579 167.721 291.218 181.789 294.049C186.593 295.078 191.825 292.505 194.056 288.13C195.428 299.281 193.627 311.977 192.855 316.609Z" fill="#1B1C1E"/>
</g>
<g style="mix-blend-mode:soft-light" opacity="0.8">
<path d="M233.683 317.384C223.676 317.67 213.611 317.613 203.489 317.213C202.889 311.38 202.117 298.599 204.261 287.876C204.604 288.048 204.976 288.334 205.376 288.734C207.864 291.479 209.408 293.966 213.354 294.91C218.843 296.197 224.676 293.966 228.88 290.192C230.681 288.477 232.311 286.418 233.597 284.273C236.514 295.682 234.713 311.036 233.683 317.384Z" fill="#1B1C1E"/>
</g>
<g style="mix-blend-mode:soft-light" opacity="0.8">
<path d="M281.121 313.267C271.056 314.753 260.963 315.84 250.841 316.526C250.412 313.61 249.554 307.605 249.297 300.829C251.699 302.115 254.358 302.887 257.103 302.802C261.735 302.802 266.367 300.486 269.283 296.797C272.629 292.422 273.486 286.504 272.8 281.1C272.457 278.526 271.771 276.039 270.999 273.551C270.57 272.264 269.712 270.806 269.455 269.434C282.665 274.066 281.979 301.515 281.121 313.267Z" fill="#1B1C1E"/>
</g>
<path d="M156.312 255.881C156.826 259.312 159.056 262.143 161.544 262.743C164.032 263.344 166.691 261.628 168.063 258.626C168.749 261.714 170.894 263.944 173.21 263.944C175.44 264.03 177.67 261.885 178.442 258.883C178.957 261.371 180.587 263.344 182.388 263.773C184.275 264.201 186.248 263.172 187.363 261.113C188.993 266.003 194.74 266.861 197.056 262.4C197.571 264.545 199.029 266.174 200.659 266.26C202.289 266.346 203.833 264.973 204.519 262.915C204.948 265.231 206.578 267.032 208.208 267.032C209.923 266.946 211.553 265.231 211.982 262.915C213.269 267.204 217.729 268.834 220.474 266.089C221.246 267.89 222.79 268.919 224.248 268.662C225.792 268.405 227.079 266.775 227.508 264.802C228.28 266.861 229.91 268.233 231.625 268.147C233.255 268.147 234.885 266.603 235.571 264.459C236.257 266.346 237.801 267.633 239.431 267.547C240.975 267.375 242.433 266.003 243.034 263.944C244.149 267.032 248.009 266.689 248.867 263.344C249.639 265.317 251.354 266.432 252.898 266.26C254.528 266.003 255.987 264.373 256.501 262.229C257.187 263.773 258.646 264.63 259.932 264.201C261.133 263.773 262.163 262.057 262.248 260.256C263.792 263.601 267.91 263.515 269.368 260.084C271.084 262.915 274.944 261.028 275.201 257.425C276.23 259.998 279.49 259.569 280.262 256.739C280.605 258.025 281.72 258.797 282.664 258.283C283.607 257.768 284.036 256.052 283.607 254.852" stroke="#FBFAF6" stroke-linejoin="round"/>
<path d="M124.316 340.8C125.174 345.947 128.434 350.236 132.208 351.093C135.982 352.037 140.014 349.464 142.073 345.003C143.102 349.549 146.276 352.895 149.707 352.98C153.138 353.066 156.483 349.807 157.513 345.26C158.371 349.035 160.772 351.951 163.517 352.637C166.348 353.324 169.35 351.694 171.066 348.606C173.468 356.069 182.046 357.269 185.562 350.664C186.334 353.838 188.565 356.24 190.967 356.412C193.368 356.583 195.77 354.439 196.714 351.436C197.4 354.868 199.802 357.527 202.289 357.527C204.863 357.527 207.265 354.782 207.865 351.351C209.924 357.784 216.614 360.272 220.646 356.154C221.847 358.813 224.163 360.357 226.393 360.014C228.623 359.585 230.596 357.184 231.283 354.181C232.398 357.355 234.885 359.414 237.373 359.242C239.946 359.157 242.348 356.926 243.377 353.667C244.407 356.583 246.723 358.47 249.125 358.299C251.441 358.127 253.671 355.983 254.529 352.895C256.158 357.613 262.077 357.012 263.278 352.037C264.479 354.953 267.052 356.755 269.454 356.326C271.856 355.983 274 353.495 274.772 350.321C275.802 352.637 277.946 353.924 279.919 353.238C281.806 352.637 283.35 350.064 283.436 347.319C285.666 352.38 291.928 352.294 294.073 347.148C296.646 351.351 302.565 348.606 302.822 343.116C304.452 346.976 309.341 346.29 310.456 342.172C310.971 344.059 312.687 345.175 314.059 344.403C315.432 343.631 316.118 341.143 315.517 339.256" stroke="#FBFAF6" stroke-linejoin="round"/>
<path d="M225.622 326.905C188.136 326.905 147.305 320.214 145.59 319.957C140.872 319.185 137.698 315.068 138.642 310.864C139.5 306.661 144.132 303.916 148.935 304.774C149.278 304.774 189.852 311.465 225.622 311.465C261.134 311.465 288.24 306.061 288.583 306.061C293.301 305.032 298.019 307.691 299.134 311.808C300.163 316.011 297.247 320.129 292.529 321.072C291.328 321.33 263.278 326.905 225.622 326.905Z" fill="#516B56"/>
<path d="M-34.9738 387.977H138.385C138.643 387.977 138.986 387.892 139.243 387.892C139.586 379.142 137.27 370.135 132.038 363.102C126.891 356.068 118.656 351.093 109.821 350.578C101.071 350.149 92.0647 354.524 87.6042 362.072C90.0918 353.323 85.717 343.115 77.7396 338.74C69.7622 334.28 58.7825 336.167 52.6922 342.944C55.094 329.819 57.41 315.838 52.006 303.657C47.8886 294.479 39.3964 287.445 29.6176 285.129C19.8389 282.727 9.11651 285.214 1.31064 291.476C-7.4388 298.424 -4.35077 312.492 -0.404938 322.871C-4.77966 317.124 -13.5291 316.867 -20.1341 319.612C-29.0551 323.386 -35.8316 331.878 -37.3756 341.485C-39.0054 351.007 -35.3169 361.3 -28.1115 367.734C-34.116 366.876 -41.0641 366.361 -45.5246 370.479C-48.9557 373.738 -49.7277 379.4 -47.2401 383.431C-44.7526 387.377 -39.3485 389.607 -34.9738 387.977Z" fill="#FBFAF6"/>
<path d="M476.438 387.981H323.581C323.295 387.981 323.037 387.981 322.809 387.981C322.551 380.26 324.61 372.369 329.156 366.107C333.702 359.845 340.994 355.47 348.714 355.041C356.434 354.698 364.411 358.558 368.357 365.249C366.213 357.443 369.987 348.437 377.021 344.576C384.14 340.716 393.748 342.346 399.152 348.351C397.007 336.771 394.949 324.418 399.752 313.696C403.441 305.633 410.903 299.371 419.481 297.312C428.145 295.254 437.581 297.398 444.529 302.888C452.163 309.064 449.504 321.416 445.987 330.594C449.847 325.619 457.567 325.276 463.4 327.764C471.292 331.023 477.21 338.572 478.669 346.978C480.041 355.47 476.782 364.477 470.434 370.139C475.752 369.452 481.928 368.938 485.788 372.626C488.791 375.457 489.477 380.518 487.247 384.035C485.102 387.552 480.298 389.439 476.438 387.981Z" fill="#FBFAF6"/>
</g>
<mask id="mask1_2183_459" style="mask-type:alpha" maskUnits="userSpaceOnUse" x="-84" y="318" width="601" height="114">
<rect width="601" height="112.492" transform="matrix(1 0 0 -1 -84 431.246)" fill="#D9D9D9"/>
</mask>
<g mask="url(#mask1_2183_459)">
<path d="M223.465 425.378C237.943 451.522 228.465 484.437 202.321 498.915C176.177 513.393 143.262 503.915 128.888 477.771C114.41 451.627 123.889 418.712 150.033 404.234C176.177 389.756 209.091 399.234 223.465 425.378Z" fill="white"/>
<path d="M199.613 381.319C210.133 400.484 203.259 424.441 184.198 434.961C165.136 445.481 141.076 438.606 130.556 419.545C120.035 400.484 126.91 376.423 145.971 365.903C165.032 355.383 189.093 362.258 199.613 381.319Z" fill="white"/>
<path d="M70.1425 442.877C83.6832 467.355 74.8297 498.29 50.2481 511.831C25.7706 525.372 -5.16475 516.518 -18.7055 491.937C-32.2462 467.459 -23.3927 436.524 1.18896 422.983C25.6664 409.442 56.6018 418.296 70.1425 442.877Z" fill="white"/>
<path d="M51.0823 365.176C58.7901 379.133 53.6863 396.84 39.7289 404.548C25.7716 412.256 8.16861 407.152 0.356644 393.195C-7.35116 379.237 -2.24735 361.634 11.71 353.822C25.6674 346.115 43.2703 351.218 51.0823 365.176Z" fill="white"/>
<path d="M238.048 394.964C244.506 406.838 240.235 421.629 228.465 428.191C216.695 434.649 201.904 430.378 195.342 418.608C188.78 406.838 193.051 391.943 204.925 385.485C216.695 378.923 231.486 383.194 238.048 394.964Z" fill="white"/>
<path d="M158.573 345.697C172.531 371.008 163.365 402.777 138.054 416.734C112.847 430.691 80.9744 421.525 67.017 396.319C53.0597 371.008 62.2257 339.239 87.5364 325.282C112.743 311.325 144.512 320.491 158.573 345.697Z" fill="white"/>
<path d="M18.8963 425.588C33.4787 452.149 23.896 485.48 -2.5605 500.167C-29.1212 514.853 -62.4522 505.166 -77.1387 478.71C-91.8252 452.149 -82.1383 418.818 -55.6818 404.132C-29.1212 389.549 4.20984 399.132 18.8963 425.588Z" fill="white"/>
<path d="M65.7684 407.258C80.3507 433.714 70.7681 467.149 44.3116 481.732C17.7509 496.418 -15.5801 486.835 -30.2666 460.275C-44.9531 433.818 -35.2663 400.487 -8.80977 385.801C17.7509 371.114 51.0819 380.697 65.7684 407.258Z" fill="white"/>
<path d="M176.594 386.841C198.78 426.943 184.198 477.356 144.097 499.542C103.995 521.728 53.5822 507.145 31.3962 467.044C9.21026 426.943 23.7926 376.529 63.894 354.343C103.995 332.157 154.409 346.74 176.594 386.841Z" fill="white"/>
<path d="M209.614 425.377C195.136 451.521 204.614 484.436 230.759 498.914C256.903 513.392 289.818 503.914 304.192 477.769C318.67 451.625 309.191 418.71 283.047 404.232C256.903 389.754 223.988 399.232 209.614 425.377Z" fill="white"/>
<path d="M233.466 381.321C222.946 400.486 229.821 424.443 248.882 434.964C267.943 445.484 292.004 438.609 302.525 419.548C313.045 400.486 306.17 376.425 287.109 365.905C268.047 355.385 243.986 362.26 233.466 381.321Z" fill="white"/>
<path d="M362.938 442.876C349.397 467.353 358.25 498.289 382.832 511.83C407.31 525.371 438.246 516.517 451.787 491.935C465.327 467.458 456.474 436.522 431.892 422.981C407.414 409.44 376.479 418.294 362.938 442.876Z" fill="white"/>
<path d="M381.999 365.174C374.291 379.132 379.395 396.839 393.353 404.547C407.31 412.255 424.913 407.151 432.725 393.193C440.433 379.236 435.329 361.633 421.372 353.821C407.414 346.113 389.811 351.217 381.999 365.174Z" fill="white"/>
<path d="M195.032 394.962C188.574 406.836 192.845 421.627 204.615 428.189C216.385 434.647 231.176 430.377 237.738 418.606C244.3 406.836 240.029 391.941 228.155 385.483C216.385 378.921 201.594 383.192 195.032 394.962Z" fill="white"/>
<path d="M274.506 345.696C260.549 371.007 269.715 402.776 295.026 416.733C320.232 430.69 352.106 421.524 366.063 396.318C380.021 371.007 370.854 339.238 345.543 325.28C320.337 311.323 288.568 320.489 274.506 345.696Z" fill="white"/>
<path d="M414.185 425.587C399.602 452.148 409.185 485.479 435.642 500.166C462.203 514.852 495.534 505.165 510.221 478.708C524.907 452.148 515.22 418.816 488.764 404.13C462.203 389.547 428.871 399.13 414.185 425.587Z" fill="white"/>
<path d="M367.312 407.256C352.729 433.713 362.312 467.148 388.769 481.731C415.33 496.417 448.661 486.834 463.348 460.274C478.034 433.817 468.347 400.485 441.891 385.799C415.33 371.112 381.998 380.695 367.312 407.256Z" fill="white"/>
<path d="M256.485 386.84C234.299 426.941 248.881 477.355 288.983 499.541C329.085 521.727 379.499 507.145 401.685 467.043C423.871 426.941 409.288 376.528 369.187 354.342C329.085 332.155 278.671 346.738 256.485 386.84Z" fill="white"/>
</g>
</svg>
